<?xml version="1.0" standalone="no"?>
<!DOCTYPE svg PUBLIC "-//W3C//DTD SVG 1.1//EN" "http://www.w3.org/Graphics/SVG/1.1/DTD/svg11.dtd" >
<svg xmlns="http://www.w3.org/2000/svg">
<metadata>
Copyright   : Copyright 2000-2011 Luc(as) de Groot. All rights reserved. Published by LucasFonts.com
Designer    : Luc(as) de Groot
Foundry     : LucasFonts
Foundry URL : http://lucasfonts.com
</metadata>
<defs>
<font id="TheSerif_T7_" horiz-adv-x="1126" >
<font-face units-per-em="2048" ascent="1516" descent="-532" />
<missing-glyph horiz-adv-x="446" />
<glyph unicode="fb" horiz-adv-x="1912" d="M495 191q37 -3 80 -10t83 -16v-165h-602v165q40 9 86 16t92 10v625h-205v202h205v74q0 105 30.5 183.5t97.5 131t173 79t256 26.5q88 0 187.5 -9t194.5 -24v-422q0 -24 -1 -50t-3.5 -52.5t-5.5 -51t-6 -44.5l3 -1q19 41 49.5 75t69.5 57t86.5 36t100.5 13q91 0 161 -32.5 t117.5 -93.5t72 -150t24.5 -202q0 -129 -36.5 -235.5t-106.5 -183.5t-171.5 -119.5t-231.5 -42.5q-62 0 -113 3t-96 9.5t-88 15.5t-86 20v1260q-21 2 -43 4.5t-44 4t-42.5 2.5t-38.5 1q-129 0 -189 -50.5t-60 -161.5v-70h228v-202h-228v-625zM1566 535q0 71 -10.5 125 t-32 90t-54.5 54t-77 18q-35 0 -64.5 -12.5t-53.5 -35t-43 -53t-32 -67t-19.5 -77.5t-6.5 -83v-287q29 -10 61.5 -14t75.5 -4q55 0 102 18.5t81 60t53.5 107t19.5 160.5z" />
<glyph unicode="fh" horiz-adv-x="2001" d="M1538 0v652q0 39 -6.5 70.5t-21 53t-39 33t-60.5 11.5q-50 0 -93 -26t-75 -71t-50 -104.5t-18 -127.5v-300q37 -3 76 -8.5t74 -13.5v-169h-557v165q33 9 70.5 16t75.5 10v1097q-40 6 -81.5 9t-77.5 3q-70 0 -119 -14t-80.5 -41t-46 -67.5t-14.5 -94.5v-65h243v-202h-243 v-625q37 -3 74.5 -10t71.5 -16v-165h-585v165q40 9 86 16t92 10v625h-205v202h205v74q0 105 30.5 183.5t97.5 131t173.5 79t256.5 26.5q88 0 188 -9t195 -24v-421q0 -23 -1 -50t-3 -54t-5.5 -54t-8.5 -49h3q22 41 55 76.5t75 60t93.5 38t110.5 13.5q87 0 145 -25.5t93 -69.5 t50.5 -103t15.5 -125v-525q42 -3 86 -10t80 -16v-165h-426z" />
<glyph unicode="fj" horiz-adv-x="1317" d="M1173 -77q0 -102 -20 -182t-66.5 -135.5t-122.5 -84t-187 -28.5q-34 0 -73 5t-71 14l17 223q28 -11 61 -17t60 -6q40 0 67.5 9.5t43.5 31.5t23 57.5t7 86.5v919h-417v-625q37 -3 80 -10t83 -16v-165h-602v165q40 9 86 16t92 10v625h-205v202h205v36q0 126 40.5 213 t113 141t172.5 79t218 25q86 0 173 -10.5t162 -29.5l-48 -216q-32 9 -68 16.5t-72.5 12.5t-72 8t-66.5 3q-81 0 -137 -16t-90.5 -45.5t-49 -71.5t-14.5 -96v-49h678v-1095v0z" />
<glyph unicode="fk" horiz-adv-x="1929" d="M1549 0l-374 516v-325q36 -3 68.5 -8.5t60.5 -13.5v-169h-536v165q33 9 70.5 16t75.5 10v1097q-40 6 -81.5 9t-77.5 3q-70 0 -119 -14t-80.5 -41t-46 -67.5t-14.5 -94.5v-65h243v-202h-243v-625q37 -3 74.5 -10t71.5 -16v-165h-585v165q40 9 86 16t92 10v625h-205v202 h205v74q0 105 30.5 183.5t97.5 131t173.5 79t256.5 26.5q88 0 188 -9t195 -24v-922l233 274q-29 4 -53.5 8t-42.5 10v169h549v-169q-29 -7 -65 -12.5t-70 -8.5l-258 -279l276 -356q33 -4 70 -10t76 -13v-170h-341z" />
<glyph unicode="ff" horiz-adv-x="1442" d="M1476 1280q-36 10 -70.5 14.5t-64.5 4.5q-86 0 -129 -46.5t-43 -148.5v-86h243v-202h-243v-625q46 -3 92 -10t86 -16v-165h-586v165q34 9 71.5 16t74.5 10v625h-412v-625q37 -3 74.5 -10t71.5 -16v-165h-585v165q40 9 86 16t92 10v625h-205v202h205v36q0 101 26 183 t84.5 140t151.5 89t228 31q87 0 174.5 -11t166.5 -36q20 13 45 24t56.5 19.5t69.5 13.5t85 5q42 0 84.5 -4.5t88.5 -13.5zM935 1252q-48 16 -95 23t-92 7q-67 0 -115 -12.5t-78.5 -38t-45 -65.5t-14.5 -95v-53h412v73q0 48 7.5 88t20.5 73z" />
<glyph unicode="fi" horiz-adv-x="1380" d="M768 0v165q33 9 70.5 16t75.5 10v625h-419v-625q37 -3 74.5 -10t71.5 -16v-165h-585v165q40 9 86 16t92 10v625h-205v202h205v36q0 126 40.5 213t113 141t172.5 79t218 25q87 0 173.5 -10.5t163.5 -29.5l-48 -216q-33 9 -69 16.5t-72.5 12.5t-72 8t-67.5 3 q-81 0 -137 -16t-90.5 -45.5t-49 -71.5t-14.5 -96v-49h680v-827q44 -3 86.5 -10t79.5 -16v-165h-573z" />
<glyph unicode="fl" horiz-adv-x="1379" d="M768 0v165q33 9 70.5 16t75.5 10v1097q-40 6 -81.5 9t-77.5 3q-70 0 -119 -14t-80.5 -41t-46 -67.5t-14.5 -94.5v-65h243v-202h-243v-625q37 -3 74.5 -10t71.5 -16v-165h-585v165q40 9 86 16t92 10v625h-205v202h205v74q0 105 30.5 183.5t97.5 131t173.5 79t256.5 26.5 q88 0 187 -9t196 -24v-1288q44 -3 86.5 -10t79.5 -16v-165h-573z" />
<glyph unicode="ffi" horiz-adv-x="2050" d="M1440 0v165q33 9 70.5 16t75.5 10v625h-417v-625q37 -3 74.5 -10t70.5 -16v-165h-553v165q34 9 71.5 16t74.5 10v625h-412v-625q37 -3 74.5 -10t71.5 -16v-165h-585v165q40 9 86 16t92 10v625h-205v202h205v36q0 101 26 183t84.5 140t151.5 89t228 31q50 0 100.5 -4 t100 -12t96 -19t87.5 -25q62 35 146.5 55t197.5 20q85 0 172.5 -10.5t162.5 -29.5l-48 -216q-32 9 -68 16.5t-72.5 12.5t-72 8t-66.5 3q-81 0 -137 -16t-90.5 -45.5t-49 -71.5t-14.5 -96v-49h678v-827q43 -3 86 -10t80 -16v-165h-573zM943 1244q-23 9 -47.5 16.5t-51 12 t-53.5 7t-54 2.5q-63 0 -108.5 -12.5t-75.5 -38t-44 -65.5t-14 -95v-53h412v39q0 49 9 99.5t27 87.5z" />
<glyph unicode="ffl" horiz-adv-x="2050" d="M1440 0v165q33 9 70.5 16t75.5 10v1097q-18 2 -37.5 4.5t-40 4t-41 2.5t-39.5 1q-70 0 -119 -14t-80 -41t-45.5 -67.5t-14.5 -94.5v-65h243v-202h-243v-625q37 -3 74.5 -10t70.5 -16v-165h-553v165q34 9 71.5 16t74.5 10v625h-412v-625q37 -3 74.5 -10t71.5 -16v-165 h-585v165q40 9 86 16t92 10v625h-205v202h205v36q0 101 26 183t84.5 140t151.5 89t228 31q49 0 99 -3.5t98 -11.5t93.5 -18.5t86.5 -24.5q63 36 152 54.5t212 18.5q88 0 187.5 -9t194.5 -24v-1288q43 -3 86 -10t80 -16v-165h-573zM936 1248q-22 8 -45.5 14.5t-49 11t-52 6.5 t-52.5 2q-63 0 -108.5 -12.5t-75.5 -38t-44 -65.5t-14 -95v-53h412v74q0 45 8.5 86t20.5 70z" />
<glyph unicode=" "  horiz-adv-x="446" />
<glyph unicode="&#x09;" horiz-adv-x="446" />
<glyph unicode="&#xa0;" horiz-adv-x="446" />
<glyph unicode="!" horiz-adv-x="657" d="M461 384h-226l-42 1066h307zM505 133q0 -33 -12.5 -61t-34 -49t-51 -33.5t-62.5 -12.5q-34 0 -63 12.5t-50.5 33.5t-34 49t-12.5 61q0 32 12.5 60.5t34 49.5t50.5 33t63 12q33 0 62.5 -12t51 -33t34 -49.5t12.5 -60.5z" />
<glyph unicode="&#x22;" horiz-adv-x="829" d="M705 917h-195l-34 521h263zM318 917h-195l-33 521h263z" />
<glyph unicode="#" horiz-adv-x="1421" d="M1026 361l-38 -361h-226l38 361h-251l-39 -361h-226l38 361h-267v192h287l33 306h-261v192h282l34 331h226l-34 -331h251l34 331h227l-35 -331h267v-192h-287l-32 -306h261v-192h-282zM853 859h-251l-33 -306h251z" />
<glyph unicode="$" horiz-adv-x="1026" d="M141 406h178q7 -36 11.5 -70t7.5 -66q22 -5 46 -7.5t44 -2.5q48 0 89.5 8.5t72 27.5t48 48t17.5 70q0 43 -24 72t-63.5 51t-90 40t-103 39.5t-103 49t-90 68t-63.5 97t-24 136.5q0 68 24.5 128t68 107.5t104.5 80t133 46.5v215h188v-201q126 -6 240 -30v-326h-174 q-18 73 -21 135q-20 3 -41 5.5t-41 2.5q-55 0 -95 -11t-65.5 -30t-37.5 -43.5t-12 -52.5q0 -40 24.5 -68t64 -49.5t90.5 -40.5t104.5 -41.5t104.5 -51t90.5 -69.5t64 -98t24.5 -135q0 -70 -24.5 -132.5t-69.5 -113t-109 -87t-143 -54.5v-250h-187v236q-69 2 -130.5 9.5 t-127.5 23.5v334z" />
<glyph unicode="%" horiz-adv-x="1678" d="M755 1090q0 -87 -29 -155.5t-77.5 -116.5t-112.5 -73t-133 -25q-74 0 -134.5 21.5t-103.5 64.5t-67 107t-24 149q0 87 28.5 154.5t76.5 114t111 71t131 24.5q70 0 131 -19t106.5 -59.5t71 -104t25.5 -153.5zM536 1076q0 47 -8 79.5t-22.5 52.5t-37 28.5t-52.5 8.5 q-25 0 -47 -11.5t-39 -33.5t-26 -54t-9 -72q0 -47 7.5 -80t22.5 -53.5t36.5 -30t50.5 -9.5q26 0 49 11.5t39.5 33.5t26 55t9.5 75zM421 -54l-188 136l995 1354l187 -136zM1580 326q0 -87 -29 -155.5t-78 -116t-112.5 -72.5t-133.5 -25q-73 0 -133.5 21.5t-103.5 64.5 t-67 106.5t-24 148.5q0 87 28.5 155t76.5 114t110.5 70.5t130.5 24.5q70 0 131 -19t106.5 -59.5t71.5 -104t26 -153.5zM1361 312q0 47 -8 79.5t-23 52.5t-37.5 28.5t-52.5 8.5q-25 0 -47 -11.5t-38.5 -33.5t-25.5 -54t-9 -72q0 -47 7.5 -80t22.5 -53.5t36.5 -30t49.5 -9.5 q27 0 49.5 11.5t39.5 34t26.5 55t9.5 74.5z" />
<glyph unicode="&#x26;" horiz-adv-x="1690" d="M1305 0q-58 41 -114.5 82.5t-97.5 74.5q-49 -38 -107.5 -71t-125 -57.5t-141.5 -38t-157 -13.5q-120 0 -208 32.5t-145 88t-84.5 130t-27.5 156.5q0 66 18.5 123.5t52.5 109.5t82 99t106 93q-46 55 -79 102t-54 91t-31 85.5t-10 86.5q0 68 26.5 129t78.5 107.5 t127.5 72.5t174.5 26q89 0 157 -20t114.5 -60t70 -95.5t23.5 -123.5q0 -54 -14.5 -103.5t-44.5 -98t-76 -96.5t-109 -97q38 -37 81.5 -78.5t92 -83.5t99 -84.5t99.5 -80.5v-2q18 26 34 55.5t28.5 63.5t21 71t12.5 78q-31 3 -60 7.5t-56 11.5v169h530v-169q-35 -8 -73.5 -14 t-75.5 -10q-15 -114 -57 -216.5t-107 -188.5q53 -40 108 -80.5t104 -74.5q32 -4 63 -8.5t61 -11.5v-169h-310zM696 1191q0 25 -7.5 47.5t-23 40t-39 27t-56.5 9.5q-28 0 -51.5 -9t-41 -26.5t-27 -41t-9.5 -51.5q0 -22 6 -45.5t19.5 -51t36 -59t54.5 -68.5q33 28 58.5 55 t43.5 55t27.5 57t9.5 61zM901 301q-52 42 -106.5 89t-105.5 93.5t-97 90t-82 79.5q-37 -32 -64 -62.5t-43 -59.5t-24.5 -57.5t-8.5 -57.5q0 -42 16.5 -81.5t45.5 -69t73 -47.5t100 -18q46 0 88 8t79 22t69.5 32t59.5 39z" />
<glyph unicode="'" horiz-adv-x="443" d="M318 917h-195l-33 521h263z" />
<glyph unicode="(" horiz-adv-x="627" d="M409 -440q-86 135 -143.5 265.5t-93 258t-50.5 252t-15 247.5q0 121 16 247.5t52 255.5t93.5 261t142.5 265l192 -89q-117 -206 -178 -441t-61 -489q0 -130 15.5 -253.5t46 -241.5t76.5 -230t106 -217z" />
<glyph unicode=")" horiz-adv-x="627" d="M525 589q0 -121 -16 -247.5t-52 -256t-94 -261t-143 -264.5l-192 88q117 207 178.5 442.5t61.5 489.5q0 259 -61 494.5t-181 446.5l199 91q85 -135 142.5 -265.5t92.5 -258t50 -252t15 -247.5z" />
<glyph unicode="*" horiz-adv-x="786" d="M624 927l-174 139l34 -220h-188l34 220l-176 -138l-91 160l208 82l-208 82l93 161l175 -139l-34 221h186l-32 -221l174 139l93 -161l-209 -82l209 -82z" />
<glyph unicode="+" d="M687 501v-383h-248v383h-359v218h359v380h248v-380h359v-218h-359z" />
<glyph unicode="," horiz-adv-x="528" d="M261 305q49 0 87 -25.5t59 -71.5t21.5 -108t-26.5 -135.5t-85 -154.5t-153 -165l-108 97q52 56 80.5 101.5t37.5 83t-0.5 69.5t-33.5 61q-19 22 -27.5 49t-7 54.5t13 54t31 46.5t48 32t63.5 12z" />
<glyph unicode="-" horiz-adv-x="684" d="M90 463v210h503v-210h-503z" />
<glyph unicode="&#xad;" horiz-adv-x="684" d="M90 463v210h503v-210h-503z" />
<glyph unicode="." horiz-adv-x="528" d="M431 145q0 -34 -13.5 -64.5t-36 -53.5t-53 -36.5t-64.5 -13.5t-64.5 13.5t-53.5 36.5t-36 53.5t-13 64.5t13 64t36 53t53.5 36.5t64.5 13.5t64.5 -13.5t53 -36.5t36 -53t13.5 -64z" />
<glyph unicode="/" horiz-adv-x="949" d="M235 -330h-258l717 1880h258z" />
<glyph unicode="0" horiz-adv-x="1253" d="M1169 546q0 -136 -45.5 -242.5t-123 -179t-179.5 -111t-213 -38.5q-108 0 -203 29.5t-166 94.5t-112.5 169.5t-41.5 253.5q0 133 45 238t121.5 178.5t178.5 112.5t216 39q96 0 172 -20.5t134 -56.5t99 -86.5t67 -110.5t38.5 -129t12.5 -141zM907 534q0 73 -17 133.5 t-51.5 104t-86 68.5t-120.5 25q-58 0 -110 -22t-91 -64t-61.5 -103.5t-22.5 -141.5q0 -73 16.5 -134.5t50.5 -105.5t86 -69t124 -25q57 0 108.5 22t90 64.5t61.5 104.5t23 143z" />
<glyph unicode="1" horiz-adv-x="772" d="M66 0v167q46 9 100.5 16t114.5 10v636l-209 -87l-41 209l315 118h202v-876q42 -3 87 -10t87 -16v-167h-656z" />
<glyph unicode="2" horiz-adv-x="986" d="M82 0v212l212 170q77 56 129 103t84.5 88t47 78t14.5 72t-10.5 63.5t-31 49t-51 32t-71.5 11.5q-31 0 -61 -6.5t-56 -16.5q-3 -32 -8 -71t-12 -75h-165v315q72 29 159 47t184 18q99 0 176.5 -24.5t129.5 -67.5t79.5 -104t27.5 -134q0 -58 -17.5 -111.5t-50.5 -104.5 t-81 -99.5t-110 -95.5l-150 -123l-2 -3q41 2 91.5 4.5t108 3t120.5 1t130 0.5v-232h-816z" />
<glyph unicode="3" horiz-adv-x="950" d="M416 1090q109 0 188.5 -27t131 -74t76 -110.5t24.5 -136.5q0 -56 -17 -106t-48.5 -92.5t-75 -76t-96.5 -55.5v-3q65 -14 114 -44t83 -72t51.5 -94t17.5 -111q0 -102 -40.5 -188t-116 -149t-184 -99t-245.5 -36q-50 0 -105.5 6.5t-102.5 17.5l23 233q41 -14 91 -21.5 t104 -7.5q65 0 118.5 14.5t91.5 42t58.5 68t20.5 94.5q0 63 -31 105t-88.5 64t-137.5 26.5t-178 -6.5v210q104 0 182.5 16.5t130.5 47.5t77.5 76t25.5 100q0 79 -43.5 125t-127.5 46q-27 0 -55 -6t-49 -14q-4 -32 -8.5 -68.5t-12.5 -75.5h-165v318q72 29 151 46t167 17z" />
<glyph unicode="4" horiz-adv-x="1145" d="M890 0v-185q45 -3 87.5 -10.5t79.5 -16.5v-158h-605v158q40 9 85.5 16.5t92.5 10.5v185h-561l-41 213l528 852h334v-830h213v-235h-213zM634 811h-2l-353 -579q21 1 51.5 1.5t65 1t70 0.5h68h58.5h42v576z" />
<glyph unicode="5" horiz-adv-x="965" d="M889 122q0 -74 -22 -140.5t-62.5 -123t-97.5 -101.5t-127 -76.5t-151 -48.5t-169 -17q-46 0 -89 3.5t-81 9.5l24 234q32 -7 73.5 -11t85.5 -4q81 0 142 18.5t102.5 50.5t62 75.5t20.5 94.5q0 52 -21.5 94t-64 72.5t-105 47t-145.5 16.5q-16 0 -33 -0.5t-34.5 -1t-34 -2 t-31.5 -2.5v755h698v-257l-451 2v-280q121 0 216 -30t160.5 -83t100 -128.5t34.5 -166.5z" />
<glyph unicode="6" horiz-adv-x="1190" d="M1111 474q0 -109 -38 -200.5t-107 -157.5t-165 -103t-213 -37q-111 0 -200 38.5t-152 113t-96.5 183t-33.5 249.5q0 211 54 375t153 275.5t238 169.5t309 58q12 0 27 -0.5t31 -1t31.5 -1t28.5 -1.5v-232q-33 5 -68.5 8t-67.5 3q-90 0 -162.5 -25t-127.5 -71.5t-93 -112.5 t-59 -148q-4 -14 -8 -30l-9 -36l2 -2q45 57 122.5 90.5t176.5 33.5t178.5 -31t135 -88.5t84.5 -138.5t29 -180zM837 444q0 58 -15 103t-43 76t-68 47t-89 16q-55 0 -97 -18.5t-70 -50t-42 -72t-14 -83.5q0 -54 13 -101t40 -82.5t67.5 -56t95.5 -20.5q53 0 94 18t69.5 50.5 t43.5 77t15 96.5z" />
<glyph unicode="7" horiz-adv-x="963" d="M914 845q-56 -130 -110 -273t-104 -296.5t-95 -316t-81 -329.5h-292q37 157 81.5 313t94.5 308t105 298.5t113 285.5q-13 -1 -39 -1t-59 -0.5t-70.5 -0.5h-72.5h-64.5h-46.5q-4 -42 -9.5 -82.5t-15.5 -85.5h-205v400h870v-220v0z" />
<glyph unicode="8" horiz-adv-x="1140" d="M1050 384q0 -99 -40 -175t-109 -128t-160 -79t-194 -27q-109 0 -194 27t-143.5 76t-89.5 117.5t-31 151.5q0 69 23 125t59.5 100t81 79t88.5 64l-2 2q-54 32 -97 68.5t-73 79t-46 92t-16 106.5q0 88 35.5 159.5t98 122.5t148.5 78.5t190 27.5q103 0 186 -25t140.5 -70 t88.5 -109t31 -142q0 -55 -15.5 -102.5t-45.5 -90t-75 -81.5t-104 -78q50 -29 97.5 -64.5t84.5 -80t60 -100t23 -124.5zM755 1081q0 32 -12 60t-35.5 49t-58 33.5t-80.5 12.5q-45 0 -79.5 -12t-58.5 -33.5t-36.5 -51.5t-12.5 -64t13.5 -62.5t39 -54.5t62 -50.5t82.5 -49.5 l2 -1q44 29 76.5 55.5t54 52.5t32.5 54.5t11 61.5zM772 364q0 40 -16 74t-45.5 63.5t-70.5 55.5t-90 51h-2q-39 -24 -72 -49.5t-57.5 -54t-39 -61t-14.5 -68.5q0 -41 14.5 -73.5t41 -56t64.5 -36.5t85 -13q44 0 81 12t64 33.5t42 53t15 69.5z" />
<glyph unicode="9" horiz-adv-x="1189" d="M1084 492q0 -204 -48.5 -366.5t-144.5 -275.5t-238 -173.5t-329 -60.5q-34 0 -72.5 3.5t-73.5 10.5v238q35 -11 78.5 -16.5t82.5 -5.5q89 0 160 22.5t126 65.5t93 107t60 148q2 8 4 18t4.5 20.5t4.5 21t4 20.5l-2 1q-22 -28 -53.5 -49t-69.5 -36.5t-82.5 -24t-91.5 -8.5 q-97 0 -174.5 31.5t-131.5 88t-83 136.5t-29 178q0 109 37.5 201.5t105 159.5t162 105t208.5 38q108 0 198 -35t156 -108t102.5 -186.5t36.5 -268.5zM788 609q0 55 -14 102t-41 81t-67.5 53.5t-93.5 19.5q-50 0 -90.5 -18.5t-69 -51t-44 -76.5t-15.5 -94q0 -117 54 -179.5 t161 -62.5q51 0 92.5 18t69.5 49t43 72t15 87z" />
<glyph unicode=":" horiz-adv-x="610" d="M497 724q0 -34 -13.5 -64.5t-36 -53.5t-53 -36t-65.5 -13q-34 0 -64.5 13t-53 36t-36 53.5t-13.5 64.5t13.5 64.5t36 53.5t53 36t64.5 13q35 0 65.5 -13t53 -36t36 -53.5t13.5 -64.5zM497 145q0 -34 -13.5 -64.5t-36 -53.5t-53 -36.5t-65.5 -13.5q-34 0 -64.5 13.5 t-53 36.5t-36 53.5t-13.5 64.5t13.5 64t36 53t53 36.5t64.5 13.5q35 0 65.5 -13.5t53 -36.5t36 -53t13.5 -64z" />
<glyph unicode=";" horiz-adv-x="610" d="M497 724q0 -34 -13.5 -64.5t-36 -53.5t-53 -36t-65.5 -13q-34 0 -64.5 13t-53 36t-36 53.5t-13.5 64.5t13.5 64.5t36 53.5t53 36t64.5 13q35 0 65.5 -13t53 -36t36 -53.5t13.5 -64.5zM328 305q49 0 87 -25.5t59 -71.5t21.5 -108t-26 -135.5t-84.5 -154.5t-154 -165 l-108 97q53 56 81.5 101.5t37 83t-1 69.5t-33.5 61q-19 22 -27.5 49t-7 54.5t13 54t31.5 46.5t48 32t63 12z" />
<glyph unicode="&#x3c;" d="M783 12l-654 603l652 603l171 -172l-486 -429l488 -428z" />
<glyph unicode="=" d="M109 698v211h908v-211h-908zM109 307v211h908v-211h-908z" />
<glyph unicode="&#x3e;" d="M346 12l-172 172l486 429l-487 428l170 177l654 -603z" />
<glyph unicode="?" horiz-adv-x="924" d="M828 1049q0 -64 -17.5 -113t-45 -89t-61.5 -73t-67.5 -63.5t-63 -62.5t-47.5 -70.5t-21.5 -85t14.5 -108.5h-255q-25 73 -26 130.5t14 104t42 83.5t59 69t65.5 61t60.5 58t44.5 61t17.5 71q0 46 -27.5 83t-79.5 64t-127 42.5t-170 19.5l32 237q169 -4 293 -40 t205.5 -93.5t121 -131.5t39.5 -154zM555 133q0 -33 -12.5 -61t-34 -49t-51 -33.5t-62.5 -12.5q-34 0 -63 12.5t-50.5 33.5t-34 49t-12.5 61q0 32 12.5 60.5t34 49.5t50.5 33t63 12q33 0 62.5 -12t51 -33t34 -49.5t12.5 -60.5z" />
<glyph unicode="@" horiz-adv-x="1987" d="M1804 846q0 -143 -37.5 -251.5t-103.5 -181.5t-156.5 -110.5t-196.5 -37.5q-56 0 -97 15.5t-68 42.5t-38.5 63t-9.5 76h-8q-16 -32 -44 -67t-65.5 -64t-83 -47.5t-95.5 -18.5q-49 0 -87.5 18.5t-65.5 55.5t-41 92t-14 129q0 113 29 212.5t88 173t149.5 117t212.5 43.5 q36 0 71 -3.5t67.5 -9t61.5 -13t51 -15.5l-72 -405q-9 -51 -7.5 -87t12.5 -59t32.5 -33t52.5 -10q48 0 89 21t72.5 65.5t49 112.5t17.5 164q0 89 -27.5 172.5t-88 148.5t-158.5 104t-239 39q-91 0 -174.5 -22.5t-156.5 -65.5t-132.5 -104.5t-102 -139t-66 -169.5t-23.5 -197 q0 -129 35.5 -232t107 -174.5t181 -109t258.5 -37.5q90 0 180 15t178 44l39 -204q-51 -17 -106.5 -30t-111.5 -22t-110 -13.5t-101 -4.5q-192 0 -339 52.5t-246.5 149t-151 234t-51.5 306.5q0 136 32.5 257.5t91 225.5t141 187.5t183.5 142.5t217 90t242 31 q122 0 223.5 -23.5t183.5 -67t143 -104t102 -134t61.5 -158t20.5 -175.5zM1101 920q-20 6 -42.5 8.5t-46.5 2.5q-36 0 -66 -15t-53.5 -40.5t-42 -58.5t-30.5 -69.5t-18 -74.5t-6 -72q0 -69 16 -100t50 -31q28 0 59.5 21t61.5 65t56 111.5t45 162.5z" />
<glyph unicode="A" horiz-adv-x="1427" d="M865 0v165q34 7 71 13t72 10l-60 176h-497l-60 -173q36 -3 74.5 -10.5t71.5 -15.5v-165h-521v166q25 7 54.5 14.5t55.5 10.5l413 1191h344l420 -1196q25 -2 54 -7.5t54 -12.5v-166h-546zM764 925q-18 56 -34 109t-30 110h-3q-13 -57 -27.5 -110t-32.5 -110l-123 -352h372 z" />
<glyph unicode="B" horiz-adv-x="1268" d="M1188 425q0 -50 -12 -101.5t-39 -99t-70 -89.5t-105 -73t-143.5 -49t-185.5 -18q-28 0 -67 1t-89 2t-113 1.5t-139 0.5h-178v165q40 9 85.5 16t92.5 10v1000q-47 3 -92.5 10t-85.5 16v165h172q41 0 93.5 1t112 3t123 3t127.5 1q111 0 197 -22.5t145 -66t89.5 -107 t30.5 -146.5q0 -51 -12.5 -98t-37.5 -87t-62.5 -71.5t-87.5 -51.5v-5q62 -13 108.5 -43.5t78.5 -72.5t48 -92t16 -102zM855 1007q0 38 -12 69t-39 53t-69.5 34t-103.5 12q-22 0 -39.5 -0.5t-34 -1t-32.5 -1t-34 -1.5v-359q25 -2 50 -2h58q69 0 117.5 13t79 39t45 62t14.5 83 zM902 420q0 50 -21.5 86.5t-60.5 60t-93 34t-119 10.5h-22.5h-33t-34 -0.5t-27.5 -1.5v-389q24 -3 63.5 -5t85.5 -2q66 0 115 15t81.5 42t49 65t16.5 85z" />
<glyph unicode="C" horiz-adv-x="1182" d="M1106 49q-43 -15 -90.5 -28t-97.5 -22t-100.5 -14t-99.5 -5q-162 0 -283 47t-201 134t-119.5 210.5t-39.5 277.5q0 165 44.5 303t131.5 237.5t215.5 154.5t297.5 55q80 0 162 -10.5t161 -27.5v-397h-203q-9 48 -14.5 90t-10.5 83q-36 8 -71 12.5t-70 4.5 q-82 0 -146.5 -33t-109.5 -93.5t-69 -146t-24 -189.5q0 -108 23 -194.5t72.5 -147.5t127 -94t187.5 -33q36 0 74.5 4.5t76.5 12t73 18.5t66 25l37 -234v0z" />
<glyph unicode="D" horiz-adv-x="1448" d="M1371 714q0 -177 -55.5 -312t-155.5 -226.5t-240.5 -137.5t-309.5 -46q-54 0 -111.5 1t-110 2.5t-96 3t-67.5 1.5h-178v165q40 9 85.5 16t92.5 10v1000q-47 3 -92.5 10t-85.5 16v165h172q41 0 93 1.5t110.5 3t122 2.5t127.5 1q160 0 289 -37.5t220.5 -118.5t140.5 -209.5 t49 -310.5zM1085 694q0 111 -23 199t-74.5 148.5t-134 93t-200.5 32.5q-23 0 -45.5 -0.5t-43 -1t-39 -1.5t-34.5 -2v-932q14 -3 31 -4.5t35.5 -3t38.5 -2t40 -0.5q98 0 180.5 28t142.5 86.5t93 147.5t33 212z" />
<glyph unicode="E" horiz-adv-x="1100" d="M47 0v165q40 9 85.5 16t92.5 10v1000q-47 3 -92.5 10t-85.5 16v165h942v-349h-198q-7 39 -13 74.5t-9 64.5h-278v-368h225q4 30 9.5 58t12.5 55h171v-415h-171q-8 26 -13.5 55t-8.5 57h-225v-400h280q4 36 10 72.5t13 76.5h201v-363h-948z" />
<glyph unicode="F" horiz-adv-x="1051" d="M789 1029q-7 35 -12.5 69t-9.5 71h-276v-381h231q4 30 9.5 58t13.5 54h170v-427h-170q-8 26 -13.5 54t-9.5 58h-231v-394q46 -3 92 -10t86 -16v-165h-622v165q40 9 85.5 16t92.5 10v1000q-47 3 -92.5 10t-85.5 16v165h940v-353h-198z" />
<glyph unicode="G" horiz-adv-x="1405" d="M1359 556q-27 -7 -56 -12t-58 -9v-469q-51 -21 -108.5 -37t-118.5 -27.5t-124 -17t-125 -5.5q-164 0 -293 47t-218.5 135t-136.5 214t-47 284q0 165 52 302t150 235t240 152t321 54q99 0 195 -13t193 -37v-371h-205q-9 46 -14.5 86t-8.5 80q-43 11 -87.5 16t-87.5 5 q-103 0 -188 -31.5t-145.5 -93t-94 -152t-33.5 -208.5q0 -109 29.5 -195t86.5 -146t138.5 -91.5t186.5 -31.5q50 0 93.5 6.5t82.5 19.5v287q-46 3 -91.5 10.5t-82.5 16.5v165h555v-168v0z" />
<glyph unicode="H" horiz-adv-x="1569" d="M927 0v169q35 8 73.5 13.5t76.5 8.5v409h-586v-409q38 -3 76.5 -8.5t73.5 -13.5v-169h-594v165q40 9 85.5 16t92.5 10v1000q-47 3 -92.5 10t-85.5 16v165h594v-169q-35 -8 -73.5 -13.5t-76.5 -8.5v-361h586v361q-38 3 -76.5 8.5t-73.5 13.5v169h595v-165 q-41 -9 -86.5 -16t-92.5 -10v-1000q47 -3 92.5 -10t86.5 -16v-165h-595z" />
<glyph unicode="I" horiz-adv-x="716" d="M47 0v165q40 9 85.5 16t92.5 10v1000q-47 3 -92.5 10t-85.5 16v165h622v-165q-40 -9 -86 -16t-92 -10v-1000q46 -3 92 -10t86 -16v-165h-622z" />
<glyph unicode="J" horiz-adv-x="737" d="M692 1213q-61 -14 -129 -22v-804q0 -56 -8 -108.5t-26 -97.5t-47 -82t-70.5 -63t-97 -40t-125.5 -14q-28 0 -51.5 1t-44 3.5t-38.5 5.5l-36 6v229q24 -8 56 -14.5t70 -6.5q36 0 64 9t47.5 30.5t29.5 58.5t10 92v795q-46 3 -92 10t-86 16v165h574v-169v0z" />
<glyph unicode="K" horiz-adv-x="1425" d="M803 0v169q26 6 52.5 10t50.5 7l-415 497v-492q33 -3 68 -8.5t67 -13.5v-169h-579v165q40 9 85.5 16t92.5 10v1000q-47 3 -92.5 10t-85.5 16v165h579v-169q-32 -8 -67 -13.5t-68 -8.5v-459l411 463q-26 3 -55 7.5t-52 10.5v169h560v-167q-30 -7 -64 -12.5t-63 -8.5 l-437 -474l467 -532q29 -3 63.5 -8t64.5 -12v-168h-583z" />
<glyph unicode="L" horiz-adv-x="1029" d="M47 0v165q41 9 86 15.5t92 10.5v1000q-47 4 -92 10.5t-86 15.5v165h622v-165q-41 -9 -86 -15.5t-92 -10.5v-971h281q4 39 13 91t23 101h192v-412h-953z" />
<glyph unicode="M" horiz-adv-x="1952" d="M1393 0v165q32 8 70 14t74 9l-77 567q-13 97 -21.5 179.5t-13.5 160.5h-4q-13 -69 -27.5 -139t-36.5 -139l-266 -817h-248l-258 791q-26 82 -43.5 159t-30.5 145h-3q-2 -42 -4.5 -86.5t-6.5 -89t-8.5 -88t-9.5 -82.5l-68 -561q35 -3 71.5 -9t67.5 -14v-165h-519v166 q12 3 26 6t29 6.5t30.5 5.5t28.5 3l152 1004q-46 3 -88 10t-83 16v165h541l234 -693q11 -32 21.5 -68.5t20.5 -74.5t19 -77t17 -76h3q16 77 34 147.5t42 144.5l232 697h538v-165q-41 -9 -84 -16t-89 -10l155 -1004q27 -2 58.5 -8t55.5 -13v-166h-531z" />
<glyph unicode="N" horiz-adv-x="1571" d="M1524 1213q-30 -7 -63 -13t-66 -10v-1190h-361l-418 725q-22 40 -43 81.5t-40.5 84t-37 84.5t-32.5 82q5 -79 9 -170t6.5 -197.5t3 -230.5t0.5 -268q37 -3 75 -8.5t73 -13.5v-169h-583v165q40 9 85.5 16t92.5 10v1000q-47 3 -92.5 10t-85.5 16v165h539l415 -722 q21 -39 41.5 -80t40 -82.5t38 -82.5t34.5 -80q-6 84 -9.5 175t-5.5 195.5t-2.5 224t-0.5 260.5q-37 3 -72.5 9t-67.5 14v169h527v-169v0z" />
<glyph unicode="O" horiz-adv-x="1440" d="M1372 713q0 -173 -53.5 -309.5t-145 -231.5t-214.5 -145.5t-262 -50.5q-157 0 -275 49t-196.5 139t-118 218.5t-39.5 287.5q0 172 53.5 308.5t145 231.5t214 145.5t261.5 50.5q157 0 275 -49t197 -139t118.5 -218t39.5 -287zM1089 681q0 111 -22.5 200.5t-68.5 152.5 t-115 97.5t-161 34.5q-80 0 -148 -30t-117.5 -89t-77.5 -145.5t-28 -199.5q0 -110 22.5 -200t68 -153t114.5 -97t162 -34q80 0 148 30t118 88.5t77.5 145.5t27.5 199z" />
<glyph unicode="P" horiz-adv-x="1202" d="M1162 947q0 -106 -37 -197.5t-109.5 -158.5t-177.5 -105t-240 -38q-29 0 -55.5 1.5t-51.5 3.5v-262q46 -3 92 -10t86 -16v-165h-622v165q40 9 85.5 16t92.5 10v1000q-47 3 -92.5 10t-85.5 16v165h178q23 0 66.5 1.5t97.5 3.5t113 3t115 1q140 0 242.5 -32t170 -90.5 t100 -140.5t32.5 -181zM887 918q0 51 -14.5 97t-47.5 81.5t-87.5 56t-135.5 20.5q-28 0 -58 -0.5t-53 -2.5v-493q20 -4 52 -6.5t70 -2.5q67 0 118 18t85.5 51t52.5 79.5t18 101.5z" />
<glyph unicode="Q" horiz-adv-x="1440" d="M1436 -414q-94 -15 -170 -14t-140.5 10.5t-123 23.5t-117.5 25t-124 15t-142 -6v233q90 11 161.5 7.5t133.5 -14t119.5 -23.5t118 -23t129.5 -12t155 11v-233zM1372 713q0 -173 -53.5 -309.5t-145 -231.5t-214.5 -145.5t-262 -50.5q-157 0 -275 49t-196.5 139t-118 218.5 t-39.5 287.5q0 172 53.5 308.5t145 231.5t214 145.5t261.5 50.5q157 0 275 -49t197 -139t118.5 -218t39.5 -287zM1089 681q0 111 -22.5 200.5t-68.5 152.5t-115 97.5t-161 34.5q-80 0 -148 -30t-117.5 -89t-77.5 -145.5t-28 -199.5q0 -110 22.5 -200t68 -153t114.5 -97 t162 -34q80 0 148 30t118 88.5t77.5 145.5t27.5 199z" />
<glyph unicode="R" horiz-adv-x="1284" d="M900 0l-317 573h-92v-382q30 -3 62.5 -8.5t64.5 -13.5v-169h-571v165q40 9 85.5 16t92.5 10v1000q-47 3 -92.5 10t-85.5 16v165h161q13 0 39 1t60.5 2t76 2t85.5 2t87.5 1.5t84.5 0.5q118 0 213 -21t161.5 -68t102 -122t35.5 -183q0 -70 -21.5 -129.5t-62 -105.5 t-97.5 -79.5t-127 -50.5q19 -24 37 -50.5t33 -51.5l199 -338q29 -4 62.5 -9.5t68.5 -11.5v-171h-345zM873 980q0 51 -15 89t-47 62.5t-81.5 37t-116.5 12.5q-13 0 -30 -0.5l-34 -1t-32.5 -1.5t-25.5 -2v-406h128q60 0 107.5 14t80 41.5t49.5 66t17 88.5z" />
<glyph unicode="S" horiz-adv-x="1035" d="M962 429q0 -98 -37.5 -180.5t-107 -143t-169.5 -94t-224 -33.5q-84 0 -164 8.5t-152 25.5v368h204q7 -43 12.5 -86.5t9.5 -79.5q24 -6 53.5 -9.5t63.5 -3.5q48 0 90 11t72.5 33.5t47.5 57.5t17 84q0 50 -25.5 83t-67.5 58t-96 44.5t-110 42t-110 51.5t-96 71.5t-68 103.5 t-26 147q0 93 35 169.5t101.5 131.5t163 85.5t219.5 30.5q78 0 148 -7.5t144 -23.5v-353h-204q-7 40 -13 82.5t-9 78.5q-15 3 -38 6t-46 3q-54 0 -95 -13t-68 -35.5t-40.5 -53.5t-13.5 -68q0 -47 26 -80.5t67.5 -58.5t96 -46t110.5 -44.5t110 -52t96 -71t67.5 -100.5 t25.5 -139z" />
<glyph unicode="T" horiz-adv-x="1202" d="M971 992q-8 50 -15 91.5t-11 79.5h-211v-972q47 -3 92.5 -10t85.5 -16v-165h-622v165q41 9 86 16t92 10v972h-212q-3 -38 -9.5 -79.5t-15.5 -91.5h-196v390h1132v-390h-196z" />
<glyph unicode="U" horiz-adv-x="1456" d="M1409 1213q-61 -14 -126 -22v-660q0 -138 -37.5 -242t-110 -173.5t-179.5 -104.5t-244 -35q-110 0 -192 19t-142 53t-99 81t-62 102.5t-32.5 118.5t-9.5 129v712q-68 8 -128 22v169h542v-169q-35 -8 -73 -13.5t-74 -8.5v-695q0 -67 12 -123.5t44 -97t87.5 -63.5 t142.5 -23q77 0 132 18t90.5 57t52.5 102.5t17 153.5v671q-37 3 -75 8.5t-73 13.5v169h537v-169v0z" />
<glyph unicode="V" horiz-adv-x="1386" d="M1371 1213q-24 -6 -52.5 -10.5t-55.5 -7.5l-418 -1195h-308l-414 1195q-26 3 -55 7.5t-52 10.5v169h543v-165q-34 -7 -72.5 -13t-74.5 -10l205 -620q18 -59 40 -129.5t41 -142.5h3q8 33 17 67t19 69t22 73t25 79l207 604q-36 4 -73.5 10t-70.5 13v165h524v-169v0z" />
<glyph unicode="W" horiz-adv-x="1997" d="M1979 1213q-23 -6 -52 -10.5t-55 -7.5l-261 -1195h-348l-216 743q-19 66 -34 138t-26 148h-2q-7 -73 -19.5 -145t-29.5 -141l-200 -743h-349l-263 1195q-26 3 -55 7.5t-52 10.5v169h527v-165q-33 -7 -70 -13t-74 -10l139 -615q7 -34 14 -71t13 -74.5t11 -75t9 -72.5h2 q6 34 13 71t14.5 73.5t15.5 72t17 69.5l225 810h262l241 -820q18 -62 34.5 -133.5t28.5 -142.5h2q6 73 14.5 142.5t18.5 130.5l129 635q-36 4 -70.5 10t-67.5 13v165h514v-169v0z" />
<glyph unicode="X" horiz-adv-x="1442" d="M822 0v169q28 6 57 10.5t56 7.5l-238 346l-239 -346q26 -3 56 -7.5t58 -10.5v-169h-551v168q31 7 65 12t64 7l397 516l-380 492q-29 3 -62.5 8t-63.5 12v167h595v-169q-28 -6 -57.5 -10.5t-57.5 -7.5l221 -319l224 319q-28 3 -57.5 7.5t-56.5 10.5v169h547v-167 q-30 -7 -65 -12.5t-65 -8.5l-372 -489l399 -518q29 -2 62.5 -7t63.5 -12v-168h-600z" />
<glyph unicode="Y" horiz-adv-x="1251" d="M1236 1213q-23 -6 -52 -10.5t-55 -7.5l-372 -724v-280q46 -3 92 -10t86 -16v-165h-623v165q40 9 85.5 16t92.5 10v279l-367 725q-23 3 -53.5 7.5t-53.5 10.5v169h526v-169q-28 -7 -58.5 -11.5t-61.5 -7.5l125 -273q10 -24 21.5 -50t23.5 -53t23 -53t20 -50h2 q9 25 20 52.5t22.5 55.5t23.5 54.5t23 49.5l124 267q-33 3 -64 7.5t-60 11.5v169h510v-169v0z" />
<glyph unicode="Z" horiz-adv-x="1112" d="M83 0v206l539 827q22 34 43 66t46 64q-36 -2 -86 -2.5t-117 -0.5h-187q-3 -35 -8.5 -74t-15.5 -80h-201v376h929v-213l-568 -848q-15 -25 -30.5 -48t-33.5 -47q13 1 34 2t50 1h64.5h76.5h194q4 37 10.5 78t16.5 86h195v-393h-951z" />
<glyph unicode="[" horiz-adv-x="672" d="M146 -419v2011h451v-210h-205v-1592h205v-209h-451z" />
<glyph unicode="\" horiz-adv-x="981" d="M731 -330l-717 1880h258l718 -1880h-259z" />
<glyph unicode="]" horiz-adv-x="671" d="M74 -420v209h205v1594h-205v209h450v-2012h-450z" />
<glyph unicode="^" d="M812 690l-268 505l-257 -505l-174 92l335 600h201l350 -597z" />
<glyph unicode="_" d="M0 -504v210h1126v-210h-1126z" />
<glyph unicode="`" horiz-adv-x="766" d="M541 1146l-371 223l122 174l346 -254z" />
<glyph unicode="a" horiz-adv-x="1110" d="M1085 14q-44 -5 -94.5 -8.5t-104 -5.5t-107 -2.5t-102.5 1.5q0 44 1.5 88.5t8.5 84.5l-3 1q-18 -42 -50 -78t-74 -62t-93.5 -40t-107.5 -14q-69 0 -123 20t-91.5 56.5t-57 88t-19.5 113.5q0 91 43 158.5t120.5 112t186 67.5t238.5 24v59q0 41 -9 72.5t-30 53t-56 33 t-86 11.5q-37 0 -76.5 -7t-72.5 -17q-3 -31 -8.5 -65.5t-11.5 -68.5h-165v297q81 24 171 39.5t181 15.5q125 0 207.5 -24.5t131 -70t68 -111.5t19.5 -149v-487q37 -6 82 -11.5t84 -8.5v-166zM656 450q-89 0 -152.5 -9.5t-105 -29t-61.5 -48.5t-20 -68q0 -26 9 -47t24.5 -37 t38.5 -24.5t51 -8.5q48 0 88 21t68 55.5t44 78.5t16 90v27z" />
<glyph unicode="b" horiz-adv-x="1148" d="M1075 561q0 -129 -37 -235.5t-107.5 -183.5t-173 -119.5t-233.5 -42.5q-56 0 -105.5 3t-95.5 9.5t-90 15.5t-87 20v1267q-37 6 -82.5 11.5t-90.5 8.5v165q49 6 101.5 9.5t107 5.5t111.5 2.5t113 -1.5v-439q0 -24 -1 -50t-3 -52.5t-5 -51t-6 -44.5l3 -1q19 41 49 75 t69.5 57t87 36t100.5 13q92 0 162 -32.5t117 -93.5t71.5 -150t24.5 -202zM800 535q0 71 -10.5 125t-32.5 90t-55 54t-77 18q-34 0 -63.5 -12.5t-53.5 -35t-43 -53t-32 -67t-20 -77.5t-7 -83v-287q30 -10 62.5 -14t75.5 -4q55 0 102 18.5t81 60t53.5 107t19.5 160.5z" />
<glyph unicode="c" horiz-adv-x="914" d="M862 30q-33 -11 -68.5 -20.5t-73.5 -16t-78.5 -10t-83.5 -3.5q-74 0 -139.5 13t-119.5 39t-96.5 66.5t-72 95.5t-45 125.5t-15.5 156.5q0 119 31 221.5t96.5 178t165.5 118.5t238 43q62 0 125 -8.5t118 -25.5v-328h-168q-7 37 -12 70t-9 64q-18 6 -40.5 8.5t-49.5 2.5 q-52 0 -93 -21.5t-70 -61.5t-44.5 -97t-15.5 -128t14 -127t46 -95.5t84.5 -60.5t129.5 -21q55 0 108.5 10.5t103.5 32.5l34 -221v0z" />
<glyph unicode="d" horiz-adv-x="1193" d="M1166 15q-44 -6 -95 -9.5t-104 -5.5t-107 -2.5t-103 1.5q0 18 0.5 40t1.5 44t3.5 44t6.5 43h-4q-21 -42 -52 -77.5t-72 -61t-90.5 -39.5t-107.5 -14q-93 0 -163 33.5t-116.5 96t-69.5 150.5t-23 198q0 128 36.5 235t106 183.5t169.5 119t227 42.5q32 0 64 -2t65 -5v266 q-37 6 -85 11.5t-93 8.5v165q49 6 102.5 9.5t109 5.5t113.5 2.5t114 -1.5v-1296q37 -6 82.5 -11.5t83.5 -8.5v-165zM739 812q-34 9 -68 12.5t-69 3.5q-55 0 -102 -18.5t-81 -59.5t-53.5 -107t-19.5 -161q0 -71 10.5 -125t32.5 -90t54 -54t77 -18q35 0 64 12.5t53.5 35 t43.5 54t32 68.5t19.5 78t6.5 84v285z" />
<glyph unicode="e" horiz-adv-x="1053" d="M975 607q0 -15 -1 -33t-2 -37t-3 -38.5t-4 -36.5h-628q-1 -70 15 -122.5t50 -87t87 -51.5t126 -17q74 0 149 15t146 46l30 -200q-84 -31 -179 -48.5t-190 -17.5q-121 0 -214.5 31t-157 95t-96.5 162.5t-33 232.5q0 115 32.5 213.5t95 170.5t152 113.5t202.5 41.5 q112 0 192 -34t131 -92t75.5 -137t24.5 -169zM715 638q1 49 -10.5 88t-34.5 65.5t-56.5 40.5t-75.5 14q-40 0 -74.5 -15t-60 -42t-42.5 -65.5t-22 -85.5h376z" />
<glyph unicode="f" horiz-adv-x="768" d="M804 1280q-36 10 -70 14.5t-64 4.5q-87 0 -130 -46.5t-43 -148.5v-86h243v-202h-243v-625q46 -3 92 -10t86 -16v-165h-617v165q40 9 86 16t92 10v625h-205v202h205v83q0 103 25.5 180t76.5 128.5t128.5 76.5t182.5 25q42 0 84.5 -4t89.5 -13z" />
<glyph unicode="g" horiz-adv-x="1116" d="M1064 -109q0 -82 -40 -156t-112.5 -129.5t-175.5 -88t-230 -32.5q-102 0 -183 19.5t-137.5 58t-86.5 95t-30 131.5q0 40 13 77.5t34.5 70.5t50 59.5t59.5 43.5q-46 21 -72 62t-26 93q0 30 8.5 57.5t24.5 51.5t38 43t48 31q-70 38 -111 107t-41 170q0 76 28.5 146 t85 123.5t141 84.5t196.5 31q48 0 85.5 -6t79.5 -16h346v-205h-139q24 -23 37 -56t13 -73q0 -82 -27 -149.5t-81 -116t-136 -75.5t-191 -27q-23 0 -41 2.5t-39 6.5q-24 -11 -37 -29t-13 -36q0 -17 8 -29t26.5 -19t49 -10.5t75.5 -4.5l156 -6q82 -3 146.5 -22.5t109 -57 t67.5 -92t23 -128.5zM719 671q0 82 -46.5 130t-137.5 48q-45 0 -80 -13.5t-59 -37t-36.5 -55.5t-12.5 -71q0 -82 47.5 -129t139.5 -47q43 0 77.5 12t58 34.5t36.5 55t13 73.5zM805 -143q0 28 -9 51t-28.5 40t-49.5 27t-73 12l-176 6h-25t-23 1q-43 -33 -68 -72.5t-25 -82.5 q0 -36 15 -64t43.5 -47.5t69 -30.5t89.5 -11q64 0 113 13t81.5 36t49 54.5t16.5 67.5z" />
<glyph unicode="h" horiz-adv-x="1268" d="M816 0v651q0 39 -6 70.5t-21 53.5t-39 33.5t-60 11.5q-50 0 -93 -26.5t-75 -71.5t-50.5 -104.5t-18.5 -127.5v-299q38 -3 76.5 -8.5t73.5 -13.5v-169h-576v165q37 9 79 16t86 10v1104q-37 6 -83.5 11.5t-88.5 8.5v165q47 6 99.5 9.5t108 5.5t112.5 2.5t113 -1.5v-439 q0 -23 -1 -50t-3 -54t-5 -53.5t-9 -48.5l4 -1q22 42 54.5 77t74.5 59.5t93.5 38.5t111.5 14q86 0 144.5 -25.5t93.5 -70t50.5 -103.5t15.5 -125v-524q41 -3 84 -10t80 -16v-165h-425z" />
<glyph unicode="i" horiz-adv-x="684" d="M525 1328q0 -33 -13 -62t-35 -50t-52 -33.5t-63 -12.5q-34 0 -64 12t-52.5 33.5t-35 50.5t-12.5 62t12.5 62t35 50.5t52.5 34t64 12.5q33 0 63 -12.5t52 -33.5t35 -50t13 -63zM52 0v165q40 9 86 16t92 10v627q-37 6 -85 11.5t-93 8.5v164q49 6 102.5 10t109 6t113.5 2.5 t114 -1.5v-828q44 -3 87 -10t80 -16v-165h-606z" />
<glyph unicode="j" horiz-adv-x="596" d="M486 1328q0 -33 -13 -62t-35 -50t-51.5 -33.5t-63.5 -12.5t-63.5 12t-52 33.5t-35.5 50.5t-13 62t13 62t35.5 50.5t52 34t63.5 12.5t63.5 -12.5t51.5 -33.5t35 -50t13 -63zM454 -77q0 -102 -21 -182t-68.5 -135.5t-124.5 -84t-188 -28.5q-30 0 -67.5 4t-73.5 13l18 223 q27 -10 57.5 -15.5t59.5 -5.5q39 0 67.5 9.5t46 31.5t25.5 57.5t8 86.5v921q-37 6 -81.5 11.5t-85.5 8.5v164q48 6 99.5 10t105.5 6t110 2.5t113 -1.5v-1096z" />
<glyph unicode="k" horiz-adv-x="1207" d="M828 0l-375 516v-325q37 -3 69.5 -8.5t59.5 -13.5v-169h-555v165q36 9 79.5 16t85.5 10v1104q-37 6 -83.5 11.5t-88.5 8.5v165q47 6 99.5 9.5t108 5.5t112.5 2.5t113 -1.5v-939l234 274q-30 4 -54 8t-42 10v169h549v-169q-29 -7 -65 -12.5t-71 -8.5l-257 -279l275 -356 q34 -4 71 -10t75 -13v-170h-340z" />
<glyph unicode="l" horiz-adv-x="646" d="M27 0v165q36 9 78.5 16t86.5 10v1104q-37 6 -83.5 11.5t-88.5 8.5v165q49 6 101.5 9.5t107 5.5t111.5 2.5t113 -1.5v-1305q45 -3 87 -10t78 -16v-165h-591z" />
<glyph unicode="m" horiz-adv-x="1922" d="M1459 0v644q0 40 -5.5 73t-19.5 55.5t-37.5 35t-59.5 12.5q-43 0 -84.5 -24t-74.5 -68t-53 -105t-20 -136v-296q37 -3 76 -8.5t74 -13.5v-169h-409v645q0 37 -5 69.5t-18 55.5t-37 36.5t-61 13.5q-46 0 -88 -25t-74.5 -69.5t-52 -105.5t-19.5 -133v-296q38 -3 76.5 -8.5 t73.5 -13.5v-169h-589v165q40 9 86 16t92 10v627q-37 6 -85 11.5t-93 8.5v164q49 6 102.5 10t108 6t109 2.5t105.5 -1.5q0 -17 -0.5 -40t-2 -47.5t-4.5 -49.5t-6 -47l3 -1q23 47 57 84.5t77.5 64.5t94.5 41.5t108 14.5q44 0 80.5 -8.5t65.5 -23t51.5 -34t38.5 -42t27 -47 t17 -48.5q17 36 47 72.5t72 65.5t95 47t117 18q74 0 131 -21t95.5 -62.5t58.5 -105.5t20 -151v-508q45 -3 87 -10t78 -16v-165h-426z" />
<glyph unicode="n" horiz-adv-x="1306" d="M854 0v651q0 39 -6.5 70.5t-20.5 53.5t-38 33.5t-61 11.5q-50 0 -93 -26.5t-75 -71t-50.5 -104.5t-18.5 -127v-300q38 -3 76.5 -8.5t73.5 -13.5v-169h-589v165q40 9 86 16t92 10v627q-37 6 -85 11.5t-93 8.5v164q49 6 102 10t107.5 6t109 2.5t105.5 -1.5 q0 -17 -0.5 -40.5t-2 -48t-4.5 -49.5t-6 -45l3 -1q22 45 55.5 82.5t77 64.5t97 42t116.5 15q85 0 143.5 -25.5t94 -70t50.5 -103.5t15 -125v-524q44 -3 86.5 -10t78.5 -16v-165h-426z" />
<glyph unicode="o" horiz-adv-x="1134" d="M1066 530q0 -121 -38 -222t-107 -174t-165 -114t-211 -41q-108 0 -196 29.5t-150.5 91t-96 158t-33.5 230.5q0 121 37.5 222t106 174t164.5 114t212 41q109 0 197 -30t150 -92.5t96 -158.5t34 -228zM795 509q0 75 -14 132.5t-42 96.5t-70 59t-98 20q-45 0 -86.5 -17.5 t-74 -54.5t-51.5 -95t-19 -138q0 -76 13.5 -134t42 -96.5t71 -58t99.5 -19.5q48 0 90 19.5t73 57.5t48.5 95t17.5 133z" />
<glyph unicode="p" horiz-adv-x="1196" d="M1123 562q0 -132 -34.5 -239t-102 -182t-168 -115.5t-232.5 -40.5q-18 0 -34.5 0.5t-32.5 1.5t-32 2.5t-32 5.5v-297q46 -3 92 -10t86 -16v-165h-605v165q41 9 80 16t86 10v1120q-37 6 -79.5 11.5t-86.5 8.5v164q48 6 99 10t103.5 6t105 2.5t103.5 -1.5q0 -18 -1 -39.5 t-2 -44t-4 -45t-5 -42.5h4q21 45 52 80.5t71.5 60t89.5 37.5t107 13q90 0 159.5 -32t116.5 -93.5t71.5 -150t24.5 -201.5zM847 535q0 71 -10.5 125t-31.5 90.5t-54 54.5t-77 18q-35 0 -64.5 -12.5t-53.5 -35t-43 -54t-31.5 -68.5t-19.5 -78.5t-7 -84.5v-283q30 -10 63.5 -14 t72.5 -4q56 0 103 18.5t81 60t53 107t19 160.5z" />
<glyph unicode="q" horiz-adv-x="1144" d="M563 -493v165q40 9 85.5 16t92.5 10v269q0 21 0.5 45t2 49.5t4.5 51.5t7 51l-4 1q-20 -43 -50 -77.5t-69 -59t-85 -37.5t-96 -13q-92 0 -162.5 30t-118.5 90t-72.5 149t-24.5 207q0 129 36 236t107 184.5t174.5 120t238.5 42.5q53 0 102.5 -2.5t96 -6t89.5 -9.5t85 -13 v-1308q46 -3 87.5 -10t76.5 -16v-165h-603zM741 815q-32 7 -65.5 10.5t-71.5 3.5q-56 0 -103 -18.5t-81 -60t-53 -107.5t-19 -161q0 -71 10.5 -125t32 -90t54 -54t76.5 -18q34 0 64 12.5t54.5 35.5t43 54.5t31.5 69t20 79.5t7 86v283z" />
<glyph unicode="r" horiz-adv-x="840" d="M795 782q-79 15 -135.5 -1t-94.5 -62t-56 -121.5t-18 -181.5v-225q47 -3 92.5 -10t85.5 -16v-165h-617v165q40 9 86 16t92 10v627q-37 6 -85 11.5t-93 8.5v164q49 6 102 10t107.5 6t109 2.5t105.5 -1.5q0 -40 -4 -95.5t-12 -110.5l2 -1q19 49 47.5 92.5t70.5 75.5 t97.5 48.5t129.5 10.5z" />
<glyph unicode="s" horiz-adv-x="900" d="M825 328q0 -75 -32 -139t-91.5 -110.5t-145 -73t-190.5 -26.5q-30 0 -63.5 2t-68.5 6t-69.5 9.5t-66.5 11.5v306h167q6 -31 11 -66t8 -68q23 -6 50.5 -8t52.5 -2q39 0 71.5 8.5t55.5 24t36 37.5t13 51q0 33 -21.5 55t-55.5 38.5t-78 29.5t-90.5 28.5t-90.5 35.5t-78 51 t-55 76t-21 108q0 69 27.5 128.5t82.5 103.5t137 69t190 25q57 0 126 -8t139 -23v-293h-166q-9 31 -13.5 65t-8.5 67q-22 4 -46.5 7t-45.5 3q-83 0 -122 -31.5t-39 -82.5q0 -34 21.5 -56.5t56 -39t78.5 -30.5t90 -29.5t90 -35.5t78.5 -50t55.5 -72.5t21 -101.5z" />
<glyph unicode="t" horiz-adv-x="768" d="M705 7q-49 -12 -108.5 -19.5t-113.5 -7.5q-84 0 -140.5 16t-91 54t-48.5 99t-14 150v517h-177v202h177v313l260 71v-384h247v-202h-247v-448q0 -49 6 -81t20.5 -51.5t37.5 -27.5t57 -8q31 0 60.5 4t55.5 11l19 -208v0z" />
<glyph unicode="u" horiz-adv-x="1268" d="M1241 14q-45 -5 -95.5 -8.5t-103.5 -5.5t-106.5 -2.5t-103.5 1.5q0 19 0.5 42t2 47t4 48.5t5.5 45.5l-4 1q-22 -45 -55.5 -82.5t-77 -64.5t-97 -42t-116.5 -15q-85 0 -143.5 25.5t-93.5 69.5t-50.5 103.5t-15.5 125.5v515q-37 6 -81 11.5t-83 8.5v166q44 5 95 8.5 t105 5.5t111 2.5t114 -1.5v-652q0 -40 6.5 -71t20.5 -53t38.5 -33.5t60.5 -11.5q50 0 93 26.5t75 71t50.5 104t18.5 126.5v293q-32 5 -71.5 10t-78.5 8v168q45 5 95.5 8.5t102.5 5.5t105.5 2t107.5 -2v-819q37 -6 81.5 -11.5t83.5 -8.5v-166v0z" />
<glyph unicode="v" horiz-adv-x="1169" d="M1152 850q-26 -7 -55.5 -12t-58.5 -8l-275 -830h-360l-273 830q-28 3 -56 8.5t-58 12.5v167h502v-169q-29 -7 -54.5 -10.5t-53.5 -6.5l124 -391q19 -56 31.5 -100.5t28.5 -111.5h3q15 61 28.5 110.5t30.5 103.5l113 389q-28 3 -52.5 6t-51.5 11v169h487v-168v0z" />
<glyph unicode="w" horiz-adv-x="1737" d="M1721 849q-26 -7 -54 -11.5t-56 -7.5l-256 -830h-290l-147 452q-17 52 -31 107.5t-28 119.5h-2q-16 -70 -33 -131t-36 -125l-129 -423h-287l-245 830q-29 3 -57 7.5t-54 11.5v169h488v-169q-25 -6 -50.5 -10t-52.5 -7l80 -294q16 -60 32.5 -119t28.5 -116h3 q14 76 32.5 142t38.5 129l140 444h242l139 -444q12 -41 22.5 -76t19 -67.5t16.5 -63.5t16 -64h3q6 28 12.5 55t13.5 53.5t14.5 54t16.5 57.5l88 309q-25 3 -51.5 7t-51.5 10v169h465v-169v0z" />
<glyph unicode="x" horiz-adv-x="1109" d="M720 0l-177 337l-179 -337h-345v170q39 8 78.5 14.5t77.5 9.5l209 320l-195 310q-38 3 -77.5 9.5t-77.5 14.5v170h352l176 -330l178 330h335v-170q-38 -8 -77.5 -14.5t-77.5 -9.5l-187 -307l201 -323q38 -3 77 -9.5t78 -14.5v-170h-369z" />
<glyph unicode="y" horiz-adv-x="1159" d="M1143 849q-25 -7 -53.5 -11.5t-57.5 -7.5l-323 -935q-40 -117 -84.5 -195t-100 -125.5t-124.5 -67t-156 -19.5q-16 0 -36 1t-41 3.5l-42 5t-39 6.5l15 226q40 -12 74.5 -17.5t71.5 -5.5q32 0 60 9t53.5 31.5t47.5 59.5t42 94l34 99h-73l-284 830q-29 3 -58 7.5t-53 11.5 v169h490v-169q-24 -6 -49.5 -10t-53.5 -7l103 -292q22 -67 41.5 -133t37.5 -138h4q7 31 16.5 67.5t21 75t24 78.5t25.5 79l89 263q-27 3 -52 7t-49 10v169h479v-169v0z" />
<glyph unicode="z" horiz-adv-x="938" d="M77 0v193l475 633q-15 -1 -37 -1.5t-46.5 -1t-50 -1t-49.5 -0.5h-93q-4 -33 -8.5 -63t-12.5 -64h-170v323h759v-193l-465 -619q16 1 38 1.5t46.5 1t49.5 0.5h48h104q4 31 8.5 62.5t12.5 66.5h171v-338h-780z" />
<glyph unicode="{" horiz-adv-x="741" d="M632 -419q-99 0 -170 26.5t-115.5 82.5t-65.5 142t-21 205v277q0 64 -12.5 106.5t-38.5 68.5t-64.5 38t-89.5 15v198q52 2 91 13t64.5 35.5t37.5 66t12 107.5v176q0 112 20.5 197t64.5 142t115 86t172 29h44v-208q-50 0 -83.5 -10t-53 -36.5t-27.5 -74t-8 -121.5v-176 q0 -82 -13.5 -139.5t-38 -96t-59.5 -59.5t-79 -28v-3q43 -7 78 -29t59.5 -62t38.5 -99.5t14 -140.5v-274q0 -74 8 -121.5t27.5 -74.5t53 -37.5t83.5 -10.5v-210h-44z" />
<glyph unicode="|" horiz-adv-x="590" d="M187 -493v2048h207v-2048h-207z" />
<glyph unicode="}" horiz-adv-x="737" d="M693 542q-51 -3 -89.5 -15t-64 -38t-38.5 -68.5t-13 -106.5v-277q0 -119 -21 -205t-65.5 -142t-115.5 -82.5t-170 -26.5h-44v210q50 0 83 10.5t53 37.5t28.5 74.5t8.5 121.5v274q0 81 13.5 140.5t38 99.5t59 62t77.5 29v3q-43 6 -78 27t-59.5 59t-37.5 95.5t-13 137.5 v180q0 74 -8.5 121.5t-28.5 74t-53 36.5t-83 10v208h44q102 0 173 -29t115 -86t64 -142t20 -197v-172q0 -67 12.5 -109.5t38 -67.5t64 -36t90.5 -13v-198v0z" />
<glyph unicode="~" d="M1041 1159q0 -74 -21.5 -134.5t-61.5 -103t-96.5 -66t-128.5 -23.5q-58 0 -99 15.5t-70.5 39.5t-51.5 51.5t-42.5 51t-42 39.5t-50.5 16q-25 0 -43 -10.5t-29.5 -31.5t-17.5 -52t-6 -71h-194v37q0 74 21 134t61.5 103t97.5 66.5t128 23.5q58 0 99 -15.5t70.5 -39.5 t52 -52t42.5 -51.5t41.5 -39.5t50.5 -16q24 0 42.5 10.5t30 31.5t17.5 52.5t6 71.5h194v-37v0z" />
<glyph unicode="&#xa1;" horiz-adv-x="657" d="M473 885q0 -32 -12.5 -60.5t-34 -49.5t-50.5 -33t-63 -12t-63 12t-50.5 33t-34 49.5t-12.5 60.5q0 33 12.5 61t34 49t50.5 33.5t63 12.5t63 -12.5t50.5 -33.5t34 -49t12.5 -61zM158 -432l39 1065h225l44 -1065h-308z" />
<glyph unicode="&#xa2;" horiz-adv-x="979" d="M653 1204q53 0 109 -8.5t108 -24.5v-329h-168l-20 143q-23 5 -46 7.5t-48 2.5q-51 1 -94.5 -18t-75 -56t-49 -91t-17.5 -123q0 -60 14.5 -110t47.5 -86.5t85.5 -56.5t127.5 -20q60 0 121.5 13t115.5 36l17 -229q-53 -16 -110.5 -28t-117.5 -17v-258h-196v260 q-93 12 -163 51t-117.5 101.5t-71 145.5t-23.5 183q0 97 25.5 181t73.5 150t117.5 110t158.5 61v227h196v-217z" />
<glyph unicode="&#xa3;" horiz-adv-x="1087" d="M109 0v201q50 30 89 60t66 65t41 77t14 97q0 15 -3.5 52t-8.5 91h-190v203h170q-3 24 -7 52t-7.5 56t-6 55.5t-2.5 51.5q0 204 101.5 296.5t304.5 92.5q25 0 56.5 -2t64.5 -6t65 -9.5t57 -11.5v-323h-165q-8 35 -14 68t-9 65q-12 2 -25.5 3t-25.5 1q-71 0 -108.5 -43.5 t-37.5 -130.5q0 -40 6.5 -96.5t14.5 -118.5h258v-203h-240q5 -29 6.5 -57.5t1.5 -53.5q0 -101 -38 -175t-111 -140q26 2 62.5 4t70.5 2h209q3 38 10 82.5t15 81.5h194v-387h-878z" />
<glyph unicode="&#xa4;" d="M854 96l-157 212q-34 -16 -73 -24.5t-80 -8.5q-32 0 -59.5 4.5t-53.5 12.5l-141 -193l-202 142l140 175q-33 46 -51.5 108t-18.5 145q0 75 20.5 138t59.5 112l-149 189l199 141l146 -198q34 14 71 20t77 6q32 0 66 -4.5t65 -17.5l143 197l198 -146l-144 -182 q27 -42 42.5 -100t15.5 -135q0 -73 -19.5 -134.5t-55.5 -110.5l161 -202zM740 684q0 47 -10.5 84.5t-32 64t-55.5 40.5t-81 14q-35 0 -66.5 -13.5t-55.5 -39.5t-38 -65.5t-14 -90.5q0 -46 10 -84.5t31 -67t54.5 -45t80.5 -16.5q34 0 66 13t56.5 40t39.5 68.5t15 97.5z" />
<glyph unicode="&#xa5;" horiz-adv-x="1264" d="M1235 1213q-24 -6 -52.5 -10.5t-54.5 -7.5l-286 -519h249v-146h-330v-118h330v-148h-330v-89q47 -3 92.5 -10t86.5 -17v-148h-621v148q40 10 86 17t92 10v89h-329v148h329v118h-329v146h248l-280 519q-23 3 -53.5 7.5t-53.5 10.5v169h516v-169q-29 -7 -61 -11.5t-63 -7.5 l117 -240q28 -52 52 -98.5t43 -89.5h5q21 47 49.5 99.5t56.5 102.5l113 226q-32 3 -63.5 7.5t-59.5 11.5v169h501v-169v0z" />
<glyph unicode="&#xa6;" horiz-adv-x="590" d="M187 801v754h207v-754h-207zM187 -493v774h207v-774h-207z" />
<glyph unicode="&#xa7;" horiz-adv-x="1085" d="M938 505q0 -44 -11.5 -86t-32 -79.5t-50 -70.5t-64.5 -59q34 -44 55.5 -96t21.5 -119q0 -62 -25 -122t-80.5 -108.5t-143.5 -77.5t-213 -29q-18 0 -39.5 1t-44 4t-44.5 6.5t-42 8.5l17 220q21 -7 40.5 -11.5t39.5 -7.5t39 -4.5t38 -1.5q45 0 78.5 9.5t55.5 26.5t32 39.5 t10 49.5q0 35 -19 67t-51 64t-72.5 65.5t-83 70t-83.5 78.5t-73 90.5t-51 106.5t-19 127q0 44 10 86t30.5 79.5t49.5 70.5t66 60q-37 47 -56.5 97t-19.5 115q0 66 23.5 127t75 107.5t133.5 74t198 27.5q40 0 84.5 -4t83.5 -13l-15 -216q-37 11 -72.5 15.5t-72.5 4.5 q-83 0 -120.5 -29.5t-37.5 -85.5q0 -33 19.5 -65.5t51 -64t72.5 -66.5t84 -73.5t84 -81.5t73 -93t51.5 -107.5t19.5 -126.5zM701 471q0 50 -22.5 93t-60.5 84.5t-87.5 85.5t-104.5 97q-33 -26 -49.5 -60.5t-16.5 -70.5q0 -45 18.5 -85t53.5 -81.5t86.5 -88t117.5 -103.5 q34 25 49.5 59.5t15.5 69.5z" />
<glyph unicode="&#xa8;" horiz-adv-x="1118" d="M889 1328q0 -29 -11 -55t-30 -45.5t-45 -30t-55 -10.5q-30 0 -55.5 10.5t-45 30t-30.5 45.5t-11 55t11 55t30.5 45.5t45 30.5t55.5 11q29 0 55 -11t45 -30.5t30 -45.5t11 -55zM475 1328q0 -29 -11 -55t-30 -45.5t-45 -30t-56 -10.5q-29 0 -54.5 10.5t-45 30t-30.5 45.5 t-11 55t11 55t30.5 45.5t45 30.5t54.5 11q30 0 56 -11t45 -30.5t30 -45.5t11 -55z" />
<glyph unicode="&#xa9;" horiz-adv-x="1561" d="M1478 684q0 -96 -21.5 -186t-65.5 -169.5t-112 -146.5t-147.5 -110.5t-168.5 -65.5t-185 -22q-98 0 -188 19t-173.5 61.5t-149 108.5t-108.5 151t-62 173.5t-19 185.5q0 96 24.5 185.5t70.5 167.5t109.5 141.5t141.5 109.5t167.5 71t186.5 25t188.5 -22.5t172 -67 t144.5 -108t108 -142t65.5 -170.5t21.5 -189zM1281 683q0 69 -15.5 133t-47.5 123t-78 105t-103 78.5t-123.5 49t-135.5 16.5q-104 0 -198 -39t-161 -107.5t-105.5 -161t-38.5 -196.5t31 -196t107.5 -170.5t173.5 -109t191 -30.5q69 0 133.5 17.5t121 47.5t102.5 76.5 t79.5 105t50 123.5t16.5 135zM992 356q-49 -18 -101 -26t-106 -8q-93 0 -158.5 25.5t-107.5 71.5t-61 110t-19 140q0 74 20.5 143.5t65 122t116 84.5t173.5 32q39 0 80.5 -5.5t81.5 -15.5l1 -255h-130q-5 27 -9 52.5t-8 51.5q-10 2 -22 2.5t-23 0.5q-37 0 -63.5 -14t-43 -39 t-24 -60.5t-7.5 -79.5q0 -51 9.5 -87.5t30.5 -60.5t54.5 -35.5t80.5 -11.5q36 0 72.5 5.5t72.5 21.5z" />
<glyph unicode="&#xaa;" horiz-adv-x="876" d="M841 680q-34 -5 -75 -8t-84 -5t-87 -2.5t-84 1.5q0 23 1.5 51t6.5 56l-4 1q-11 -26 -33 -48t-51 -38.5t-64 -26.5t-72 -10q-55 0 -96 14.5t-68 40.5t-40 61t-13 77q0 66 30.5 115.5t86 82.5t132.5 50t169 18v33q0 20 -4.5 38t-18 32t-38.5 22t-63 8q-28 0 -51 -3.5 t-43 -9.5q-2 -23 -5.5 -46.5t-9.5 -45.5h-133v223q24 8 54 15.5t63.5 13t70 9.5t72.5 4q94 0 155.5 -18.5t98 -52t51.5 -81t15 -105.5v-303q15 -2 32 -4t34.5 -4.5t34.5 -4t30 -2.5v-148zM113 360v203h670v-203h-670zM496 977q-52 0 -92.5 -5.5t-67.5 -18t-41.5 -32 t-14.5 -47.5q0 -29 20 -47.5t57 -18.5q35 0 61.5 15.5t43.5 38t25.5 48t8.5 46.5v21z" />
<glyph unicode="&#xab;" horiz-adv-x="1093" d="M774 211l-243 388l247 392l197 -94l-191 -298l194 -292zM307 202l-222 397l226 401l203 -91l-176 -310l179 -304z" />
<glyph unicode="&#xac;" d="M771 195v306h-691v218h922v-524h-231z" />
<glyph unicode="&#xae;" horiz-adv-x="1155" d="M1057 1087q-1 -99 -38 -187.5t-102 -152.5t-153.5 -98.5t-186.5 -34.5q-100 0 -187.5 36.5t-152.5 100t-102.5 150t-37.5 186.5q0 98 38 184t103.5 150t152.5 100.5t186 36.5q104 0 191 -35t152 -98.5t100.5 -151t36.5 -186.5zM897 1085q0 66 -21.5 127t-65 105t-105 68 t-128.5 24q-66 0 -128 -22.5t-105.5 -66.5t-65.5 -104.5t-22 -127.5q0 -66 23.5 -126t67 -104.5t104 -69.5t126.5 -25q67 0 128 23t104.5 66.5t65.5 104.5t22 128zM643 860l-65 172h-31v-84q9 -2 20 -5t21 -8v-75h-201v74q12 5 26 8.5t21 5.5v281q-7 2 -21 5.5t-26 7.5v74 h51q14 0 33 0.5t39.5 1.5t41 1.5t37.5 0.5q43 0 71.5 -7.5t54.5 -22t38 -39t14 -63.5q0 -44 -22 -77t-59 -47q8 -12 14 -23.5t10 -19.5l30 -73q12 -3 22.5 -6t19.5 -7v-75h-139zM643 1176q0 23 -13.5 35t-45.5 12h-19t-18 -1v-100q6 0 13.5 -0.5t13.5 -0.5q19 0 32 4.5 t21.5 12t12 17.5t3.5 21z" />
<glyph unicode="&#xaf;" horiz-adv-x="809" d="M128 1228v190h553v-190h-553z" />
<glyph unicode="&#xb0;" horiz-adv-x="795" d="M696 1228q0 -70 -26.5 -124.5t-70.5 -91t-101 -55.5t-117 -19q-68 0 -123 19.5t-93 56.5t-58.5 89.5t-20.5 119.5q0 68 27 121.5t71 90.5t99.5 56.5t112.5 19.5q80 0 136.5 -23t93 -61.5t53.5 -90t17 -108.5zM502 1228q0 22 -6 43t-19.5 38t-34 27.5t-48.5 10.5 q-25 0 -45.5 -8.5t-36 -24.5t-24 -38.5t-8.5 -49.5q0 -59 30.5 -91t81.5 -32q25 0 45 9.5t34.5 26t22.5 39.5t8 50z" />
<glyph unicode="&#xb1;" d="M688 709v-374h-249v374h-359v217h359v372h249v-372h358v-217h-358zM87 0l-1 217h952l1 -217h-952z" />
<glyph unicode="&#xb2;" horiz-adv-x="791" d="M62 553v189l181 144q58 40 95.5 72.5t59.5 59.5t30.5 50.5t8.5 46.5q0 22 -6 40.5t-19.5 32t-34.5 20.5t-50 7q-21 0 -41 -3t-37 -11q-4 -28 -8.5 -60.5t-10.5 -66.5h-158v283q62 22 141.5 35.5t160.5 13.5q86 0 147.5 -18t102 -51t59.5 -79.5t19 -102.5q0 -84 -41 -155 t-132 -140l-129 -103q55 3 135.5 4t191.5 1v-209h-665z" />
<glyph unicode="&#xb3;" horiz-adv-x="753" d="M708 808q0 -63 -29.5 -114.5t-84 -88t-131.5 -56.5t-171 -20q-68 0 -125.5 6t-103.5 15l22 175q24 -5 47.5 -9.5t47.5 -7.5t49.5 -5t54.5 -2q38 0 68 5.5t51.5 16.5t32.5 28.5t11 41.5q0 27 -13 47t-50 31.5t-103 12.5t-171 -10v160q95 0 157.5 7.5t99 22.5t51 37 t14.5 52q0 18 -6.5 33t-20 26.5t-34 18.5t-47.5 7q-18 0 -37 -2.5t-35 -5.5q-3 -26 -7.5 -53t-10.5 -49h-157v246q31 7 65.5 13t70.5 10.5t72 6.5t73 2q83 0 144 -16t100 -45.5t58 -70t19 -89.5q0 -71 -33.5 -119t-95.5 -73q37 -8 66 -25.5t49.5 -42t31.5 -55t11 -62.5z" />
<glyph unicode="&#xb4;" horiz-adv-x="805" d="M279 1146l-97 142l347 255l121 -174z" />
<glyph unicode="&#xb6;" horiz-adv-x="1206" d="M981 1174v-1371h-365v209h142v1370h356v-208h-133zM599 472q-128 0 -220 36.5t-151.5 99t-87.5 145.5t-28 176q0 103 35.5 186.5t100 143t154 91.5t197.5 32v-910z" />
<glyph unicode="&#xb7;" horiz-adv-x="551" d="M446 609q0 -35 -13.5 -66t-36.5 -54t-54 -36t-66 -13t-66 13t-54 36t-36.5 54t-13.5 66t13.5 66t36.5 54.5t54 36.5t66 13t66 -13t54 -36.5t36.5 -54.5t13.5 -66z" />
<glyph unicode="&#xb8;" horiz-adv-x="819" d="M524 -82q40 -54 54.5 -106.5t8 -102t-33.5 -97t-71 -92.5h-196q37 45 59 85t25.5 79t-11 80t-51.5 87l216 67v0z" />
<glyph unicode="&#xb9;" horiz-adv-x="688" d="M490 733q37 -4 78 -11t81 -16v-153h-592v153q36 9 82.5 16.5t97.5 10.5v440l-162 -67l-38 197l237 86h216v-656v0z" />
<glyph unicode="&#xba;" horiz-adv-x="900" d="M819 1039q0 -89 -29.5 -161.5t-81.5 -123t-123 -78t-153 -27.5q-73 0 -137 20t-111.5 63.5t-75 113.5t-27.5 171q0 90 30 162.5t82 122.5t121.5 76.5t148.5 26.5q75 0 140 -19.5t113 -63t75.5 -113.5t27.5 -170zM119 360v203h662v-203h-662zM596 1028q0 43 -8 78.5 t-25 61.5t-45 40.5t-67 14.5q-27 0 -53 -10.5t-47 -33.5t-34 -60t-13 -90q0 -38 7.5 -74t24 -64t43.5 -44.5t66 -16.5q30 0 57.5 11t48 34.5t33 61t12.5 91.5z" />
<glyph unicode="&#xbb;" horiz-adv-x="1093" d="M782 202l-202 90l175 311l-177 304l209 93l221 -397zM315 211l-196 94l191 298l-193 292l204 96l241 -388z" />
<glyph unicode="&#xbc;" horiz-adv-x="1588" d="M82 686v117q30 7 67.5 13t79.5 11v392l-133 -56l-39 149l190 74h195v-559q32 -3 65.5 -10t64.5 -14v-117h-490zM1416 115q28 -7 51.5 -12.5t47.5 -11.5v-91h-418v91q24 7 51 12.5t57 12.5v57h-303l-23 138l263 385h274v-376h123v-147h-123v-58zM1054 320h156v236z M385 -70l-187 135l1006 1371l188 -136z" />
<glyph unicode="&#xbd;" horiz-adv-x="1647" d="M82 686v117q30 7 67.5 13t79.5 11v392l-133 -56l-39 149l190 74h195v-559q32 -3 65.5 -10t64.5 -14v-117h-490zM1579 167v-167h-587v166l170 131q41 28 71.5 50t50.5 42t30 40t10 44q0 39 -22.5 62t-64.5 23q-17 0 -33 -2.5t-30 -7.5q-7 -28 -12.5 -53t-13.5 -52h-135 l8 228q25 8 56 16t66 14.5t72.5 10.5t75.5 4q73 0 125.5 -15t86.5 -41t50.5 -62t16.5 -78q0 -44 -12 -79.5t-33 -65t-48.5 -54.5t-58.5 -46l-136 -108h297zM385 -70l-187 135l1006 1371l188 -136z" />
<glyph unicode="&#xbe;" horiz-adv-x="1591" d="M1418 115q28 -7 52 -12.5t48 -11.5v-91h-418v91q24 7 51 12.5t56 12.5v57h-302l-24 138l263 385h274v-376h123v-147h-123v-58zM1056 320h156v236zM622 904q0 -55 -25.5 -98.5t-72.5 -73.5t-115 -46t-154 -16q-47 0 -90.5 4.5t-77.5 11.5q4 34 10 71.5t12 73.5 q35 -10 71 -15.5t74 -5.5q36 0 65 5t48.5 15t29.5 25.5t10 36.5q0 44 -48.5 57.5t-146.5 9.5q-18 -1 -37 -2t-41 -3v137h42q67 0 109 8.5t66 22.5t33 32.5t9 37.5q0 17 -6 31t-17.5 24t-30.5 15.5t-44 5.5q-15 0 -27 -1.5t-22 -4.5q-3 -21 -8 -44t-11 -39h-123v196 q53 13 107.5 21t120.5 8q64 0 114.5 -10.5t85 -32.5t53 -56t18.5 -81q0 -62 -30.5 -102t-81.5 -64q65 -13 98 -55.5t33 -98.5zM398 -70l-188 135l1007 1371l188 -136z" />
<glyph unicode="&#xbf;" horiz-adv-x="924" d="M689 885q0 -32 -12.5 -60.5t-34 -49.5t-51 -33t-62.5 -12q-34 0 -63 12t-50.5 33t-34 49.5t-12.5 60.5q0 33 12.5 61t34 49t50.5 33.5t63 12.5q33 0 62.5 -12.5t51 -33.5t34 -49t12.5 -61zM754 -450q-169 4 -293 40t-205 93.5t-120.5 131.5t-39.5 154q0 64 17.5 113 t45 89t61.5 73t67 63.5t62.5 62.5t48 70.5t22 85t-14.5 107.5h255q24 -73 25.5 -130t-13.5 -103.5t-42 -83.5t-59.5 -69t-66 -61t-60.5 -58.5t-44 -61.5t-17 -70q0 -46 27.5 -83t79.5 -64t126.5 -43t169.5 -19z" />
<glyph unicode="&#xc0;" horiz-adv-x="1427" d="M865 0v165q34 7 71 13t72 10l-60 176h-497l-60 -173q36 -3 74.5 -10.5t71.5 -15.5v-165h-521v166q25 7 54.5 14.5t55.5 10.5l413 1191h344l420 -1196q25 -2 54 -7.5t54 -12.5v-166h-546zM764 925q-18 56 -34 109t-30 110h-3q-13 -57 -27.5 -110t-32.5 -110l-123 -352h372 zM843 1467l-442 109l61 186l424 -153z" />
<glyph unicode="&#xc1;" horiz-adv-x="1427" d="M865 0v165q34 7 71 13t72 10l-60 176h-497l-60 -173q36 -3 74.5 -10.5t71.5 -15.5v-165h-521v166q25 7 54.5 14.5t55.5 10.5l413 1191h344l420 -1196q25 -2 54 -7.5t54 -12.5v-166h-546zM764 925q-18 56 -34 109t-30 110h-3q-13 -57 -27.5 -110t-32.5 -110l-123 -352h372 zM581 1467l-43 142l424 153l60 -186z" />
<glyph unicode="&#xc2;" horiz-adv-x="1427" d="M865 0v165q34 7 71 13t72 10l-60 176h-497l-60 -173q36 -3 74.5 -10.5t71.5 -15.5v-165h-521v166q25 7 54.5 14.5t55.5 10.5l413 1191h344l420 -1196q25 -2 54 -7.5t54 -12.5v-166h-546zM764 925q-18 56 -34 109t-30 110h-3q-13 -57 -27.5 -110t-32.5 -110l-123 -352h372 zM988 1465l-283 114l-273 -113l-58 131l338 175l340 -168z" />
<glyph unicode="&#xc3;" horiz-adv-x="1427" d="M865 0v165q34 7 71 13t72 10l-60 176h-497l-60 -173q36 -3 74.5 -10.5t71.5 -15.5v-165h-521v166q25 7 54.5 14.5t55.5 10.5l413 1191h344l420 -1196q25 -2 54 -7.5t54 -12.5v-166h-546zM764 925q-18 56 -34 109t-30 110h-3q-13 -57 -27.5 -110t-32.5 -110l-123 -352h372 zM1088 1659q-47 -82 -111 -125.5t-146 -43.5q-53 0 -89 15t-64.5 33t-53.5 33t-55 15q-36 0 -64.5 -21t-53.5 -65l-130 88q46 82 110.5 125.5t146.5 43.5q53 0 89 -15t64.5 -33t53.5 -33t55 -15q36 0 64 21.5t54 64.5l130 -88v0z" />
<glyph unicode="&#xc4;" horiz-adv-x="1427" d="M865 0v165q34 7 71 13t72 10l-60 176h-497l-60 -173q36 -3 74.5 -10.5t71.5 -15.5v-165h-521v166q25 7 54.5 14.5t55.5 10.5l413 1191h344l420 -1196q25 -2 54 -7.5t54 -12.5v-166h-546zM764 925q-18 56 -34 109t-30 110h-3q-13 -57 -27.5 -110t-32.5 -110l-123 -352h372 zM1059 1607q0 -29 -10.5 -53.5t-29 -43t-43.5 -29t-53 -10.5q-29 0 -54 10.5t-43.5 29t-29.5 43t-11 53.5q0 28 11 53t29.5 43.5t43.5 29t54 10.5q28 0 53 -10.5t43.5 -29t29 -43.5t10.5 -53zM618 1607q0 -29 -11 -53.5t-29.5 -43t-43 -29t-53.5 -10.5t-53.5 10.5t-43 29 t-29.5 43t-11 53.5q0 28 11 53t29.5 43.5t43 29t53.5 10.5t53.5 -10.5t43 -29t29.5 -43.5t11 -53z" />
<glyph unicode="&#xc5;" horiz-adv-x="1428" d="M865 0v165q34 7 71 13t72 10l-60 176h-497l-60 -173q36 -3 74.5 -10.5t71.5 -15.5v-165h-521v166q25 7 54.5 14.5t55.5 10.5l413 1191h344l420 -1196q25 -2 54 -7.5t54 -12.5v-166h-546zM764 925q-18 56 -34 109t-30 110h-3q-13 -57 -27.5 -110t-32.5 -110l-123 -352h372 zM940 1687q0 -48 -19.5 -90t-52 -73t-76.5 -49t-94 -18q-49 0 -92.5 16.5t-76 46.5t-51 71.5t-18.5 92.5q0 49 19 91t52 72.5t76.5 48t92.5 17.5q50 0 93.5 -16.5t76 -47t51.5 -72t19 -90.5zM797 1685q0 20 -8 38t-21.5 31.5t-31 21.5t-37.5 8t-37.5 -8t-30.5 -21.5 t-21 -31.5t-8 -38t8 -38t21 -31.5t30.5 -21t37.5 -7.5t37.5 7.5t31 21t21.5 31.5t8 38z" />
<glyph unicode="&#xc6;" horiz-adv-x="1690" d="M665 0v169q33 7 72 13t74 9v161h-413l-85 -164q15 -2 31 -4t32.5 -5t32.5 -6.5t29 -7.5v-165h-501v166q25 7 54 13t56 8l529 1004q-46 3 -92 10t-86 16v165h1174v-349h-199q-7 39 -13 74.5t-9 64.5h-274v-367h224q4 30 9.5 58t13.5 55h171v-416h-171q-8 26 -13.5 55 t-9.5 57h-224v-400h284q4 36 10 72.5t13 76.5h200v-363h-919zM811 1169h-8q-16 -36 -31.5 -71t-32.5 -72t-36 -75.5t-40 -80.5l-166 -310h314v609z" />
<glyph unicode="&#xc7;" horiz-adv-x="1182" d="M1106 49q-43 -15 -90.5 -28t-97.5 -22t-100.5 -14t-99.5 -5q-162 0 -283 47t-201 134t-119.5 210.5t-39.5 277.5q0 165 44.5 303t131.5 237.5t215.5 154.5t297.5 55q80 0 162 -10.5t161 -27.5v-397h-203q-9 48 -14.5 90t-10.5 83q-36 8 -71 12.5t-70 4.5 q-82 0 -146.5 -33t-109.5 -93.5t-69 -146t-24 -189.5q0 -108 23 -194.5t72.5 -147.5t127 -94t187.5 -33q36 0 74.5 4.5t76.5 12t73 18.5t66 25l37 -234v0zM751 -82q40 -54 54.5 -106.5t8 -102t-33.5 -97t-71 -92.5h-196q37 45 59 85t25.5 79t-11 80t-51.5 87l216 67v0z" />
<glyph unicode="&#xc8;" horiz-adv-x="1100" d="M47 0v165q40 9 85.5 16t92.5 10v1000q-47 3 -92.5 10t-85.5 16v165h942v-349h-198q-7 39 -13 74.5t-9 64.5h-278v-368h225q4 30 9.5 58t12.5 55h171v-415h-171q-8 26 -13.5 55t-8.5 57h-225v-400h280q4 36 10 72.5t13 76.5h201v-363h-948zM663 1467l-442 109l61 186 l424 -153z" />
<glyph unicode="&#xc9;" horiz-adv-x="1100" d="M47 0v165q40 9 85.5 16t92.5 10v1000q-47 3 -92.5 10t-85.5 16v165h942v-349h-198q-7 39 -13 74.5t-9 64.5h-278v-368h225q4 30 9.5 58t12.5 55h171v-415h-171q-8 26 -13.5 55t-8.5 57h-225v-400h280q4 36 10 72.5t13 76.5h201v-363h-948zM445 1467l-43 142l424 153 l60 -186z" />
<glyph unicode="&#xca;" horiz-adv-x="1100" d="M47 0v165q40 9 85.5 16t92.5 10v1000q-47 3 -92.5 10t-85.5 16v165h942v-349h-198q-7 39 -13 74.5t-9 64.5h-278v-368h225q4 30 9.5 58t12.5 55h171v-415h-171q-8 26 -13.5 55t-8.5 57h-225v-400h280q4 36 10 72.5t13 76.5h201v-363h-948zM832 1465l-283 114l-273 -113 l-58 131l338 175l340 -168z" />
<glyph unicode="&#xcb;" horiz-adv-x="1100" d="M47 0v165q40 9 85.5 16t92.5 10v1000q-47 3 -92.5 10t-85.5 16v165h942v-349h-198q-7 39 -13 74.5t-9 64.5h-278v-368h225q4 30 9.5 58t12.5 55h171v-415h-171q-8 26 -13.5 55t-8.5 57h-225v-400h280q4 36 10 72.5t13 76.5h201v-363h-948zM898 1607q0 -29 -10.5 -53.5 t-29 -43t-43.5 -29t-53 -10.5q-29 0 -54 10.5t-43.5 29t-29.5 43t-11 53.5q0 28 11 53t29.5 43.5t43.5 29t54 10.5q28 0 53 -10.5t43.5 -29t29 -43.5t10.5 -53zM457 1607q0 -29 -11 -53.5t-29.5 -43t-43 -29t-53.5 -10.5t-53.5 10.5t-43 29t-29.5 43t-11 53.5q0 28 11 53 t29.5 43.5t43 29t53.5 10.5t53.5 -10.5t43 -29t29.5 -43.5t11 -53z" />
<glyph unicode="&#xcc;" horiz-adv-x="716" d="M47 0v165q40 9 85.5 16t92.5 10v1000q-47 3 -92.5 10t-85.5 16v165h622v-165q-40 -9 -86 -16t-92 -10v-1000q46 -3 92 -10t86 -16v-165h-622zM482 1467l-442 109l61 186l424 -153z" />
<glyph unicode="&#xcd;" horiz-adv-x="716" d="M47 0v165q40 9 85.5 16t92.5 10v1000q-47 3 -92.5 10t-85.5 16v165h622v-165q-40 -9 -86 -16t-92 -10v-1000q46 -3 92 -10t86 -16v-165h-622zM195 1467l-43 142l424 153l60 -186z" />
<glyph unicode="&#xce;" horiz-adv-x="716" d="M47 0v165q40 9 85.5 16t92.5 10v1000q-47 3 -92.5 10t-85.5 16v165h622v-165q-40 -9 -86 -16t-92 -10v-1000q46 -3 92 -10t86 -16v-165h-622zM632 1465l-283 114l-273 -113l-58 131l338 175l340 -168z" />
<glyph unicode="&#xcf;" horiz-adv-x="716" d="M47 0v165q40 9 85.5 16t92.5 10v1000q-47 3 -92.5 10t-85.5 16v165h622v-165q-40 -9 -86 -16t-92 -10v-1000q46 -3 92 -10t86 -16v-165h-622zM716 1607q0 -29 -10.5 -53.5t-29 -43t-43.5 -29t-53 -10.5q-29 0 -54 10.5t-43.5 29t-29.5 43t-11 53.5q0 28 11 53t29.5 43.5 t43.5 29t54 10.5q28 0 53 -10.5t43.5 -29t29 -43.5t10.5 -53zM275 1607q0 -29 -11 -53.5t-29.5 -43t-43 -29t-53.5 -10.5t-53.5 10.5t-43 29t-29.5 43t-11 53.5q0 28 11 53t29.5 43.5t43 29t53.5 10.5t53.5 -10.5t43 -29t29.5 -43.5t11 -53z" />
<glyph unicode="&#xd0;" horiz-adv-x="1468" d="M1391 714q0 -177 -55.5 -312t-155 -226.5t-240 -137.5t-310.5 -46q-106 0 -200.5 4t-184.5 4h-178v165q40 9 86 16t92 10v411h-152v202h152v387q-46 3 -92 10t-86 16v165h173q42 0 94.5 1.5t110.5 3t121.5 2.5t127.5 1q107 0 200.5 -16t170.5 -51t138 -89t102.5 -129 t63.5 -172t22 -219zM1108 694q0 111 -23.5 199t-75 148.5t-133.5 93t-200 32.5q-23 0 -45.5 -0.5t-43 -1t-39.5 -1.5t-36 -2v-358h251v-202h-251v-372q14 -3 31.5 -4.5t36.5 -3t38.5 -2t39.5 -0.5q98 0 181 28t142.5 86.5t93 147.5t33.5 212z" />
<glyph unicode="&#xd1;" horiz-adv-x="1570" d="M1524 1213q-30 -7 -63 -13t-66 -10v-1190h-361l-418 725q-22 40 -43 81.5t-40.5 84t-37 84.5t-32.5 82q5 -79 9 -170t6.5 -197.5t3 -230.5t0.5 -268q37 -3 75 -8.5t73 -13.5v-169h-583v165q40 9 85.5 16t92.5 10v1000q-47 3 -92.5 10t-85.5 16v165h539l415 -722 q21 -39 41.5 -80t40 -82.5t38 -82.5t34.5 -80q-6 84 -9.5 175t-5.5 195.5t-2.5 224t-0.5 260.5q-37 3 -72.5 9t-67.5 14v169h527v-169v0zM1180 1659q-47 -82 -111 -125.5t-146 -43.5q-53 0 -89 15t-64.5 33t-53.5 33t-55 15q-36 0 -64.5 -21t-53.5 -65l-130 88 q46 82 110.5 125.5t146.5 43.5q53 0 89 -15t64.5 -33t53.5 -33t55 -15q36 0 64 21.5t54 64.5l130 -88v0z" />
<glyph unicode="&#xd2;" horiz-adv-x="1440" d="M1372 713q0 -173 -53.5 -309.5t-145 -231.5t-214.5 -145.5t-262 -50.5q-157 0 -275 49t-196.5 139t-118 218.5t-39.5 287.5q0 172 53.5 308.5t145 231.5t214 145.5t261.5 50.5q157 0 275 -49t197 -139t118.5 -218t39.5 -287zM1089 681q0 111 -22.5 200.5t-68.5 152.5 t-115 97.5t-161 34.5q-80 0 -148 -30t-117.5 -89t-77.5 -145.5t-28 -199.5q0 -110 22.5 -200t68 -153t114.5 -97t162 -34q80 0 148 30t118 88.5t77.5 145.5t27.5 199zM852 1467l-442 109l61 186l424 -153z" />
<glyph unicode="&#xd3;" horiz-adv-x="1440" d="M1372 713q0 -173 -53.5 -309.5t-145 -231.5t-214.5 -145.5t-262 -50.5q-157 0 -275 49t-196.5 139t-118 218.5t-39.5 287.5q0 172 53.5 308.5t145 231.5t214 145.5t261.5 50.5q157 0 275 -49t197 -139t118.5 -218t39.5 -287zM1089 681q0 111 -22.5 200.5t-68.5 152.5 t-115 97.5t-161 34.5q-80 0 -148 -30t-117.5 -89t-77.5 -145.5t-28 -199.5q0 -110 22.5 -200t68 -153t114.5 -97t162 -34q80 0 148 30t118 88.5t77.5 145.5t27.5 199zM617 1467l-43 142l424 153l60 -186z" />
<glyph unicode="&#xd4;" horiz-adv-x="1440" d="M1372 713q0 -173 -53.5 -309.5t-145 -231.5t-214.5 -145.5t-262 -50.5q-157 0 -275 49t-196.5 139t-118 218.5t-39.5 287.5q0 172 53.5 308.5t145 231.5t214 145.5t261.5 50.5q157 0 275 -49t197 -139t118.5 -218t39.5 -287zM1089 681q0 111 -22.5 200.5t-68.5 152.5 t-115 97.5t-161 34.5q-80 0 -148 -30t-117.5 -89t-77.5 -145.5t-28 -199.5q0 -110 22.5 -200t68 -153t114.5 -97t162 -34q80 0 148 30t118 88.5t77.5 145.5t27.5 199zM1014 1465l-283 114l-273 -113l-58 131l338 175l340 -168z" />
<glyph unicode="&#xd5;" horiz-adv-x="1440" d="M1372 713q0 -173 -53.5 -309.5t-145 -231.5t-214.5 -145.5t-262 -50.5q-157 0 -275 49t-196.5 139t-118 218.5t-39.5 287.5q0 172 53.5 308.5t145 231.5t214 145.5t261.5 50.5q157 0 275 -49t197 -139t118.5 -218t39.5 -287zM1089 681q0 111 -22.5 200.5t-68.5 152.5 t-115 97.5t-161 34.5q-80 0 -148 -30t-117.5 -89t-77.5 -145.5t-28 -199.5q0 -110 22.5 -200t68 -153t114.5 -97t162 -34q80 0 148 30t118 88.5t77.5 145.5t27.5 199zM1117 1659q-47 -82 -111 -125.5t-146 -43.5q-53 0 -89 15t-64.5 33t-53.5 33t-55 15q-36 0 -64.5 -21 t-53.5 -65l-130 88q46 82 110.5 125.5t146.5 43.5q53 0 89 -15t64.5 -33t53.5 -33t55 -15q36 0 64 21.5t54 64.5l130 -88v0z" />
<glyph unicode="&#xd6;" horiz-adv-x="1440" d="M1372 713q0 -173 -53.5 -309.5t-145 -231.5t-214.5 -145.5t-262 -50.5q-157 0 -275 49t-196.5 139t-118 218.5t-39.5 287.5q0 172 53.5 308.5t145 231.5t214 145.5t261.5 50.5q157 0 275 -49t197 -139t118.5 -218t39.5 -287zM1089 681q0 111 -22.5 200.5t-68.5 152.5 t-115 97.5t-161 34.5q-80 0 -148 -30t-117.5 -89t-77.5 -145.5t-28 -199.5q0 -110 22.5 -200t68 -153t114.5 -97t162 -34q80 0 148 30t118 88.5t77.5 145.5t27.5 199zM1088 1607q0 -29 -10.5 -53.5t-29 -43t-43.5 -29t-53 -10.5q-29 0 -54 10.5t-43.5 29t-29.5 43t-11 53.5 q0 28 11 53t29.5 43.5t43.5 29t54 10.5q28 0 53 -10.5t43.5 -29t29 -43.5t10.5 -53zM647 1607q0 -29 -11 -53.5t-29.5 -43t-43 -29t-53.5 -10.5t-53.5 10.5t-43 29t-29.5 43t-11 53.5q0 28 11 53t29.5 43.5t43 29t53.5 10.5t53.5 -10.5t43 -29t29.5 -43.5t11 -53z" />
<glyph unicode="&#xd7;" d="M870 141l-316 316l-316 -316l-142 143l315 316l-315 315l160 160l315 -315l317 315l142 -142l-316 -315l316 -317z" />
<glyph unicode="&#xd8;" horiz-adv-x="1440" d="M1372 711q0 -172 -53 -308t-144.5 -231t-214.5 -145.5t-263 -50.5q-52 0 -98 5.5t-87 14.5l-91 -206l-187 82l92 205q-67 44 -115.5 105t-80 137t-47 165.5t-15.5 190.5q0 113 24 211.5t68.5 180t106 144.5t136.5 106t161 66t178 23q44 0 87 -4.5t83 -12.5l91 204 l187 -81l-89 -200q65 -39 115.5 -96t85 -132.5t52.5 -168.5t18 -204zM1099 689q0 69 -8.5 128t-24.5 107.5t-37.5 85t-46.5 60.5l-363 -849q22 -5 46 -8.5t50 -3.5q72 0 140.5 27t123 85t87.5 149t33 219zM805 1164q-15 4 -38.5 7t-46.5 3q-75 0 -144 -28.5t-121 -87 t-83 -147t-31 -209.5q0 -66 9 -123t23.5 -104.5t34 -84.5t41.5 -61l357 835h-1z" />
<glyph unicode="&#xd9;" horiz-adv-x="1456" d="M1409 1213q-61 -14 -126 -22v-660q0 -138 -37.5 -242t-110 -173.5t-179.5 -104.5t-244 -35q-110 0 -192 19t-142 53t-99 81t-62 102.5t-32.5 118.5t-9.5 129v712q-68 8 -128 22v169h542v-169q-35 -8 -73 -13.5t-74 -8.5v-695q0 -67 12 -123.5t44 -97t87.5 -63.5 t142.5 -23q77 0 132 18t90.5 57t52.5 102.5t17 153.5v671q-37 3 -75 8.5t-73 13.5v169h537v-169v0zM788 1467l-442 109l61 186l424 -153z" />
<glyph unicode="&#xda;" horiz-adv-x="1456" d="M1409 1213q-61 -14 -126 -22v-660q0 -138 -37.5 -242t-110 -173.5t-179.5 -104.5t-244 -35q-110 0 -192 19t-142 53t-99 81t-62 102.5t-32.5 118.5t-9.5 129v712q-68 8 -128 22v169h542v-169q-35 -8 -73 -13.5t-74 -8.5v-695q0 -67 12 -123.5t44 -97t87.5 -63.5 t142.5 -23q77 0 132 18t90.5 57t52.5 102.5t17 153.5v671q-37 3 -75 8.5t-73 13.5v169h537v-169v0zM645 1467l-43 142l424 153l60 -186z" />
<glyph unicode="&#xdb;" horiz-adv-x="1456" d="M1409 1213q-61 -14 -126 -22v-660q0 -138 -37.5 -242t-110 -173.5t-179.5 -104.5t-244 -35q-110 0 -192 19t-142 53t-99 81t-62 102.5t-32.5 118.5t-9.5 129v712q-68 8 -128 22v169h542v-169q-35 -8 -73 -13.5t-74 -8.5v-695q0 -67 12 -123.5t44 -97t87.5 -63.5 t142.5 -23q77 0 132 18t90.5 57t52.5 102.5t17 153.5v671q-37 3 -75 8.5t-73 13.5v169h537v-169v0zM1000 1465l-283 114l-273 -113l-58 131l338 175l340 -168z" />
<glyph unicode="&#xdc;" horiz-adv-x="1456" d="M1409 1213q-61 -14 -126 -22v-660q0 -138 -37.5 -242t-110 -173.5t-179.5 -104.5t-244 -35q-110 0 -192 19t-142 53t-99 81t-62 102.5t-32.5 118.5t-9.5 129v712q-68 8 -128 22v169h542v-169q-35 -8 -73 -13.5t-74 -8.5v-695q0 -67 12 -123.5t44 -97t87.5 -63.5 t142.5 -23q77 0 132 18t90.5 57t52.5 102.5t17 153.5v671q-37 3 -75 8.5t-73 13.5v169h537v-169v0zM1089 1607q0 -29 -10.5 -53.5t-29 -43t-43.5 -29t-53 -10.5q-29 0 -54 10.5t-43.5 29t-29.5 43t-11 53.5q0 28 11 53t29.5 43.5t43.5 29t54 10.5q28 0 53 -10.5t43.5 -29 t29 -43.5t10.5 -53zM648 1607q0 -29 -11 -53.5t-29.5 -43t-43 -29t-53.5 -10.5t-53.5 10.5t-43 29t-29.5 43t-11 53.5q0 28 11 53t29.5 43.5t43 29t53.5 10.5t53.5 -10.5t43 -29t29.5 -43.5t11 -53z" />
<glyph unicode="&#xdd;" horiz-adv-x="1251" d="M1236 1213q-23 -6 -52 -10.5t-55 -7.5l-372 -724v-280q46 -3 92 -10t86 -16v-165h-623v165q40 9 85.5 16t92.5 10v279l-367 725q-23 3 -53.5 7.5t-53.5 10.5v169h526v-169q-28 -7 -58.5 -11.5t-61.5 -7.5l125 -273q10 -24 21.5 -50t23.5 -53t23 -53t20 -50h2 q9 25 20 52.5t22.5 55.5t23.5 54.5t23 49.5l124 267q-33 3 -64 7.5t-60 11.5v169h510v-169v0zM558 1467l-43 142l424 153l60 -186z" />
<glyph unicode="&#xde;" horiz-adv-x="1242" d="M1198 730q0 -101 -39 -182.5t-108.5 -139t-166.5 -88t-214 -30.5q-56 0 -101 3t-78 6v-119q46 -3 92 -10.5t86 -16.5v-153h-622v163q40 9 85.5 16t92.5 10v1004q-47 3 -92.5 10t-85.5 17v162h622v-153q-40 -9 -86 -16t-92 -10v-97q18 1 40 2.5t47 2.5t52.5 1.5t55.5 0.5 q131 0 227 -26.5t159.5 -77t94.5 -121t31 -158.5zM907 708q0 37 -13 72t-43 62.5t-79.5 44.5t-122.5 17q-45 0 -83.5 -2t-74.5 -8v-380q27 -5 64.5 -8.5t83.5 -3.5q70 0 120.5 15.5t83.5 43.5t48.5 65.5t15.5 81.5z" />
<glyph unicode="&#xdf;" horiz-adv-x="1417" d="M1373 328q0 -69 -25.5 -131t-78 -109t-131 -74.5t-184.5 -27.5q-65 0 -127.5 5.5t-116.5 15.5v309h168q7 -31 11.5 -65t6.5 -61q15 -5 34 -7t37 -2q39 0 66 9t43.5 25.5t24 38t7.5 46.5q0 33 -18 58t-48 45t-68.5 38t-78 38.5t-77 45t-67.5 58t-48.5 78.5t-18.5 106 q0 53 17 91t41.5 67.5t53.5 54t53.5 50t41 56t16.5 73.5q0 30 -12 55t-34.5 44t-55.5 30t-76 11q-57 0 -101 -17t-74.5 -53t-46.5 -94t-16 -141v-802q38 -3 76.5 -9.5t63.5 -16.5v-166h-579v166q40 10 86 16.5t92 9.5v629q-37 7 -86.5 12.5t-94.5 8.5v165q41 5 87.5 8.5 t93.5 5.5q2 117 37 208t100 153t159.5 94.5t216.5 32.5q108 0 189.5 -24t136.5 -67t83 -101.5t28 -127.5q0 -62 -17 -103.5t-42 -71t-54.5 -51.5t-54.5 -43.5t-41.5 -48.5t-16.5 -65q0 -42 30.5 -71.5t77.5 -56t101.5 -54t101.5 -66.5t77.5 -94.5t30.5 -135.5z" />
<glyph unicode="&#xe0;" horiz-adv-x="1110" d="M1085 14q-44 -5 -94.5 -8.5t-104 -5.5t-107 -2.5t-102.5 1.5q0 44 1.5 88.5t8.5 84.5l-3 1q-18 -42 -50 -78t-74 -62t-93.5 -40t-107.5 -14q-69 0 -123 20t-91.5 56.5t-57 88t-19.5 113.5q0 91 43 158.5t120.5 112t186 67.5t238.5 24v59q0 41 -9 72.5t-30 53t-56 33 t-86 11.5q-37 0 -76.5 -7t-72.5 -17q-3 -31 -8.5 -65.5t-11.5 -68.5h-165v297q81 24 171 39.5t181 15.5q125 0 207.5 -24.5t131 -70t68 -111.5t19.5 -149v-487q37 -6 82 -11.5t84 -8.5v-166zM656 450q-89 0 -152.5 -9.5t-105 -29t-61.5 -48.5t-20 -68q0 -26 9 -47t24.5 -37 t38.5 -24.5t51 -8.5q48 0 88 21t68 55.5t44 78.5t16 90v27zM599 1146l-371 223l122 174l346 -254z" />
<glyph unicode="&#xe1;" horiz-adv-x="1110" d="M1085 14q-44 -5 -94.5 -8.5t-104 -5.5t-107 -2.5t-102.5 1.5q0 44 1.5 88.5t8.5 84.5l-3 1q-18 -42 -50 -78t-74 -62t-93.5 -40t-107.5 -14q-69 0 -123 20t-91.5 56.5t-57 88t-19.5 113.5q0 91 43 158.5t120.5 112t186 67.5t238.5 24v59q0 41 -9 72.5t-30 53t-56 33 t-86 11.5q-37 0 -76.5 -7t-72.5 -17q-3 -31 -8.5 -65.5t-11.5 -68.5h-165v297q81 24 171 39.5t181 15.5q125 0 207.5 -24.5t131 -70t68 -111.5t19.5 -149v-487q37 -6 82 -11.5t84 -8.5v-166zM656 450q-89 0 -152.5 -9.5t-105 -29t-61.5 -48.5t-20 -68q0 -26 9 -47t24.5 -37 t38.5 -24.5t51 -8.5q48 0 88 21t68 55.5t44 78.5t16 90v27zM457 1146l-97 142l347 255l121 -174z" />
<glyph unicode="&#xe2;" horiz-adv-x="1110" d="M1085 14q-44 -5 -94.5 -8.5t-104 -5.5t-107 -2.5t-102.5 1.5q0 44 1.5 88.5t8.5 84.5l-3 1q-18 -42 -50 -78t-74 -62t-93.5 -40t-107.5 -14q-69 0 -123 20t-91.5 56.5t-57 88t-19.5 113.5q0 91 43 158.5t120.5 112t186 67.5t238.5 24v59q0 41 -9 72.5t-30 53t-56 33 t-86 11.5q-37 0 -76.5 -7t-72.5 -17q-3 -31 -8.5 -65.5t-11.5 -68.5h-165v297q81 24 171 39.5t181 15.5q125 0 207.5 -24.5t131 -70t68 -111.5t19.5 -149v-487q37 -6 82 -11.5t84 -8.5v-166zM656 450q-89 0 -152.5 -9.5t-105 -29t-61.5 -48.5t-20 -68q0 -26 9 -47t24.5 -37 t38.5 -24.5t51 -8.5q48 0 88 21t68 55.5t44 78.5t16 90v27zM746 1146l-212 167l-212 -167l-101 120l314 277l313 -276z" />
<glyph unicode="&#xe3;" horiz-adv-x="1110" d="M1085 14q-44 -5 -94.5 -8.5t-104 -5.5t-107 -2.5t-102.5 1.5q0 44 1.5 88.5t8.5 84.5l-3 1q-18 -42 -50 -78t-74 -62t-93.5 -40t-107.5 -14q-69 0 -123 20t-91.5 56.5t-57 88t-19.5 113.5q0 91 43 158.5t120.5 112t186 67.5t238.5 24v59q0 41 -9 72.5t-30 53t-56 33 t-86 11.5q-37 0 -76.5 -7t-72.5 -17q-3 -31 -8.5 -65.5t-11.5 -68.5h-165v297q81 24 171 39.5t181 15.5q125 0 207.5 -24.5t131 -70t68 -111.5t19.5 -149v-487q37 -6 82 -11.5t84 -8.5v-166zM656 450q-89 0 -152.5 -9.5t-105 -29t-61.5 -48.5t-20 -68q0 -26 9 -47t24.5 -37 t38.5 -24.5t51 -8.5q48 0 88 21t68 55.5t44 78.5t16 90v27zM907 1369q-44 -88 -106.5 -135t-142.5 -47q-50 0 -85 16t-62 35.5t-51.5 35.5t-52.5 16q-35 0 -62 -23t-52 -69l-124 96q45 89 107 136t141 47q51 0 86 -16.5t62 -35.5t51 -35.5t53 -16.5q35 0 62 23.5t52 69.5 l124 -97v0z" />
<glyph unicode="&#xe4;" horiz-adv-x="1110" d="M1085 14q-44 -5 -94.5 -8.5t-104 -5.5t-107 -2.5t-102.5 1.5q0 44 1.5 88.5t8.5 84.5l-3 1q-18 -42 -50 -78t-74 -62t-93.5 -40t-107.5 -14q-69 0 -123 20t-91.5 56.5t-57 88t-19.5 113.5q0 91 43 158.5t120.5 112t186 67.5t238.5 24v59q0 41 -9 72.5t-30 53t-56 33 t-86 11.5q-37 0 -76.5 -7t-72.5 -17q-3 -31 -8.5 -65.5t-11.5 -68.5h-165v297q81 24 171 39.5t181 15.5q125 0 207.5 -24.5t131 -70t68 -111.5t19.5 -149v-487q37 -6 82 -11.5t84 -8.5v-166zM656 450q-89 0 -152.5 -9.5t-105 -29t-61.5 -48.5t-20 -68q0 -26 9 -47t24.5 -37 t38.5 -24.5t51 -8.5q48 0 88 21t68 55.5t44 78.5t16 90v27zM883 1328q0 -29 -11 -55t-30 -45.5t-45 -30t-55 -10.5q-30 0 -55.5 10.5t-45 30t-30.5 45.5t-11 55t11 55t30.5 45.5t45 30.5t55.5 11q29 0 55 -11t45 -30.5t30 -45.5t11 -55zM469 1328q0 -29 -11 -55t-30 -45.5 t-45 -30t-56 -10.5q-29 0 -54.5 10.5t-45 30t-30.5 45.5t-11 55t11 55t30.5 45.5t45 30.5t54.5 11q30 0 56 -11t45 -30.5t30 -45.5t11 -55z" />
<glyph unicode="&#xe5;" horiz-adv-x="1110" d="M1085 14q-44 -5 -94.5 -8.5t-104 -5.5t-107 -2.5t-102.5 1.5q0 44 1.5 88.5t8.5 84.5l-3 1q-18 -42 -50 -78t-74 -62t-93.5 -40t-107.5 -14q-69 0 -123 20t-91.5 56.5t-57 88t-19.5 113.5q0 91 43 158.5t120.5 112t186 67.5t238.5 24v59q0 41 -9 72.5t-30 53t-56 33 t-86 11.5q-37 0 -76.5 -7t-72.5 -17q-3 -31 -8.5 -65.5t-11.5 -68.5h-165v297q81 24 171 39.5t181 15.5q125 0 207.5 -24.5t131 -70t68 -111.5t19.5 -149v-487q37 -6 82 -11.5t84 -8.5v-166zM656 450q-89 0 -152.5 -9.5t-105 -29t-61.5 -48.5t-20 -68q0 -26 9 -47t24.5 -37 t38.5 -24.5t51 -8.5q48 0 88 21t68 55.5t44 78.5t16 90v27zM803 1375q0 -52 -20 -99t-55.5 -82t-83 -55t-101.5 -20t-101.5 18.5t-83 51.5t-55.5 79t-20 100t20.5 100t56 79t83 52t100.5 19q54 0 101.5 -18t83 -50t55.5 -76.5t20 -98.5zM650 1368q0 22 -8.5 42t-23 35 t-34 23.5t-41.5 8.5t-41.5 -8.5t-34 -23.5t-23 -35t-8.5 -42t8.5 -41.5t23 -34.5t34 -23.5t41.5 -8.5t41.5 8.5t34 23.5t23 34.5t8.5 41.5z" />
<glyph unicode="&#xe6;" horiz-adv-x="1628" d="M1548 610q0 -20 -1 -42t-2.5 -44t-4 -43t-4.5 -38h-625q0 -63 16 -111t50 -81t86.5 -50t125.5 -17q74 0 149 15t147 47l29 -200q-84 -33 -179 -50t-190 -17q-81 0 -147.5 14.5t-118 41.5t-87.5 65.5t-57 86.5h-2q-24 -46 -60 -84.5t-82.5 -66t-103.5 -42.5t-124 -15 q-71 0 -126.5 20t-93.5 56.5t-57.5 88t-19.5 113.5q0 91 43 159.5t120.5 114t185.5 68.5t238 23v56q0 42 -8.5 73.5t-29.5 53t-55 32.5t-85 11q-35 0 -76 -6t-75 -17q-3 -30 -8.5 -65.5t-12.5 -69.5h-165v297q81 24 171.5 38.5t181.5 14.5q52 0 100 -6t90.5 -19.5t79 -36.5 t63.5 -57h2q22 24 52 45.5t68.5 38t82.5 26t94 9.5q112 0 192.5 -34t132.5 -92t76 -136.5t24 -167.5zM1289 619q3 53 -6.5 95t-32 72t-57.5 46t-81 16t-82.5 -18t-62 -49t-40 -73t-17.5 -89h379zM653 454q-88 0 -151.5 -10.5t-105 -30.5t-61.5 -49.5t-20 -68.5 q0 -26 8.5 -47t24.5 -37t39 -24.5t51 -8.5q48 0 87.5 21t68 55.5t44 78.5t15.5 90v31z" />
<glyph unicode="&#xe7;" horiz-adv-x="915" d="M862 30q-33 -11 -68.5 -20.5t-73.5 -16t-78.5 -10t-83.5 -3.5q-74 0 -139.5 13t-119.5 39t-96.5 66.5t-72 95.5t-45 125.5t-15.5 156.5q0 119 31 221.5t96.5 178t165.5 118.5t238 43q62 0 125 -8.5t118 -25.5v-328h-168q-7 37 -12 70t-9 64q-18 6 -40.5 8.5t-49.5 2.5 q-52 0 -93 -21.5t-70 -61.5t-44.5 -97t-15.5 -128t14 -127t46 -95.5t84.5 -60.5t129.5 -21q55 0 108.5 10.5t103.5 32.5l34 -221v0zM581 -82q40 -54 54.5 -106.5t8 -102t-33.5 -97t-71 -92.5h-196q37 45 59 85t25.5 79t-11 80t-51.5 87l216 67v0z" />
<glyph unicode="&#xe8;" horiz-adv-x="1053" d="M975 607q0 -15 -1 -33t-2 -37t-3 -38.5t-4 -36.5h-628q-1 -70 15 -122.5t50 -87t87 -51.5t126 -17q74 0 149 15t146 46l30 -200q-84 -31 -179 -48.5t-190 -17.5q-121 0 -214.5 31t-157 95t-96.5 162.5t-33 232.5q0 115 32.5 213.5t95 170.5t152 113.5t202.5 41.5 q112 0 192 -34t131 -92t75.5 -137t24.5 -169zM715 638q1 49 -10.5 88t-34.5 65.5t-56.5 40.5t-75.5 14q-40 0 -74.5 -15t-60 -42t-42.5 -65.5t-22 -85.5h376zM605 1146l-371 223l122 174l346 -254z" />
<glyph unicode="&#xe9;" horiz-adv-x="1053" d="M975 607q0 -15 -1 -33t-2 -37t-3 -38.5t-4 -36.5h-628q-1 -70 15 -122.5t50 -87t87 -51.5t126 -17q74 0 149 15t146 46l30 -200q-84 -31 -179 -48.5t-190 -17.5q-121 0 -214.5 31t-157 95t-96.5 162.5t-33 232.5q0 115 32.5 213.5t95 170.5t152 113.5t202.5 41.5 q112 0 192 -34t131 -92t75.5 -137t24.5 -169zM715 638q1 49 -10.5 88t-34.5 65.5t-56.5 40.5t-75.5 14q-40 0 -74.5 -15t-60 -42t-42.5 -65.5t-22 -85.5h376zM475 1146l-97 142l347 255l121 -174z" />
<glyph unicode="&#xea;" horiz-adv-x="1053" d="M975 607q0 -15 -1 -33t-2 -37t-3 -38.5t-4 -36.5h-628q-1 -70 15 -122.5t50 -87t87 -51.5t126 -17q74 0 149 15t146 46l30 -200q-84 -31 -179 -48.5t-190 -17.5q-121 0 -214.5 31t-157 95t-96.5 162.5t-33 232.5q0 115 32.5 213.5t95 170.5t152 113.5t202.5 41.5 q112 0 192 -34t131 -92t75.5 -137t24.5 -169zM715 638q1 49 -10.5 88t-34.5 65.5t-56.5 40.5t-75.5 14q-40 0 -74.5 -15t-60 -42t-42.5 -65.5t-22 -85.5h376zM755 1146l-212 167l-212 -167l-101 120l314 277l313 -276z" />
<glyph unicode="&#xeb;" horiz-adv-x="1053" d="M975 607q0 -15 -1 -33t-2 -37t-3 -38.5t-4 -36.5h-628q-1 -70 15 -122.5t50 -87t87 -51.5t126 -17q74 0 149 15t146 46l30 -200q-84 -31 -179 -48.5t-190 -17.5q-121 0 -214.5 31t-157 95t-96.5 162.5t-33 232.5q0 115 32.5 213.5t95 170.5t152 113.5t202.5 41.5 q112 0 192 -34t131 -92t75.5 -137t24.5 -169zM715 638q1 49 -10.5 88t-34.5 65.5t-56.5 40.5t-75.5 14q-40 0 -74.5 -15t-60 -42t-42.5 -65.5t-22 -85.5h376zM894 1328q0 -29 -11 -55t-30 -45.5t-45 -30t-55 -10.5q-30 0 -55.5 10.5t-45 30t-30.5 45.5t-11 55t11 55 t30.5 45.5t45 30.5t55.5 11q29 0 55 -11t45 -30.5t30 -45.5t11 -55zM480 1328q0 -29 -11 -55t-30 -45.5t-45 -30t-56 -10.5q-29 0 -54.5 10.5t-45 30t-30.5 45.5t-11 55t11 55t30.5 45.5t45 30.5t54.5 11q30 0 56 -11t45 -30.5t30 -45.5t11 -55z" />
<glyph unicode="&#xec;" horiz-adv-x="684" d="M52 0v165q40 9 86 16t92 10v627q-37 6 -85 11.5t-93 8.5v164q49 6 102.5 10t109 6t113.5 2.5t114 -1.5v-828q44 -3 87 -10t80 -16v-165h-606zM436 1146l-371 223l122 174l346 -254z" />
<glyph unicode="&#xed;" horiz-adv-x="684" d="M52 0v165q40 9 86 16t92 10v627q-37 6 -85 11.5t-93 8.5v164q49 6 102.5 10t109 6t113.5 2.5t114 -1.5v-828q44 -3 87 -10t80 -16v-165h-606zM208 1146l-97 142l347 255l121 -174z" />
<glyph unicode="&#xee;" horiz-adv-x="684" d="M52 0v165q40 9 86 16t92 10v627q-37 6 -85 11.5t-93 8.5v164q49 6 102.5 10t109 6t113.5 2.5t114 -1.5v-828q44 -3 87 -10t80 -16v-165h-606zM566 1146l-212 167l-212 -167l-101 120l314 277l313 -276z" />
<glyph unicode="&#xef;" horiz-adv-x="684" d="M52 0v165q40 9 86 16t92 10v627q-37 6 -85 11.5t-93 8.5v164q49 6 102.5 10t109 6t113.5 2.5t114 -1.5v-828q44 -3 87 -10t80 -16v-165h-606zM693 1328q0 -29 -11 -55t-30.5 -45.5t-45 -30t-54.5 -10.5t-55 10.5t-45.5 30t-30 45.5t-10.5 55t10.5 55t30 45.5t45.5 30.5 t55 11t54.5 -11t45 -30.5t30.5 -45.5t11 -55zM295 1328q0 -29 -11 -55t-30.5 -45.5t-45 -30t-54.5 -10.5q-30 0 -55.5 10.5t-45 30t-30.5 45.5t-11 55t11 55t30.5 45.5t45 30.5t55.5 11q29 0 54.5 -11t45 -30.5t30.5 -45.5t11 -55z" />
<glyph unicode="&#xf0;" horiz-adv-x="1137" d="M1060 570q0 -149 -40 -260.5t-109 -185t-161.5 -109.5t-197.5 -36q-106 0 -195.5 30.5t-153.5 93.5t-99.5 159.5t-35.5 228.5q0 123 37 223t103 171t156 110t196 39q24 0 48 -3.5t45.5 -11t39 -19.5t30.5 -28q-14 24 -27.5 45.5t-23.5 37.5q-20 35 -47 70t-62 71 l-189 -83l-105 122l171 76q-34 29 -73 57.5t-83 59.5l257 108q37 -28 72 -58.5t69 -64.5l182 80l105 -123l-177 -77q64 -79 114.5 -164.5t84.5 -176.5t51.5 -187t17.5 -195zM789 533q0 65 -14 117.5t-41.5 89.5t-69.5 57t-99 20q-45 0 -86 -18t-72 -55.5t-49.5 -95 t-18.5 -135.5q0 -76 16.5 -133.5t46.5 -96.5t73.5 -59t96.5 -20q48 0 87.5 19t68.5 59t45 102.5t16 148.5z" />
<glyph unicode="&#xf1;" horiz-adv-x="1306" d="M854 0v651q0 39 -6.5 70.5t-20.5 53.5t-38 33.5t-61 11.5q-50 0 -93 -26.5t-75 -71t-50.5 -104.5t-18.5 -127v-300q38 -3 76.5 -8.5t73.5 -13.5v-169h-589v165q40 9 86 16t92 10v627q-37 6 -85 11.5t-93 8.5v164q49 6 102 10t107.5 6t109 2.5t105.5 -1.5 q0 -17 -0.5 -40.5t-2 -48t-4.5 -49.5t-6 -45l3 -1q22 45 55.5 82.5t77 64.5t97 42t116.5 15q85 0 143.5 -25.5t94 -70t50.5 -103.5t15 -125v-524q44 -3 86.5 -10t78.5 -16v-165h-426zM1015 1369q-44 -88 -106.5 -135t-142.5 -47q-50 0 -85 16t-62 35.5t-51.5 35.5t-52.5 16 q-35 0 -62 -23t-52 -69l-124 96q45 89 107 136t141 47q51 0 86 -16.5t62 -35.5t51 -35.5t53 -16.5q35 0 62 23.5t52 69.5l124 -97v0z" />
<glyph unicode="&#xf2;" horiz-adv-x="1134" d="M1066 530q0 -121 -38 -222t-107 -174t-165 -114t-211 -41q-108 0 -196 29.5t-150.5 91t-96 158t-33.5 230.5q0 121 37.5 222t106 174t164.5 114t212 41q109 0 197 -30t150 -92.5t96 -158.5t34 -228zM795 509q0 75 -14 132.5t-42 96.5t-70 59t-98 20q-45 0 -86.5 -17.5 t-74 -54.5t-51.5 -95t-19 -138q0 -76 13.5 -134t42 -96.5t71 -58t99.5 -19.5q48 0 90 19.5t73 57.5t48.5 95t17.5 133zM648 1146l-371 223l122 174l346 -254z" />
<glyph unicode="&#xf3;" horiz-adv-x="1134" d="M1066 530q0 -121 -38 -222t-107 -174t-165 -114t-211 -41q-108 0 -196 29.5t-150.5 91t-96 158t-33.5 230.5q0 121 37.5 222t106 174t164.5 114t212 41q109 0 197 -30t150 -92.5t96 -158.5t34 -228zM795 509q0 75 -14 132.5t-42 96.5t-70 59t-98 20q-45 0 -86.5 -17.5 t-74 -54.5t-51.5 -95t-19 -138q0 -76 13.5 -134t42 -96.5t71 -58t99.5 -19.5q48 0 90 19.5t73 57.5t48.5 95t17.5 133zM498 1146l-97 142l347 255l121 -174z" />
<glyph unicode="&#xf4;" horiz-adv-x="1134" d="M1066 530q0 -121 -38 -222t-107 -174t-165 -114t-211 -41q-108 0 -196 29.5t-150.5 91t-96 158t-33.5 230.5q0 121 37.5 222t106 174t164.5 114t212 41q109 0 197 -30t150 -92.5t96 -158.5t34 -228zM795 509q0 75 -14 132.5t-42 96.5t-70 59t-98 20q-45 0 -86.5 -17.5 t-74 -54.5t-51.5 -95t-19 -138q0 -76 13.5 -134t42 -96.5t71 -58t99.5 -19.5q48 0 90 19.5t73 57.5t48.5 95t17.5 133zM785 1146l-212 167l-212 -167l-101 120l314 277l313 -276z" />
<glyph unicode="&#xf5;" horiz-adv-x="1134" d="M1066 530q0 -121 -38 -222t-107 -174t-165 -114t-211 -41q-108 0 -196 29.5t-150.5 91t-96 158t-33.5 230.5q0 121 37.5 222t106 174t164.5 114t212 41q109 0 197 -30t150 -92.5t96 -158.5t34 -228zM795 509q0 75 -14 132.5t-42 96.5t-70 59t-98 20q-45 0 -86.5 -17.5 t-74 -54.5t-51.5 -95t-19 -138q0 -76 13.5 -134t42 -96.5t71 -58t99.5 -19.5q48 0 90 19.5t73 57.5t48.5 95t17.5 133zM940 1369q-44 -88 -106.5 -135t-142.5 -47q-50 0 -85 16t-62 35.5t-51.5 35.5t-52.5 16q-35 0 -62 -23t-52 -69l-124 96q45 89 107 136t141 47 q51 0 86 -16.5t62 -35.5t51 -35.5t53 -16.5q35 0 62 23.5t52 69.5l124 -97v0z" />
<glyph unicode="&#xf6;" horiz-adv-x="1134" d="M1066 530q0 -121 -38 -222t-107 -174t-165 -114t-211 -41q-108 0 -196 29.5t-150.5 91t-96 158t-33.5 230.5q0 121 37.5 222t106 174t164.5 114t212 41q109 0 197 -30t150 -92.5t96 -158.5t34 -228zM795 509q0 75 -14 132.5t-42 96.5t-70 59t-98 20q-45 0 -86.5 -17.5 t-74 -54.5t-51.5 -95t-19 -138q0 -76 13.5 -134t42 -96.5t71 -58t99.5 -19.5q48 0 90 19.5t73 57.5t48.5 95t17.5 133zM917 1328q0 -29 -11 -55t-30 -45.5t-45 -30t-55 -10.5q-30 0 -55.5 10.5t-45 30t-30.5 45.5t-11 55t11 55t30.5 45.5t45 30.5t55.5 11q29 0 55 -11 t45 -30.5t30 -45.5t11 -55zM503 1328q0 -29 -11 -55t-30 -45.5t-45 -30t-56 -10.5q-29 0 -54.5 10.5t-45 30t-30.5 45.5t-11 55t11 55t30.5 45.5t45 30.5t54.5 11q30 0 56 -11t45 -30.5t30 -45.5t11 -55z" />
<glyph unicode="&#xf7;" d="M721 1020q0 -33 -12.5 -62t-34.5 -51t-51 -34.5t-62 -12.5t-62 12.5t-50.5 34.5t-34.5 51t-13 62t13 62t34.5 51t50.5 34.5t62 12.5t62 -12.5t51 -34.5t34.5 -51t12.5 -62zM80 501v218h966v-218h-966zM721 198q0 -33 -12.5 -62t-34.5 -51t-51 -34.5t-62 -12.5t-62 12.5 t-50.5 34.5t-34.5 51t-13 62t13 62t34.5 51t50.5 35t62 13t62 -13t51 -35t34.5 -51t12.5 -62z" />
<glyph unicode="&#xf8;" horiz-adv-x="1134" d="M1066 526q0 -119 -38 -219.5t-107 -173t-164 -113.5t-210 -41q-45 0 -86 5t-80 15l-101 -200l-143 67l101 201q-44 31 -76 74.5t-52.5 97t-30.5 116t-10 133.5q0 121 37.5 222t106 174t164.5 114t212 41q37 0 72 -3.5t68 -10.5l93 181l144 -66l-92 -179q44 -29 79.5 -70 t60.5 -95t38.5 -121t13.5 -149zM818 511q0 92 -17.5 150t-46.5 89l-259 -552q16 -6 34.5 -8.5t37.5 -2.5q55 0 101 21t79.5 62t52 101t18.5 140zM617 830q-11 2 -22.5 3t-22.5 1q-51 0 -97 -18.5t-81.5 -57.5t-56.5 -99.5t-21 -143.5q0 -38 4 -71t10.5 -61t16 -51t19.5 -42z " />
<glyph unicode="&#xf9;" horiz-adv-x="1268" d="M1241 14q-45 -5 -95.5 -8.5t-103.5 -5.5t-106.5 -2.5t-103.5 1.5q0 19 0.5 42t2 47t4 48.5t5.5 45.5l-4 1q-22 -45 -55.5 -82.5t-77 -64.5t-97 -42t-116.5 -15q-85 0 -143.5 25.5t-93.5 69.5t-50.5 103.5t-15.5 125.5v515q-37 6 -81 11.5t-83 8.5v166q44 5 95 8.5 t105 5.5t111 2.5t114 -1.5v-652q0 -40 6.5 -71t20.5 -53t38.5 -33.5t60.5 -11.5q50 0 93 26.5t75 71t50.5 104t18.5 126.5v293q-32 5 -71.5 10t-78.5 8v168q45 5 95.5 8.5t102.5 5.5t105.5 2t107.5 -2v-819q37 -6 81.5 -11.5t83.5 -8.5v-166v0zM676 1146l-371 223l122 174 l346 -254z" />
<glyph unicode="&#xfa;" horiz-adv-x="1268" d="M1241 14q-45 -5 -95.5 -8.5t-103.5 -5.5t-106.5 -2.5t-103.5 1.5q0 19 0.5 42t2 47t4 48.5t5.5 45.5l-4 1q-22 -45 -55.5 -82.5t-77 -64.5t-97 -42t-116.5 -15q-85 0 -143.5 25.5t-93.5 69.5t-50.5 103.5t-15.5 125.5v515q-37 6 -81 11.5t-83 8.5v166q44 5 95 8.5 t105 5.5t111 2.5t114 -1.5v-652q0 -40 6.5 -71t20.5 -53t38.5 -33.5t60.5 -11.5q50 0 93 26.5t75 71t50.5 104t18.5 126.5v293q-32 5 -71.5 10t-78.5 8v168q45 5 95.5 8.5t102.5 5.5t105.5 2t107.5 -2v-819q37 -6 81.5 -11.5t83.5 -8.5v-166v0zM576 1146l-97 142l347 255 l121 -174z" />
<glyph unicode="&#xfb;" horiz-adv-x="1268" d="M1241 14q-45 -5 -95.5 -8.5t-103.5 -5.5t-106.5 -2.5t-103.5 1.5q0 19 0.5 42t2 47t4 48.5t5.5 45.5l-4 1q-22 -45 -55.5 -82.5t-77 -64.5t-97 -42t-116.5 -15q-85 0 -143.5 25.5t-93.5 69.5t-50.5 103.5t-15.5 125.5v515q-37 6 -81 11.5t-83 8.5v166q44 5 95 8.5 t105 5.5t111 2.5t114 -1.5v-652q0 -40 6.5 -71t20.5 -53t38.5 -33.5t60.5 -11.5q50 0 93 26.5t75 71t50.5 104t18.5 126.5v293q-32 5 -71.5 10t-78.5 8v168q45 5 95.5 8.5t102.5 5.5t105.5 2t107.5 -2v-819q37 -6 81.5 -11.5t83.5 -8.5v-166v0zM836 1146l-212 167l-212 -167 l-101 120l314 277l313 -276z" />
<glyph unicode="&#xfc;" horiz-adv-x="1268" d="M1241 14q-45 -5 -95.5 -8.5t-103.5 -5.5t-106.5 -2.5t-103.5 1.5q0 19 0.5 42t2 47t4 48.5t5.5 45.5l-4 1q-22 -45 -55.5 -82.5t-77 -64.5t-97 -42t-116.5 -15q-85 0 -143.5 25.5t-93.5 69.5t-50.5 103.5t-15.5 125.5v515q-37 6 -81 11.5t-83 8.5v166q44 5 95 8.5 t105 5.5t111 2.5t114 -1.5v-652q0 -40 6.5 -71t20.5 -53t38.5 -33.5t60.5 -11.5q50 0 93 26.5t75 71t50.5 104t18.5 126.5v293q-32 5 -71.5 10t-78.5 8v168q45 5 95.5 8.5t102.5 5.5t105.5 2t107.5 -2v-819q37 -6 81.5 -11.5t83.5 -8.5v-166v0zM969 1328q0 -29 -11 -55 t-30 -45.5t-45 -30t-55 -10.5q-30 0 -55.5 10.5t-45 30t-30.5 45.5t-11 55t11 55t30.5 45.5t45 30.5t55.5 11q29 0 55 -11t45 -30.5t30 -45.5t11 -55zM555 1328q0 -29 -11 -55t-30 -45.5t-45 -30t-56 -10.5q-29 0 -54.5 10.5t-45 30t-30.5 45.5t-11 55t11 55t30.5 45.5 t45 30.5t54.5 11q30 0 56 -11t45 -30.5t30 -45.5t11 -55z" />
<glyph unicode="&#xfd;" horiz-adv-x="1159" d="M1143 849q-25 -7 -53.5 -11.5t-57.5 -7.5l-323 -935q-40 -117 -84.5 -195t-100 -125.5t-124.5 -67t-156 -19.5q-16 0 -36 1t-41 3.5l-42 5t-39 6.5l15 226q40 -12 74.5 -17.5t71.5 -5.5q32 0 60 9t53.5 31.5t47.5 59.5t42 94l34 99h-73l-284 830q-29 3 -58 7.5t-53 11.5 v169h490v-169q-24 -6 -49.5 -10t-53.5 -7l103 -292q22 -67 41.5 -133t37.5 -138h4q7 31 16.5 67.5t21 75t24 78.5t25.5 79l89 263q-27 3 -52 7t-49 10v169h479v-169v0zM527 1146l-97 142l347 255l121 -174z" />
<glyph unicode="&#xfe;" horiz-adv-x="1148" d="M1075 562q0 -130 -37 -237.5t-107.5 -183.5t-173 -118t-233.5 -42q-15 0 -29.5 0.5t-28.5 1.5t-28.5 3t-31.5 5v-293q47 -3 92.5 -10t86.5 -16v-165h-617v165q40 9 85.5 16t92.5 10v1597q-37 6 -82.5 11.5t-90.5 8.5v165q49 6 101.5 9.5t107 5.5t111.5 2.5t113 -1.5v-418 q0 -24 -0.5 -51.5t-2.5 -56t-5 -57.5t-7 -54l3 -1q18 41 47.5 74.5t69 57t87.5 36.5t105 13q90 0 159.5 -32t116.5 -93.5t71.5 -150t24.5 -201.5zM800 535q0 71 -10.5 125t-32.5 90t-55 54t-77 18q-34 0 -63.5 -12.5t-53.5 -35.5t-43 -53.5t-32 -67.5t-20 -78.5t-7 -84.5 v-283q31 -10 64 -14t74 -4q55 0 102 18.5t81 60t53.5 107t19.5 160.5z" />
<glyph unicode="&#xff;" horiz-adv-x="1159" d="M1143 849q-25 -7 -53.5 -11.5t-57.5 -7.5l-323 -935q-40 -117 -84.5 -195t-100 -125.5t-124.5 -67t-156 -19.5q-16 0 -36 1t-41 3.5l-42 5t-39 6.5l15 226q40 -12 74.5 -17.5t71.5 -5.5q32 0 60 9t53.5 31.5t47.5 59.5t42 94l34 99h-73l-284 830q-29 3 -58 7.5t-53 11.5 v169h490v-169q-24 -6 -49.5 -10t-53.5 -7l103 -292q22 -67 41.5 -133t37.5 -138h4q7 31 16.5 67.5t21 75t24 78.5t25.5 79l89 263q-27 3 -52 7t-49 10v169h479v-169v0zM926 1328q0 -29 -11 -55t-30 -45.5t-45 -30t-55 -10.5q-30 0 -55.5 10.5t-45 30t-30.5 45.5t-11 55 t11 55t30.5 45.5t45 30.5t55.5 11q29 0 55 -11t45 -30.5t30 -45.5t11 -55zM512 1328q0 -29 -11 -55t-30 -45.5t-45 -30t-56 -10.5q-29 0 -54.5 10.5t-45 30t-30.5 45.5t-11 55t11 55t30.5 45.5t45 30.5t54.5 11q30 0 56 -11t45 -30.5t30 -45.5t11 -55z" />
<glyph unicode="&#x100;" horiz-adv-x="1427" d="M865 0v165q34 7 71 13t72 10l-60 176h-497l-60 -173q36 -3 74.5 -10.5t71.5 -15.5v-165h-521v166q25 7 54.5 14.5t55.5 10.5l413 1191h344l420 -1196q25 -2 54 -7.5t54 -12.5v-166h-546zM764 925q-18 56 -34 109t-30 110h-3q-13 -57 -27.5 -110t-32.5 -110l-123 -352h372 zM413 1518v166h601v-166h-601z" />
<glyph unicode="&#x101;" horiz-adv-x="1110" d="M1085 14q-44 -5 -94.5 -8.5t-104 -5.5t-107 -2.5t-102.5 1.5q0 44 1.5 88.5t8.5 84.5l-3 1q-18 -42 -50 -78t-74 -62t-93.5 -40t-107.5 -14q-69 0 -123 20t-91.5 56.5t-57 88t-19.5 113.5q0 91 43 158.5t120.5 112t186 67.5t238.5 24v59q0 41 -9 72.5t-30 53t-56 33 t-86 11.5q-37 0 -76.5 -7t-72.5 -17q-3 -31 -8.5 -65.5t-11.5 -68.5h-165v297q81 24 171 39.5t181 15.5q125 0 207.5 -24.5t131 -70t68 -111.5t19.5 -149v-487q37 -6 82 -11.5t84 -8.5v-166zM656 450q-89 0 -152.5 -9.5t-105 -29t-61.5 -48.5t-20 -68q0 -26 9 -47t24.5 -37 t38.5 -24.5t51 -8.5q48 0 88 21t68 55.5t44 78.5t16 90v27zM289 1228v190h553v-190h-553z" />
<glyph unicode="&#x102;" horiz-adv-x="1427" d="M865 0v165q34 7 71 13t72 10l-60 176h-497l-60 -173q36 -3 74.5 -10.5t71.5 -15.5v-165h-521v166q25 7 54.5 14.5t55.5 10.5l413 1191h344l420 -1196q25 -2 54 -7.5t54 -12.5v-166h-546zM764 925q-18 56 -34 109t-30 110h-3q-13 -57 -27.5 -110t-32.5 -110l-123 -352h372 zM1005 1759q0 -57 -19 -108t-56 -89t-92 -60t-126 -22q-72 0 -126 22.5t-90 61t-54.5 89t-18.5 106.5h156q0 -25 9.5 -46t27.5 -37t43 -25t55 -9q31 0 55.5 9t42 25t27 37t9.5 46h157v0z" />
<glyph unicode="&#x103;" horiz-adv-x="1110" d="M1085 14q-44 -5 -94.5 -8.5t-104 -5.5t-107 -2.5t-102.5 1.5q0 44 1.5 88.5t8.5 84.5l-3 1q-18 -42 -50 -78t-74 -62t-93.5 -40t-107.5 -14q-69 0 -123 20t-91.5 56.5t-57 88t-19.5 113.5q0 91 43 158.5t120.5 112t186 67.5t238.5 24v59q0 41 -9 72.5t-30 53t-56 33 t-86 11.5q-37 0 -76.5 -7t-72.5 -17q-3 -31 -8.5 -65.5t-11.5 -68.5h-165v297q81 24 171 39.5t181 15.5q125 0 207.5 -24.5t131 -70t68 -111.5t19.5 -149v-487q37 -6 82 -11.5t84 -8.5v-166zM656 450q-89 0 -152.5 -9.5t-105 -29t-61.5 -48.5t-20 -68q0 -26 9 -47t24.5 -37 t38.5 -24.5t51 -8.5q48 0 88 21t68 55.5t44 78.5t16 90v27zM845 1475q0 -62 -16 -119t-50.5 -100t-88 -68.5t-128.5 -25.5q-74 0 -127 26t-86 69.5t-48 100t-15 117.5h173q0 -26 6.5 -48t20 -38t33 -25t45.5 -9q49 0 78 30t29 90h174v0z" />
<glyph unicode="&#x104;" horiz-adv-x="1427" d="M1300 0q-54 -22 -93.5 -46t-64.5 -49.5t-37 -51t-12 -49.5q0 -30 19 -46.5t50 -16.5q61 0 108 61l102 -120q-55 -67 -128 -104t-167 -37q-59 0 -102.5 13.5t-73 38.5t-44 59t-14.5 75q0 31 9.5 65.5t29 69.5t50.5 70t74 68h-141v165q34 8 71 14t72 9l-60 176h-497 l-60 -176q36 -3 74.5 -9t71.5 -14v-165h-521v166q25 7 54.5 13t55.5 8l413 1195h344l418 -1195q27 -2 56 -8t54 -13v-166h-111zM764 925q-18 56 -34 109t-30 110h-3q-13 -57 -27.5 -110t-32.5 -110l-123 -352h372z" />
<glyph unicode="&#x105;" horiz-adv-x="1110" d="M1085 15q-16 -2 -34 -3.5t-41 -5.5q-43 -6 -85.5 -25.5t-77 -47t-56.5 -60.5t-22 -66q0 -29 18.5 -44t49.5 -15q15 0 29.5 5t28.5 13.5t26.5 21t22.5 26.5l100 -118q-26 -38 -60.5 -67t-74 -48.5t-82 -29.5t-86.5 -10q-47 0 -86 11.5t-67.5 34.5t-45 57.5t-16.5 81.5 q0 45 14.5 86.5t38.5 78.5t56 69t66 59q-8 36 -12 74t-4 73l-2 1q-21 -42 -53 -76.5t-73.5 -59.5t-91.5 -38.5t-106 -13.5q-69 0 -123 20t-91.5 56.5t-57 88t-19.5 113.5q0 91 43.5 158.5t121 112t185.5 67.5t238 24v59q0 41 -9 72.5t-30 53t-55.5 33t-85.5 11.5 q-38 0 -77.5 -7t-71.5 -17q-4 -31 -9 -65.5t-11 -68.5h-166v297q81 24 171.5 39.5t180.5 15.5q126 0 208 -24.5t130.5 -70t68 -111.5t19.5 -149v-302q0 -24 1 -48l2 -48t2.5 -47t3.5 -43q20 -3 40 -6.5t40.5 -5.5t40 -4t36.5 -3v-165zM656 450q-88 0 -152 -9.5t-105.5 -29 t-61 -48.5t-19.5 -68q0 -26 8.5 -47t24 -37t38.5 -24.5t52 -8.5q47 0 87 21t68.5 55.5t44 78.5t15.5 90v27z" />
<glyph unicode="&#x106;" horiz-adv-x="1182" d="M1106 49q-43 -15 -90.5 -28t-97.5 -22t-100.5 -14t-99.5 -5q-162 0 -283 47t-201 134t-119.5 210.5t-39.5 277.5q0 165 44.5 303t131.5 237.5t215.5 154.5t297.5 55q80 0 162 -10.5t161 -27.5v-397h-203q-9 48 -14.5 90t-10.5 83q-36 8 -71 12.5t-70 4.5 q-82 0 -146.5 -33t-109.5 -93.5t-69 -146t-24 -189.5q0 -108 23 -194.5t72.5 -147.5t127 -94t187.5 -33q36 0 74.5 4.5t76.5 12t73 18.5t66 25l37 -234v0zM585 1467l-43 142l424 153l60 -186z" />
<glyph unicode="&#x107;" horiz-adv-x="915" d="M862 30q-33 -11 -68.5 -20.5t-73.5 -16t-78.5 -10t-83.5 -3.5q-74 0 -139.5 13t-119.5 39t-96.5 66.5t-72 95.5t-45 125.5t-15.5 156.5q0 119 31 221.5t96.5 178t165.5 118.5t238 43q62 0 125 -8.5t118 -25.5v-328h-168q-7 37 -12 70t-9 64q-18 6 -40.5 8.5t-49.5 2.5 q-52 0 -93 -21.5t-70 -61.5t-44.5 -97t-15.5 -128t14 -127t46 -95.5t84.5 -60.5t129.5 -21q55 0 108.5 10.5t103.5 32.5l34 -221v0zM452 1146l-97 142l347 255l121 -174z" />
<glyph unicode="&#x10c;" horiz-adv-x="1182" d="M1106 49q-43 -15 -90.5 -28t-97.5 -22t-100.5 -14t-99.5 -5q-162 0 -283 47t-201 134t-119.5 210.5t-39.5 277.5q0 165 44.5 303t131.5 237.5t215.5 154.5t297.5 55q80 0 162 -10.5t161 -27.5v-397h-203q-9 48 -14.5 90t-10.5 83q-36 8 -71 12.5t-70 4.5 q-82 0 -146.5 -33t-109.5 -93.5t-69 -146t-24 -189.5q0 -108 23 -194.5t72.5 -147.5t127 -94t187.5 -33q36 0 74.5 4.5t76.5 12t73 18.5t66 25l37 -234v0zM697 1465l-341 167l64 140l284 -114l273 112l58 -130z" />
<glyph unicode="&#x10d;" horiz-adv-x="915" d="M862 30q-33 -11 -68.5 -20.5t-73.5 -16t-78.5 -10t-83.5 -3.5q-74 0 -139.5 13t-119.5 39t-96.5 66.5t-72 95.5t-45 125.5t-15.5 156.5q0 119 31 221.5t96.5 178t165.5 118.5t238 43q62 0 125 -8.5t118 -25.5v-328h-168q-7 37 -12 70t-9 64q-18 6 -40.5 8.5t-49.5 2.5 q-52 0 -93 -21.5t-70 -61.5t-44.5 -97t-15.5 -128t14 -127t46 -95.5t84.5 -60.5t129.5 -21q55 0 108.5 10.5t103.5 32.5l34 -221v0zM535 1146l-313 276l103 121l212 -167l212 167l101 -119z" />
<glyph unicode="&#x10e;" horiz-adv-x="1448" d="M1371 714q0 -177 -55.5 -312t-155.5 -226.5t-240.5 -137.5t-309.5 -46q-54 0 -111.5 1t-110 2.5t-96 3t-67.5 1.5h-178v165q40 9 85.5 16t92.5 10v1000q-47 3 -92.5 10t-85.5 16v165h172q41 0 93 1.5t110.5 3t122 2.5t127.5 1q160 0 289 -37.5t220.5 -118.5t140.5 -209.5 t49 -310.5zM1085 694q0 111 -23 199t-74.5 148.5t-134 93t-200.5 32.5q-23 0 -45.5 -0.5t-43 -1t-39 -1.5t-34.5 -2v-932q14 -3 31 -4.5t35.5 -3t38.5 -2t40 -0.5q98 0 180.5 28t142.5 86.5t93 147.5t33 212zM655 1465l-341 167l64 140l284 -114l273 112l58 -130z" />
<glyph unicode="&#x10f;" horiz-adv-x="1280" d="M1166 15q-44 -6 -95 -9.5t-104 -5.5t-107 -2.5t-103 1.5q0 18 0.5 40t1.5 44t3.5 44t6.5 43h-4q-21 -42 -52 -77.5t-72 -61t-90.5 -39.5t-107.5 -14q-93 0 -163 33.5t-116.5 96t-69.5 150.5t-23 198q0 128 36.5 235t106 183.5t169.5 119t227 42.5q32 0 64 -2t65 -5v266 q-37 6 -85 11.5t-93 8.5v165q49 6 102.5 9.5t109 5.5t113.5 2.5t114 -1.5v-1296q37 -6 82.5 -11.5t83.5 -8.5v-165zM739 812q-34 9 -68 12.5t-69 3.5q-55 0 -102 -18.5t-81 -59.5t-53.5 -107t-19.5 -161q0 -71 10.5 -125t32.5 -90t54 -54t77 -18q35 0 64 12.5t53.5 35 t43.5 54t32 68.5t19.5 78t6.5 84v285zM1221 1133l-169 37l102 420l210 -45z" />
<glyph unicode="&#x110;" horiz-adv-x="1468" d="M1391 714q0 -177 -55.5 -312t-155 -226.5t-240 -137.5t-310.5 -46q-106 0 -200.5 4t-184.5 4h-178v165q40 9 86 16t92 10v411h-152v202h152v387q-46 3 -92 10t-86 16v165h173q42 0 94.5 1.5t110.5 3t121.5 2.5t127.5 1q107 0 200.5 -16t170.5 -51t138 -89t102.5 -129 t63.5 -172t22 -219zM1108 694q0 111 -23.5 199t-75 148.5t-133.5 93t-200 32.5q-23 0 -45.5 -0.5t-43 -1t-39.5 -1.5t-36 -2v-358h251v-202h-251v-372q14 -3 31.5 -4.5t36.5 -3t38.5 -2t39.5 -0.5q98 0 181 28t142.5 86.5t93 147.5t33.5 212z" />
<glyph unicode="&#x111;" horiz-adv-x="1194" d="M1000 1125v-925q34 -6 79 -11.5t87 -8.5v-165q-44 -6 -95 -9.5t-104 -5.5t-107 -2.5t-103 1.5q0 18 0.5 40t1.5 44t3.5 44t6.5 43h-4q-21 -42 -52 -77.5t-72 -61t-90.5 -39.5t-107.5 -14q-93 0 -163 33.5t-116.5 96t-69.5 150.5t-23 198q0 128 36.5 234t106 181 t169.5 116.5t227 41.5q32 0 64 -2t65 -5v103h-281v147h281v68q-37 6 -85 11.5t-93 8.5v129q49 6 102.5 10t109 6t113.5 2.5t114 -2.5v-233h167v-147h-167zM739 808q-34 8 -68 12t-69 4q-55 0 -102 -18t-81 -58t-53.5 -105.5t-19.5 -160.5q0 -71 10.5 -125t32.5 -90t54 -54 t77 -18q35 0 64 12.5t53.5 35t43.5 54t32 68.5t19.5 78t6.5 84v281z" />
<glyph unicode="&#x112;" horiz-adv-x="1100" d="M47 0v165q40 9 85.5 16t92.5 10v1000q-47 3 -92.5 10t-85.5 16v165h942v-349h-198q-7 39 -13 74.5t-9 64.5h-278v-368h225q4 30 9.5 58t12.5 55h171v-415h-171q-8 26 -13.5 55t-8.5 57h-225v-400h280q4 36 10 72.5t13 76.5h201v-363h-948zM240 1518v166h601v-166h-601z " />
<glyph unicode="&#x113;" horiz-adv-x="1053" d="M975 607q0 -15 -1 -33t-2 -37t-3 -38.5t-4 -36.5h-628q-1 -70 15 -122.5t50 -87t87 -51.5t126 -17q74 0 149 15t146 46l30 -200q-84 -31 -179 -48.5t-190 -17.5q-121 0 -214.5 31t-157 95t-96.5 162.5t-33 232.5q0 115 32.5 213.5t95 170.5t152 113.5t202.5 41.5 q112 0 192 -34t131 -92t75.5 -137t24.5 -169zM715 638q1 49 -10.5 88t-34.5 65.5t-56.5 40.5t-75.5 14q-40 0 -74.5 -15t-60 -42t-42.5 -65.5t-22 -85.5h376zM261 1228v190h553v-190h-553z" />
<glyph unicode="&#x116;" horiz-adv-x="1100" d="M47 0v165q40 9 85.5 16t92.5 10v1000q-47 3 -92.5 10t-85.5 16v165h942v-349h-198q-7 39 -13 74.5t-9 64.5h-278v-368h225q4 30 9.5 58t12.5 55h171v-415h-171q-8 26 -13.5 55t-8.5 57h-225v-400h280q4 36 10 72.5t13 76.5h201v-363h-948zM692 1609q0 -29 -11.5 -54.5 t-31 -44.5t-46 -30t-55.5 -11q-30 0 -56.5 11t-46 30t-31 44t-11.5 55q0 28 11.5 54t31 45.5t46 30.5t56.5 11q29 0 55.5 -11t46 -30.5t31 -45t11.5 -54.5z" />
<glyph unicode="&#x117;" horiz-adv-x="1053" d="M975 607q0 -15 -1 -33t-2 -37t-3 -38.5t-4 -36.5h-628q-1 -70 15 -122.5t50 -87t87 -51.5t126 -17q74 0 149 15t146 46l30 -200q-84 -31 -179 -48.5t-190 -17.5q-121 0 -214.5 31t-157 95t-96.5 162.5t-33 232.5q0 115 32.5 213.5t95 170.5t152 113.5t202.5 41.5 q112 0 192 -34t131 -92t75.5 -137t24.5 -169zM715 638q1 49 -10.5 88t-34.5 65.5t-56.5 40.5t-75.5 14q-40 0 -74.5 -15t-60 -42t-42.5 -65.5t-22 -85.5h376zM710 1328q0 -33 -13 -62t-35 -50t-52 -33.5t-63 -12.5q-34 0 -64 12t-52.5 33.5t-35 50.5t-12.5 62t12.5 62 t35 50.5t52.5 34t64 12.5q33 0 63 -12.5t52 -33.5t35 -50t13 -63z" />
<glyph unicode="&#x118;" horiz-adv-x="1100" d="M995 6q-51 -14 -89 -37.5t-63.5 -50.5t-38.5 -57t-13 -57q0 -30 19 -46.5t50 -16.5q60 0 108 61l101 -120q-54 -67 -127.5 -104t-166.5 -37q-59 0 -103.5 13.5t-74.5 38.5t-45 59t-15 75q0 34 10.5 69.5t31 71t49.5 69.5t67 63h-648v165q40 9 85.5 16t92.5 10v1000 q-47 3 -92.5 10t-85.5 16v165h942v-349h-198q-7 39 -13 74.5t-9 64.5h-278v-367h225q4 30 9.5 58t12.5 55h171v-416h-171q-8 26 -13.5 55t-8.5 57h-225v-400h280q4 36 10 72.5t13 76.5h201v-357v0z" />
<glyph unicode="&#x119;" horiz-adv-x="1053" d="M940 45q-66 -19 -114 -48t-84 -61t-51.5 -66t-15.5 -63t19.5 -44t50.5 -15q19 -2 50 14.5t56 51.5l100 -119q-52 -71 -132.5 -112.5t-172.5 -41.5q-51 0 -91.5 13.5t-68 38t-40.5 59t-13 74.5q0 30 9.5 63t27.5 67.5t46 68t65 63.5q-12 -2 -25.5 -3t-27.5 -1 q-56 0 -111.5 10.5t-107 34.5t-95 63t-76 96.5t-50.5 134.5t-18 177q0 115 32.5 213.5t95 170.5t152 113.5t202.5 41.5q112 0 192 -34t131 -92t75.5 -137t24.5 -169q0 -15 -1 -33t-2 -37t-3 -38.5t-4 -36.5h-628q-1 -70 15 -122.5t50 -87t87 -51.5t126 -17q74 0 149 15 t146 46zM715 638q1 49 -10.5 88t-34.5 65.5t-56.5 40.5t-75.5 14q-40 0 -74.5 -15t-60 -42t-42.5 -65.5t-22 -85.5h376z" />
<glyph unicode="&#x11a;" horiz-adv-x="1100" d="M47 0v165q40 9 85.5 16t92.5 10v1000q-47 3 -92.5 10t-85.5 16v165h942v-349h-198q-7 39 -13 74.5t-9 64.5h-278v-368h225q4 30 9.5 58t12.5 55h171v-415h-171q-8 26 -13.5 55t-8.5 57h-225v-400h280q4 36 10 72.5t13 76.5h201v-363h-948zM542 1465l-341 167l64 140 l284 -114l273 112l58 -130z" />
<glyph unicode="&#x11b;" horiz-adv-x="1053" d="M975 607q0 -15 -1 -33t-2 -37t-3 -38.5t-4 -36.5h-628q-1 -70 15 -122.5t50 -87t87 -51.5t126 -17q74 0 149 15t146 46l30 -200q-84 -31 -179 -48.5t-190 -17.5q-121 0 -214.5 31t-157 95t-96.5 162.5t-33 232.5q0 115 32.5 213.5t95 170.5t152 113.5t202.5 41.5 q112 0 192 -34t131 -92t75.5 -137t24.5 -169zM715 638q1 49 -10.5 88t-34.5 65.5t-56.5 40.5t-75.5 14q-40 0 -74.5 -15t-60 -42t-42.5 -65.5t-22 -85.5h376zM543 1146l-313 276l103 121l212 -167l212 167l101 -119z" />
<glyph unicode="&#x11e;" horiz-adv-x="1405" d="M1359 556q-27 -7 -56 -12t-58 -9v-469q-51 -21 -108.5 -37t-118.5 -27.5t-124 -17t-125 -5.5q-164 0 -293 47t-218.5 135t-136.5 214t-47 284q0 165 52 302t150 235t240 152t321 54q99 0 195 -13t193 -37v-371h-205q-9 46 -14.5 86t-8.5 80q-43 11 -87.5 16t-87.5 5 q-103 0 -188 -31.5t-145.5 -93t-94 -152t-33.5 -208.5q0 -109 29.5 -195t86.5 -146t138.5 -91.5t186.5 -31.5q50 0 93.5 6.5t82.5 19.5v287q-46 3 -91.5 10.5t-82.5 16.5v165h555v-168v0zM1092 1759q0 -57 -19 -108t-56 -89t-92 -60t-126 -22q-72 0 -126 22.5t-90 61 t-54.5 89t-18.5 106.5h156q0 -25 9.5 -46t27.5 -37t43 -25t55 -9q31 0 55.5 9t42 25t27 37t9.5 46h157v0z" />
<glyph unicode="&#x11f;" horiz-adv-x="1116" d="M1064 -109q0 -82 -40 -156t-112.5 -129.5t-175.5 -88t-230 -32.5q-102 0 -183 19.5t-137.5 58t-86.5 95t-30 131.5q0 40 13 77.5t34.5 70.5t50 59.5t59.5 43.5q-46 21 -72 62t-26 93q0 30 8.5 57.5t24.5 51.5t38 43t48 31q-70 38 -111 107t-41 170q0 76 28.5 146 t85 123.5t141 84.5t196.5 31q48 0 85.5 -6t79.5 -16h346v-205h-139q24 -23 37 -56t13 -73q0 -82 -27 -149.5t-81 -116t-136 -75.5t-191 -27q-23 0 -41 2.5t-39 6.5q-24 -11 -37 -29t-13 -36q0 -17 8 -29t26.5 -19t49 -10.5t75.5 -4.5l156 -6q82 -3 146.5 -22.5t109 -57 t67.5 -92t23 -128.5zM719 671q0 82 -46.5 130t-137.5 48q-45 0 -80 -13.5t-59 -37t-36.5 -55.5t-12.5 -71q0 -82 47.5 -129t139.5 -47q43 0 77.5 12t58 34.5t36.5 55t13 73.5zM805 -143q0 28 -9 51t-28.5 40t-49.5 27t-73 12l-176 6h-25t-23 1q-43 -33 -68 -72.5t-25 -82.5 q0 -36 15 -64t43.5 -47.5t69 -30.5t89.5 -11q64 0 113 13t81.5 36t49 54.5t16.5 67.5zM828 1475q0 -62 -16 -119t-50.5 -100t-88 -68.5t-128.5 -25.5q-74 0 -127 26t-86 69.5t-48 100t-15 117.5h173q0 -26 6.5 -48t20 -38t33 -25t45.5 -9q49 0 78 30t29 90h174v0z" />
<glyph unicode="&#x122;" horiz-adv-x="1405" d="M1359 556q-27 -7 -56 -12t-58 -9v-469q-51 -21 -108.5 -37t-118.5 -27.5t-124 -17t-125 -5.5q-164 0 -293 47t-218.5 135t-136.5 214t-47 284q0 165 52 302t150 235t240 152t321 54q99 0 195 -13t193 -37v-371h-205q-9 46 -14.5 86t-8.5 80q-43 11 -87.5 16t-87.5 5 q-103 0 -188 -31.5t-145.5 -93t-94 -152t-33.5 -208.5q0 -109 29.5 -195t86.5 -146t138.5 -91.5t186.5 -31.5q50 0 93.5 6.5t82.5 19.5v287q-46 3 -91.5 10.5t-82.5 16.5v165h555v-168v0zM786 -96q40 0 69.5 -22.5t43 -58.5t8 -80.5t-37 -89t-91.5 -84t-155 -65.5l-43 95 q39 22 61.5 41t32 37t9 36t-8.5 37q-10 28 -7 55.5t18 49.5t40.5 35.5t60.5 13.5z" />
<glyph unicode="&#x123;" horiz-adv-x="1116" d="M1064 -109q0 -82 -40 -156t-112.5 -129.5t-175.5 -88t-230 -32.5q-102 0 -183 19.5t-137.5 58t-86.5 95t-30 131.5q0 40 13 77.5t34.5 70.5t50 59.5t59.5 43.5q-46 21 -72 62t-26 93q0 30 8.5 57.5t24.5 51.5t38 43t48 31q-70 38 -111 107t-41 170q0 76 28.5 146 t85 123.5t141 84.5t196.5 31q48 0 85.5 -6t79.5 -16h346v-205h-139q24 -23 37 -56t13 -73q0 -82 -27 -149.5t-81 -116t-136 -75.5t-191 -27q-23 0 -41 2.5t-39 6.5q-24 -11 -37 -29t-13 -36q0 -17 8 -29t26.5 -19t49 -10.5t75.5 -4.5l156 -6q82 -3 146.5 -22.5t109 -57 t67.5 -92t23 -128.5zM719 671q0 82 -46.5 130t-137.5 48q-45 0 -80 -13.5t-59 -37t-36.5 -55.5t-12.5 -71q0 -82 47.5 -129t139.5 -47q43 0 77.5 12t58 34.5t36.5 55t13 73.5zM805 -143q0 28 -9 51t-28.5 40t-49.5 27t-73 12l-176 6h-25t-23 1q-43 -33 -68 -72.5t-25 -82.5 q0 -36 15 -64t43.5 -47.5t69 -30.5t89.5 -11q64 0 113 13t81.5 36t49 54.5t16.5 67.5zM516 1150q-40 0 -70 22.5t-43 58t-7.5 80.5t37 89t91.5 83.5t155 65.5l43 -95q-40 -21 -62.5 -40.5t-32 -37t-8.5 -36t8 -36.5q11 -28 7.5 -56t-18.5 -49.5t-40.5 -35t-59.5 -13.5z" />
<glyph unicode="&#x12a;" horiz-adv-x="716" d="M47 0v165q40 9 85.5 16t92.5 10v1000q-47 3 -92.5 10t-85.5 16v165h622v-165q-40 -9 -86 -16t-92 -10v-1000q46 -3 92 -10t86 -16v-165h-622zM59 1518v166h601v-166h-601z" />
<glyph unicode="&#x12b;" horiz-adv-x="684" d="M52 0v165q40 9 86 16t92 10v627q-37 6 -85 11.5t-93 8.5v164q49 6 102.5 10t109 6t113.5 2.5t114 -1.5v-828q44 -3 87 -10t80 -16v-165h-606zM72 1228v190h553v-190h-553z" />
<glyph unicode="&#x12e;" horiz-adv-x="716" d="M483 0q-51 -25 -86 -50.5t-56.5 -50t-31 -48t-9.5 -45.5q0 -30 19 -46t48 -16q14 0 29 5t29 13.5t26.5 20t22.5 26.5l102 -117q-28 -38 -62.5 -66.5t-73.5 -47t-81.5 -28t-86.5 -9.5q-47 0 -86 11.5t-67.5 34.5t-44.5 58t-16 82q0 41 13 80t34 74.5t48 65.5t56 53h-162 v165q40 9 85.5 16t92.5 10v1000q-47 3 -92.5 10t-85.5 16v165h622v-165q-40 -9 -86 -16t-92 -10v-1000q46 -3 92 -10t86 -16v-165h-186z" />
<glyph unicode="&#x12f;" horiz-adv-x="684" d="M525 1328q0 -33 -13 -62t-35 -50t-52 -33.5t-63 -12.5q-34 0 -64 12t-52.5 33.5t-35 50.5t-12.5 62t12.5 62t35 50.5t52.5 34t64 12.5q33 0 63 -12.5t52 -33.5t35 -50t13 -63zM482 0q-91 -41 -136.5 -94.5t-45.5 -107.5q0 -29 18.5 -43t48.5 -14q29 0 57.5 15t52.5 46 l101 -120q-27 -33 -59 -59.5t-68.5 -44.5t-79.5 -27.5t-92 -9.5q-62 0 -105 15t-70 41.5t-39.5 61.5t-12.5 74q0 34 10.5 69t31 70.5t50.5 67.5t69 60h-161v165q40 9 86 16t92 10v627q-37 6 -85 11.5t-93 8.5v164q49 6 102.5 10t109 6t113.5 2.5t114 -1.5v-828q44 -3 87 -10 t80 -16v-165h-176z" />
<glyph unicode="&#x130;" horiz-adv-x="716" d="M47 0v165q40 9 85.5 16t92.5 10v1000q-47 3 -92.5 10t-85.5 16v165h622v-165q-40 -9 -86 -16t-92 -10v-1000q46 -3 92 -10t86 -16v-165h-622zM502 1609q0 -29 -11.5 -54.5t-31 -44.5t-46 -30t-55.5 -11q-30 0 -56.5 11t-46 30t-31 44t-11.5 55q0 28 11.5 54t31 45.5 t46 30.5t56.5 11q29 0 55.5 -11t46 -30.5t31 -45t11.5 -54.5z" />
<glyph unicode="&#x131;" horiz-adv-x="684" d="M52 0v165q40 9 86 16t92 10v627q-37 6 -85 11.5t-93 8.5v164q49 6 102.5 10t109 6t113.5 2.5t114 -1.5v-828q44 -3 87 -10t80 -16v-165h-606z" />
<glyph unicode="&#x136;" horiz-adv-x="1425" d="M803 0v169q26 6 52.5 10t50.5 7l-415 497v-492q33 -3 68 -8.5t67 -13.5v-169h-579v165q40 9 85.5 16t92.5 10v1000q-47 3 -92.5 10t-85.5 16v165h579v-169q-32 -8 -67 -13.5t-68 -8.5v-459l411 463q-26 3 -55 7.5t-52 10.5v169h560v-167q-30 -7 -64 -12.5t-63 -8.5 l-437 -474l467 -532q29 -3 63.5 -8t64.5 -12v-168h-583zM707 -96q40 0 69.5 -22.5t43 -58.5t8 -80.5t-37 -89t-91.5 -84t-155 -65.5l-43 95q39 22 61.5 41t32 37t9 36t-8.5 37q-10 28 -7 55.5t18 49.5t40.5 35.5t60.5 13.5z" />
<glyph unicode="&#x137;" horiz-adv-x="1207" d="M828 0l-375 516v-325q37 -3 69.5 -8.5t59.5 -13.5v-169h-555v165q36 9 79.5 16t85.5 10v1104q-37 6 -83.5 11.5t-88.5 8.5v165q47 6 99.5 9.5t108 5.5t112.5 2.5t113 -1.5v-939l234 274q-30 4 -54 8t-42 10v169h549v-169q-29 -7 -65 -12.5t-71 -8.5l-257 -279l275 -356 q34 -4 71 -10t75 -13v-170h-340zM643 -96q40 0 69.5 -22.5t43 -58.5t8 -80.5t-37 -89t-91.5 -84t-155 -65.5l-43 95q39 22 61.5 41t32 37t9 36t-8.5 37q-10 28 -7 55.5t18 49.5t40.5 35.5t60.5 13.5z" />
<glyph unicode="&#x139;" horiz-adv-x="1029" d="M47 0v165q41 9 86 15.5t92 10.5v1000q-47 4 -92 10.5t-86 15.5v165h622v-165q-41 -9 -86 -15.5t-92 -10.5v-971h281q4 39 13 91t23 101h192v-412h-953zM350 1467l-43 142l424 153l60 -186z" />
<glyph unicode="&#x13a;" horiz-adv-x="646" d="M27 0v165q36 9 78.5 16t86.5 10v1104q-37 6 -83.5 11.5t-88.5 8.5v165q49 6 101.5 9.5t107 5.5t111.5 2.5t113 -1.5v-1305q45 -3 87 -10t78 -16v-165h-591zM206 1551l-43 142l424 153l60 -186z" />
<glyph unicode="&#x13b;" horiz-adv-x="1029" d="M47 0v165q41 9 86 15.5t92 10.5v1000q-47 4 -92 10.5t-86 15.5v165h622v-165q-41 -9 -86 -15.5t-92 -10.5v-971h281q4 39 13 91t23 101h192v-412h-953zM530 -96q40 0 69.5 -22.5t43 -58.5t8 -80.5t-37 -89t-91.5 -84t-155 -65.5l-43 95q39 22 61.5 41t32 37t9 36t-8.5 37 q-10 28 -7 55.5t18 49.5t40.5 35.5t60.5 13.5z" />
<glyph unicode="&#x13c;" horiz-adv-x="646" d="M27 0v165q36 9 78.5 16t86.5 10v1104q-37 6 -83.5 11.5t-88.5 8.5v165q49 6 101.5 9.5t107 5.5t111.5 2.5t113 -1.5v-1305q45 -3 87 -10t78 -16v-165h-591zM344 -96q40 0 69.5 -22.5t43 -58.5t8 -80.5t-37 -89t-91.5 -84t-155 -65.5l-43 95q39 22 61.5 41t32 37t9 36 t-8.5 37q-10 28 -7 55.5t18 49.5t40.5 35.5t60.5 13.5z" />
<glyph unicode="&#x13d;" horiz-adv-x="1049" d="M47 0v165q41 9 86 15.5t92 10.5v1000q-47 4 -92 10.5t-86 15.5v165h622v-165q-41 -9 -86 -15.5t-92 -10.5v-971h281q4 39 13 91t23 101h192v-412h-953zM914 1133l-169 37l102 420l210 -45z" />
<glyph unicode="&#x13e;" horiz-adv-x="885" d="M28 0v165q36 9 78.5 16t86.5 10v1104q-37 6 -83.5 11.5t-88.5 8.5v165q49 6 101.5 9.5t107 5.5t111.5 2.5t113 -1.5v-1305q45 -3 87 -10t78 -16v-165h-591zM675 1133l-169 37l102 420l210 -45z" />
<glyph unicode="&#x141;" horiz-adv-x="1038" d="M55 0v165q40 9 86 16t92 10v398l-146 -48l-37 198l183 58v394q-46 3 -92 10t-86 16v165h623v-165q-40 -9 -86 -16t-92 -10v-320l209 65l36 -200l-245 -75v-441h281q3 40 12.5 91t23.5 101h192v-412h-954z" />
<glyph unicode="&#x142;" horiz-adv-x="686" d="M48 0v165q35 9 77.5 16t87.5 10v525l-167 -53l-16 202l183 57v373q-37 6 -82.5 11.5t-90.5 8.5v165q49 6 101.5 9.5t107 5.5t111.5 2.5t113 -1.5v-502l170 52l15 -202l-185 -57v-596q45 -3 87 -10t79 -16v-165h-591z" />
<glyph unicode="&#x143;" horiz-adv-x="1570" d="M1524 1213q-30 -7 -63 -13t-66 -10v-1190h-361l-418 725q-22 40 -43 81.5t-40.5 84t-37 84.5t-32.5 82q5 -79 9 -170t6.5 -197.5t3 -230.5t0.5 -268q37 -3 75 -8.5t73 -13.5v-169h-583v165q40 9 85.5 16t92.5 10v1000q-47 3 -92.5 10t-85.5 16v165h539l415 -722 q21 -39 41.5 -80t40 -82.5t38 -82.5t34.5 -80q-6 84 -9.5 175t-5.5 195.5t-2.5 224t-0.5 260.5q-37 3 -72.5 9t-67.5 14v169h527v-169v0zM651 1467l-43 142l424 153l60 -186z" />
<glyph unicode="&#x144;" horiz-adv-x="1306" d="M854 0v651q0 39 -6.5 70.5t-20.5 53.5t-38 33.5t-61 11.5q-50 0 -93 -26.5t-75 -71t-50.5 -104.5t-18.5 -127v-300q38 -3 76.5 -8.5t73.5 -13.5v-169h-589v165q40 9 86 16t92 10v627q-37 6 -85 11.5t-93 8.5v164q49 6 102 10t107.5 6t109 2.5t105.5 -1.5 q0 -17 -0.5 -40.5t-2 -48t-4.5 -49.5t-6 -45l3 -1q22 45 55.5 82.5t77 64.5t97 42t116.5 15q85 0 143.5 -25.5t94 -70t50.5 -103.5t15 -125v-524q44 -3 86.5 -10t78.5 -16v-165h-426zM551 1146l-97 142l347 255l121 -174z" />
<glyph unicode="&#x145;" horiz-adv-x="1570" d="M1524 1213q-30 -7 -63 -13t-66 -10v-1190h-361l-418 725q-22 40 -43 81.5t-40.5 84t-37 84.5t-32.5 82q5 -79 9 -170t6.5 -197.5t3 -230.5t0.5 -268q37 -3 75 -8.5t73 -13.5v-169h-583v165q40 9 85.5 16t92.5 10v1000q-47 3 -92.5 10t-85.5 16v165h539l415 -722 q21 -39 41.5 -80t40 -82.5t38 -82.5t34.5 -80q-6 84 -9.5 175t-5.5 195.5t-2.5 224t-0.5 260.5q-37 3 -72.5 9t-67.5 14v169h527v-169v0zM782 -96q40 0 69.5 -22.5t43 -58.5t8 -80.5t-37 -89t-91.5 -84t-155 -65.5l-43 95q39 22 61.5 41t32 37t9 36t-8.5 37q-10 28 -7 55.5 t18 49.5t40.5 35.5t60.5 13.5z" />
<glyph unicode="&#x146;" horiz-adv-x="1306" d="M854 0v651q0 39 -6.5 70.5t-20.5 53.5t-38 33.5t-61 11.5q-50 0 -93 -26.5t-75 -71t-50.5 -104.5t-18.5 -127v-300q38 -3 76.5 -8.5t73.5 -13.5v-169h-589v165q40 9 86 16t92 10v627q-37 6 -85 11.5t-93 8.5v164q49 6 102 10t107.5 6t109 2.5t105.5 -1.5 q0 -17 -0.5 -40.5t-2 -48t-4.5 -49.5t-6 -45l3 -1q22 45 55.5 82.5t77 64.5t97 42t116.5 15q85 0 143.5 -25.5t94 -70t50.5 -103.5t15 -125v-524q44 -3 86.5 -10t78.5 -16v-165h-426zM679 -96q40 0 69.5 -22.5t43 -58.5t8 -80.5t-37 -89t-91.5 -84t-155 -65.5l-43 95 q39 22 61.5 41t32 37t9 36t-8.5 37q-10 28 -7 55.5t18 49.5t40.5 35.5t60.5 13.5z" />
<glyph unicode="&#x147;" horiz-adv-x="1570" d="M1524 1213q-30 -7 -63 -13t-66 -10v-1190h-361l-418 725q-22 40 -43 81.5t-40.5 84t-37 84.5t-32.5 82q5 -79 9 -170t6.5 -197.5t3 -230.5t0.5 -268q37 -3 75 -8.5t73 -13.5v-169h-583v165q40 9 85.5 16t92.5 10v1000q-47 3 -92.5 10t-85.5 16v165h539l415 -722 q21 -39 41.5 -80t40 -82.5t38 -82.5t34.5 -80q-6 84 -9.5 175t-5.5 195.5t-2.5 224t-0.5 260.5q-37 3 -72.5 9t-67.5 14v169h527v-169v0zM779 1465l-341 167l64 140l284 -114l273 112l58 -130z" />
<glyph unicode="&#x148;" horiz-adv-x="1306" d="M854 0v651q0 39 -6.5 70.5t-20.5 53.5t-38 33.5t-61 11.5q-50 0 -93 -26.5t-75 -71t-50.5 -104.5t-18.5 -127v-300q38 -3 76.5 -8.5t73.5 -13.5v-169h-589v165q40 9 86 16t92 10v627q-37 6 -85 11.5t-93 8.5v164q49 6 102 10t107.5 6t109 2.5t105.5 -1.5 q0 -17 -0.5 -40.5t-2 -48t-4.5 -49.5t-6 -45l3 -1q22 45 55.5 82.5t77 64.5t97 42t116.5 15q85 0 143.5 -25.5t94 -70t50.5 -103.5t15 -125v-524q44 -3 86.5 -10t78.5 -16v-165h-426zM657 1146l-313 276l103 121l212 -167l212 167l101 -119z" />
<glyph unicode="&#x14c;" horiz-adv-x="1440" d="M1372 713q0 -173 -53.5 -309.5t-145 -231.5t-214.5 -145.5t-262 -50.5q-157 0 -275 49t-196.5 139t-118 218.5t-39.5 287.5q0 172 53.5 308.5t145 231.5t214 145.5t261.5 50.5q157 0 275 -49t197 -139t118.5 -218t39.5 -287zM1089 681q0 111 -22.5 200.5t-68.5 152.5 t-115 97.5t-161 34.5q-80 0 -148 -30t-117.5 -89t-77.5 -145.5t-28 -199.5q0 -110 22.5 -200t68 -153t114.5 -97t162 -34q80 0 148 30t118 88.5t77.5 145.5t27.5 199zM418 1518v166h601v-166h-601z" />
<glyph unicode="&#x14d;" horiz-adv-x="1134" d="M1066 530q0 -121 -38 -222t-107 -174t-165 -114t-211 -41q-108 0 -196 29.5t-150.5 91t-96 158t-33.5 230.5q0 121 37.5 222t106 174t164.5 114t212 41q109 0 197 -30t150 -92.5t96 -158.5t34 -228zM795 509q0 75 -14 132.5t-42 96.5t-70 59t-98 20q-45 0 -86.5 -17.5 t-74 -54.5t-51.5 -95t-19 -138q0 -76 13.5 -134t42 -96.5t71 -58t99.5 -19.5q48 0 90 19.5t73 57.5t48.5 95t17.5 133zM289 1228v190h553v-190h-553z" />
<glyph unicode="&#x150;" horiz-adv-x="1440" d="M1372 713q0 -173 -53.5 -309.5t-145 -231.5t-214.5 -145.5t-262 -50.5q-157 0 -275 49t-196.5 139t-118 218.5t-39.5 287.5q0 172 53.5 308.5t145 231.5t214 145.5t261.5 50.5q157 0 275 -49t197 -139t118.5 -218t39.5 -287zM1089 681q0 111 -22.5 200.5t-68.5 152.5 t-115 97.5t-161 34.5q-80 0 -148 -30t-117.5 -89t-77.5 -145.5t-28 -199.5q0 -110 22.5 -200t68 -153t114.5 -97t162 -34q80 0 148 30t118 88.5t77.5 145.5t27.5 199zM951 1463l-76 123l340 204l95 -157zM514 1461l-81 116l314 230l103 -150z" />
<glyph unicode="&#x151;" horiz-adv-x="1134" d="M1066 530q0 -121 -38 -222t-107 -174t-165 -114t-211 -41q-108 0 -196 29.5t-150.5 91t-96 158t-33.5 230.5q0 121 37.5 222t106 174t164.5 114t212 41q109 0 197 -30t150 -92.5t96 -158.5t34 -228zM795 509q0 75 -14 132.5t-42 96.5t-70 59t-98 20q-45 0 -86.5 -17.5 t-74 -54.5t-51.5 -95t-19 -138q0 -76 13.5 -134t42 -96.5t71 -58t99.5 -19.5q48 0 90 19.5t73 57.5t48.5 95t17.5 133zM798 1146l-116 106l292 300l142 -136zM409 1146l-122 105l265 318l150 -127z" />
<glyph unicode="&#x152;" horiz-adv-x="1772" d="M920 0q-53 -10 -109 -17t-114 -7q-157 0 -275 49t-196.5 139t-118 218.5t-39.5 287.5q0 172 53.5 308.5t145 231.5t214 145.5t261.5 50.5q106 0 206 -24h710v-349h-197q-8 39 -13.5 74.5t-8.5 64.5h-278v-367h225q5 30 10.5 58t12.5 55h171v-416h-171q-8 26 -13.5 55 t-9.5 57h-225v-400h283q4 36 9.5 72.5t13.5 76.5h200v-363h-747zM896 1138q-40 14 -82.5 21t-93.5 7q-80 0 -147.5 -30t-116.5 -89t-77 -145.5t-28 -199.5q0 -110 22.5 -200t68 -153t114.5 -97t162 -34q41 0 88 8.5t90 23.5v888z" />
<glyph unicode="&#x153;" horiz-adv-x="1760" d="M1683 607q0 -15 -0.5 -33t-1.5 -37t-2 -38.5t-4 -36.5h-629q-2 -70 14 -122.5t50.5 -87t87.5 -51.5t126 -17q74 0 149 15.5t147 46.5l29 -200q-84 -32 -179 -49.5t-190 -17.5q-69 0 -126.5 11t-103.5 32.5t-82.5 52.5t-64.5 70q-28 -37 -66 -67t-83.5 -52t-98 -34.5 t-110.5 -12.5q-108 0 -196 29t-150.5 91t-96 158t-33.5 231q0 120 37 221t106 174.5t165 114.5t212 41q49 0 97.5 -9.5t93 -28t82.5 -47t67 -68.5q25 33 59.5 61t76 48.5t91 32t106.5 11.5q111 0 191 -34t131 -92t75 -137t24 -169zM1424 638q1 49 -10.5 88t-34.5 65.5 t-56.5 40.5t-75.5 14q-40 0 -74.5 -15t-60 -42t-42.5 -65.5t-22 -85.5h376zM795 513q0 74 -14 130.5t-42 95t-70 58.5t-98 20q-45 0 -86.5 -17.5t-74 -54t-51.5 -94t-19 -137.5q0 -77 13.5 -135t42 -97t71 -58.5t99.5 -19.5q48 0 90 19.5t72.5 58.5t48.5 96.5t18 134.5z" />
<glyph unicode="&#x154;" horiz-adv-x="1285" d="M900 0l-317 573h-92v-382q30 -3 62.5 -8.5t64.5 -13.5v-169h-571v165q40 9 85.5 16t92.5 10v1000q-47 3 -92.5 10t-85.5 16v165h161q13 0 39 1t60.5 2t76 2t85.5 2t87.5 1.5t84.5 0.5q118 0 213 -21t161.5 -68t102 -122t35.5 -183q0 -70 -21.5 -129.5t-62 -105.5 t-97.5 -79.5t-127 -50.5q19 -24 37 -50.5t33 -51.5l199 -338q29 -4 62.5 -9.5t68.5 -11.5v-171h-345zM873 980q0 51 -15 89t-47 62.5t-81.5 37t-116.5 12.5q-13 0 -30 -0.5l-34 -1t-32.5 -1.5t-25.5 -2v-406h128q60 0 107.5 14t80 41.5t49.5 66t17 88.5zM451 1467l-43 142 l424 153l60 -186z" />
<glyph unicode="&#x155;" horiz-adv-x="840" d="M795 782q-79 15 -135.5 -1t-94.5 -62t-56 -121.5t-18 -181.5v-225q47 -3 92.5 -10t85.5 -16v-165h-617v165q40 9 86 16t92 10v627q-37 6 -85 11.5t-93 8.5v164q49 6 102 10t107.5 6t109 2.5t105.5 -1.5q0 -40 -4 -95.5t-12 -110.5l2 -1q19 49 47.5 92.5t70.5 75.5 t97.5 48.5t129.5 10.5zM369 1146l-97 142l347 255l121 -174z" />
<glyph unicode="&#x156;" horiz-adv-x="1285" d="M900 0l-317 573h-92v-382q30 -3 62.5 -8.5t64.5 -13.5v-169h-571v165q40 9 85.5 16t92.5 10v1000q-47 3 -92.5 10t-85.5 16v165h161q13 0 39 1t60.5 2t76 2t85.5 2t87.5 1.5t84.5 0.5q118 0 213 -21t161.5 -68t102 -122t35.5 -183q0 -70 -21.5 -129.5t-62 -105.5 t-97.5 -79.5t-127 -50.5q19 -24 37 -50.5t33 -51.5l199 -338q29 -4 62.5 -9.5t68.5 -11.5v-171h-345zM873 980q0 51 -15 89t-47 62.5t-81.5 37t-116.5 12.5q-13 0 -30 -0.5l-34 -1t-32.5 -1.5t-25.5 -2v-406h128q60 0 107.5 14t80 41.5t49.5 66t17 88.5zM646 -96 q40 0 69.5 -22.5t43 -58.5t8 -80.5t-37 -89t-91.5 -84t-155 -65.5l-43 95q39 22 61.5 41t32 37t9 36t-8.5 37q-10 28 -7 55.5t18 49.5t40.5 35.5t60.5 13.5z" />
<glyph unicode="&#x157;" horiz-adv-x="840" d="M795 782q-79 15 -135.5 -1t-94.5 -62t-56 -121.5t-18 -181.5v-225q47 -3 92.5 -10t85.5 -16v-165h-617v165q40 9 86 16t92 10v627q-37 6 -85 11.5t-93 8.5v164q49 6 102 10t107.5 6t109 2.5t105.5 -1.5q0 -40 -4 -95.5t-12 -110.5l2 -1q19 49 47.5 92.5t70.5 75.5 t97.5 48.5t129.5 10.5zM384 -96q40 0 69.5 -22.5t43 -58.5t8 -80.5t-37 -89t-91.5 -84t-155 -65.5l-43 95q39 22 61.5 41t32 37t9 36t-8.5 37q-10 28 -7 55.5t18 49.5t40.5 35.5t60.5 13.5z" />
<glyph unicode="&#x158;" horiz-adv-x="1285" d="M900 0l-317 573h-92v-382q30 -3 62.5 -8.5t64.5 -13.5v-169h-571v165q40 9 85.5 16t92.5 10v1000q-47 3 -92.5 10t-85.5 16v165h161q13 0 39 1t60.5 2t76 2t85.5 2t87.5 1.5t84.5 0.5q118 0 213 -21t161.5 -68t102 -122t35.5 -183q0 -70 -21.5 -129.5t-62 -105.5 t-97.5 -79.5t-127 -50.5q19 -24 37 -50.5t33 -51.5l199 -338q29 -4 62.5 -9.5t68.5 -11.5v-171h-345zM873 980q0 51 -15 89t-47 62.5t-81.5 37t-116.5 12.5q-13 0 -30 -0.5l-34 -1t-32.5 -1.5t-25.5 -2v-406h128q60 0 107.5 14t80 41.5t49.5 66t17 88.5zM613 1465l-341 167 l64 140l284 -114l273 112l58 -130z" />
<glyph unicode="&#x159;" horiz-adv-x="840" d="M795 782q-79 15 -135.5 -1t-94.5 -62t-56 -121.5t-18 -181.5v-225q47 -3 92.5 -10t85.5 -16v-165h-617v165q40 9 86 16t92 10v627q-37 6 -85 11.5t-93 8.5v164q49 6 102 10t107.5 6t109 2.5t105.5 -1.5q0 -40 -4 -95.5t-12 -110.5l2 -1q19 49 47.5 92.5t70.5 75.5 t97.5 48.5t129.5 10.5zM440 1146l-313 276l103 121l212 -167l212 167l101 -119z" />
<glyph unicode="&#x15a;" horiz-adv-x="1035" d="M962 429q0 -98 -37.5 -180.5t-107 -143t-169.5 -94t-224 -33.5q-84 0 -164 8.5t-152 25.5v368h204q7 -43 12.5 -86.5t9.5 -79.5q24 -6 53.5 -9.5t63.5 -3.5q48 0 90 11t72.5 33.5t47.5 57.5t17 84q0 50 -25.5 83t-67.5 58t-96 44.5t-110 42t-110 51.5t-96 71.5t-68 103.5 t-26 147q0 93 35 169.5t101.5 131.5t163 85.5t219.5 30.5q78 0 148 -7.5t144 -23.5v-353h-204q-7 40 -13 82.5t-9 78.5q-15 3 -38 6t-46 3q-54 0 -95 -13t-68 -35.5t-40.5 -53.5t-13.5 -68q0 -47 26 -80.5t67.5 -58.5t96 -46t110.5 -44.5t110 -52t96 -71t67.5 -100.5 t25.5 -139zM428 1467l-43 142l424 153l60 -186z" />
<glyph unicode="&#x15b;" horiz-adv-x="900" d="M825 328q0 -75 -32 -139t-91.5 -110.5t-145 -73t-190.5 -26.5q-30 0 -63.5 2t-68.5 6t-69.5 9.5t-66.5 11.5v306h167q6 -31 11 -66t8 -68q23 -6 50.5 -8t52.5 -2q39 0 71.5 8.5t55.5 24t36 37.5t13 51q0 33 -21.5 55t-55.5 38.5t-78 29.5t-90.5 28.5t-90.5 35.5t-78 51 t-55 76t-21 108q0 69 27.5 128.5t82.5 103.5t137 69t190 25q57 0 126 -8t139 -23v-293h-166q-9 31 -13.5 65t-8.5 67q-22 4 -46.5 7t-45.5 3q-83 0 -122 -31.5t-39 -82.5q0 -34 21.5 -56.5t56 -39t78.5 -30.5t90 -29.5t90 -35.5t78.5 -50t55.5 -72.5t21 -101.5zM386 1146 l-97 142l347 255l121 -174z" />
<glyph unicode="&#x15e;" horiz-adv-x="1035" d="M962 429q0 -98 -37.5 -180.5t-107 -143t-169.5 -94t-224 -33.5q-84 0 -164 8.5t-152 25.5v368h204q7 -43 12.5 -86.5t9.5 -79.5q24 -6 53.5 -9.5t63.5 -3.5q48 0 90 11t72.5 33.5t47.5 57.5t17 84q0 50 -25.5 83t-67.5 58t-96 44.5t-110 42t-110 51.5t-96 71.5t-68 103.5 t-26 147q0 93 35 169.5t101.5 131.5t163 85.5t219.5 30.5q78 0 148 -7.5t144 -23.5v-353h-204q-7 40 -13 82.5t-9 78.5q-15 3 -38 6t-46 3q-54 0 -95 -13t-68 -35.5t-40.5 -53.5t-13.5 -68q0 -47 26 -80.5t67.5 -58.5t96 -46t110.5 -44.5t110 -52t96 -71t67.5 -100.5 t25.5 -139zM591 -82q40 -54 54.5 -106.5t8 -102t-33.5 -97t-71 -92.5h-196q37 45 59 85t25.5 79t-11 80t-51.5 87l216 67v0z" />
<glyph unicode="&#x15f;" horiz-adv-x="900" d="M825 328q0 -75 -32 -139t-91.5 -110.5t-145 -73t-190.5 -26.5q-30 0 -63.5 2t-68.5 6t-69.5 9.5t-66.5 11.5v306h167q6 -31 11 -66t8 -68q23 -6 50.5 -8t52.5 -2q39 0 71.5 8.5t55.5 24t36 37.5t13 51q0 33 -21.5 55t-55.5 38.5t-78 29.5t-90.5 28.5t-90.5 35.5t-78 51 t-55 76t-21 108q0 69 27.5 128.5t82.5 103.5t137 69t190 25q57 0 126 -8t139 -23v-293h-166q-9 31 -13.5 65t-8.5 67q-22 4 -46.5 7t-45.5 3q-83 0 -122 -31.5t-39 -82.5q0 -34 21.5 -56.5t56 -39t78.5 -30.5t90 -29.5t90 -35.5t78.5 -50t55.5 -72.5t21 -101.5zM512 -82 q40 -54 54.5 -106.5t8 -102t-33.5 -97t-71 -92.5h-196q37 45 59 85t25.5 79t-11 80t-51.5 87l216 67v0z" />
<glyph unicode="&#x160;" horiz-adv-x="1035" d="M962 429q0 -98 -37.5 -180.5t-107 -143t-169.5 -94t-224 -33.5q-84 0 -164 8.5t-152 25.5v368h204q7 -43 12.5 -86.5t9.5 -79.5q24 -6 53.5 -9.5t63.5 -3.5q48 0 90 11t72.5 33.5t47.5 57.5t17 84q0 50 -25.5 83t-67.5 58t-96 44.5t-110 42t-110 51.5t-96 71.5t-68 103.5 t-26 147q0 93 35 169.5t101.5 131.5t163 85.5t219.5 30.5q78 0 148 -7.5t144 -23.5v-353h-204q-7 40 -13 82.5t-9 78.5q-15 3 -38 6t-46 3q-54 0 -95 -13t-68 -35.5t-40.5 -53.5t-13.5 -68q0 -47 26 -80.5t67.5 -58.5t96 -46t110.5 -44.5t110 -52t96 -71t67.5 -100.5 t25.5 -139zM529 1465l-341 167l64 140l284 -114l273 112l58 -130z" />
<glyph unicode="&#x161;" horiz-adv-x="900" d="M825 328q0 -75 -32 -139t-91.5 -110.5t-145 -73t-190.5 -26.5q-30 0 -63.5 2t-68.5 6t-69.5 9.5t-66.5 11.5v306h167q6 -31 11 -66t8 -68q23 -6 50.5 -8t52.5 -2q39 0 71.5 8.5t55.5 24t36 37.5t13 51q0 33 -21.5 55t-55.5 38.5t-78 29.5t-90.5 28.5t-90.5 35.5t-78 51 t-55 76t-21 108q0 69 27.5 128.5t82.5 103.5t137 69t190 25q57 0 126 -8t139 -23v-293h-166q-9 31 -13.5 65t-8.5 67q-22 4 -46.5 7t-45.5 3q-83 0 -122 -31.5t-39 -82.5q0 -34 21.5 -56.5t56 -39t78.5 -30.5t90 -29.5t90 -35.5t78.5 -50t55.5 -72.5t21 -101.5zM459 1146 l-313 276l103 121l212 -167l212 167l101 -119z" />
<glyph unicode="&#x162;" horiz-adv-x="1202" d="M971 992q-8 50 -15 91.5t-11 79.5h-211v-972q47 -3 92.5 -10t85.5 -16v-165h-622v165q41 9 86 16t92 10v972h-212q-3 -38 -9.5 -79.5t-15.5 -91.5h-196v390h1132v-390h-196zM600 -96q40 0 69.5 -22.5t43 -58.5t8 -80.5t-37 -89t-91.5 -84t-155 -65.5l-43 95 q39 22 61.5 41t32 37t9 36t-8.5 37q-10 28 -7 55.5t18 49.5t40.5 35.5t60.5 13.5z" />
<glyph unicode="&#x163;" horiz-adv-x="768" d="M705 7q-49 -12 -108.5 -19.5t-113.5 -7.5q-84 0 -140.5 16t-91 54t-48.5 99t-14 150v517h-177v202h177v313l260 71v-384h247v-202h-247v-448q0 -49 6 -81t20.5 -51.5t37.5 -27.5t57 -8q31 0 60.5 4t55.5 11l19 -208v0zM458 -96q40 0 69.5 -22.5t43 -58.5t8 -80.5t-37 -89 t-91.5 -84t-155 -65.5l-43 95q39 22 61.5 41t32 37t9 36t-8.5 37q-10 28 -7 55.5t18 49.5t40.5 35.5t60.5 13.5z" />
<glyph unicode="&#x164;" horiz-adv-x="1202" d="M971 992q-8 50 -15 91.5t-11 79.5h-211v-972q47 -3 92.5 -10t85.5 -16v-165h-622v165q41 9 86 16t92 10v972h-212q-3 -38 -9.5 -79.5t-15.5 -91.5h-196v390h1132v-390h-196zM602 1465l-341 167l64 140l284 -114l273 112l58 -130z" />
<glyph unicode="&#x165;" horiz-adv-x="946" d="M705 7q-49 -12 -108.5 -19.5t-113.5 -7.5q-84 0 -140.5 16t-91 54t-48.5 99t-14 150v517h-177v202h177v313l260 71v-384h247v-202h-247v-448q0 -49 6 -81t20.5 -51.5t37.5 -27.5t57 -8q31 0 60.5 4t55.5 11l19 -208v0zM736 1133l-169 37l102 420l210 -45z" />
<glyph unicode="&#x16a;" horiz-adv-x="1456" d="M1409 1213q-61 -14 -126 -22v-660q0 -138 -37.5 -242t-110 -173.5t-179.5 -104.5t-244 -35q-110 0 -192 19t-142 53t-99 81t-62 102.5t-32.5 118.5t-9.5 129v712q-68 8 -128 22v169h542v-169q-35 -8 -73 -13.5t-74 -8.5v-695q0 -67 12 -123.5t44 -97t87.5 -63.5 t142.5 -23q77 0 132 18t90.5 57t52.5 102.5t17 153.5v671q-37 3 -75 8.5t-73 13.5v169h537v-169v0zM427 1518v166h601v-166h-601z" />
<glyph unicode="&#x16b;" horiz-adv-x="1268" d="M1241 14q-45 -5 -95.5 -8.5t-103.5 -5.5t-106.5 -2.5t-103.5 1.5q0 19 0.5 42t2 47t4 48.5t5.5 45.5l-4 1q-22 -45 -55.5 -82.5t-77 -64.5t-97 -42t-116.5 -15q-85 0 -143.5 25.5t-93.5 69.5t-50.5 103.5t-15.5 125.5v515q-37 6 -81 11.5t-83 8.5v166q44 5 95 8.5 t105 5.5t111 2.5t114 -1.5v-652q0 -40 6.5 -71t20.5 -53t38.5 -33.5t60.5 -11.5q50 0 93 26.5t75 71t50.5 104t18.5 126.5v293q-32 5 -71.5 10t-78.5 8v168q45 5 95.5 8.5t102.5 5.5t105.5 2t107.5 -2v-819q37 -6 81.5 -11.5t83.5 -8.5v-166v0zM369 1228v190h553v-190h-553z " />
<glyph unicode="&#x16e;" horiz-adv-x="1456" d="M1409 1213q-61 -14 -126 -22v-660q0 -138 -37.5 -242t-110 -173.5t-179.5 -104.5t-244 -35q-110 0 -192 19t-142 53t-99 81t-62 102.5t-32.5 118.5t-9.5 129v712q-68 8 -128 22v169h542v-169q-35 -8 -73 -13.5t-74 -8.5v-695q0 -67 12 -123.5t44 -97t87.5 -63.5 t142.5 -23q77 0 132 18t90.5 57t52.5 102.5t17 153.5v671q-37 3 -75 8.5t-73 13.5v169h537v-169v0zM968 1687q0 -48 -19.5 -90t-52 -73t-76.5 -49t-94 -18q-49 0 -92.5 16.5t-76 46.5t-51 71.5t-18.5 92.5q0 49 19 91t52 72.5t76.5 48t92.5 17.5q50 0 93.5 -16.5t76 -47 t51.5 -72t19 -90.5zM825 1685q0 20 -8 38t-21.5 31.5t-31 21.5t-37.5 8t-37.5 -8t-30.5 -21.5t-21 -31.5t-8 -38t8 -38t21 -31.5t30.5 -21t37.5 -7.5t37.5 7.5t31 21t21.5 31.5t8 38z" />
<glyph unicode="&#x16f;" horiz-adv-x="1268" d="M1241 14q-45 -5 -95.5 -8.5t-103.5 -5.5t-106.5 -2.5t-103.5 1.5q0 19 0.5 42t2 47t4 48.5t5.5 45.5l-4 1q-22 -45 -55.5 -82.5t-77 -64.5t-97 -42t-116.5 -15q-85 0 -143.5 25.5t-93.5 69.5t-50.5 103.5t-15.5 125.5v515q-37 6 -81 11.5t-83 8.5v166q44 5 95 8.5 t105 5.5t111 2.5t114 -1.5v-652q0 -40 6.5 -71t20.5 -53t38.5 -33.5t60.5 -11.5q50 0 93 26.5t75 71t50.5 104t18.5 126.5v293q-32 5 -71.5 10t-78.5 8v168q45 5 95.5 8.5t102.5 5.5t105.5 2t107.5 -2v-819q37 -6 81.5 -11.5t83.5 -8.5v-166v0zM869 1358q0 -52 -20 -99 t-55.5 -82t-83 -55t-101.5 -20t-101.5 18.5t-83 51.5t-55.5 79t-20 100t20.5 100t56 79t83 52t100.5 19q54 0 101.5 -18t83 -50t55.5 -76.5t20 -98.5zM716 1351q0 22 -8.5 42t-23 35t-34 23.5t-41.5 8.5t-41.5 -8.5t-34 -23.5t-23 -35t-8.5 -42t8.5 -41.5t23 -34.5t34 -23.5 t41.5 -8.5t41.5 8.5t34 23.5t23 34.5t8.5 41.5z" />
<glyph unicode="&#x170;" horiz-adv-x="1456" d="M1409 1213q-61 -14 -126 -22v-660q0 -138 -37.5 -242t-110 -173.5t-179.5 -104.5t-244 -35q-110 0 -192 19t-142 53t-99 81t-62 102.5t-32.5 118.5t-9.5 129v712q-68 8 -128 22v169h542v-169q-35 -8 -73 -13.5t-74 -8.5v-695q0 -67 12 -123.5t44 -97t87.5 -63.5 t142.5 -23q77 0 132 18t90.5 57t52.5 102.5t17 153.5v671q-37 3 -75 8.5t-73 13.5v169h537v-169v0zM898 1463l-76 123l340 204l95 -157zM461 1461l-81 116l314 230l103 -150z" />
<glyph unicode="&#x171;" horiz-adv-x="1268" d="M1241 14q-45 -5 -95.5 -8.5t-103.5 -5.5t-106.5 -2.5t-103.5 1.5q0 19 0.5 42t2 47t4 48.5t5.5 45.5l-4 1q-22 -45 -55.5 -82.5t-77 -64.5t-97 -42t-116.5 -15q-85 0 -143.5 25.5t-93.5 69.5t-50.5 103.5t-15.5 125.5v515q-37 6 -81 11.5t-83 8.5v166q44 5 95 8.5 t105 5.5t111 2.5t114 -1.5v-652q0 -40 6.5 -71t20.5 -53t38.5 -33.5t60.5 -11.5q50 0 93 26.5t75 71t50.5 104t18.5 126.5v293q-32 5 -71.5 10t-78.5 8v168q45 5 95.5 8.5t102.5 5.5t105.5 2t107.5 -2v-819q37 -6 81.5 -11.5t83.5 -8.5v-166v0zM823 1146l-116 106l292 300 l142 -136zM434 1146l-122 105l265 318l150 -127z" />
<glyph unicode="&#x172;" horiz-adv-x="1456" d="M1111 -318q-55 -68 -128.5 -104.5t-165.5 -36.5q-59 0 -102.5 13.5t-73 38.5t-44 59t-14.5 75q0 62 34.5 128.5t109.5 127.5q-12 0 -25 -0.5t-25 -0.5q-94 0 -167 16.5t-129 48t-95 75.5t-64 99.5t-36 120.5t-11 137v712q-68 8 -128 22v169h542v-169q-35 -8 -73 -13.5 t-74 -8.5v-695q0 -67 12 -123.5t44 -97t87.5 -63.5t142.5 -23q77 0 132 18t90.5 57t52.5 102.5t17 153.5v671q-37 3 -75 8.5t-73 13.5v169h537v-169q-61 -14 -126 -22v-660q0 -181 -63 -301.5t-185 -184.5q-47 -24 -84 -54.5t-63.5 -62.5t-40.5 -64.5t-14 -59.5 q0 -30 19 -46.5t50 -16.5q29 0 56.5 15.5t50.5 45.5l102 -120v0z" />
<glyph unicode="&#x173;" horiz-adv-x="1268" d="M1241 14q-15 -1 -32.5 -2.5t-42.5 -5.5q-43 -6 -85.5 -25.5t-77 -47t-56 -60.5t-21.5 -66q0 -29 18.5 -44t49.5 -15q14 0 28.5 5t29 13.5t26.5 21t22 26.5l102 -118q-28 -38 -62.5 -67t-73.5 -48.5t-82 -29.5t-87 -10q-47 0 -86 11.5t-68 34.5t-44.5 58t-15.5 82 q0 45 14 86t38.5 78t55.5 69t66 59q-4 18 -7 38t-5 40t-3 40t0 37h-3q-24 -42 -57 -78t-76 -62t-96 -40.5t-116 -14.5q-85 0 -143.5 25.5t-93.5 69.5t-50.5 103.5t-15.5 125.5v515q-37 6 -81 11.5t-83 8.5v166q44 5 95 8.5t105 5.5t111 2.5t114 -1.5v-652q0 -40 6.5 -71 t20.5 -53t38.5 -33.5t60.5 -11.5q50 0 93 26.5t75 71t50.5 104t18.5 126.5v293q-32 5 -71.5 10t-78.5 8v168q45 5 95.5 8.5t102.5 5.5t105.5 2t107.5 -2v-635q0 -46 2 -94.5t6 -90.5q20 -3 41 -6.5t40.5 -5.5t38.5 -4t37 -3v-166v0z" />
<glyph unicode="&#x178;" horiz-adv-x="1251" d="M1236 1213q-23 -6 -52 -10.5t-55 -7.5l-372 -724v-280q46 -3 92 -10t86 -16v-165h-623v165q40 9 85.5 16t92.5 10v279l-367 725q-23 3 -53.5 7.5t-53.5 10.5v169h526v-169q-28 -7 -58.5 -11.5t-61.5 -7.5l125 -273q10 -24 21.5 -50t23.5 -53t23 -53t20 -50h2 q9 25 20 52.5t22.5 55.5t23.5 54.5t23 49.5l124 267q-33 3 -64 7.5t-60 11.5v169h510v-169v0zM989 1607q0 -29 -10.5 -53.5t-29 -43t-43.5 -29t-53 -10.5q-29 0 -54 10.5t-43.5 29t-29.5 43t-11 53.5q0 28 11 53t29.5 43.5t43.5 29t54 10.5q28 0 53 -10.5t43.5 -29t29 -43.5 t10.5 -53zM548 1607q0 -29 -11 -53.5t-29.5 -43t-43 -29t-53.5 -10.5t-53.5 10.5t-43 29t-29.5 43t-11 53.5q0 28 11 53t29.5 43.5t43 29t53.5 10.5t53.5 -10.5t43 -29t29.5 -43.5t11 -53z" />
<glyph unicode="&#x179;" horiz-adv-x="1112" d="M83 0v206l539 827q22 34 43 66t46 64q-36 -2 -86 -2.5t-117 -0.5h-187q-3 -35 -8.5 -74t-15.5 -80h-201v376h929v-213l-568 -848q-15 -25 -30.5 -48t-33.5 -47q13 1 34 2t50 1h64.5h76.5h194q4 37 10.5 78t16.5 86h195v-393h-951zM454 1467l-43 142l424 153l60 -186z" />
<glyph unicode="&#x17a;" horiz-adv-x="939" d="M77 0v193l475 633q-15 -1 -37 -1.5t-46.5 -1t-50 -1t-49.5 -0.5h-93q-4 -33 -8.5 -63t-12.5 -64h-170v323h759v-193l-465 -619q16 1 38 1.5t46.5 1t49.5 0.5h48h104q4 31 8.5 62.5t12.5 66.5h171v-338h-780zM407 1146l-97 142l347 255l121 -174z" />
<glyph unicode="&#x17b;" horiz-adv-x="1112" d="M83 0v206l539 827q22 34 43 66t46 64q-36 -2 -86 -2.5t-117 -0.5h-187q-3 -35 -8.5 -74t-15.5 -80h-201v376h929v-213l-568 -848q-15 -25 -30.5 -48t-33.5 -47q13 1 34 2t50 1h64.5h76.5h194q4 37 10.5 78t16.5 86h195v-393h-951zM707 1609q0 -29 -11.5 -54.5t-31 -44.5 t-46 -30t-55.5 -11q-30 0 -56.5 11t-46 30t-31 44t-11.5 55q0 28 11.5 54t31 45.5t46 30.5t56.5 11q29 0 55.5 -11t46 -30.5t31 -45t11.5 -54.5z" />
<glyph unicode="&#x17c;" horiz-adv-x="939" d="M77 0v193l475 633q-15 -1 -37 -1.5t-46.5 -1t-50 -1t-49.5 -0.5h-93q-4 -33 -8.5 -63t-12.5 -64h-170v323h759v-193l-465 -619q16 1 38 1.5t46.5 1t49.5 0.5h48h104q4 31 8.5 62.5t12.5 66.5h171v-338h-780zM633 1328q0 -33 -13 -62t-35 -50t-52 -33.5t-63 -12.5 q-34 0 -64 12t-52.5 33.5t-35 50.5t-12.5 62t12.5 62t35 50.5t52.5 34t64 12.5q33 0 63 -12.5t52 -33.5t35 -50t13 -63z" />
<glyph unicode="&#x17d;" horiz-adv-x="1112" d="M83 0v206l539 827q22 34 43 66t46 64q-36 -2 -86 -2.5t-117 -0.5h-187q-3 -35 -8.5 -74t-15.5 -80h-201v376h929v-213l-568 -848q-15 -25 -30.5 -48t-33.5 -47q13 1 34 2t50 1h64.5h76.5h194q4 37 10.5 78t16.5 86h195v-393h-951zM574 1465l-341 167l64 140l284 -114 l273 112l58 -130z" />
<glyph unicode="&#x17e;" horiz-adv-x="939" d="M77 0v193l475 633q-15 -1 -37 -1.5t-46.5 -1t-50 -1t-49.5 -0.5h-93q-4 -33 -8.5 -63t-12.5 -64h-170v323h759v-193l-465 -619q16 1 38 1.5t46.5 1t49.5 0.5h48h104q4 31 8.5 62.5t12.5 66.5h171v-338h-780zM462 1146l-313 276l103 121l212 -167l212 167l101 -119z" />
<glyph unicode="&#x192;" horiz-adv-x="872" d="M467 61q-12 -144 -41 -240t-79.5 -154t-124.5 -82.5t-175 -24.5q-60 0 -133 12l14 219q25 -6 55.5 -9t55.5 -3q42 0 70.5 14t47 42.5t29 71.5t15.5 101l59 672h-166v203h182l17 184q11 118 39 203t78 139.5t123.5 80.5t175.5 26q31 0 63.5 -3.5t69.5 -9.5l-17 -215 q-24 6 -53 10.5t-57 4.5q-37 0 -65 -11.5t-47.5 -37t-31.5 -67t-16 -100.5l-18 -204h217v-203h-232z" />
<glyph unicode="&#x218;" horiz-adv-x="1035" d="M962 429q0 -98 -37.5 -180.5t-107 -143t-169.5 -94t-224 -33.5q-84 0 -164 8.5t-152 25.5v368h204q7 -43 12.5 -86.5t9.5 -79.5q24 -6 53.5 -9.5t63.5 -3.5q48 0 90 11t72.5 33.5t47.5 57.5t17 84q0 50 -25.5 83t-67.5 58t-96 44.5t-110 42t-110 51.5t-96 71.5t-68 103.5 t-26 147q0 93 35 169.5t101.5 131.5t163 85.5t219.5 30.5q78 0 148 -7.5t144 -23.5v-353h-204q-7 40 -13 82.5t-9 78.5q-15 3 -38 6t-46 3q-54 0 -95 -13t-68 -35.5t-40.5 -53.5t-13.5 -68q0 -47 26 -80.5t67.5 -58.5t96 -46t110.5 -44.5t110 -52t96 -71t67.5 -100.5 t25.5 -139zM514 -96q40 0 69.5 -22.5t43 -58.5t8 -80.5t-37 -89t-91.5 -84t-155 -65.5l-43 95q39 22 61.5 41t32 37t9 36t-8.5 37q-10 28 -7 55.5t18 49.5t40.5 35.5t60.5 13.5z" />
<glyph unicode="&#x219;" horiz-adv-x="900" d="M825 328q0 -75 -32 -139t-91.5 -110.5t-145 -73t-190.5 -26.5q-30 0 -63.5 2t-68.5 6t-69.5 9.5t-66.5 11.5v306h167q6 -31 11 -66t8 -68q23 -6 50.5 -8t52.5 -2q39 0 71.5 8.5t55.5 24t36 37.5t13 51q0 33 -21.5 55t-55.5 38.5t-78 29.5t-90.5 28.5t-90.5 35.5t-78 51 t-55 76t-21 108q0 69 27.5 128.5t82.5 103.5t137 69t190 25q57 0 126 -8t139 -23v-293h-166q-9 31 -13.5 65t-8.5 67q-22 4 -46.5 7t-45.5 3q-83 0 -122 -31.5t-39 -82.5q0 -34 21.5 -56.5t56 -39t78.5 -30.5t90 -29.5t90 -35.5t78.5 -50t55.5 -72.5t21 -101.5zM449 -96 q40 0 69.5 -22.5t43 -58.5t8 -80.5t-37 -89t-91.5 -84t-155 -65.5l-43 95q39 22 61.5 41t32 37t9 36t-8.5 37q-10 28 -7 55.5t18 49.5t40.5 35.5t60.5 13.5z" />
<glyph unicode="&#x2c6;" horiz-adv-x="873" d="M645 1146l-212 167l-212 -167l-101 120l314 277l313 -276z" />
<glyph unicode="&#x2c7;" horiz-adv-x="873" d="M430 1146l-313 276l103 121l212 -167l212 167l101 -119z" />
<glyph unicode="&#x2d8;" horiz-adv-x="763" d="M660 1475q0 -62 -16 -119t-50.5 -100t-88 -68.5t-128.5 -25.5q-74 0 -127 26t-86 69.5t-48 100t-15 117.5h173q0 -26 6.5 -48t20 -38t33 -25t45.5 -9q49 0 78 30t29 90h174v0z" />
<glyph unicode="&#x2d9;" horiz-adv-x="587" d="M448 1328q0 -33 -13 -62t-35 -50t-52 -33.5t-63 -12.5q-34 0 -64 12t-52.5 33.5t-35 50.5t-12.5 62t12.5 62t35 50.5t52.5 34t64 12.5q33 0 63 -12.5t52 -33.5t35 -50t13 -63z" />
<glyph unicode="&#x2da;" horiz-adv-x="748" d="M634 1358q0 -52 -20 -99t-55.5 -82t-83 -55t-101.5 -20t-101.5 18.5t-83 51.5t-55.5 79t-20 100t20.5 100t56 79t83 52t100.5 19q54 0 101.5 -18t83 -50t55.5 -76.5t20 -98.5zM481 1351q0 22 -8.5 42t-23 35t-34 23.5t-41.5 8.5t-41.5 -8.5t-34 -23.5t-23 -35t-8.5 -42 t8.5 -41.5t23 -34.5t34 -23.5t41.5 -8.5t41.5 8.5t34 23.5t23 34.5t8.5 41.5z" />
<glyph unicode="&#x2db;" horiz-adv-x="649" d="M577 -322q-27 -31 -59.5 -56t-69.5 -43t-80 -27.5t-92 -9.5q-61 0 -103.5 15t-69.5 41.5t-39.5 61t-12.5 73.5q0 34 10.5 69t31 70.5t50.5 67.5t68 60h275q-48 -24 -82.5 -50t-56 -52t-32 -51.5t-10.5 -48.5q0 -29 17.5 -43t43.5 -14q29 0 58 15t52 43l101 -121v0z" />
<glyph unicode="&#x2dc;" horiz-adv-x="956" d="M847 1369q-44 -88 -106.5 -135t-142.5 -47q-50 0 -85 16t-62 35.5t-51.5 35.5t-52.5 16q-35 0 -62 -23t-52 -69l-124 96q45 89 107 136t141 47q51 0 86 -16.5t62 -35.5t51 -35.5t53 -16.5q35 0 62 23.5t52 69.5l124 -97v0z" />
<glyph unicode="&#x2dd;" horiz-adv-x="1032" d="M638 1146l-116 106l292 300l142 -136zM249 1146l-122 105l265 318l150 -127z" />
<glyph unicode="&#x312;" horiz-adv-x="998" d="M378 1150q-40 0 -70 22.5t-43 58t-7.5 80.5t37 89t91.5 83.5t155 65.5l43 -95q-40 -21 -62.5 -40.5t-32 -37t-8.5 -36t8 -36.5q11 -28 7.5 -56t-18.5 -49.5t-40.5 -35t-59.5 -13.5z" />
<glyph unicode="&#x315;" horiz-adv-x="746" d="M371 1133l-169 37l102 420l210 -45z" />
<glyph unicode="&#x326;" horiz-adv-x="646" d="M328 -96q40 0 69.5 -22.5t43 -58.5t8 -80.5t-37 -89t-91.5 -84t-155 -65.5l-43 95q39 22 61.5 41t32 37t9 36t-8.5 37q-10 28 -7 55.5t18 49.5t40.5 35.5t60.5 13.5z" />
<glyph unicode="&#x394;" horiz-adv-x="1257" d="M55 0v201l406 1181h325l418 -1181v-201h-1149zM670 922q-17 52 -30 102.5t-24 105.5h-4q-11 -55 -25 -109.5t-30 -105.5l-227 -675h571z" />
<glyph unicode="&#x3a9;" horiz-adv-x="1450" d="M67 341h160q9 -34 17.5 -72.5t13.5 -72.5h176v123q-64 21 -129.5 60.5t-118 100t-86 144t-33.5 193.5q0 77 18 150.5t54.5 138.5t92 120.5t130.5 95t169.5 62t209.5 22.5q158 0 277.5 -45t201 -122t122.5 -181t41 -223q0 -77 -17.5 -142t-46.5 -119t-67.5 -96.5t-79 -74 t-81 -53t-75.5 -31.5v-123h176q4 31 12.5 70.5t18.5 74.5h160v-341h-565v421q55 17 106 50.5t90.5 81.5t62.5 111t23 137q0 84 -25.5 152t-73.5 116t-118 74.5t-159 26.5q-96 0 -166.5 -30t-116.5 -80.5t-68.5 -116t-22.5 -137.5q0 -78 22.5 -141t60.5 -111t90 -81t110 -52 v-421h-566v341z" />
<glyph unicode="&#x3bc;" horiz-adv-x="1255" d="M197 818q-37 6 -82 11.5t-85 8.5v166q44 5 95.5 8.5t106 5.5t112 2.5t114.5 -1.5v-660q0 -83 30 -122t96 -39q51 0 95 24.5t75.5 68.5t49 105t17.5 135v288q-32 5 -72 10t-78 8v168q45 5 95 8.5t102.5 5.5t106.5 2t107 -2v-652q0 -46 3.5 -77.5t12 -51t22 -28t34.5 -9.5 q7 0 14.5 -0.5t15.5 1.5l21 -204q-25 -8 -59 -13t-77 -5q-58 0 -97.5 16t-64.5 42.5t-36 62.5t-13 76l-2 1q-18 -44 -46 -79.5t-64.5 -61t-82 -39t-99.5 -13.5q-41 0 -75 12t-55 36l30 -526h-267v1311z" />
<glyph unicode="&#x3c0;" horiz-adv-x="1302" d="M1037 803q-4 -31 -5 -63.5t-1.5 -64t0 -60.5t1.5 -54q3 -41 5.5 -74t5.5 -60t6.5 -50t7.5 -44q6 -31 14 -56t19 -42t25 -26.5t34 -9.5q19 0 37.5 2.5t34.5 7.5l23 -211q-29 -8 -67 -13t-81 -5q-66 0 -115 14.5t-84 46.5t-58.5 85.5t-38.5 130.5q-5 26 -9 54.5t-7.5 61 t-6.5 70t-5 82.5q-2 29 -2 63t1 70.5t2 73.5t3 71h-281q4 -68 5.5 -138t-4.5 -140q-12 -139 -36.5 -277.5t-68.5 -273.5l-279 52q23 67 42 129.5t34.5 124t27.5 122t20 123.5q5 32 8 66.5t5 70t1.5 71.5t-2.5 70h-208v215h1204v-215h-207z" />
<glyph unicode="&#x2013;" d="M0 495v229h1126v-229h-1126z" />
<glyph unicode="&#x2014;" horiz-adv-x="2048" d="M227 495v229h1594v-229h-1594z" />
<glyph unicode="&#x2018;" horiz-adv-x="547" d="M471 1452q-52 -56 -80.5 -101.5t-37.5 -83.5t1 -70t33 -61q29 -34 33.5 -76.5t-12 -81t-52.5 -64.5t-90 -26q-48 0 -86.5 25.5t-59 71.5t-21 108t26 135.5t84.5 154.5t153 165l108 -96v0z" />
<glyph unicode="&#x2019;" horiz-adv-x="547" d="M278 1530q48 0 86.5 -25.5t59 -71.5t21 -108t-26 -135.5t-84.5 -154.5t-153 -164l-109 96q53 56 81.5 101.5t37 83.5t-1 69.5t-33.5 60.5q-19 22 -27.5 49.5t-7 55t13 53t31.5 46t48 32.5t64 12z" />
<glyph unicode="&#x201a;" horiz-adv-x="528" d="M261 305q49 0 87 -25.5t59 -71.5t21.5 -108t-26.5 -135.5t-85 -154.5t-153 -165l-108 97q52 56 80.5 101.5t37.5 83t-0.5 69.5t-33.5 61q-19 22 -27.5 49t-7 54.5t13 54t31 46.5t48 32t63.5 12z" />
<glyph unicode="&#x201c;" horiz-adv-x="993" d="M919 1452q-53 -56 -81.5 -101.5t-37 -83.5t1 -70t33.5 -61q20 -22 28 -49t6.5 -54.5t-12.5 -54t-31 -46.5t-48 -32t-64 -12q-48 0 -86.5 25.5t-59 71.5t-21 108t26 135.5t84 154.5t153.5 165zM471 1452q-52 -56 -80.5 -101.5t-37.5 -83.5t1 -70t33 -61q29 -34 33.5 -76.5 t-12 -81t-52.5 -64.5t-90 -26q-48 0 -86.5 25.5t-59 71.5t-21 108t26 135.5t84.5 154.5t153 165z" />
<glyph unicode="&#x201d;" horiz-adv-x="993" d="M725 1530q49 0 87 -25.5t59 -71.5t21.5 -108t-26.5 -135.5t-85 -154.5t-153 -164l-108 96q53 56 81.5 101.5t37 83.5t-1 69.5t-33.5 60.5q-19 22 -27.5 49.5t-7 55t13 53t31 46t48 32.5t63.5 12zM278 1530q48 0 86.5 -25.5t59 -71.5t21 -108t-26 -135.5t-84.5 -154.5 t-153 -164l-109 96q53 56 81.5 101.5t37 83.5t-1 69.5t-33.5 60.5q-19 22 -27.5 49.5t-7 55t13 53t31.5 46t48 32.5t64 12z" />
<glyph unicode="&#x201e;" horiz-adv-x="993" d="M725 305q49 0 87 -25.5t59 -71.5t21.5 -108t-26.5 -135.5t-85 -154.5t-153 -165l-108 97q53 56 81.5 101.5t37 83t-1 69.5t-33.5 61q-19 22 -27.5 49t-7 54.5t13 54t31 46.5t48 32t63.5 12zM278 305q48 0 86.5 -25.5t59 -71.5t21 -108t-26 -135.5t-84.5 -154.5t-153 -165 l-109 97q53 56 81.5 101.5t37 83t-1 69.5t-33.5 61q-19 22 -27.5 49t-7 54.5t13 54t31.5 46.5t48 32t64 12z" />
<glyph unicode="&#x2020;" horiz-adv-x="937" d="M576 1092l43 -180l-48 -522h-204l-50 522l45 180h-276v202h276l-45 279h302l-43 -279h275v-202h-275z" />
<glyph unicode="&#x2021;" horiz-adv-x="937" d="M578 587l43 -249h-306l44 249h-273v202h273l-42 167l42 166h-273v202h273l-42 249h302l-41 -249h273v-202h-273l41 -166l-41 -167h273v-202h-273z" />
<glyph unicode="&#x2022;" horiz-adv-x="865" d="M736 608q0 -63 -23.5 -118t-65 -96t-97 -65t-117.5 -24q-63 0 -118.5 24t-96.5 65t-65 96t-24 118t24 118t65 96.5t96.5 65.5t118.5 24q62 0 117.5 -24t97 -65.5t65 -96.5t23.5 -118z" />
<glyph unicode="&#x2026;" horiz-adv-x="1481" d="M1373 137q0 -33 -13 -61.5t-34.5 -50.5t-50.5 -35t-62 -13t-62 13t-51 35t-34.5 50.5t-12.5 61.5t12.5 62t34.5 51t51 35t62 13t62 -13t50.5 -35t34.5 -51t13 -62zM894 137q0 -33 -12.5 -61.5t-34.5 -50.5t-51 -35t-62 -13t-62 13t-50.5 35t-34.5 50.5t-13 61.5t13 62 t34.5 51t50.5 35t62 13t62 -13t51 -35t34.5 -51t12.5 -62zM417 137q0 -33 -12.5 -61.5t-34.5 -50.5t-51 -35t-62 -13t-62 13t-51 35t-34.5 50.5t-12.5 61.5t12.5 62t34.5 51t51 35t62 13t62 -13t51 -35t34.5 -51t12.5 -62z" />
<glyph unicode="&#x2030;" horiz-adv-x="2257" d="M714 1092q0 -86 -26.5 -154t-71.5 -116t-105.5 -73t-128.5 -25q-71 0 -128 21.5t-97 64t-61.5 106.5t-21.5 148t26.5 151.5t71.5 114t104.5 71.5t124.5 25q67 0 124 -19t99 -59t66 -103.5t24 -152.5zM503 1078q0 46 -6 78t-19 52t-33 28.5t-49 8.5q-24 0 -44.5 -11.5 t-34.5 -33.5t-21.5 -53.5t-7.5 -70.5q0 -46 6 -79t19 -53t32.5 -29.5t46.5 -9.5q25 0 45.5 11.5t35 33t22.5 54t8 74.5zM1460 324q0 -85 -27 -153t-72.5 -116t-105.5 -73t-127 -25q-72 0 -129 21.5t-97 64t-61.5 106t-21.5 148.5q0 84 27 151.5t72 114t104 71.5t125 25 t123.5 -19t99.5 -59.5t66 -103.5t24 -153zM1247 310q0 47 -6 79t-19 51.5t-33 28.5t-49 9q-24 0 -44 -11.5t-34 -33.5t-21.5 -53.5t-7.5 -71.5q0 -46 6 -78.5t19 -53t32 -30t46 -9.5q26 0 46.5 11.5t35 33.5t22 54.5t7.5 73.5zM2169 324q0 -85 -26.5 -153t-72 -116 t-105.5 -73t-128 -25q-71 0 -128 21.5t-97 64t-61.5 106t-21.5 148.5q0 84 26.5 151.5t71.5 114t104.5 71.5t124.5 25q67 0 124 -19t99 -59.5t66 -103.5t24 -153zM1956 310q0 47 -6 79t-18.5 51.5t-33 28.5t-48.5 9q-24 0 -44 -11.5t-34.5 -33.5t-22 -53.5t-7.5 -71.5 q0 -46 6.5 -78.5t19.5 -53t32 -30t46 -9.5q26 0 46.5 11.5t34.5 33.5t21.5 54.5t7.5 73.5zM367 -54l-189 136l987 1354l189 -136z" />
<glyph unicode="&#x2039;" horiz-adv-x="640" d="M316 205l-233 394l237 398l199 -96l-184 -302l188 -296z" />
<glyph unicode="&#x203a;" horiz-adv-x="640" d="M320 205l-200 96l185 302l-187 296l207 98l231 -394z" />
<glyph unicode="&#x2044;" horiz-adv-x="891" d="M53 -70l-188 135l1007 1371l188 -136z" />
<glyph unicode="&#x20ac;" horiz-adv-x="1206" d="M481 743v-151h426v-141h-401q15 -59 41 -107t66.5 -81.5t97 -51.5t131.5 -18q34 0 70 3t71.5 9t68.5 15.5t62 23.5l60 -201q-36 -16 -81 -28.5t-94 -20.5t-99 -12.5t-97 -4.5q-133 0 -235 28.5t-175 87t-118.5 147.5t-65.5 211h-160v141h148q-2 15 -2 31.5v31.5 q0 22 1 44.5t1 43.5h-148v142h164q22 125 71.5 222t127.5 163t186 100.5t248 34.5q68 0 144.5 -9t146.5 -28v-338h-166q-10 34 -16 71.5t-9 69.5q-28 13 -59.5 18t-73.5 5q-143 0 -218 -79t-99 -230h411v-142h-426z" />
<glyph unicode="&#x2122;" horiz-adv-x="1753" d="M1356 761v113q15 4 31.5 8t32.5 7l-31 179l-13 79l-18 -71l-88 -315h-185l-87 318l-16 68l-7 -58l-36 -200q16 -3 33 -6.5t32 -8.5v-113h-319v115q19 4 40 7.5t37 5.5l73 362q-26 3 -51.5 7.5t-47.5 10.5v113h353l73 -270l19 -86l18 81l79 275h357v-113 q-22 -6 -47.5 -10.5t-50.5 -7.5l74 -361q19 -2 36.5 -5t38.5 -7v-117h-330zM557 1122q-5 29 -9.5 58.5t-6.5 55.5h-77v-343q29 -3 57 -8t52 -11v-113h-401v113q24 6 51.5 11t55.5 8v343h-76q-2 -26 -6.5 -55.5t-9.5 -58.5h-119v260h609v-260h-120z" />
<glyph unicode="&#x2202;" horiz-adv-x="1299" d="M1172 817q0 -95 -12 -186.5t-38 -175.5t-65.5 -159t-95.5 -137q-37 -40 -82 -72t-96 -54.5t-107.5 -35t-116.5 -12.5q-106 0 -187 31t-135.5 87.5t-82.5 136.5t-28 178q0 109 36.5 200.5t103 159t160.5 105.5t209 38q44 0 84.5 -9t74.5 -26t61 -41.5t46 -54.5 q-4 44 -7 76t-7 60q-12 89 -48 157.5t-91 114.5t-125.5 69t-151.5 23l36 219q150 -1 272.5 -49.5t210 -138.5t135 -217t47.5 -287zM847 487q0 46 -13.5 85t-41.5 68t-69.5 45t-97.5 16q-53 0 -97 -20t-76 -54.5t-50 -82.5t-18 -104t15 -98.5t42.5 -71.5t66.5 -43.5t87 -14.5 q54 0 100 20.5t79.5 57t53 87t19.5 110.5z" />
<glyph unicode="&#x220f;" horiz-adv-x="1606" d="M1324 1274v-1767h-246v1767h-549v-1767h-246v1767h-199v221h1437v-221h-197z" />
<glyph unicode="&#x2211;" horiz-adv-x="1243" d="M74 -493v203l595 810l-559 770v205h1001v-221h-679l540 -745l-589 -794h759v-228h-1068z" />
<glyph unicode="&#x2212;" d="M80 495v229h966v-229h-966z" />
<glyph unicode="&#x221a;" horiz-adv-x="1262" d="M765 0h-305l-276 822h-178v196h394l164 -529q16 -48 29.5 -97.5t24.5 -100.5h3q10 51 20.5 98t22.5 90l288 1073h287z" />
<glyph unicode="&#x221e;" horiz-adv-x="2016" d="M1926 623q0 -79 -27.5 -149.5t-81 -123.5t-133 -84t-181.5 -31q-58 0 -117.5 14.5t-122 43t-128 69.5t-136.5 93q-56 -42 -116.5 -81.5t-125 -70t-132.5 -49.5t-139 -19q-100 0 -174 29t-123.5 79t-74 117t-24.5 142q0 83 29.5 154t84 123t130.5 81t168 29 q62 0 124 -15.5t125.5 -44.5t128.5 -70.5t134 -93.5q53 41 114 80.5t126 71.5t133 52t136 20q97 0 172 -28t126 -77t78 -116t27 -145zM1674 614q0 32 -10.5 59t-31 46.5t-50.5 31t-67 11.5q-32 0 -67.5 -11t-74 -30.5t-79.5 -46.5t-84 -59q48 -36 90.5 -64t80 -47.5t71 -30 t64.5 -10.5q39 0 68.5 12.5t49.5 33t30 48t10 57.5zM803 607q-48 35 -90 64t-79 49.5t-70.5 31t-63.5 10.5q-39 0 -68.5 -12.5t-49.5 -33t-30.5 -47.5t-10.5 -57q0 -33 11 -59.5t31.5 -46.5t50 -31.5t67.5 -11.5q32 0 66.5 10.5t72 29.5t78.5 45.5t85 58.5z" />
<glyph unicode="&#x222b;" horiz-adv-x="706" d="M660 1272q-19 7 -44 11t-50 4q-32 0 -55 -10t-38 -39t-21.5 -80.5t-6.5 -134.5q0 -81 1.5 -158t4.5 -153.5t6.5 -154t6.5 -160.5t4.5 -173t1.5 -190q0 -147 -20.5 -251.5t-63 -170.5t-106.5 -96.5t-150 -30.5q-28 0 -58 3.5t-58 9.5v227q21 -6 44.5 -9.5t44.5 -3.5 q32 0 56 10t39.5 39.5t22.5 82t7 136.5q0 119 -4 230t-9 227.5t-9 245t-4 282.5q0 149 23.5 253.5t68.5 169.5t110.5 94.5t147.5 29.5q24 0 53.5 -4t54.5 -10v-226v0z" />
<glyph unicode="&#x2248;" d="M1048 768q-27 -27 -59 -51t-68 -42t-75.5 -28t-83.5 -10q-43 0 -79 8.5t-66.5 21.5t-59.5 28.5t-58.5 28.5t-62.5 22t-72 9q-29 0 -56 -6.5t-53 -18.5t-49.5 -27.5t-45.5 -33.5l-82 175q28 26 62 50t72 42t78.5 28.5t81.5 10.5q45 0 83.5 -9t71.5 -22.5t62.5 -29t58 -29 t57.5 -22.5t61 -9q52 0 101.5 25t93.5 65zM1050 356q-29 -26 -63 -48.5t-71.5 -38.5t-77 -26t-77.5 -10q-47 0 -84.5 9t-69.5 22t-60.5 28.5t-57 28.5t-59 22t-66.5 9q-29 0 -55.5 -7t-51.5 -19t-48.5 -28t-44.5 -33l-86 175q24 23 55.5 46.5t67.5 42t76 30.5t83 12 q46 0 83 -9t69 -22.5t61 -29t59 -29t63.5 -22.5t74.5 -9q51 0 100 19.5t96 61.5z" />
<glyph unicode="&#x2260;" d="M562 307l-99 -247h-234l98 247h-232v211h315l71 180h-386v211h469l98 248h235l-99 -248h234v-211h-317l-72 -180h389v-211h-470z" />
<glyph unicode="&#x2264;" d="M795 297l-683 526l680 526l166 -177l-495 -347l495 -345zM145 0v218h836v-218h-836z" />
<glyph unicode="&#x2265;" d="M334 297l-166 177l496 348l-496 344l164 183l682 -525zM145 0v218h836v-218h-836z" />
<glyph unicode="&#x25ca;" horiz-adv-x="1282" d="M728 -18h-164l-519 712l514 707h161l517 -714zM630 1116l-296 -415l315 -436l302 414z" />
<glyph unicode="&#xe000;" horiz-adv-x="1020" d="M0 1020h1020v-1020h-1020v1020z" />
<glyph unicode="&#xe084;" horiz-adv-x="1442" d="M1476 1280q-36 10 -70.5 14.5t-64.5 4.5q-86 0 -129 -46.5t-43 -148.5v-86h243v-202h-243v-625q46 -3 92 -10t86 -16v-165h-586v165q34 9 71.5 16t74.5 10v625h-412v-625q37 -3 74.5 -10t71.5 -16v-165h-585v165q40 9 86 16t92 10v625h-205v202h205v36q0 101 26 183 t84.5 140t151.5 89t228 31q87 0 174.5 -11t166.5 -36q20 13 45 24t56.5 19.5t69.5 13.5t85 5q42 0 84.5 -4.5t88.5 -13.5zM935 1252q-48 16 -95 23t-92 7q-67 0 -115 -12.5t-78.5 -38t-45 -65.5t-14.5 -95v-53h412v73q0 48 7.5 88t20.5 73z" />
<glyph unicode="&#xe085;" horiz-adv-x="1380" d="M768 0v165q33 9 70.5 16t75.5 10v625h-419v-625q37 -3 74.5 -10t71.5 -16v-165h-585v165q40 9 86 16t92 10v625h-205v202h205v36q0 126 40.5 213t113 141t172.5 79t218 25q87 0 173.5 -10.5t163.5 -29.5l-48 -216q-33 9 -69 16.5t-72.5 12.5t-72 8t-67.5 3 q-81 0 -137 -16t-90.5 -45.5t-49 -71.5t-14.5 -96v-49h680v-827q44 -3 86.5 -10t79.5 -16v-165h-573z" />
<glyph unicode="&#xe086;" horiz-adv-x="1379" d="M768 0v165q33 9 70.5 16t75.5 10v1097q-40 6 -81.5 9t-77.5 3q-70 0 -119 -14t-80.5 -41t-46 -67.5t-14.5 -94.5v-65h243v-202h-243v-625q37 -3 74.5 -10t71.5 -16v-165h-585v165q40 9 86 16t92 10v625h-205v202h205v74q0 105 30.5 183.5t97.5 131t173.5 79t256.5 26.5 q88 0 187 -9t196 -24v-1288q44 -3 86.5 -10t79.5 -16v-165h-573z" />
<glyph unicode="&#xe087;" horiz-adv-x="2050" d="M1440 0v165q33 9 70.5 16t75.5 10v625h-417v-625q37 -3 74.5 -10t70.5 -16v-165h-553v165q34 9 71.5 16t74.5 10v625h-412v-625q37 -3 74.5 -10t71.5 -16v-165h-585v165q40 9 86 16t92 10v625h-205v202h205v36q0 101 26 183t84.5 140t151.5 89t228 31q50 0 100.5 -4 t100 -12t96 -19t87.5 -25q62 35 146.5 55t197.5 20q85 0 172.5 -10.5t162.5 -29.5l-48 -216q-32 9 -68 16.5t-72.5 12.5t-72 8t-66.5 3q-81 0 -137 -16t-90.5 -45.5t-49 -71.5t-14.5 -96v-49h678v-827q43 -3 86 -10t80 -16v-165h-573zM943 1244q-23 9 -47.5 16.5t-51 12 t-53.5 7t-54 2.5q-63 0 -108.5 -12.5t-75.5 -38t-44 -65.5t-14 -95v-53h412v39q0 49 9 99.5t27 87.5z" />
<glyph unicode="&#xe088;" horiz-adv-x="2050" d="M1440 0v165q33 9 70.5 16t75.5 10v1097q-18 2 -37.5 4.5t-40 4t-41 2.5t-39.5 1q-70 0 -119 -14t-80 -41t-45.5 -67.5t-14.5 -94.5v-65h243v-202h-243v-625q37 -3 74.5 -10t70.5 -16v-165h-553v165q34 9 71.5 16t74.5 10v625h-412v-625q37 -3 74.5 -10t71.5 -16v-165 h-585v165q40 9 86 16t92 10v625h-205v202h205v36q0 101 26 183t84.5 140t151.5 89t228 31q49 0 99 -3.5t98 -11.5t93.5 -18.5t86.5 -24.5q63 36 152 54.5t212 18.5q88 0 187.5 -9t194.5 -24v-1288q43 -3 86 -10t80 -16v-165h-573zM936 1248q-22 8 -45.5 14.5t-49 11t-52 6.5 t-52.5 2q-63 0 -108.5 -12.5t-75.5 -38t-44 -65.5t-14 -95v-53h412v74q0 45 8.5 86t20.5 70z" />
<glyph unicode="&#xe0a0;" horiz-adv-x="873" d="M706 1465l-283 114l-273 -113l-58 131l338 175l340 -168z" />
<glyph unicode="&#xe0a1;" horiz-adv-x="748" d="M615 1687q0 -48 -19.5 -90t-52 -73t-76.5 -49t-94 -18q-49 0 -92.5 16.5t-76 46.5t-51 71.5t-18.5 92.5q0 49 19 91t52 72.5t76.5 48t92.5 17.5q50 0 93.5 -16.5t76 -47t51.5 -72t19 -90.5zM472 1685q0 20 -8 38t-21.5 31.5t-31 21.5t-37.5 8t-37.5 -8t-30.5 -21.5 t-21 -31.5t-8 -38t8 -38t21 -31.5t30.5 -21t37.5 -7.5t37.5 7.5t31 21t21.5 31.5t8 38z" />
<glyph unicode="&#xe0a2;" horiz-adv-x="956" d="M877 1659q-47 -82 -111 -125.5t-146 -43.5q-53 0 -89 15t-64.5 33t-53.5 33t-55 15q-36 0 -64.5 -21t-53.5 -65l-130 88q46 82 110.5 125.5t146.5 43.5q53 0 89 -15t64.5 -33t53.5 -33t55 -15q36 0 64 21.5t54 64.5l130 -88v0z" />
<glyph unicode="&#xe0a3;" horiz-adv-x="763" d="M672 1759q0 -57 -19 -108t-56 -89t-92 -60t-126 -22q-72 0 -126 22.5t-90 61t-54.5 89t-18.5 106.5h156q0 -25 9.5 -46t27.5 -37t43 -25t55 -9q31 0 55.5 9t42 25t27 37t9.5 46h157v0z" />
<glyph unicode="&#xe0a4;" horiz-adv-x="587" d="M478 1609q0 -29 -11.5 -54.5t-31 -44.5t-46 -30t-55.5 -11q-30 0 -56.5 11t-46 30t-31 44t-11.5 55q0 28 11.5 54t31 45.5t46 30.5t56.5 11q29 0 55.5 -11t46 -30.5t31 -45t11.5 -54.5z" />
<glyph unicode="&#xe0a5;" horiz-adv-x="703" d="M691 1328q0 -29 -11 -55t-30.5 -45.5t-45 -30t-54.5 -10.5t-55 10.5t-45.5 30t-30 45.5t-10.5 55t10.5 55t30 45.5t45.5 30.5t55 11t54.5 -11t45 -30.5t30.5 -45.5t11 -55zM293 1328q0 -29 -11 -55t-30.5 -45.5t-45 -30t-54.5 -10.5q-30 0 -55.5 10.5t-45 30t-30.5 45.5 t-11 55t11 55t30.5 45.5t45 30.5t55.5 11q29 0 54.5 -11t45 -30.5t30.5 -45.5t11 -55z" />
<glyph unicode="&#xea43;" horiz-adv-x="2329" d="M1892 -70q-9 -12 -22.5 -16.5t-28 -6t-28.5 -4t-25 -9.5q-17 -2 -33.5 -4.5t-31.5 -8.5t-27 -16.5t-19 -28.5q-8 -21 -19.5 -40.5t-21.5 -39.5t-15.5 -41.5t-0.5 -46.5q2 -9 8.5 -12.5t14.5 -4t16 1t14 3.5q4 0 7 3l6 6t7 4.5t9 -1.5q9 -6 1 -12.5t-11 -13.5 q-17 -11 -37.5 -15.5t-40.5 4.5q-16 16 -24.5 34t-2.5 40q1 8 5 19.5t12.5 29.5t21.5 43t33 60q-16 7 -32 6t-32.5 -4.5t-32.5 -5.5t-32 4q9 12 25 17.5t30 10.5q13 3 28 3t29 1.5t26 6.5t20 18q7 11 8.5 22.5t1.5 23t-1 24t1 24.5q-11 3 -10.5 11.5t0.5 13.5 q-12 23 -30 34.5t-40 17t-44.5 6t-43.5 1.5q-23 -2 -45 -11t-41 -23.5t-34 -33t-23 -38.5q-14 -32 -11 -65.5t17 -67.5q-4 -25 5.5 -47t20 -44.5t16 -46t-6.5 -51.5q-11 -9 -26 -8t-28 6q-14 7 -21 19t-10.5 26.5t-6 29t-7.5 27.5q9 6 11.5 15.5t3.5 19.5t2.5 19.5t7.5 17.5 q3 11 1.5 27t-15.5 22q-18 -2 -38 -2.5t-39.5 -2t-37.5 -6.5t-33 -17q2 -22 5 -45.5t2 -46t-9.5 -42t-28.5 -34.5q-12 -3 -24 -0.5t-25 8.5q-11 9 -14.5 20t-4 23.5t1 25.5t1.5 25q7 15 14.5 32t16.5 32.5t21 28t30 18.5q15 -10 33.5 -6.5t33.5 8.5l101 2q4 4 6 11t2.5 14 t1 14.5t2.5 13.5q9 29 26 56.5t39.5 48.5t50.5 35t60 16q34 3 67 1t64 -18q1 -11 8 -16.5t15 -10t15 -10t9 -16.5q9 -15 12 -32.5t2 -35.5t-5 -36.5t-7 -34.5q47 0 91.5 8t86.5 16zM1061 -111q-9 -6 -17 -3t-16.5 7.5t-17 7.5t-17.5 -3q-14 -9 -19.5 -22t-9 -26.5 t-7.5 -26.5t-13 -24q-3 -28 -9.5 -54t-6.5 -52q-6 -3 -12.5 -7t-16.5 -1q-6 7 -7 17t0.5 19.5t3.5 19t1 17.5q8 9 10 21t2 24t0.5 23.5t6.5 21.5q-7 11 -6 26.5t-3 25.5q-5 1 -8.5 -0.5t-6.5 -3.5t-7 -2.5t-8 4.5q3 12 10 20t18 16q17 0 25 -12t14 -24q8 3 15 12t15 16 t16.5 9t19.5 -9zM789 -18q-1 -51 1.5 -103t4 -103.5t-1 -101.5t-14 -97t-34 -90t-61.5 -81q-65 -40 -143.5 -49.5t-153.5 10.5q-8 5 -16 12.5t-8 16.5q5 20 12.5 40.5t32.5 28.5q-6 -17 -14 -33t-11 -34q26 -17 59.5 -23t68.5 -3.5t69 12t61 24.5q29 10 46 28.5t28 41 t18.5 47t18.5 45.5q6 36 9 75.5t4.5 79t0.5 76.5t-2 68q4 11 3.5 23.5t-2 25.5t-2.5 25.5t1 23.5q-3 11 -12 7.5t-13 -5.5q-8 -8 -13 -17t-9.5 -18t-9.5 -17.5t-13 -14.5q3 -15 -4 -24t-16 -16.5t-17 -15.5t-8 -22q-42 -47 -77.5 -95t-69.5 -98q-8 -12 -14.5 -24t-22.5 -10 q-10 13 -11.5 28.5t0.5 31t4 32t-1 32.5q10 34 18.5 72t34.5 72q19 49 52.5 97t82.5 79q14 4 26.5 2t24 -7.5t22 -13t21.5 -14.5q10 11 16 24t9 25q25 -9 25 -41q-6 -5 -6 -8.5t2 -7.5t3.5 -8.5t0.5 -9.5zM1450 428q-36 -5 -71 -16t-69.5 -21t-69.5 -16.5t-72 -3.5 q-7 -6 -10.5 -23t-1.5 -33.5t11 -26.5t27 -3q6 8 9 23t16 20q9 -19 2.5 -36.5t-19.5 -31.5q-6 -4 -21 -4.5t-29.5 8.5t-23.5 31.5t-4 64.5q-5 7 -10 13.5t0 15.5q12 9 17.5 20t7.5 23t3 25t3 26q-3 2 -4 4.5t-4 4.5q-18 -12 -30.5 -27.5t-23 -32t-21 -33.5t-24.5 -32 q0 -15 -8 -26.5t-17.5 -22.5t-16 -23.5t-3.5 -28.5q-6 -6 -6.5 -15.5t-1.5 -19.5t-5.5 -17.5t-18.5 -8.5q-18 4 -24 15t-6.5 24.5t1.5 28t0 26.5q-3 19 -1.5 36.5t3.5 34.5t3.5 33.5t-1.5 34.5q-9 -5 -14 -13t-9 -16.5t-8.5 -17.5t-11.5 -16q-10 -12 -19 -28.5t-20 -30.5 t-25.5 -22t-35.5 -3q-12 17 -13 35.5t4.5 38t15 38t19.5 35.5q9 10 19 23.5t22 24t25.5 15.5t30.5 -1q10 -5 20 0q19 43 28.5 90.5t12.5 93.5l21 16q13 -4 14.5 -10.5t-1 -14t-6 -16t-1.5 -16.5q-8 -57 -19 -113t-16 -112q-1 -15 -3.5 -30t-4 -29.5t-1.5 -29.5t5 -30 q16 21 31 45t30.5 49t33.5 49t40 45q25 36 65 62q16 -13 31 -29.5t31 -27.5q0 -19 -2.5 -41.5t2.5 -40.5q56 12 106 20.5t103 24.5q8 -5 12 -10.5t2 -16.5zM2132 1190q-2 29 -10 60t-23 59t-37 51t-53 37q12 18 25.5 16.5t25.5 -12t22.5 -25.5t18.5 -24q32 -39 46.5 -85.5 t15.5 -95.5t-10 -98t-29 -94q-15 -35 -36 -68t-48 -62t-59.5 -52.5t-69.5 -38.5q28 20 54 43.5t44 54.5q16 16 32 34t29.5 38t23.5 43t14 49q24 40 26.5 83.5t-2.5 86.5zM1948 983q-6 -15 -18.5 -30.5t-30.5 -20.5q-16 5 -24 13.5t-17 21.5l4 28q5 -2 6.5 -6t3 -9t3.5 -10 t9 -7q11 -4 19.5 6t13.5 16q8 47 1 92.5t-32 85.5l-12 -6q-25 -23 -46.5 -42t-35.5 -50l-16 -8q-28 -28 -49 -60t-45 -55q-12 -2 -18 3.5t-8.5 13.5t-3.5 17.5t-5 16.5q3 8 1.5 18.5t-7.5 16.5q-6 1 -9 -1.5t-4.5 -6t-3 -7.5t-4.5 -5q-15 -16 -29.5 -23.5t-35.5 -9.5 q-23 6 -28.5 18t-3.5 28t8 34t5 35q8 30 26.5 53.5t41.5 48.5q10 2 21.5 6.5t23 6t22 -1.5t19.5 -15l8 -12q-12 -35 -15 -73t-8 -75q2 -6 5.5 -13t11.5 -7q12 0 18 5.5t10 13t8 16t11 14.5q45 38 83.5 78.5t76.5 81.5q13 -5 17 -16t5.5 -24t2.5 -25.5t7 -21.5q11 -5 7 -16 q15 -31 15 -64t-5 -67zM1669 1384q-6 -11 -19.5 -20.5t-29.5 -7.5q-3 6 -8 13.5t-16 -1.5q-29 -23 -58.5 -47.5t-55 -51.5t-45.5 -57.5t-32 -64.5q-7 -42 -10.5 -86.5t2 -87.5t23 -80.5t53.5 -65.5q10 -8 21 -10.5t23 -2.5t25 1t25 0q12 8 21 17.5t22 17.5q1 -9 -3 -15.5 t-11 -11.5t-15 -9.5t-14 -10.5q-31 -13 -66.5 -5t-60.5 29q-22 20 -36 43.5t-19 51.5q-10 4 -10.5 9.5t1.5 12t3 12.5t-7 11q4 7 2.5 14t-4.5 14.5t-4 15.5t4 17q-2 61 17.5 114t52.5 98.5t76 85.5t88 75q7 1 18 3.5t20.5 2.5t17 -4.5t9.5 -18.5zM1294 1020q-14 -34 -45 -60 t-71 -26q-41 0 -77 15.5t-54 49.5q-16 23 -16 49t5 54q2 9 6.5 16.5t9 14t8.5 14t5 16.5q28 23 62 30t69 -5q7 -6 15.5 -9t7.5 -16q-3 -4 -6.5 -3t-7.5 3.5t-9 5t-10 2.5q-28 8 -54.5 -1.5t-47.5 -30.5q-16 -25 -24.5 -54.5t3.5 -58.5q44 -60 111 -70q9 4 19.5 5.5t20.5 3 t19.5 6t17.5 14.5q6 4 10.5 11.5t9 14t10 10t13.5 -0.5zM979 963q-11 -25 -18.5 -50.5t-26.5 -48.5q-14 -6 -25.5 1t-17.5 20q-15 35 -21 75t1 78q-3 2 -2 17t2.5 33.5t1 36t-6.5 26.5q-13 -31 -14 -63.5t-1.5 -64t-7.5 -62t-32 -56.5q-3 -3 -14 -6t-24.5 2.5t-26.5 23.5 t-19 58q6 38 8 74t9 73q1 7 -1 14.5t-3.5 15t-0.5 15t9 13.5q6 3 13.5 0.5t12.5 -8.5q1 -32 -2 -65.5t-5.5 -65t-1 -59.5t12.5 -48q15 -10 21.5 -4t10 18t5 25t6.5 18q4 21 5 43t1.5 43.5t2.5 43t8 42.5q5 6 9 15.5t9 17t12 10t19 -5.5q14 -40 15 -78.5t-0.5 -76.5t-1 -77 t13.5 -79q2 -6 9 -8t13 6q1 1 4.5 11.5t9 23t13 23t16.5 10.5zM660 901q-4 -3 -8.5 -7t-20.5 -8.5t-49 -9.5t-94 -10q-70 -6 -133 -17.5t-128 -33.5q-5 -11 -12.5 -14t-15 -2t-15.5 5l-14 7q-2 9 2.5 15t11 11t12 10t7.5 13q12 25 21.5 49.5t17.5 48.5q-3 13 4.5 27t13.5 27 q45 103 86 208.5t66 217.5q-3 12 -2.5 23.5t8.5 19.5q12 4 16 -4.5t11 -14.5q-14 -79 -41 -153.5t-57.5 -147t-60.5 -146t-50 -151.5l4 -4q76 13 148.5 27t154.5 16q25 -5 55.5 -4t54.5 10zM1399 -315q12 26 3.5 56.5t-24.5 53.5q-9 -12 -11.5 -26.5t-4.5 -28.5 q3 -17 9 -34.5t28 -20.5zM1124 -188q-5 -23 -7.5 -48t5.5 -47q6 -6 17 -5.5t20 7t13.5 18t-2.5 27.5q2 9 4.5 23t2 27t-5.5 23.5t-18 12.5zM715 -12q-3 11 -11.5 17.5t-19 8.5t-22.5 1t-21 -5q-22 -18 -43.5 -38.5t-38.5 -43.5q-10 -32 -24 -62t-26.5 -60.5t-19.5 -62.5 t-3 -67q6 -2 7.5 2t4.5 7q28 37 59.5 72t61.5 71.5t55.5 75.5t40.5 84zM1180 426q2 5 5 13t3.5 15.5t-2 13t-10.5 7.5l-11 -59q11 2 11.5 4.5t3.5 5.5zM897 471q-14 3 -26.5 -6.5t-20.5 -22.5q-11 -14 -21.5 -29.5t-17.5 -32t-9 -33.5t5 -34q11 -5 15 1.5t8 13.5 q21 23 39 47t32 55zM1649 1178q-5 4 -8.5 2.5t-6 -4l-5 -5t-5.5 -0.5q-23 -11 -38 -29.5t-23.5 -40.5t-12 -46t-2.5 -47q7 -2 13 1t12 7t12 6.5t13 1.5q5 14 17 29t21 31.5t11.5 33t-11.5 33.5q6 0 9 3t4 7.5t0.5 9t-0.5 7.5z" />
<glyph unicode="&#xeeee;" horiz-adv-x="358" d="M358 2007v-2662h-358v2662h358z" />
<glyph unicode="&#xf000;" horiz-adv-x="1966" d="M1802 1169q0 -8 -4 -8q-22 3 -43 0.5t-43 -4.5q-35 -2 -61 -3t-47.5 -2.5t-39.5 -3.5t-36 -5q-8 -7 -10.5 -15.5t-3.5 -17t-2 -17.5t-5 -18q0 -9 3.5 -16t5.5 -15q5 -6 12.5 -9t15.5 -5q14 2 27.5 8t19.5 19q0 8 -4 13.5t-10 10.5q-5 4 -10.5 5t-11 1t-10.5 1.5t-9 7.5 q6 10 19.5 8t25.5 -2q11 -3 18.5 -12t12.5 -21q-2 -17 -12 -30.5t-25 -24.5q-11 -3 -21.5 -5t-21.5 -5q-25 6 -51 16t-41 33q-4 12 -3.5 23t2 22t4 22t3.5 23q-5 9 -13.5 7.5t-17.5 0.5l-67 -2q0 3 -2.5 4t-2.5 4q7 5 15 4.5t14 1.5q19 -3 39 -1.5t39 1.5q8 6 9 16t1 19 q6 14 7 32.5t12 29.5q5 3 9 2t7 -4t6 -7t6 -6q6 -8 6.5 -16.5t0.5 -18.5v-20t4 -19q4 -6 9.5 -7.5t11.5 -1l12 1t12 -0.5q24 1 48 1.5t52 1.5t60 3t71 7q3 -2 4.5 -2.5t3.5 -4.5zM1327 1028q-25 0 -52.5 -1t-51.5 -9q-8 3 -15 5t-12 11q5 28 7.5 57.5t-5.5 57.5 q-5 6 -13.5 0.5t-15.5 -8.5q-14 -9 -28 -19t-26 -22t-20 -26.5t-10 -31.5q-8 -8 -18.5 -11.5t-19.5 1.5q-6 7 -6.5 15t0 16t1.5 16.5t-2 16.5l-2 63q-6 6 -16 3.5t-21 0.5q-2 1 -6 1.5t-7.5 1t-6 2t-2.5 6.5q26 -2 52.5 2.5t53.5 -0.5q6 -6 6.5 -14t0 -16.5t1.5 -15.5 t11 -10q28 13 53.5 30t52.5 28q6 -4 14 -4h15t12.5 -2.5t8.5 -12.5q5 -22 3.5 -43.5t0.5 -44.5q3 -6 2.5 -12.5t5.5 -11.5q8 -2 14 -3t12 3q8 0 16 -2.5t19 -2.5q2 -2 2.5 -4.5t-2.5 -5.5zM915 1145q8 -38 -14 -64q-11 -7 -21 -15.5t-20 -16.5t-21 -14t-24 -7q-6 2 -9 -0.5 t-5 -6t-4.5 -5.5t-8.5 2q-11 8 -24.5 4t-26.5 -2q-12 0 -22 0.5t-21 5.5q-8 7 -16 14.5t-14.5 16.5t-9 20t2.5 23q7 18 18.5 34t31.5 27q21 11 44.5 22t51.5 5q16 -1 33 -2.5t32 -6t27 -12.5t20 -22zM926 1360q-11 -13 -27.5 -17.5t-32.5 0.5q-9 13 -17.5 24.5t-10.5 25.5 q-13 21 -31.5 32.5t-40 18.5t-44.5 11.5t-44 10.5l-64 4q-5 -5 -12.5 -3t-13.5 -1q-35 -11 -61.5 -20.5t-51.5 -22.5q-6 -8 -15 -14t-17 -12.5t-15 -14.5t-8 -20q-13 -31 -17 -69.5t-6 -73.5q10 -8 22 -5.5t23 0.5q44 5 87 5h89q4 -2 4.5 -7t-1.5 -8q-9 -6 -16.5 -5t-15.5 4 t-15.5 5.5t-16.5 -0.5q-20 2 -42 -1t-42 -1q-18 -3 -38 -4t-36 -10l-6 -8q-2 -19 -2 -34v-29.5t1 -30t3 -35.5q1 -7 0.5 -14.5t-0.5 -14.5t1.5 -14.5t6.5 -14.5q26 -2 41.5 -1.5t29 2t29.5 3.5t42 3q6 5 13 2t13 -5q2 -2 1 -4t1 -4l-8 -4q-24 4 -42.5 3.5t-37.5 -3t-41 -4.5 t-53 0q-22 -2 -46.5 -4t-47.5 0q-32 -2 -67 -2t-64 8l-4 6q3 3 8 6t10 5q16 -8 37 -10t43 -5q14 2 28 1t25 7q-1 26 2 49t6.5 45t8 45.5t6.5 51.5q-2 4 -6 8q-31 1 -59 -0.5t-56 10.5q-2 5 0.5 8t5.5 3q28 -8 57.5 -8.5t57.5 1.5l4 7q5 34 11.5 70.5t19.5 64.5v6 q46 54 107 86.5t136 40.5q38 5 75 -4t69 -23q9 -3 20 -3t21 -5q35 -8 69.5 -24.5t57.5 -47.5q3 -3 2.5 -8t-2.5 -10zM1571 -127q-23 1 -48.5 -1t-52 -4.5t-51.5 -4t-47 1.5q-57 2 -112.5 -1t-110.5 -7t-110 -5t-111 5q-51 -8 -99 -3.5t-98 9.5q-60 5 -122.5 3.5t-125.5 -1.5 q-21 0 -47.5 -0.5t-54.5 -2.5t-54.5 -5t-47.5 -9q-8 -2 -17 -1.5t-14 10.5q0 32 -2.5 66.5t8.5 66.5q3 40 1.5 81.5t4.5 82.5q-4 23 -3.5 45.5t2 45t2.5 45.5t-3 46q0 66 5.5 132.5t8.5 135.5q5 74 2 146.5t0 146.5q4 9 10.5 11t13.5 2t15 -0.5t15 1.5q8 -5 18 -5.5 t19.5 0.5t19.5 2.5t18 0.5q7 7 16 11.5t11 -9.5q3 -5 0.5 -12t5.5 -12q-4 -29 -3 -78.5t4 -107t7 -117t7 -109.5q32 10 61.5 25t58 31.5t57 32t60.5 26.5q11 5 20 12t23 12q3 2 8 7t13 0q10 -5 8 -15.5t-2 -19.5q-10 -28 -12.5 -61t2.5 -64q5 -9 13.5 -5.5t14.5 3.5 q17 14 35 23t35 22q20 12 41 23.5t43 19.5q25 17 48.5 33.5t49.5 25.5l41 33q3 8 12 14q7 0 12 -3.5t11 -8.5q0 -29 6 -58.5t6 -58.5q2 -6 6 -4.5t6 -3.5q8 -11 3.5 -21.5t-7.5 -19.5l4 -4q35 8 65 26.5t59.5 39t59 39t64.5 26.5q10 9 22 12.5t23 14.5q10 1 19 8.5t18 14 t19 8.5t22 -7q3 0 7.5 -1.5t6.5 -6.5q-2 -8 2 -13t7 -11q-2 -8 -1.5 -15.5t1 -14t0.5 -13.5t-4 -13q1 -13 0 -26t-1 -25.5t2.5 -24t8.5 -22.5q-2 -7 0.5 -13t4.5 -12t2.5 -11.5t-3.5 -10.5q2 -16 0.5 -29.5t7.5 -25.5q2 -10 3 -19.5t-5 -17.5q5 -23 5.5 -47.5t8.5 -47.5 q-5 -8 -2.5 -16t2.5 -16q0 -39 3.5 -76t8 -74t8.5 -74.5t5 -76.5q0 -3 2.5 -8.5t-0.5 -10.5zM870 1104q-5 22 -16 43.5t-37 26.5q-3 -11 -12.5 -8.5t-16.5 1.5q-14 7 -28.5 3t-24.5 -15q-11 -15 -11.5 -30t5 -29.5t14 -28.5t17.5 -27q3 -8 9.5 -6t14.5 0q14 -5 26.5 2.5 t25.5 12.5q6 6 13.5 11.5t13.5 11.5t8.5 13.5t-1.5 18.5zM1513 -20l-16 34t-20 31q-13 22 -27.5 42t-17.5 46q-5 9 -10.5 17.5t-2.5 17.5q14 17 34 27.5t34 25.5l-19 35q-18 -2 -33 -8.5t-30 -11.5q-4 -3 -8.5 -7t-9.5 -6.5t-10.5 -2.5t-10.5 5q2 41 3 81.5t-1 78.5l-4 6 q-16 0 -28.5 5t-26.5 10q-3 -23 -6.5 -48.5t0.5 -50.5q-3 -8 -3 -18.5t1 -21t1 -21t-4 -19.5q2 -32 0.5 -57t-3 -49t-2 -49t2.5 -56l-2 -14h49q7 2 13.5 -2t11.5 2v28t-2 29q1 8 -1.5 17t-3.5 17t1.5 14.5t13.5 9.5q11 -5 11.5 -14t7.5 -17q-1 -7 1.5 -13t6 -11.5l7 -11 t5.5 -11.5q10 -6 17 -14.5t13.5 -18t13.5 -19t16 -16.5q6 2 11.5 -2.5t14.5 -1.5q5 0 8.5 4t3.5 9zM1245 367q-3 9 -8 17t-16 13q-5 5 -11.5 6t-9.5 -6q-9 -12 -13 -30.5t5 -30.5q3 -11 15.5 -12t23.5 4q9 6 12.5 17t1.5 22zM1249 31q0 40 -2 79t-2 76q0 14 1.5 27.5 t-1.5 26.5q-7 5 -14 5.5t-14 -1t-14.5 -3.5t-14.5 -1q-7 -12 -9 -24.5t-1.5 -25.5t1 -26.5t-0.5 -26.5q-5 -11 -5 -25t-2 -28q3 -10 2.5 -21.5t-0.5 -23.5t2 -23.5t9 -21.5q15 0 31 2.5t30 7.5q3 6 3.5 13.5t0.5 13.5zM1147 252q-16 -2 -33.5 -5t-28.5 -22q-4 -4 -5.5 -10.5 t-4 -13t-7 -10t-13.5 -1.5q-5 16 -4.5 29.5t0.5 30.5q-4 2 -8 1.5t-8 -1.5t-7.5 -1.5t-7.5 1.5q-9 -5 -14.5 -12t-8.5 -15q0 -60 1 -114t8 -113l6 -8q5 -4 11.5 -4t13 1t12 2t10.5 -1q-3 11 -2.5 21.5t1.5 21t1 20.5t-4 21q5 23 11 46.5t21 43.5q13 9 27 12t27 14 q2 17 6.5 33t-0.5 33zM938 61q9 18 12 36t1.5 37t-5.5 38t-8 39q1 6 -5.5 11.5t-15.5 11t-18 9.5t-12 7t-9 3.5t-8 -5.5q-22 3 -39 -8q-11 -7 -15.5 -16.5t-12.5 -14.5q-5 -3 -10.5 -1t-8.5 7q8 37 4 75t-10 77l-4 14h-16q-9 -3 -12.5 -9t-4 -13.5t-0.5 -15t-2 -13.5 q-6 -34 -4 -69.5t-4 -70.5q3 -34 0 -67t0 -64q0 -18 -3 -35.5t-1 -37.5q14 -8 32 -2t32 12q10 4 16.5 1.5t11.5 -8t10 -12t11 -10.5h13t13 2q11 6 24 17t24 23.5t18 26t6 25.5zM682 70q-7 22 -6.5 45t1 45t-1.5 43.5t-13 40.5q-26 15 -48 24l-16 11q-9 -2 -17.5 -1.5 t-17 0.5t-17 -2t-16.5 -8q-14 -8 -14 -22.5t-2 -30.5q11 -5 24 -3.5t25.5 2.5t23.5 -1.5t19 -15.5q-1 -4 0.5 -7l3 -6t1.5 -5.5t-3 -6.5q-2 -3 -2.5 -8t4.5 -8q3 -5 1.5 -11t-7.5 -8q-14 -5 -28 -4t-29 -2q-23 -9 -34.5 -31.5t-16.5 -44.5q-3 -5 -3 -10.5t1 -11t1.5 -11 t-3.5 -10.5q0 -14 9.5 -22t20.5 -13q3 4 7.5 7t9.5 -2q8 -3 15.5 0t14.5 8.5t14 12t15 11.5q11 2 13 -2t1.5 -11t-1 -15t4.5 -13q10 -5 17 -0.5t16 4.5q8 4 16.5 5.5t14.5 7.5zM508 371q-25 5 -53 3.5t-54 -3.5q-15 -2 -29.5 -5.5t-25.5 -11.5q-2 -32 -6.5 -66.5t-7.5 -66.5 q5 -54 3 -111.5t1 -113.5q8 0 15 2.5t14 -0.5q12 3 23 -1.5t24 1.5q2 32 2 64.5t2 64.5q5 11 14 15.5l19 9.5q4 2 8 1.5l8 -1t7.5 0t6.5 5.5l-2 57q-8 9 -19 8.5t-24 -0.5q-3 -3 -6 -5.5t-8 -2.5q-8 1 -11 6.5t-4 12t-1 14t-3 12.5q-3 6 0.5 11t8.5 10q20 6 39.5 9.5 t39.5 6.5l13 8q-3 19 1.5 34t4.5 32zM881 158q14 -29 7.5 -60t-26.5 -53q-5 -8 -11.5 -9.5t-12.5 -4.5q-13 1 -19.5 8.5t-9.5 17.5t-4.5 21t-3.5 20q5 16 6 34t10 32q7 4 11.5 10l9 12t9.5 10.5t13 4.5l6 -6q-2 -7 -0.5 -12t5 -8.5t6.5 -7.5t4 -9zM604 86q0 -15 -9 -26.5 t-20 -20.5q-8 -2 -15.5 -8t-18.5 0q-7 1 -9 5.5t-1 9.5t3 11t3 11q0 6 5 11.5t13 8.5q12 0 20 8q7 -2 15.5 -1.5t13.5 -8.5z" />
<glyph unicode="&#xf6c9;" horiz-adv-x="805" d="M198 1467l-43 142l424 153l60 -186z" />
<glyph unicode="&#xf6ca;" horiz-adv-x="873" d="M430 1465l-341 167l64 140l284 -114l273 112l58 -130z" />
<glyph unicode="&#xf6cb;" horiz-adv-x="1118" d="M893 1607q0 -29 -10.5 -53.5t-29 -43t-43.5 -29t-53 -10.5q-29 0 -54 10.5t-43.5 29t-29.5 43t-11 53.5q0 28 11 53t29.5 43.5t43.5 29t54 10.5q28 0 53 -10.5t43.5 -29t29 -43.5t10.5 -53zM452 1607q0 -29 -11 -53.5t-29.5 -43t-43 -29t-53.5 -10.5t-53.5 10.5t-43 29 t-29.5 43t-11 53.5q0 28 11 53t29.5 43.5t43 29t53.5 10.5t53.5 -10.5t43 -29t29.5 -43.5t11 -53z" />
<glyph unicode="&#xf6ce;" horiz-adv-x="765" d="M582 1467l-442 109l61 186l424 -153z" />
<glyph unicode="&#xf6cf;" horiz-adv-x="1032" d="M682 1463l-76 123l340 204l95 -157zM245 1461l-81 116l314 230l103 -150z" />
<glyph unicode="&#xf6d0;" horiz-adv-x="991" d="M122 1518v166h601v-166h-601z" />
<glyph unicode="&#xf8ff;" horiz-adv-x="2138" d="M1627 1204q-9 11 -20 23t-22.5 23.5t-23 21.5t-20.5 18l191 231q34 -28 66 -59t59 -68zM1805 672q2 28 2 61t-2 61l301 28q5 -46 5 -90.5t-4 -88.5zM1132 1448q-31 4 -62.5 3.5t-60.5 -3.5l-30 296q45 6 91 5.5t89 -5.5zM601 1288q-11 -9 -22.5 -19.5t-22.5 -21.5 t-21.5 -22.5t-19.5 -22.5l-236 195q30 35 61 67t66 59zM1595 732q0 -52 -10 -101.5t-28 -94.5t-42.5 -84.5t-55.5 -71.5v-164l-32 -9l65 -156l-63 -16l63 -151l-66 -16l20 -50l-63 -147h-117q-4 -21 -20 -38.5t-42.5 -30.5t-60.5 -21t-73 -8q-41 0 -75.5 8t-61 21.5t-42 31 t-18.5 37.5h-118l-110 267l64 18l-66 155l72 20l-38 91v161q-30 34 -54.5 73.5t-42 84t-27 92.5t-9.5 99q0 109 41 204.5t112.5 167t167 113t205.5 41.5q108 0 203.5 -41.5t167 -113t113 -167t41.5 -204.5zM32 642q-5 44 -5 90t5 91l307 -29q-3 -29 -3 -62t3 -61zM1087 772 q5 0 5 10.5t-5 10.5q8 -11 0 -21zM1085 786q-5 0 -4.5 -1.5t1.5 -3t1.5 -2.5t-2.5 -1v-2q5 0 5.5 1t-0.5 2.5l-2 3t1 1.5v2zM1077 782q0 3 -2.5 4t-5.5 -2q2 0 3 0.5t3 -2.5q-2 0 -4 -1.5t-2 -3t1 -1.5t5 2v-2h2v6zM1069 772q-6 10 0 21q-5 0 -5 -10.5t5 -10.5zM1455 732 q0 80 -30.5 150.5t-82.5 123t-122.5 83.5t-149.5 31q-80 0 -150.5 -31t-123.5 -83.5t-83.5 -123t-30.5 -150.5q0 -87 36 -163t99 -131h102l-30 264q-27 -5 -46.5 -12t-34.5 -12q-10 -3 -17 4t-11.5 20.5t-6.5 30t0 31t6 25.5t12 14q63 19 135 31.5t144 12.5q75 0 145 -12.5 t135 -31.5q7 -3 11.5 -13.5t5.5 -25.5t-1 -31t-6 -29.5t-11.5 -20.5t-18.5 -3q-15 5 -35.5 11t-47.5 11l-27 -264h102q27 25 51.5 56.5t42.5 68.5t28.5 79.5t10.5 89.5zM1061 778q-3 -2 -3 3t3 3v2q-5 2 -5.5 -5t5.5 -5v2zM1053 786h-2v-6q0 -3 -1 -2.5t-1 2.5v6h-2v-6 q0 -5 3 -4t3 4v6zM1044 778h-4v13h-2v-15h6v2zM1148 719q-19 3 -38 4.5t-40 1.5t-41 -1.5t-39 -4.5l28 -281h104zM1319 328h-501v-97l30 -69l471 120v46zM1293 176l-479 -124l27 -63l480 121zM1294 3l-478 -123l47 -114h413l23 55l-9 21l-143 -37l-30 85l205 51z" />
</font>
</defs>
</svg>
