<?xml version="1.0" encoding="UTF-8" standalone="no"?>
<!-- Created with Inkscape (http://www.inkscape.org/) -->
<svg
   xmlns:svg="http://www.w3.org/2000/svg"
   xmlns="http://www.w3.org/2000/svg"
   version="1.0"
   width="701.92914"
   height="389.76376"
   id="svg2657">
  <defs
     id="defs2659" />
  <path
     d="M 245.0855,70.252728 L 251.12663,70.252728 L 254.63751,59.075806 L 272.77246,59.075806 L 276.14991,70.252728 L 282.84682,70.252728 L 267.57283,23.328213 L 259.96486,23.328213 L 245.0855,70.252728 z M 271.14178,53.870369 L 256.12895,53.870369 L 263.4758,28.852844 L 263.60928,28.852844 L 271.14178,53.870369"
     style="fill:#000000;fill-rule:evenodd;stroke:none"
     id="path28" />
  <path
     d="M 304.71899,59.203476 C 304.71899,64.664262 301.15003,66.805637 298.28908,66.805637 C 294.51699,66.805637 292.70061,64.136201 292.70061,60.17841 L 292.70061,37.424118 L 287.37331,37.424118 L 287.37331,62.453258 C 287.37331,68.041715 290.4838,70.902713 296.21155,70.902713 C 299.65284,70.902713 302.77494,69.277802 304.53328,66.289172 L 304.71899,66.289172 L 304.71899,70.252728 L 310.37709,70.252728 C 310.17977,67.972077 310.0463,65.697229 310.0463,63.428184 L 310.0463,37.424118 L 304.71899,37.424118 L 304.71899,59.203476"
     style="fill:#000000;fill-rule:nonzero;stroke:none"
     id="path32" />
  <path
     d="M 340.14742,60.892183 C 340.14742,50.887504 323.77083,51.009371 323.77083,45.2294 C 323.77083,42.368449 325.97604,40.807374 328.83123,40.807374 C 332.22029,40.807374 334.04247,42.629602 333.96702,46.07089 L 339.88629,46.07089 C 340.33894,39.577099 335.33658,36.779984 329.48697,36.779984 C 320.2541,36.779984 318.17657,42.304614 318.17657,45.745902 C 318.17657,55.559067 334.55317,55.69255 334.55317,61.542168 C 334.55317,64.925415 332.08681,66.550287 328.90087,66.550287 C 323.50972,66.550287 323.44008,62.128261 323.44008,60.242246 L 317.39895,60.242246 C 317.20163,67.780562 321.61786,70.902713 328.70355,70.902713 C 335.20311,70.902713 340.14742,68.10555 340.14742,60.892183"
     style="fill:#000000;fill-rule:nonzero;stroke:none"
     id="path36" />
  <path
     d="M 351.96271,70.252728 L 359.10642,70.252728 L 366.45325,42.304614 L 366.58673,42.304614 L 373.60858,70.252728 L 380.7523,70.252728 L 389.53251,37.424118 L 383.87441,37.424118 L 377.37485,65.697229 L 377.24137,65.697229 L 370.5503,37.424118 L 363.01197,37.424118 L 355.72898,65.697229 L 355.60131,65.697229 L 349.68786,37.424118 L 343.77441,37.424118 L 351.96271,70.252728"
     style="fill:#000000;fill-rule:nonzero;stroke:none"
     id="path40" />
  <path
     d="M 403.06554,25.132985 L 396.91416,25.132985 L 396.91416,31.922709 L 403.06554,31.922709 L 403.06554,25.132985 z M 414.49781,25.132985 L 408.40447,25.132985 L 408.40447,31.922709 L 414.49781,31.922709 L 414.49781,25.132985 z M 410.89984,53.916794 C 411.42211,64.536592 407.41793,66.567697 404.16814,66.567697 C 400.57017,66.567697 399.00331,63.666124 399.00331,60.474382 C 399.00331,53.568584 405.85107,53.974826 410.89984,53.916794 z M 411.0159,70.281744 L 416.87711,70.281744 C 416.47089,67.728334 416.23877,65.058897 416.23877,62.447455 L 416.23877,46.662796 C 416.23877,41.149781 414.03355,36.797402 405.56091,36.797402 C 398.59709,36.797402 394.70895,39.292781 394.47683,46.662796 L 400.22198,46.662796 C 399.93182,43.180886 401.78884,40.801571 405.38681,40.801571 C 411.07392,40.801571 411.0159,45.560191 410.89984,49.912569 C 403.41373,49.738474 393.66438,50.144706 393.66438,60.126172 C 393.66438,66.393639 395.6955,70.920122 402.65932,70.920122 C 406.72154,70.920122 409.27494,69.295212 410.89984,65.523124 L 411.0159,65.523124 L 411.0159,70.281744"
     style="fill:#000000;fill-rule:evenodd;stroke:none"
     id="path42" />
  <path
     d="M 430.21282,37.424118 L 424.8855,37.424118 L 424.8855,70.252728 L 430.21282,70.252728 L 430.21282,50.887504 C 430.21282,46.459675 431.70424,41.973814 437.61769,41.973814 C 438.59262,41.973814 439.50372,42.176935 440.47285,42.304614 L 440.47285,36.779984 C 435.28481,36.779984 432.55152,37.360283 430.34049,42.368449 L 430.21282,42.368449 L 430.21282,37.424118"
     style="fill:#000000;fill-rule:nonzero;stroke:none"
     id="path46" />
  <path
     d="M 442.45754,37.424118 L 442.45754,41.457359 L 447.8487,41.457359 L 447.8487,64.791941 C 447.8487,68.56402 450.12935,70.64156 455.19553,70.64156 C 456.94809,70.64156 458.70645,70.252728 460.45902,70.119245 L 460.45902,66.02802 C 459.29258,66.155699 458.44531,66.289172 458.05069,66.289172 C 453.18763,66.289172 453.18763,63.619698 453.18763,61.542168 L 453.18763,41.457359 L 460.32554,41.457359 L 460.32554,37.424118 L 453.18763,37.424118 L 453.18763,28.719361 L 447.8487,31.121889 L 447.8487,37.424118 L 442.45754,37.424118"
     style="fill:#000000;fill-rule:nonzero;stroke:none"
     id="path50" />
  <path
     d="M 472.12341,37.435724 L 466.84252,37.435724 L 466.84252,70.223712 L 472.12341,70.223712 L 472.12341,37.435724 z M 466.49433,29.021136 L 472.47161,29.021136 L 472.47161,23.334016 L 466.49433,23.334016 L 466.49433,29.021136 z "
     style="fill:#000000;fill-rule:evenodd;stroke:none"
     id="path52" />
  <path
     d="M 498.19711,53.678854 C 498.19711,58.22855 498.40023,65.830702 491.96449,65.830702 C 488.00092,65.830702 485.5926,63.370152 485.5926,52.837402 C 485.5926,48.479173 485.78411,41.202009 491.83103,41.202009 C 498.52789,41.202009 498.19711,48.804161 498.19711,53.678854 z M 498.06944,41.457359 L 497.94178,41.457359 C 496.45036,38.277177 493.71705,36.779984 490.26996,36.779984 C 487.61211,36.779984 480.00414,37.749115 480.00414,52.837402 C 480.00414,62.580929 481.7567,70.252728 490.65878,70.252728 C 493.51975,70.252728 496.50838,68.755488 497.87213,66.155699 L 498.06944,66.155699 L 498.06944,72.980243 C 498.06944,76.357696 496.06154,78.638347 492.3533,78.638347 C 489.42271,78.638347 487.4032,76.943789 487.34516,73.891333 L 481.37369,73.891333 C 480.91524,79.932466 485.85374,82.665738 491.31453,82.665738 C 498.52789,82.665738 503.40257,80.913195 503.40257,73.566346 L 503.40257,37.424118 L 498.06944,37.424118 L 498.06944,41.457359"
     style="fill:#000000;fill-rule:evenodd;stroke:none"
     id="path56" />
  <path
     d="M 517.12129,51.531676 C 517.17932,42.438088 519.97646,40.807374 523.35971,40.807374 C 527.25365,40.807374 529.92311,41.973814 529.92311,51.531676 L 517.12129,51.531676 z M 535.56961,55.559067 L 535.56961,52.767764 C 535.56961,41.915782 533.23093,36.779984 523.87039,36.779984 C 512.50196,36.779984 511.39935,44.707132 511.39935,54.322989 C 511.39935,68.819332 516.91818,70.902713 523.87039,70.902713 C 530.77038,70.902713 535.25624,67.589095 535.30847,60.311884 L 529.46466,60.311884 C 529.27316,63.619698 527.38132,66.550287 523.74272,66.550287 C 519.58764,66.550287 517.12129,64.728106 517.12129,55.559067 L 535.56961,55.559067"
     style="fill:#000000;fill-rule:evenodd;stroke:none"
     id="path60" />
  <path
     d="M 564.8931,60.892183 C 564.8931,50.887504 548.51071,51.009371 548.51071,45.2294 C 548.51071,42.368449 550.72172,40.807374 553.58269,40.807374 C 556.96015,40.807374 558.78235,42.629602 558.72431,46.07089 L 564.63195,46.07089 C 565.07879,39.577099 560.08225,36.779984 554.23265,36.779984 C 545.00559,36.779984 542.92225,42.304614 542.92225,45.745902 C 542.92225,55.559067 559.30462,55.69255 559.30462,61.542168 C 559.30462,64.925415 556.83248,66.550287 553.64652,66.550287 C 548.24957,66.550287 548.18572,62.128261 548.18572,60.242246 L 542.14462,60.242246 C 541.94731,67.780562 546.36933,70.902713 553.45502,70.902713 C 559.94878,70.902713 564.8931,68.10555 564.8931,60.892183"
     style="fill:#000000;fill-rule:nonzero;stroke:none"
     id="path64" />
  <path
     d="M 580.71837,70.252728 L 586.77109,70.252728 L 590.28202,59.075806 L 608.41697,59.075806 L 611.80022,70.252728 L 618.49129,70.252728 L 603.21731,23.328213 L 595.61514,23.328213 L 580.71837,70.252728 z M 606.79208,53.870369 L 591.77344,53.870369 L 599.12027,28.852844 L 599.25374,28.852844 L 606.79208,53.870369"
     style="fill:#000000;fill-rule:evenodd;stroke:none"
     id="path68" />
  <path
     d="M 644.91318,70.252728 L 644.91318,48.154233 C 644.91318,46.923948 645.17432,43.668372 646.73538,42.368449 C 648.16296,41.202009 648.75489,41.132371 650.76279,41.132371 C 655.05714,41.132371 655.96824,44.19063 655.96824,47.504248 L 655.96824,70.252728 L 661.29557,70.252728 L 661.29557,45.293235 C 661.29557,37.557601 655.76513,36.779984 652.32384,36.779984 C 649.33521,36.779984 646.34657,37.493766 644.52437,41.004692 C 643.28248,38.016071 639.847,36.779984 636.85837,36.779984 C 633.02246,36.779984 630.21952,38.016071 628.67007,41.521194 L 628.5424,41.521194 L 628.5424,37.424118 L 622.87849,37.424118 C 623.0758,39.704769 623.20927,41.973814 623.20927,44.254465 L 623.20927,70.252728 L 628.5424,70.252728 L 628.5424,48.154233 C 628.5424,46.923948 628.79775,44.968247 629.77267,43.337572 C 630.5503,42.101493 632.76132,41.132371 634.3862,41.132371 C 638.67477,41.132371 639.58586,44.19063 639.58586,47.504248 L 639.58586,70.252728 L 644.91318,70.252728"
     style="fill:#000000;fill-rule:nonzero;stroke:none"
     id="path72" />
  <path
     d="M 666.23408,37.424118 L 666.23408,41.457359 L 671.61943,41.457359 L 671.61943,64.791941 C 671.61943,68.56402 673.89428,70.64156 678.96626,70.64156 C 680.72463,70.64156 682.47719,70.252728 684.22975,70.119245 L 684.22975,66.02802 C 683.06331,66.155699 682.22185,66.289172 681.82723,66.289172 C 676.95256,66.289172 676.95256,63.619698 676.95256,61.542168 L 676.95256,41.457359 L 684.10208,41.457359 L 684.10208,37.424118 L 676.95256,37.424118 L 676.95256,28.719361 L 671.61943,31.121889 L 671.61943,37.424118 L 666.23408,37.424118"
     style="fill:#000000;fill-rule:nonzero;stroke:none"
     id="path76" />
  <path
     d="M 188.27233,372.04724 L 208.83301,372.04724 L 208.83301,255.9836 L 188.27233,255.9836 L 188.27233,372.04724 z "
     style="fill:#f7d100;fill-opacity:1;fill-rule:nonzero;stroke:none"
     id="path78" />
  <path
     d="M 188.27233,255.9836 L 208.83301,255.9836 L 208.83301,139.51372 L 188.27233,139.51372 L 188.27233,255.9836 z "
     style="fill:#e3001b;fill-opacity:1;fill-rule:nonzero;stroke:none"
     id="path80" />
  <path
     d="M 188.27233,139.91996 L 208.83301,139.91996 L 208.83301,23.856284 L 188.27233,23.856284 L 188.27233,139.91996 z "
     style="fill:#000000;fill-rule:nonzero;stroke:none"
     id="path82" />
  <path
     d="M 70.862349,139.91415 L 70.862349,139.91415 z M 70.868152,139.96059 L 70.868152,139.96059 z M 70.856546,139.97219 L 70.856546,139.97219 z M 70.856546,139.89094 L 70.856546,139.89094 z M 124.13557,43.453645 C 124.13557,36.843828 119.32472,31.609328 117.63601,30.135348 L 116.41734,30.413863 C 118.21631,32.613269 121.39064,36.292497 121.39064,41.161387 C 121.39064,50.748218 111.25248,59.087412 99.686724,59.244098 C 99.773781,60.230639 99.767978,61.095304 99.767978,61.843943 C 99.767978,63.213457 99.680921,64.559805 99.518479,65.859727 C 112.64526,65.621787 124.13557,54.949761 124.13557,43.453645 z M 106.03544,122.8586 C 100.42957,122.8586 99.216695,122.27246 97.736873,122.27246 C 96.790964,122.27246 95.89148,122.36531 95.89148,123.70585 C 95.89148,124.64016 96.936043,125.99811 97.881953,126.71769 C 99.199285,125.40035 101.00986,125.12184 103.93469,125.12184 C 105.2984,125.12184 107.16125,125.38875 107.9853,125.49902 C 107.86922,126.30569 107.70673,127.34446 107.70673,128.81263 C 107.70673,129.59029 107.73575,130.48977 107.73575,131.44149 C 107.73575,134.7435 107.24831,136.50188 106.09348,137.82497 C 106.34302,137.97586 107.01037,138.11514 107.405,138.11514 C 109.55217,138.11514 110.09765,137.01835 110.09765,131.44729 C 110.09765,129.76439 110.23693,128.20912 110.23693,127.80868 C 113.23135,130.09514 116.28967,134.1748 116.28967,137.12861 C 117.2704,136.62951 118.41943,135.14973 118.41943,134.03552 C 118.41943,132.02764 115.05939,129.03316 111.49622,125.41777 C 111.98952,125.3017 113.3126,124.91872 114.4036,124.91872 C 117.20076,124.91872 119.46981,125.38875 120.78713,126.93822 C 121.30359,126.36953 121.73885,124.66917 121.73885,123.70585 C 121.73885,122.02291 120.77552,122.08675 120.07331,122.08675 C 117.09629,122.08675 113.41126,122.54522 110.77084,122.98047 C 109.81328,121.70376 103.70836,113.44002 102.12407,109.03541 C 101.66565,108.87291 101.31164,108.73944 100.56304,108.73944 C 99.094828,108.73944 98.711799,109.7666 98.328817,111.17098 C 101.70047,115.2564 104.93864,119.70164 106.03544,122.8586 z M 72.585876,111.17098 C 72.202894,109.7666 71.831471,108.73944 70.363256,108.73944 C 69.603058,108.73944 69.249045,108.87291 68.808031,109.03541 C 67.212137,113.44002 61.107212,121.70376 60.143846,122.98047 C 57.515032,122.54522 53.824198,122.08675 50.847184,122.08675 C 50.14497,122.08675 49.181651,122.02291 49.181651,123.70585 C 49.181651,124.66917 49.611105,126.36953 50.139167,126.93822 C 51.450696,125.38875 53.719741,124.91872 56.516894,124.91872 C 57.607892,124.91872 58.925178,125.3017 59.418467,125.41777 C 55.855303,129.03316 52.495259,132.02764 52.495259,134.03552 C 52.495259,135.14973 53.655896,136.62951 54.630831,137.12861 C 54.630831,134.1748 57.689137,130.09514 60.683561,127.80868 C 60.683561,128.20912 60.822847,129.76439 60.822847,131.44729 C 60.822847,137.01835 61.374121,138.11514 63.5155,138.11514 C 63.910135,138.11514 64.571679,137.97586 64.827028,137.82497 C 63.672195,136.50188 63.184746,134.7435 63.184746,131.44149 C 63.184746,130.48977 63.225378,129.59029 63.225378,128.81263 C 63.225378,127.34446 63.051269,126.30569 62.940999,125.49902 C 63.753439,125.38875 65.622093,125.12184 66.991607,125.12184 C 69.904833,125.12184 71.715407,125.40035 73.038543,126.71769 C 73.984452,125.99811 75.034828,124.64016 75.034828,123.70585 C 75.034828,122.36531 74.135344,122.27246 73.177819,122.27246 C 71.697998,122.27246 70.490936,122.8586 64.88506,122.8586 C 65.987665,119.70164 69.220029,115.2564 72.585876,111.17098 z M 49.535655,41.161387 C 49.535655,36.292497 52.709987,32.613269 54.503152,30.413863 L 53.296089,30.135348 C 51.589972,31.609328 46.79073,36.843828 46.79073,43.453645 C 46.79073,55.031005 58.437729,65.778473 71.692195,65.86553 C 71.547106,64.60623 71.465861,63.271489 71.465861,61.843943 C 71.465861,60.950215 71.50068,60.073944 71.581925,59.255704 C 59.871134,59.255704 49.535655,50.841069 49.535655,41.161387 z M 85.132349,32.247697 C 85.735908,30.860727 86.548345,29.212604 86.548345,27.396226 C 86.548345,22.376454 82.381668,19.985579 76.810621,19.985579 C 73.949633,19.985579 72.504622,20.908286 72.504622,21.836786 C 72.504622,22.765286 73.450588,24.807997 73.81615,25.43476 C 74.843314,24.976289 76.706164,24.436621 77.779753,24.436621 C 81.609817,24.436621 84.465002,28.719361 85.132349,32.247697 z M 87.871471,25.829348 C 91.127057,26.461923 93.349676,22.301059 90.250785,21.558214 C 90.680193,22.933578 88.596859,23.90271 88.596859,23.90271 C 88.596859,23.90271 87.801832,22.063119 88.834799,21.012743 C 86.937167,20.089999 86.461288,21.215817 86.420665,22.382257 C 87.169257,23.380442 87.65094,24.541088 87.871471,25.829348 z M 98.415874,54.340398 C 98.932329,54.375217 99.431422,54.404233 99.95369,54.404233 C 109.11692,54.404233 118.21631,48.47337 118.21631,40.871219 C 118.21631,36.820615 116.39413,33.988633 114.14249,30.84912 C 112.81936,31.069651 111.61229,31.191527 110.66639,31.191527 C 106.51708,31.191527 104.25964,28.968908 104.09719,26.781108 C 104.09719,24.807997 105.69884,23.32241 108.18261,23.32241 C 112.0417,23.32241 119.06937,26.931953 126.15506,26.931953 C 125.4587,27.460061 124.29806,28.017148 122.89949,28.539453 C 127.05455,32.276722 129.82849,37.284842 130.88467,42.641208 L 141.74241,60.015912 C 143.56463,62.917532 147.41792,68.622061 153.22691,73.073094 C 146.20504,73.073094 141.54509,73.235592 135.60847,63.846032 L 130.04902,54.943948 C 129.63697,56.092988 129.12627,57.218806 128.53438,58.315598 L 139.59523,76.032699 C 141.44067,78.963288 145.24753,84.621392 151.08554,89.095646 C 144.06368,89.095646 139.41532,89.263948 133.4729,79.868622 L 123.94405,64.617837 C 123.23028,65.372232 122.48164,66.115077 121.68661,66.82885 L 135.13259,88.341251 C 136.98379,91.289297 140.77908,96.918375 146.62289,101.39843 C 139.59523,101.39843 134.94107,101.56669 128.99865,92.165559 L 115.90084,71.198637 C 115.03037,71.744165 114.1483,72.266423 113.24296,72.771319 L 129.23074,98.36334 C 131.07618,101.30558 134.87143,106.94047 140.72105,111.42052 C 133.69918,111.42052 129.03342,111.58882 123.10841,102.18766 L 106.63895,75.835391 C 105.66402,76.212607 104.67168,76.56662 103.66774,76.885757 L 122.27852,106.67931 C 124.08914,109.56347 127.98305,115.29122 133.75722,119.73065 C 126.74117,119.73065 122.08125,119.89315 116.15038,110.49783 L 96.315084,78.748608 L 95.705769,78.858877 C 95.171857,80.576592 94.794678,82.178289 94.794678,83.779949 C 94.794678,93.7498 101.34066,102.55907 109.19816,109.3604 C 108.69327,109.57508 107.81699,109.66214 107.01037,109.66214 C 105.39126,109.66214 104.34089,109.56347 103.6039,109.44166 C 105.43189,113.57931 109.33745,118.91822 111.31052,121.68635 C 113.88714,121.22788 117.63021,120.86226 120.07331,120.86226 C 122.63833,120.86226 122.9227,122.36531 122.9227,123.70585 C 122.9227,126.02713 121.8317,127.89573 120.5724,128.9287 C 120.09652,127.72744 119.13901,126.1374 114.4036,126.1374 L 113.92196,126.16061 C 115.31474,127.70423 119.6439,131.20935 119.6439,134.03552 C 119.6439,135.89833 117.59539,138.70129 114.89108,138.70129 C 115.05939,138.09773 115.03037,137.54065 115.03037,137.12861 C 115.03037,134.84215 113.01087,132.17267 111.29891,130.30406 C 111.34534,130.86119 111.32213,130.80316 111.32213,131.44729 C 111.32213,136.85004 110.84049,139.33382 107.405,139.33382 C 105.72205,139.33382 104.56142,138.41112 104.16098,138.13836 C 106.3894,136.07823 106.51128,134.46493 106.51128,131.44149 L 106.48806,128.81263 C 106.48225,128.12207 106.49386,127.21098 106.59833,126.54358 C 105.36804,126.36953 104.8806,126.37534 103.93469,126.37534 C 103.93469,126.37534 99.054205,125.99231 97.881953,128.52831 C 96.56463,127.32125 94.649589,125.60928 94.649589,123.70585 C 94.649589,122.45816 95.235692,121.04798 97.736873,121.04798 C 98.688586,121.04798 101.68306,121.63413 104.18419,121.63413 C 103.51684,120.13689 100.51662,115.76129 97.934191,112.58116 C 97.539556,113.81144 96.924437,115.15194 95.56068,116.23714 C 95.374968,114.18862 94.179512,107.74129 90.987771,103.96922 C 90.616358,106.51682 90.111499,109.13407 90.111499,114.64709 C 90.111499,128.07564 93.343863,137.99327 100.19743,139.89094 C 99.303752,141.45197 97.423483,142.83894 95.462025,142.83894 C 92.955041,142.83894 91.59133,140.00116 90.198557,137.32592 C 89.473121,139.3048 87.471042,144.13886 85.457346,144.13886 C 83.449454,144.13886 81.447365,139.3048 80.727742,137.32592 C 79.329175,140.00116 77.965455,142.83894 75.452667,142.83894 C 73.502816,142.83894 71.61095,141.45197 70.728876,139.89094 C 77.576632,137.99327 80.808987,128.07564 80.808987,114.64709 C 80.808987,109.13407 80.304138,106.51682 79.932715,103.96922 C 76.740983,107.74129 75.539724,114.18862 75.354013,116.23714 C 73.996059,115.15194 73.38094,113.81144 72.986314,112.58116 C 70.398075,115.76129 67.409455,120.13689 66.730501,121.63413 C 69.243242,121.63413 72.226106,121.04798 73.177819,121.04798 C 75.690607,121.04798 76.282513,122.45816 76.282513,123.70585 C 76.282513,125.60928 74.355875,127.32125 73.038543,128.52831 C 71.860496,125.99231 66.991607,126.37534 66.991607,126.37534 C 66.039894,126.37534 65.552455,126.36953 64.32217,126.54358 C 64.426637,127.21098 64.44985,128.12207 64.43244,128.81263 L 64.415031,131.44149 C 64.415031,134.46493 64.531047,136.07823 66.759517,138.13836 C 66.364881,138.41112 65.198442,139.33382 63.5155,139.33382 C 60.085814,139.33382 59.592572,136.85004 59.592572,131.44729 C 59.592572,130.80316 59.575153,130.86119 59.621588,130.30406 C 57.90962,132.17267 55.890122,134.84215 55.890122,137.12861 C 55.890122,137.54065 55.861106,138.09773 56.023604,138.70129 C 53.330908,138.70129 51.276591,135.89833 51.276591,134.03552 C 51.276591,131.20935 55.61156,127.70423 56.992727,126.16061 L 56.516894,126.1374 C 51.781487,126.1374 50.818168,127.72744 50.348091,128.9287 C 49.082987,127.89573 47.997792,126.02713 47.997792,123.70585 C 47.997792,122.36531 48.282167,120.86226 50.847184,120.86226 C 53.301893,120.86226 57.039152,121.22788 59.609981,121.68635 C 61.577242,118.91822 65.48862,113.57931 67.316604,109.44166 C 66.579609,109.56347 65.535045,109.66214 63.915938,109.66214 C 63.103498,109.66214 62.221423,109.57508 61.728134,109.3604 C 69.579845,102.55907 76.120014,93.7498 76.120014,83.779949 C 76.120014,82.178289 75.754451,80.576592 75.208924,78.858877 L 74.611224,78.748608 L 54.775911,110.49783 C 48.839244,119.89315 44.179288,119.73065 37.163277,119.73065 C 42.943247,115.29122 46.825549,109.56347 48.636171,106.67931 L 67.252759,76.885757 C 66.248818,76.56662 65.262286,76.212607 64.281548,75.835391 L 47.817893,102.18766 C 41.881274,111.58882 37.215505,111.42052 30.20525,111.42052 C 36.049065,106.94047 39.838516,101.30558 41.683957,98.36334 L 57.683334,72.771319 C 56.766393,72.266423 55.884319,71.744165 55.019654,71.198637 L 41.916046,92.165559 C 35.979427,101.56669 31.325264,101.39843 24.303403,101.39843 C 30.141415,96.918375 33.942519,91.289297 35.787913,88.341251 L 49.228076,66.82885 C 48.438853,66.115077 47.684411,65.372232 46.976441,64.617837 L 37.453398,79.868622 C 31.510976,89.263948 26.856813,89.095646 19.834951,89.095646 C 25.66716,84.621392 29.479824,78.963288 31.325264,76.032699 L 42.386123,58.315598 C 41.80002,57.218806 41.289321,56.092988 40.877276,54.943948 L 35.312033,63.846032 C 29.375404,73.235592 24.715448,73.073094 17.699389,73.073094 C 23.508385,68.622061 27.355868,62.917532 29.183899,60.015912 L 40.035824,42.641208 C 41.092004,37.284842 43.865944,32.276722 48.021014,28.539453 C 46.628231,28.017148 45.467595,27.460061 44.765428,26.931953 C 51.851125,26.931953 58.878743,23.328213 62.732075,23.328213 C 65.227457,23.328213 66.817502,24.807997 66.817502,26.781108 C 66.660863,28.968908 64.403424,31.191527 60.248303,31.191527 C 59.308197,31.191527 58.101135,31.069651 56.778,30.84912 C 54.532167,33.988633 52.709987,36.820615 52.709987,40.871219 C 52.709987,48.47337 61.797772,54.404233 70.978422,54.404233 C 71.489074,54.404233 71.988166,54.375217 72.504622,54.340398 C 74.321046,48.183249 78.191751,44.144205 81.279063,40.192265 C 77.576632,38.845917 73.444784,35.329178 73.444784,33.733284 C 73.914814,33.460572 81.012108,35.688994 81.749093,35.892115 C 81.899985,35.93269 82.050868,35.938494 82.224973,35.892115 C 83.083835,35.630953 83.809223,34.365859 83.809223,34.23818 C 83.049016,34.116313 78.597983,33.536013 75.551331,32.427605 C 73.241663,31.580312 72.06942,30.0483 72.06942,29.467953 C 72.806406,29.346086 75.626772,30.825908 79.764423,30.825908 C 81.29067,30.825908 81.592398,30.762073 83.107047,30.576361 C 82.039262,28.034558 80.037182,25.887389 77.779753,25.887389 C 76.874466,25.887389 74.889739,26.45612 73.230057,27.285966 C 72.075224,25.492801 71.059666,23.130896 71.059666,21.836786 C 71.059666,20.316333 72.562663,18.528971 76.810621,18.528971 C 78.000283,18.528971 79.108692,18.633438 80.141639,18.824943 C 80.971485,18.981591 81.667848,19.167302 82.416487,19.463274 C 82.358456,19.358817 82.323636,19.132483 82.323636,18.923606 C 82.323636,18.337457 82.857501,17.716535 84.853834,17.716535 C 88.347313,17.716535 91.93368,18.865574 96.32669,18.865574 C 97.464114,18.865574 98.235966,18.824943 98.89751,18.546381 C 98.613145,19.422652 97.377057,20.710968 96.245436,21.761335 C 96.941847,22.713057 98.764027,25.016921 98.764027,28.736771 C 98.764027,34.719863 94.817891,39.652541 94.817891,45.699477 C 94.817891,49.285854 97.585981,52.454382 98.415874,54.340398"
     style="fill:#000000;fill-rule:evenodd;stroke:none"
     id="path86" />
</svg>
