<svg xmlns="http://www.w3.org/2000/svg" width="180" height="90" viewBox="0 0 180 90">
  <title>aa_logo</title>
  <g>
    <g>
      <polygon points="43.724 88.192 48.691 88.192 48.691 60.154 43.724 60.154 43.724 88.192" fill="#eccf31"/>
      <polygon points="43.724 60.154 48.691 60.154 48.691 32.018 43.724 32.018 43.724 60.154" fill="#c10120"/>
      <polygon points="43.724 32.117 48.691 32.117 48.691 4.079 43.724 4.079 43.724 32.117"/>
      <path d="M22.017,11.443c.125.008.246.016.372.016,2.213,0,4.412-1.433,4.412-3.27a3.987,3.987,0,0,0-.984-2.421,5.392,5.392,0,0,1-.84.083c-1,0-1.548-.537-1.587-1.065a.878.878,0,0,1,.987-.835c.932,0,2.63.872,4.342.872a3.332,3.332,0,0,1-.787.388,6.209,6.209,0,0,1,1.929,3.407l2.623,4.2a12.115,12.115,0,0,0,2.774,3.154c-1.7,0-2.822.039-4.256-2.229l-1.343-2.15a6.024,6.024,0,0,1-.366.814l2.672,4.28a12.1,12.1,0,0,0,2.776,3.156c-1.7,0-2.819.041-4.255-2.229l-2.3-3.685c-.173.183-.354.362-.545.535l3.248,5.2a12.029,12.029,0,0,0,2.776,3.154c-1.7,0-2.822.041-4.257-2.23l-3.165-5.065c-.21.132-.423.258-.642.38l3.862,6.183a12.023,12.023,0,0,0,2.776,3.154c-1.7,0-2.824.041-4.255-2.23L24,16.638c-.235.091-.475.177-.718.254l4.5,7.2a12.22,12.22,0,0,0,2.773,3.153c-1.695,0-2.821.04-4.253-2.23l-4.792-7.67-.147.026a4.022,4.022,0,0,0-.22,1.189c0,2.409,1.582,4.537,3.479,6.18a1.538,1.538,0,0,1-.528.073,5.132,5.132,0,0,1-.823-.053,19.669,19.669,0,0,0,1.862,2.958,14.022,14.022,0,0,1,2.117-.2c.62,0,.688.363.688.687a1.642,1.642,0,0,1-.568,1.262c-.115-.29-.346-.674-1.49-.674l-.117,0c.337.373,1.382,1.22,1.382,1.9A1.25,1.25,0,0,1,26,31.825a1.318,1.318,0,0,0,.034-.38,2.94,2.94,0,0,0-.9-1.649,2.232,2.232,0,0,1,0,.276c0,1.3-.116,1.905-.946,1.905a1.335,1.335,0,0,1-.784-.289,1.785,1.785,0,0,0,.568-1.618l-.005-.635a3.826,3.826,0,0,1,.026-.548,3.674,3.674,0,0,0-.644-.041s-1.179-.093-1.462.52c-.318-.292-.781-.7-.781-1.165,0-.3.142-.642.746-.642.229,0,.953.142,1.558.142a15.246,15.246,0,0,0-1.51-2.187,1.748,1.748,0,0,1-.573.883,6.2,6.2,0,0,0-1.105-2.964,14.459,14.459,0,0,0-.212,2.58c0,3.244.781,5.64,2.437,6.1a1.412,1.412,0,0,1-1.144.712c-.605,0-.935-.686-1.271-1.332-.175.478-.659,1.646-1.146,1.646s-.969-1.168-1.143-1.646c-.338.646-.667,1.332-1.274,1.332a1.406,1.406,0,0,1-1.141-.712c1.654-.459,2.435-2.854,2.435-6.1a14.582,14.582,0,0,0-.211-2.58A6.191,6.191,0,0,0,16.446,26.4a1.752,1.752,0,0,1-.572-.883A15.442,15.442,0,0,0,14.363,27.7c.607,0,1.328-.142,1.558-.142.606,0,.75.341.75.642,0,.46-.466.874-.784,1.165-.285-.613-1.461-.52-1.461-.52a3.68,3.68,0,0,0-.645.041,3.435,3.435,0,0,1,.027.548l0,.635a1.785,1.785,0,0,0,.566,1.618,1.325,1.325,0,0,1-.783.289c-.829,0-.948-.6-.948-1.905a2.194,2.194,0,0,1,.007-.276,2.934,2.934,0,0,0-.9,1.649,1.381,1.381,0,0,0,.032.38A1.25,1.25,0,0,1,10.631,30.7c0-.683,1.047-1.529,1.381-1.9l-.115,0c-1.144,0-1.377.384-1.49.674A1.636,1.636,0,0,1,9.839,28.2c0-.324.069-.687.688-.687a13.986,13.986,0,0,1,2.117.2,19.912,19.912,0,0,0,1.862-2.958,5.117,5.117,0,0,1-.822.053,1.524,1.524,0,0,1-.528-.073c1.9-1.643,3.477-3.771,3.477-6.18a3.928,3.928,0,0,0-.22-1.189l-.144-.026-4.792,7.67c-1.434,2.27-2.56,2.23-4.254,2.23a12.184,12.184,0,0,0,2.771-3.153l4.5-7.2c-.242-.077-.481-.163-.718-.254L9.8,23c-1.434,2.271-2.562,2.23-4.255,2.23A12.034,12.034,0,0,0,8.314,22.08L12.179,15.9c-.222-.122-.435-.248-.644-.38L8.368,20.581c-1.434,2.271-2.559,2.23-4.255,2.23a11.994,11.994,0,0,0,2.774-3.154l3.247-5.2c-.191-.172-.373-.352-.544-.535L7.29,17.61c-1.436,2.27-2.56,2.229-4.256,2.229a12.09,12.09,0,0,0,2.775-3.156L8.481,12.4a6.269,6.269,0,0,1-.364-.814l-1.344,2.15c-1.435,2.268-2.56,2.229-4.255,2.229a12.151,12.151,0,0,0,2.774-3.154l2.622-4.2A6.209,6.209,0,0,1,9.843,5.21a3.361,3.361,0,0,1-.786-.388c1.711,0,3.409-.871,4.34-.871a.876.876,0,0,1,.987.834C14.346,5.313,13.8,5.85,12.8,5.85a5.261,5.261,0,0,1-.838-.083,4,4,0,0,0-.983,2.422c0,1.836,2.2,3.27,4.414,3.27.123,0,.244-.007.368-.016a10.035,10.035,0,0,1,2.12-3.418c-.895-.325-1.893-1.175-1.893-1.56a15.078,15.078,0,0,1,2.006.521.214.214,0,0,0,.115,0,.783.783,0,0,0,.382-.4,11.64,11.64,0,0,1-2-.438c-.558-.205-.841-.575-.841-.715a9.3,9.3,0,0,0,1.859.329,4.87,4.87,0,0,0,.808-.061c-.258-.614-.742-1.133-1.287-1.133a3.154,3.154,0,0,0-1.1.338,3.114,3.114,0,0,1-.524-1.316c0-.367.363-.8,1.389-.8a4.351,4.351,0,0,1,.805.072,2.9,2.9,0,0,1,.549.154.321.321,0,0,1-.022-.13c0-.142.128-.292.611-.292.844,0,1.71.278,2.771.278a1.608,1.608,0,0,0,.621-.077,2.561,2.561,0,0,1-.641.777A2.7,2.7,0,0,1,22.1,5.259c0,1.445-.953,2.637-.953,4.1a4.994,4.994,0,0,0,.87,2.086ZM19.47,4.555c.787.153,1.324-.852.575-1.032.1.333-.4.566-.4.566s-.192-.444.058-.7c-.458-.223-.574.049-.583.331a1.942,1.942,0,0,1,.349.833Zm-.662,1.551a2.963,2.963,0,0,0,.342-1.172c0-1.213-1.006-1.791-2.352-1.791-.691,0-1.041.223-1.041.447a2.666,2.666,0,0,0,.317.869,2.962,2.962,0,0,1,.958-.241c.925,0,1.615,1.035,1.776,1.888Zm-8.6,2.153a4.189,4.189,0,0,1,1.2-2.6L11.117,5.6A4.676,4.676,0,0,0,9.546,8.813c0,2.8,2.813,5.393,6.015,5.414a8.487,8.487,0,0,1-.054-.972c0-.216.008-.427.028-.625-2.829,0-5.326-2.033-5.326-4.371Zm5.568,16.913c-.093-.34-.182-.588-.537-.588a.91.91,0,0,0-.375.072,19.22,19.22,0,0,1-2.093,3.369,15.089,15.089,0,0,0-2.246-.216c-.17,0-.4-.015-.4.391a1.508,1.508,0,0,0,.231.781,1.938,1.938,0,0,1,1.541-.488,3.112,3.112,0,0,1,.7.121c-.861.874-1.672,1.6-1.672,2.082a1.039,1.039,0,0,0,.516.748A3.571,3.571,0,0,1,12.9,29.193c0,.1.034.472.034.879,0,1.346.133,1.611.651,1.611a.827.827,0,0,0,.316-.07,2.173,2.173,0,0,1-.4-1.542c0-.23.01-.447.01-.635a5.194,5.194,0,0,0-.069-.8,8.088,8.088,0,0,1,.979-.091,1.917,1.917,0,0,1,1.461.385,1.2,1.2,0,0,0,.482-.728c0-.324-.217-.346-.448-.346a16.472,16.472,0,0,1-2,.142,11.2,11.2,0,0,1,1.857-2.826ZM23.858,28a16.527,16.527,0,0,1-2-.142c-.229,0-.446.022-.446.346a1.191,1.191,0,0,0,.481.728,1.913,1.913,0,0,1,1.462-.385,8.21,8.21,0,0,1,.979.091,5.115,5.115,0,0,0-.067.8c0,.188.007.405.007.635a2.172,2.172,0,0,1-.4,1.542.814.814,0,0,0,.317.07c.519,0,.651-.265.651-1.611,0-.407.033-.782.033-.879a3.569,3.569,0,0,1,1.462,2.251,1.034,1.034,0,0,0,.514-.748c0-.485-.812-1.208-1.672-2.082a3.2,3.2,0,0,1,.7-.121,1.941,1.941,0,0,1,1.542.488,1.526,1.526,0,0,0,.23-.781c0-.406-.233-.391-.4-.391A15.169,15.169,0,0,0,25,28.022a19.184,19.184,0,0,1-2.089-3.369.947.947,0,0,0-.377-.072c-.354,0-.447.248-.54.588A11.374,11.374,0,0,1,23.858,28ZM28.23,8.813A4.7,4.7,0,0,0,26.66,5.6l-.294.067a4.18,4.18,0,0,1,1.2,2.6c0,2.316-2.45,4.33-5.243,4.368.021.238.02.447.02.628a7.882,7.882,0,0,1-.06.97c3.17-.057,5.945-2.635,5.945-5.412Z"/>
    </g>
    <g>
      <path d="M67.95,17.867l-1.215-3.536H62.782l-1.215,3.536H60.142L64.27,6.827h1.1L69.5,17.867ZM64.8,8.651h-.032l-1.615,4.624h3.231Z"/>
      <path d="M76.782,17.867h-1.2V17H75.55c-.064.075-.151.171-.264.288a2.158,2.158,0,0,1-.447.344,3.15,3.15,0,0,1-1.657.424,2.233,2.233,0,0,1-1.823-.752,3.68,3.68,0,0,1-.624-2.368V10.187h1.3v4.544a3.021,3.021,0,0,0,.352,1.664,1.282,1.282,0,0,0,1.136.512,2.678,2.678,0,0,0,.728-.088,2.538,2.538,0,0,0,.544-.216,2.727,2.727,0,0,0,.408-.272,3.629,3.629,0,0,0,.288-.256V10.187h1.3Z"/>
      <path d="M82.959,11.787c-.064-.053-.15-.12-.257-.2a2.21,2.21,0,0,0-.376-.224,2.806,2.806,0,0,0-.48-.176,2.208,2.208,0,0,0-.584-.072,1.517,1.517,0,0,0-.927.232.691.691,0,0,0-.3.568.925.925,0,0,0,.281.72,4.4,4.4,0,0,0,.887.576l.577.288a4.6,4.6,0,0,1,1.383,1,2.016,2.016,0,0,1,.473,1.384,2.147,2.147,0,0,1-.168.832,1.916,1.916,0,0,1-.5.7,2.506,2.506,0,0,1-.849.472,3.754,3.754,0,0,1-1.215.176,4.033,4.033,0,0,1-.848-.08,3.164,3.164,0,0,1-.648-.208,2.87,2.87,0,0,1-.48-.272c-.134-.1-.243-.181-.329-.256l.48-1.136a3.944,3.944,0,0,0,.688.528,2.115,2.115,0,0,0,1.137.272,2,2,0,0,0,1.1-.248.725.725,0,0,0,.367-.616,1.163,1.163,0,0,0-.088-.472,1.2,1.2,0,0,0-.255-.368,1.966,1.966,0,0,0-.425-.312c-.17-.1-.363-.2-.575-.32l-.56-.3a3.9,3.9,0,0,1-1.241-.968,2.071,2.071,0,0,1-.407-1.32A1.71,1.71,0,0,1,79,11.187a1.91,1.91,0,0,1,.511-.624,2.507,2.507,0,0,1,.785-.416,3.15,3.15,0,0,1,1-.152,3.567,3.567,0,0,1,.808.08,3.065,3.065,0,0,1,.6.2,2.34,2.34,0,0,1,.425.248c.111.085.2.155.263.208Z"/>
      <path d="M92.735,17.867H91.678L90.142,13.6H90.11l-1.664,4.272H87.359l-2.769-7.68h1.376L87.95,16.2h.033L89.6,12.091l-.688-1.9h1.376L92.27,16.2H92.3l1.968-6.016H95.5Z"/>
      <path d="M96.478,15.867a1.875,1.875,0,0,1,.272-1.024,2.091,2.091,0,0,1,.744-.7,3.8,3.8,0,0,1,1.112-.408A6.666,6.666,0,0,1,100,13.6h.64V13a2.12,2.12,0,0,0-.384-1.432,1.458,1.458,0,0,0-1.136-.424,2.5,2.5,0,0,0-1.176.248,4.493,4.493,0,0,0-.728.456l-.48-.96q.144-.112.376-.264a3.962,3.962,0,0,1,1.288-.536,4.292,4.292,0,0,1,.96-.1,2.435,2.435,0,0,1,1.919.736A3.338,3.338,0,0,1,101.934,13v3.264c0,.33.01.654.031.968a5.918,5.918,0,0,0,.065.632h-1.248l-.048-.848H100.7a2.019,2.019,0,0,1-.272.344,1.975,1.975,0,0,1-.44.336,2.817,2.817,0,0,1-.616.256,2.9,2.9,0,0,1-.816.1,1.966,1.966,0,0,1-1.52-.608A2.243,2.243,0,0,1,96.478,15.867Zm2.24-7.888a.785.785,0,0,1-.233.592.792.792,0,0,1-1.1,0,.874.874,0,0,1,0-1.184.792.792,0,0,1,1.1,0A.786.786,0,0,1,98.718,7.979Zm.128,8.976a2.5,2.5,0,0,0,.672-.08,2.576,2.576,0,0,0,.5-.192,1.551,1.551,0,0,0,.359-.248c.1-.09.182-.173.257-.248V14.523l-.737.032a3.777,3.777,0,0,0-1.615.336.957.957,0,0,0-.512.9,1.118,1.118,0,0,0,.328.864A1.066,1.066,0,0,0,98.846,16.955Zm2.592-8.976a.788.788,0,0,1-.232.592.792.792,0,0,1-1.1,0,.871.871,0,0,1,0-1.184.792.792,0,0,1,1.1,0A.789.789,0,0,1,101.438,7.979Z"/>
      <path d="M108.03,11.339l-.232-.088a1.479,1.479,0,0,0-.472-.056,2.029,2.029,0,0,0-.68.1,1.957,1.957,0,0,0-.512.264,1.747,1.747,0,0,0-.36.352,2,2,0,0,0-.224.368v5.584h-1.3v-7.68l1.2-.016v1.152h.032a3.6,3.6,0,0,1,.24-.432,1.821,1.821,0,0,1,.376-.416,1.873,1.873,0,0,1,.56-.312,2.26,2.26,0,0,1,.776-.12,2.119,2.119,0,0,1,.4.032,2.7,2.7,0,0,1,.3.08Z"/>
      <path d="M113.261,11.291h-1.984v3.968a2.353,2.353,0,0,0,.256,1.28,1.014,1.014,0,0,0,.9.368,1.615,1.615,0,0,0,.545-.08,3.349,3.349,0,0,0,.351-.144l.129,1.04a2.981,2.981,0,0,1-.432.2,2.62,2.62,0,0,1-.944.136,1.878,1.878,0,0,1-1.616-.648,3.32,3.32,0,0,1-.48-1.976V11.291h-1.057v-.912l1.057-.192.144-2.144h1.151v2.144h2.145Z"/>
      <path d="M116.606,7.419a.856.856,0,0,1-.272.664.938.938,0,0,1-.657.248.911.911,0,0,1-.648-.248.871.871,0,0,1-.263-.664.888.888,0,0,1,.911-.928.928.928,0,0,1,.657.256A.881.881,0,0,1,116.606,7.419Zm-.288,10.448h-1.3v-7.68h1.3Z"/>
      <path d="M124.942,11.2h-1.168a2.477,2.477,0,0,1,.319.656,2.4,2.4,0,0,1,.113.736,2.476,2.476,0,0,1-.232,1.088,2.441,2.441,0,0,1-.633.816,2.761,2.761,0,0,1-.951.512,3.888,3.888,0,0,1-1.193.176,4.3,4.3,0,0,1-.639-.048,1.79,1.79,0,0,0-.416.256.594.594,0,0,0-.224.5.477.477,0,0,0,.192.392,1,1,0,0,0,.624.152H122.3a3.059,3.059,0,0,1,1.881.5,1.8,1.8,0,0,1,.664,1.528,2.285,2.285,0,0,1-.257,1.048,2.627,2.627,0,0,1-.768.9,4,4,0,0,1-1.272.624,6.087,6.087,0,0,1-1.768.232,3.712,3.712,0,0,1-2.128-.52,1.772,1.772,0,0,1-.752-1.56,1.818,1.818,0,0,1,.145-.752,1.986,1.986,0,0,1,.352-.544,1.944,1.944,0,0,1,.44-.36q.231-.137.408-.232v-.032a1.074,1.074,0,0,1-.368-.48,1.653,1.653,0,0,1-.112-.608,1.167,1.167,0,0,1,.112-.528,1.417,1.417,0,0,1,.264-.376,1.787,1.787,0,0,1,.3-.248,1.731,1.731,0,0,1,.232-.128v-.032a2.258,2.258,0,0,1-.943-.848,2.63,2.63,0,0,1-.353-1.424,2.656,2.656,0,0,1,.225-1.136,2.269,2.269,0,0,1,.624-.808,2.68,2.68,0,0,1,.927-.488,3.925,3.925,0,0,1,1.137-.16,3.341,3.341,0,0,1,1.151.192H125.1Zm-4.992,6.368a1.954,1.954,0,0,0-.552.488,1.365,1.365,0,0,0-.248.872,1.051,1.051,0,0,0,.432.944,2.354,2.354,0,0,0,1.3.288,4.981,4.981,0,0,0,1.208-.128,2.889,2.889,0,0,0,.832-.336,1.383,1.383,0,0,0,.48-.48,1.138,1.138,0,0,0,.151-.56.948.948,0,0,0-.3-.792,1.559,1.559,0,0,0-.953-.232h-1.7A2.806,2.806,0,0,1,119.95,17.563Zm2.992-4.976a1.649,1.649,0,0,0-.136-.7,1.342,1.342,0,0,0-.361-.472,1.384,1.384,0,0,0-.52-.264,2.357,2.357,0,0,0-.615-.08,2.439,2.439,0,0,0-.633.08,1.461,1.461,0,0,0-.527.264,1.3,1.3,0,0,0-.369.472,1.9,1.9,0,0,0,0,1.408,1.342,1.342,0,0,0,.361.472,1.37,1.37,0,0,0,.52.264,2.316,2.316,0,0,0,.615.08,2.392,2.392,0,0,0,.633-.08,1.458,1.458,0,0,0,.528-.264,1.313,1.313,0,0,0,.368-.472A1.652,1.652,0,0,0,122.942,12.587Z"/>
      <path d="M132.189,13a5.83,5.83,0,0,1-.04.7,5.606,5.606,0,0,1-.1.592h-4.464a3.067,3.067,0,0,0,.68,1.976,2.175,2.175,0,0,0,1.656.632,3.174,3.174,0,0,0,.8-.088,3.636,3.636,0,0,0,.584-.2,1.7,1.7,0,0,0,.4-.24c.1-.085.179-.15.232-.192l.384.928c-.064.064-.155.149-.272.256a2.155,2.155,0,0,1-.48.312,3.731,3.731,0,0,1-.744.264,4.33,4.33,0,0,1-1.048.112,3.336,3.336,0,0,1-2.56-.992,4.478,4.478,0,0,1-.928-3.136,5.109,5.109,0,0,1,.272-1.752,3.424,3.424,0,0,1,.736-1.224,3.032,3.032,0,0,1,1.064-.72,3.348,3.348,0,0,1,1.256-.24,2.4,2.4,0,0,1,1.888.776A3.259,3.259,0,0,1,132.189,13ZM129.5,11.1a1.707,1.707,0,0,0-1.328.568,2.66,2.66,0,0,0-.592,1.624h3.36a1.246,1.246,0,0,0,.032-.264v-.248a1.8,1.8,0,0,0-.392-1.248A1.385,1.385,0,0,0,129.5,11.1Z"/>
      <path d="M138.046,11.787c-.064-.053-.15-.12-.257-.2a2.21,2.21,0,0,0-.376-.224,2.806,2.806,0,0,0-.48-.176,2.213,2.213,0,0,0-.584-.072,1.517,1.517,0,0,0-.927.232.691.691,0,0,0-.305.568.925.925,0,0,0,.281.72,4.4,4.4,0,0,0,.887.576l.576.288a4.588,4.588,0,0,1,1.384,1,2.015,2.015,0,0,1,.472,1.384,2.129,2.129,0,0,1-.168.832,1.9,1.9,0,0,1-.5.7,2.516,2.516,0,0,1-.849.472,3.754,3.754,0,0,1-1.215.176,4.049,4.049,0,0,1-.849-.08,3.2,3.2,0,0,1-.648-.208,2.858,2.858,0,0,1-.479-.272c-.134-.1-.243-.181-.329-.256l.48-1.136a3.944,3.944,0,0,0,.688.528,2.112,2.112,0,0,0,1.137.272,2,2,0,0,0,1.1-.248.725.725,0,0,0,.367-.616,1.163,1.163,0,0,0-.088-.472,1.2,1.2,0,0,0-.255-.368,1.966,1.966,0,0,0-.425-.312c-.17-.1-.363-.2-.575-.32l-.561-.3a3.91,3.91,0,0,1-1.24-.968,2.071,2.071,0,0,1-.408-1.32,1.711,1.711,0,0,1,.185-.792,1.91,1.91,0,0,1,.511-.624,2.513,2.513,0,0,1,.784-.416,3.159,3.159,0,0,1,1-.152,3.57,3.57,0,0,1,.809.08,3.065,3.065,0,0,1,.6.2,2.34,2.34,0,0,1,.425.248c.111.085.2.155.263.208Z"/>
      <path d="M150.541,17.867l-1.216-3.536h-3.952l-1.216,3.536h-1.424l4.128-11.04h1.1l4.128,11.04Zm-3.152-9.216h-.032l-1.616,4.624h3.232Z"/>
      <path d="M158.125,17.867V13.323a3.206,3.206,0,0,0-.328-1.664,1.153,1.153,0,0,0-1.048-.512,2.831,2.831,0,0,0-.728.088,2.719,2.719,0,0,0-.568.216,2.294,2.294,0,0,0-.408.272c-.112.1-.206.181-.28.256v5.888h-1.3v-7.68h1.2v.864h.032q.128-.128.328-.312a2.779,2.779,0,0,1,.488-.352,2.965,2.965,0,0,1,.672-.28,3.072,3.072,0,0,1,.864-.112,2.39,2.39,0,0,1,1.176.28,1.936,1.936,0,0,1,.792.856,4.074,4.074,0,0,1,.376-.36,3.133,3.133,0,0,1,.536-.368,3.6,3.6,0,0,1,.7-.288,2.852,2.852,0,0,1,.84-.12,2.436,2.436,0,0,1,1.936.768,3.5,3.5,0,0,1,.672,2.352v4.752h-1.3V13.323a2.648,2.648,0,0,0-.416-1.664,1.458,1.458,0,0,0-1.2-.512,2.063,2.063,0,0,0-1.144.3,5.136,5.136,0,0,0-.712.536,4.962,4.962,0,0,1,.112,1.136v4.752Z"/>
      <path d="M170,11.291h-1.984v3.968a2.344,2.344,0,0,0,.256,1.28,1.013,1.013,0,0,0,.9.368,1.613,1.613,0,0,0,.544-.08,3.475,3.475,0,0,0,.352-.144l.128,1.04a2.981,2.981,0,0,1-.432.2,2.616,2.616,0,0,1-.944.136,1.88,1.88,0,0,1-1.616-.648,3.32,3.32,0,0,1-.48-1.976V11.291h-1.056v-.912l1.056-.192.144-2.144h1.152v2.144h2.144Z"/>
    </g>
  </g>
</svg>
