<svg xmlns="http://www.w3.org/2000/svg" width="294" height="71.482" viewBox="0 0 294 71.482">
  <title>av_logo_zeit</title>
  <g>
    <g>
      <path d="M4.874,47.616a39.733,39.733,0,0,1,5.92-.449c4,0,6.847.929,8.735,2.688a9.934,9.934,0,0,1,3.04,7.744,11.4,11.4,0,0,1-3.1,8.383c-2.016,2.016-5.343,3.1-9.535,3.1a44.936,44.936,0,0,1-5.056-.256Zm2.784,19.07a17.58,17.58,0,0,0,2.816.16c5.951,0,9.183-3.328,9.183-9.151.032-5.088-2.847-8.32-8.735-8.32a15.819,15.819,0,0,0-3.264.288Z"/>
      <path d="M27.786,61.663c.064,3.807,2.495,5.375,5.311,5.375a10.183,10.183,0,0,0,4.288-.8l.48,2.016a12.545,12.545,0,0,1-5.152.96c-4.768,0-7.615-3.136-7.615-7.807s2.752-8.352,7.263-8.352c5.056,0,6.4,4.448,6.4,7.3a10.638,10.638,0,0,1-.1,1.312Zm8.255-2.017c.032-1.791-.736-4.575-3.9-4.575-2.847,0-4.095,2.624-4.32,4.575Z"/>
      <path d="M55.208,64.67c0,1.6.032,3.008.128,4.224H52.841l-.16-2.528h-.064a5.827,5.827,0,0,1-5.12,2.88c-2.432,0-5.344-1.344-5.344-6.784V53.407h2.816v8.575c0,2.944.9,4.928,3.456,4.928a4.072,4.072,0,0,0,3.712-2.559,4.127,4.127,0,0,0,.256-1.44v-9.5h2.815Z"/>
      <path d="M63.273,48.959v4.448h4.032v2.144H63.273V63.9c0,1.92.544,3.008,2.112,3.008a6.264,6.264,0,0,0,1.632-.192l.128,2.112a6.893,6.893,0,0,1-2.5.384,3.9,3.9,0,0,1-3.04-1.184c-.8-.832-1.088-2.208-1.088-4.032V55.551h-2.4V53.407h2.4V49.7Z"/>
      <path d="M70.089,66.014a7.38,7.38,0,0,0,3.712,1.12c2.048,0,3.008-1.024,3.008-2.3,0-1.344-.8-2.08-2.88-2.848-2.784-.991-4.1-2.527-4.1-4.383,0-2.5,2.016-4.544,5.344-4.544a7.723,7.723,0,0,1,3.807.96l-.7,2.048a6.024,6.024,0,0,0-3.167-.9c-1.664,0-2.592.96-2.592,2.112,0,1.28.928,1.856,2.944,2.624,2.687,1.024,4.063,2.367,4.063,4.671,0,2.72-2.111,4.64-5.791,4.64a8.833,8.833,0,0,1-4.352-1.056Z"/>
      <path d="M94.184,68.318a10.372,10.372,0,0,1-4.448.9c-4.671,0-7.711-3.168-7.711-7.9,0-4.767,3.264-8.223,8.319-8.223a9.413,9.413,0,0,1,3.9.8l-.64,2.176a6.53,6.53,0,0,0-3.264-.736c-3.552,0-5.471,2.624-5.471,5.856,0,3.583,2.3,5.791,5.376,5.791a8,8,0,0,0,3.455-.768Z"/>
      <path d="M97.481,46.176H100.3v9.663h.064a5.23,5.23,0,0,1,2.015-1.984,5.8,5.8,0,0,1,2.88-.8c2.08,0,5.408,1.28,5.408,6.624v9.215h-2.816V60c0-2.495-.928-4.607-3.584-4.607a4.044,4.044,0,0,0-3.775,2.816,3.409,3.409,0,0,0-.192,1.344v9.343H97.481Z"/>
      <path d="M116.809,61.663c.064,3.807,2.5,5.375,5.311,5.375a10.183,10.183,0,0,0,4.288-.8l.48,2.016a12.545,12.545,0,0,1-5.152.96c-4.768,0-7.615-3.136-7.615-7.807s2.752-8.352,7.263-8.352c5.056,0,6.4,4.448,6.4,7.3a10.638,10.638,0,0,1-.1,1.312Zm8.255-2.017c.032-1.791-.736-4.575-3.9-4.575-2.847,0-4.1,2.624-4.32,4.575Z"/>
      <path d="M138.152,47.328h2.784v10.4h.1c.576-.832,1.152-1.6,1.7-2.3l6.591-8.095h3.456l-7.807,9.151,8.415,12.415h-3.3l-7.1-10.591-2.048,2.367v8.224h-2.784Z"/>
      <path d="M169.415,61.022c0,5.728-3.968,8.224-7.712,8.224-4.191,0-7.423-3.072-7.423-7.967,0-5.184,3.391-8.224,7.679-8.224C166.407,53.055,169.415,56.287,169.415,61.022Zm-12.288.161c0,3.391,1.953,5.951,4.7,5.951,2.687,0,4.7-2.528,4.7-6.015,0-2.624-1.312-5.952-4.639-5.952S157.127,58.239,157.127,61.183Z"/>
      <path d="M172.968,46.176h2.816V68.894h-2.816Z"/>
      <path d="M194.534,61.022c0,5.728-3.967,8.224-7.711,8.224-4.192,0-7.424-3.072-7.424-7.967,0-5.184,3.393-8.224,7.68-8.224C191.527,53.055,194.534,56.287,194.534,61.022Zm-12.287.161c0,3.391,1.952,5.951,4.7,5.951,2.688,0,4.7-2.528,4.7-6.015,0-2.624-1.312-5.952-4.64-5.952S182.247,58.239,182.247,61.183Z"/>
      <path d="M198.087,57.6c0-1.6-.032-2.912-.128-4.192h2.5l.16,2.56h.064a5.7,5.7,0,0,1,5.12-2.912c2.143,0,5.472,1.28,5.472,6.591v9.248h-2.816V59.967c0-2.5-.928-4.576-3.584-4.576a4.129,4.129,0,0,0-3.968,4.191v9.312h-2.816Z"/>
      <path d="M218.983,49.056a1.744,1.744,0,0,1-3.488,0,1.716,1.716,0,0,1,1.76-1.761A1.672,1.672,0,0,1,218.983,49.056Zm-3.136,19.838V53.407h2.816V68.894Z"/>
      <path d="M231.91,68.894l-.224-1.952h-.1a5.767,5.767,0,0,1-4.736,2.3,4.412,4.412,0,0,1-4.735-4.448c0-3.743,3.328-5.791,9.311-5.76v-.319c0-1.28-.352-3.584-3.519-3.584a7.717,7.717,0,0,0-4.032,1.152l-.64-1.856a9.612,9.612,0,0,1,5.088-1.376c4.735,0,5.887,3.232,5.887,6.336v5.791a21.807,21.807,0,0,0,.256,3.712Zm-.416-7.9c-3.072-.064-6.559.48-6.559,3.487a2.492,2.492,0,0,0,2.655,2.688,3.853,3.853,0,0,0,3.744-2.592,2.939,2.939,0,0,0,.16-.9Z"/>
      <path d="M238.759,46.176h2.816V68.894h-2.816Z"/>
      <path d="M244.551,67.262l7.007-9.119c.672-.832,1.312-1.568,2.016-2.4v-.064H245.19V53.407H257l-.032,1.76-6.912,8.991c-.64.864-1.28,1.632-1.984,2.432v.064h9.055v2.24H244.551Z"/>
      <path d="M261.351,61.663c.064,3.807,2.5,5.375,5.311,5.375a10.183,10.183,0,0,0,4.288-.8l.48,2.016a12.545,12.545,0,0,1-5.152.96c-4.768,0-7.615-3.136-7.615-7.807s2.752-8.352,7.263-8.352c5.056,0,6.4,4.448,6.4,7.3a10.4,10.4,0,0,1-.1,1.312Zm8.255-2.017c.032-1.791-.736-4.575-3.9-4.575-2.848,0-4.1,2.624-4.32,4.575Z"/>
      <path d="M278.95,49.056a1.744,1.744,0,0,1-3.488,0,1.716,1.716,0,0,1,1.76-1.761A1.672,1.672,0,0,1,278.95,49.056Zm-3.136,19.838V53.407h2.816V68.894Z"/>
      <path d="M286.694,48.959v4.448h4.032v2.144h-4.032V63.9c0,1.92.544,3.008,2.112,3.008a6.27,6.27,0,0,0,1.632-.192l.127,2.112a6.887,6.887,0,0,1-2.5.384,3.9,3.9,0,0,1-3.04-1.184c-.8-.832-1.088-2.208-1.088-4.032V55.551h-2.4V53.407h2.4V49.7Z"/>
    </g>
    <g>
      <path d="M13.58,29.317l-2.352,8.476H3.487L13.58,4.769h9.8l10.24,33.024H25.584l-2.548-8.476Zm8.378-5.586L19.9,16.724c-.587-1.96-1.175-4.409-1.666-6.369h-.1c-.491,1.96-.98,4.459-1.519,6.369l-1.96,7.007Z"/>
      <path d="M38.57,21.722c0-3.528-.1-5.831-.2-7.888h6.418l.245,4.409h.2A7.035,7.035,0,0,1,51.7,13.3a7.676,7.676,0,0,1,1.568.1V20.4a10.677,10.677,0,0,0-2.009-.2c-2.743,0-4.6,1.47-5.095,3.773a8.783,8.783,0,0,0-.147,1.666V37.793H38.57Z"/>
      <path d="M75.857,37.205a18.158,18.158,0,0,1-6.663,1.078c-7.741,0-12.69-4.7-12.69-12.249,0-7.007,4.8-12.739,13.719-12.739a17.271,17.271,0,0,1,5.683.931L74.73,19.762a10.181,10.181,0,0,0-4.164-.735c-3.92,0-6.467,2.793-6.419,6.713,0,4.409,2.94,6.712,6.566,6.712a11.49,11.49,0,0,0,4.263-.735Z"/>
      <path d="M81.052,3.006H88.5v13.67h.1a8.925,8.925,0,0,1,2.94-2.45,8.357,8.357,0,0,1,3.87-.931c4.753,0,8.378,3.282,8.378,10.485V37.793H96.339V24.613c0-3.136-1.078-5.292-3.871-5.292a3.961,3.961,0,0,0-3.723,2.6,4.739,4.739,0,0,0-.245,1.666V37.793H81.052Z"/>
      <path d="M118.537,7.17a3.74,3.74,0,0,1-4.018,3.724,3.642,3.642,0,0,1-3.871-3.724,3.64,3.64,0,0,1,3.92-3.772A3.735,3.735,0,0,1,118.537,7.17Zm-7.693,30.623V13.834h7.448V37.793Z"/>
      <path d="M130.884,13.834l3.234,11.122a55.368,55.368,0,0,1,1.372,5.83h.147c.392-1.96.784-3.773,1.322-5.83l3.087-11.122h7.84l-8.917,23.959h-7.448L122.8,13.834Z"/>
      <path d="M153.229,37.793V19.321h-3.136V13.834h3.136V12.9c0-2.891.881-6.076,3.037-8.036a9.71,9.71,0,0,1,6.615-2.4,14.3,14.3,0,0,1,3.968.49l-.294,5.732a8.056,8.056,0,0,0-2.4-.343c-2.449,0-3.478,1.911-3.478,4.263v1.225h4.8v5.487h-4.753V37.793Z"/>
      <path d="M192.769,30.1c0,3.136.1,5.684.2,7.693H186.5l-.343-3.381h-.147a8.547,8.547,0,0,1-7.5,3.92c-4.85,0-8.427-3.038-8.427-10.436V13.834h7.5V26.72c0,3.479,1.127,5.585,3.723,5.585a4.007,4.007,0,0,0,3.724-2.6,4.158,4.158,0,0,0,.245-1.616V13.834h7.5ZM173.024,7.072a3.441,3.441,0,0,1,3.528-3.478,3.339,3.339,0,0,1,3.331,3.478,3.357,3.357,0,0,1-3.331,3.43A3.462,3.462,0,0,1,173.024,7.072Zm10.338,0a3.4,3.4,0,0,1,3.479-3.478,3.35,3.35,0,0,1,3.381,3.478,3.367,3.367,0,0,1-3.381,3.43A3.42,3.42,0,0,1,183.362,7.072Z"/>
      <path d="M199.827,3.006h7.447v13.67h.1a8.945,8.945,0,0,1,2.94-2.45,8.364,8.364,0,0,1,3.871-.931c4.752,0,8.378,3.282,8.378,10.485V37.793h-7.448V24.613c0-3.136-1.077-5.292-3.87-5.292a3.962,3.962,0,0,0-3.724,2.6,4.739,4.739,0,0,0-.245,1.666V37.793h-7.447Z"/>
      <path d="M229.619,21.722c0-3.528-.1-5.831-.2-7.888h6.418l.245,4.409h.2A7.037,7.037,0,0,1,242.75,13.3a7.666,7.666,0,0,1,1.567.1V20.4a10.665,10.665,0,0,0-2.008-.2c-2.744,0-4.606,1.47-5.1,3.773a8.783,8.783,0,0,0-.147,1.666V37.793h-7.447Z"/>
      <path d="M254.657,28.19c.245,3.086,3.282,4.556,6.761,4.556a21.1,21.1,0,0,0,6.615-.98l.98,5.047a23.652,23.652,0,0,1-8.673,1.47c-8.133,0-12.788-4.7-12.788-12.2,0-6.076,3.773-12.788,12.1-12.788,7.742,0,10.681,6.026,10.681,11.955a17.693,17.693,0,0,1-.245,2.94Zm8.77-5.1c0-1.813-.784-4.851-4.214-4.851-3.135,0-4.409,2.842-4.605,4.851Z"/>
      <path d="M275.875,21.722c0-3.528-.1-5.831-.2-7.888H282.1l.245,4.409h.2a7.037,7.037,0,0,1,6.467-4.948,7.676,7.676,0,0,1,1.568.1V20.4a10.677,10.677,0,0,0-2.009-.2c-2.743,0-4.605,1.47-5.1,3.773a8.783,8.783,0,0,0-.147,1.666V37.793h-7.447Z"/>
    </g>
  </g>
</svg>
