<svg xmlns="http://www.w3.org/2000/svg" width="293.698" height="70.187" viewBox="0 0 293.698 70.187">
  <title>av_logo</title>
  <g>
    <g>
      <path d="M4.442,47.2a30.068,30.068,0,0,1,4.441-.335c3,0,5.136.7,6.552,2.016a7.451,7.451,0,0,1,2.28,5.808,8.558,8.558,0,0,1-2.328,6.289c-1.512,1.512-4.008,2.328-7.152,2.328a33.734,33.734,0,0,1-3.793-.192ZM6.53,61.507a13.206,13.206,0,0,0,2.113.12c4.464,0,6.888-2.5,6.888-6.865.024-3.816-2.136-6.24-6.552-6.24a11.8,11.8,0,0,0-2.449.216Z"/>
      <path d="M21.626,57.739a3.721,3.721,0,0,0,3.984,4.032,7.639,7.639,0,0,0,3.217-.6l.36,1.512a9.418,9.418,0,0,1-3.865.72c-3.576,0-5.712-2.352-5.712-5.857s2.064-6.264,5.448-6.264c3.793,0,4.8,3.336,4.8,5.472a8,8,0,0,1-.072.985Zm6.192-1.513c.025-1.344-.551-3.432-2.928-3.432-2.136,0-3.072,1.968-3.24,3.432Z"/>
      <path d="M42.2,59.994c0,1.2.024,2.257.1,3.169H40.418l-.12-1.9H40.25a4.37,4.37,0,0,1-3.84,2.16c-1.824,0-4.008-1.008-4.008-5.088V51.546h2.112v6.432c0,2.209.672,3.7,2.592,3.7a3.056,3.056,0,0,0,2.785-1.92,3.116,3.116,0,0,0,.192-1.08V51.546H42.2Z"/>
      <path d="M48.242,48.21v3.336h3.024v1.608H48.242v6.265c0,1.44.408,2.256,1.584,2.256a4.7,4.7,0,0,0,1.224-.144l.1,1.584a5.17,5.17,0,0,1-1.872.288,2.927,2.927,0,0,1-2.28-.888,4.3,4.3,0,0,1-.816-3.024V53.154h-1.8V51.546h1.8V48.762Z"/>
      <path d="M53.354,61a5.535,5.535,0,0,0,2.784.84c1.536,0,2.256-.768,2.256-1.728,0-1.008-.6-1.561-2.161-2.137-2.087-.744-3.072-1.9-3.072-3.288,0-1.872,1.512-3.408,4.008-3.408a5.8,5.8,0,0,1,2.857.72L59.5,53.538a4.521,4.521,0,0,0-2.376-.672c-1.248,0-1.945.72-1.945,1.584,0,.96.7,1.392,2.209,1.968,2.016.768,3.048,1.777,3.048,3.505,0,2.04-1.584,3.48-4.345,3.48a6.624,6.624,0,0,1-3.264-.792Z"/>
      <path d="M71.426,62.731a7.779,7.779,0,0,1-3.336.672c-3.505,0-5.785-2.376-5.785-5.929a5.9,5.9,0,0,1,6.241-6.168,7.06,7.06,0,0,1,2.928.6l-.48,1.632a4.9,4.9,0,0,0-2.448-.552c-2.665,0-4.105,1.968-4.105,4.392,0,2.689,1.728,4.345,4.033,4.345a6,6,0,0,0,2.592-.576Z"/>
      <path d="M73.9,46.121h2.112V53.37h.048a3.926,3.926,0,0,1,1.512-1.488,4.35,4.35,0,0,1,2.16-.6c1.561,0,4.057.96,4.057,4.968v6.913H81.674V56.491c0-1.873-.7-3.457-2.688-3.457a3.037,3.037,0,0,0-2.833,2.112,2.557,2.557,0,0,0-.144,1.008v7.009H73.9Z"/>
      <path d="M88.393,57.739a3.721,3.721,0,0,0,3.984,4.032,7.639,7.639,0,0,0,3.217-.6l.36,1.512a9.414,9.414,0,0,1-3.865.72c-3.576,0-5.712-2.352-5.712-5.857s2.064-6.264,5.448-6.264c3.793,0,4.8,3.336,4.8,5.472a8,8,0,0,1-.072.985Zm6.192-1.513c.025-1.344-.551-3.432-2.928-3.432-2.136,0-3.072,1.968-3.24,3.432Z"/>
      <path d="M104.4,46.986h2.088v7.8h.072c.432-.624.864-1.2,1.272-1.728l4.944-6.072h2.593l-5.857,6.864,6.313,9.313h-2.472l-5.329-7.945-1.536,1.776v6.169H104.4Z"/>
      <path d="M127.85,57.259c0,4.3-2.977,6.168-5.785,6.168-3.144,0-5.568-2.3-5.568-5.977,0-3.888,2.544-6.168,5.76-6.168C125.593,51.282,127.85,53.706,127.85,57.259Zm-9.217.119c0,2.545,1.464,4.465,3.528,4.465,2.016,0,3.528-1.9,3.528-4.513,0-1.968-.984-4.464-3.48-4.464S118.633,55.17,118.633,57.378Z"/>
      <path d="M130.512,46.121h2.113V63.163h-2.113Z"/>
      <path d="M146.689,57.259c0,4.3-2.977,6.168-5.785,6.168-3.144,0-5.568-2.3-5.568-5.977,0-3.888,2.544-6.168,5.76-6.168C144.433,51.282,146.689,53.706,146.689,57.259Zm-9.217.119c0,2.545,1.464,4.465,3.528,4.465,2.017,0,3.529-1.9,3.529-4.513,0-1.968-.985-4.464-3.481-4.464S137.472,55.17,137.472,57.378Z"/>
      <path d="M149.352,54.69c0-1.2-.024-2.184-.1-3.144h1.872l.121,1.92h.047a4.274,4.274,0,0,1,3.841-2.184c1.608,0,4.1.96,4.1,4.944v6.937h-2.112v-6.7c0-1.872-.7-3.432-2.688-3.432a3,3,0,0,0-2.833,2.16,3.039,3.039,0,0,0-.144.985v6.984h-2.112Z"/>
      <path d="M165.024,48.282a1.308,1.308,0,0,1-2.616,0,1.286,1.286,0,0,1,1.32-1.32A1.253,1.253,0,0,1,165.024,48.282Zm-2.352,14.881V51.546h2.112V63.163Z"/>
      <path d="M174.72,63.163l-.168-1.464h-.072a4.327,4.327,0,0,1-3.552,1.728,3.31,3.31,0,0,1-3.553-3.336c0-2.808,2.5-4.345,6.985-4.321v-.24a2.4,2.4,0,0,0-2.64-2.688,5.788,5.788,0,0,0-3.024.864l-.48-1.392a7.209,7.209,0,0,1,3.816-1.032c3.552,0,4.417,2.424,4.417,4.752v4.345a16.355,16.355,0,0,0,.192,2.784Zm-.312-5.929c-2.3-.048-4.92.361-4.92,2.616a1.869,1.869,0,0,0,1.992,2.017,2.89,2.89,0,0,0,2.808-1.944,2.2,2.2,0,0,0,.12-.672Z"/>
      <path d="M179.855,46.121h2.113V63.163h-2.113Z"/>
      <path d="M195.529,51.546c-.049.84-.1,1.776-.1,3.192v6.745c0,2.664-.529,4.3-1.657,5.3a6.158,6.158,0,0,1-4.224,1.392,7.5,7.5,0,0,1-3.864-.96l.528-1.608a6.55,6.55,0,0,0,3.408.912c2.16,0,3.744-1.128,3.744-4.056v-1.3h-.048a4.147,4.147,0,0,1-3.7,1.944c-2.88,0-4.944-2.448-4.944-5.665,0-3.936,2.568-6.168,5.232-6.168a3.866,3.866,0,0,1,3.625,2.016h.047l.1-1.752Zm-2.185,4.584a3.087,3.087,0,0,0-3.072-3.192c-2.016,0-3.456,1.7-3.456,4.392,0,2.281,1.152,4.177,3.432,4.177a3.087,3.087,0,0,0,2.928-2.161,3.668,3.668,0,0,0,.168-1.127Z"/>
      <path d="M200.111,57.739a3.722,3.722,0,0,0,3.985,4.032,7.637,7.637,0,0,0,3.216-.6l.36,1.512a9.408,9.408,0,0,1-3.864.72c-3.577,0-5.713-2.352-5.713-5.857s2.064-6.264,5.448-6.264c3.793,0,4.8,3.336,4.8,5.472a8,8,0,0,1-.072.985Zm6.193-1.513c.024-1.344-.552-3.432-2.929-3.432-2.136,0-3.072,1.968-3.24,3.432Z"/>
      <path d="M210.671,61a5.536,5.536,0,0,0,2.785.84c1.536,0,2.255-.768,2.255-1.728,0-1.008-.6-1.561-2.16-2.137-2.088-.744-3.072-1.9-3.072-3.288,0-1.872,1.512-3.408,4.008-3.408a5.8,5.8,0,0,1,2.857.72l-.528,1.536a4.522,4.522,0,0,0-2.377-.672c-1.248,0-1.944.72-1.944,1.584,0,.96.7,1.392,2.209,1.968,2.016.768,3.048,1.777,3.048,3.505,0,2.04-1.585,3.48-4.345,3.48a6.624,6.624,0,0,1-3.264-.792Z"/>
      <path d="M228.744,62.731a7.779,7.779,0,0,1-3.336.672c-3.5,0-5.785-2.376-5.785-5.929a5.9,5.9,0,0,1,6.241-6.168,7.06,7.06,0,0,1,2.928.6l-.48,1.632a4.9,4.9,0,0,0-2.448-.552c-2.665,0-4.105,1.968-4.105,4.392,0,2.689,1.728,4.345,4.033,4.345a6,6,0,0,0,2.592-.576Z"/>
      <path d="M231.215,46.121h2.112V53.37h.048a3.919,3.919,0,0,1,1.512-1.488,4.347,4.347,0,0,1,2.16-.6c1.561,0,4.057.96,4.057,4.968v6.913h-2.112V56.491c0-1.873-.7-3.457-2.688-3.457a3.036,3.036,0,0,0-2.833,2.112,2.557,2.557,0,0,0-.144,1.008v7.009h-2.112Z"/>
      <path d="M246.887,48.282a1.308,1.308,0,0,1-2.616,0,1.286,1.286,0,0,1,1.32-1.32A1.253,1.253,0,0,1,246.887,48.282Zm-2.352,14.881V51.546h2.112V63.163Z"/>
      <path d="M258.431,62.731a7.779,7.779,0,0,1-3.336.672c-3.5,0-5.784-2.376-5.784-5.929a5.9,5.9,0,0,1,6.24-6.168,7.06,7.06,0,0,1,2.928.6L258,53.538a4.9,4.9,0,0,0-2.448-.552c-2.664,0-4.1,1.968-4.1,4.392,0,2.689,1.728,4.345,4.032,4.345a6,6,0,0,0,2.592-.576Z"/>
      <path d="M260.9,46.121h2.113V53.37h.048a3.919,3.919,0,0,1,1.512-1.488,4.347,4.347,0,0,1,2.16-.6c1.56,0,4.057.96,4.057,4.968v6.913h-2.113V56.491c0-1.873-.7-3.457-2.688-3.457a3.034,3.034,0,0,0-2.832,2.112,2.557,2.557,0,0,0-.144,1.008v7.009H260.9Z"/>
      <path d="M276.67,48.21v3.336H279.7v1.608H276.67v6.265c0,1.44.409,2.256,1.584,2.256a4.7,4.7,0,0,0,1.225-.144l.1,1.584a5.17,5.17,0,0,1-1.872.288,2.928,2.928,0,0,1-2.281-.888,4.3,4.3,0,0,1-.816-3.024V53.154h-1.8V51.546h1.8V48.762Z"/>
      <path d="M283.1,57.739a3.721,3.721,0,0,0,3.984,4.032,7.637,7.637,0,0,0,3.216-.6l.36,1.512a9.408,9.408,0,0,1-3.864.72c-3.576,0-5.713-2.352-5.713-5.857s2.064-6.264,5.449-6.264c3.792,0,4.8,3.336,4.8,5.472a8,8,0,0,1-.072.985Zm6.192-1.513c.024-1.344-.552-3.432-2.928-3.432-2.137,0-3.073,1.968-3.241,3.432Z"/>
    </g>
    <g>
      <path d="M13.58,29.317l-2.352,8.476H3.487L13.58,4.769h9.8l10.24,33.024H25.584l-2.548-8.476Zm8.378-5.586L19.9,16.724c-.587-1.96-1.175-4.409-1.666-6.369h-.1c-.491,1.96-.98,4.459-1.519,6.369l-1.96,7.007Z"/>
      <path d="M38.57,21.722c0-3.528-.1-5.831-.2-7.888h6.418l.245,4.409h.2A7.035,7.035,0,0,1,51.7,13.3a7.676,7.676,0,0,1,1.568.1V20.4a10.677,10.677,0,0,0-2.009-.2c-2.743,0-4.6,1.47-5.095,3.773a8.783,8.783,0,0,0-.147,1.666V37.793H38.57Z"/>
      <path d="M75.857,37.205a18.158,18.158,0,0,1-6.663,1.078c-7.741,0-12.69-4.7-12.69-12.249,0-7.007,4.8-12.739,13.719-12.739a17.271,17.271,0,0,1,5.683.931L74.73,19.762a10.181,10.181,0,0,0-4.164-.735c-3.92,0-6.467,2.793-6.419,6.713,0,4.409,2.94,6.712,6.566,6.712a11.49,11.49,0,0,0,4.263-.735Z"/>
      <path d="M81.052,3.006H88.5v13.67h.1a8.925,8.925,0,0,1,2.94-2.45,8.357,8.357,0,0,1,3.87-.931c4.753,0,8.378,3.282,8.378,10.485V37.793H96.339V24.613c0-3.136-1.078-5.292-3.871-5.292a3.961,3.961,0,0,0-3.723,2.6,4.739,4.739,0,0,0-.245,1.666V37.793H81.052Z"/>
      <path d="M118.537,7.17a3.74,3.74,0,0,1-4.018,3.724,3.642,3.642,0,0,1-3.871-3.724,3.64,3.64,0,0,1,3.92-3.772A3.735,3.735,0,0,1,118.537,7.17Zm-7.693,30.623V13.834h7.448V37.793Z"/>
      <path d="M130.884,13.834l3.234,11.122a55.368,55.368,0,0,1,1.372,5.83h.147c.392-1.96.784-3.773,1.322-5.83l3.087-11.122h7.84l-8.917,23.959h-7.448L122.8,13.834Z"/>
      <path d="M153.229,37.793V19.321h-3.136V13.834h3.136V12.9c0-2.891.881-6.076,3.037-8.036a9.71,9.71,0,0,1,6.615-2.4,14.3,14.3,0,0,1,3.968.49l-.294,5.732a8.056,8.056,0,0,0-2.4-.343c-2.449,0-3.478,1.911-3.478,4.263v1.225h4.8v5.487h-4.753V37.793Z"/>
      <path d="M192.769,30.1c0,3.136.1,5.684.2,7.693H186.5l-.343-3.381h-.147a8.547,8.547,0,0,1-7.5,3.92c-4.85,0-8.427-3.038-8.427-10.436V13.834h7.5V26.72c0,3.479,1.127,5.585,3.723,5.585a4.007,4.007,0,0,0,3.724-2.6,4.158,4.158,0,0,0,.245-1.616V13.834h7.5ZM173.024,7.072a3.441,3.441,0,0,1,3.528-3.478,3.339,3.339,0,0,1,3.331,3.478,3.357,3.357,0,0,1-3.331,3.43A3.462,3.462,0,0,1,173.024,7.072Zm10.338,0a3.4,3.4,0,0,1,3.479-3.478,3.35,3.35,0,0,1,3.381,3.478,3.367,3.367,0,0,1-3.381,3.43A3.42,3.42,0,0,1,183.362,7.072Z"/>
      <path d="M199.827,3.006h7.447v13.67h.1a8.945,8.945,0,0,1,2.94-2.45,8.364,8.364,0,0,1,3.871-.931c4.752,0,8.378,3.282,8.378,10.485V37.793h-7.448V24.613c0-3.136-1.077-5.292-3.87-5.292a3.962,3.962,0,0,0-3.724,2.6,4.739,4.739,0,0,0-.245,1.666V37.793h-7.447Z"/>
      <path d="M229.619,21.722c0-3.528-.1-5.831-.2-7.888h6.418l.245,4.409h.2A7.037,7.037,0,0,1,242.75,13.3a7.666,7.666,0,0,1,1.567.1V20.4a10.665,10.665,0,0,0-2.008-.2c-2.744,0-4.606,1.47-5.1,3.773a8.783,8.783,0,0,0-.147,1.666V37.793h-7.447Z"/>
      <path d="M254.657,28.19c.245,3.086,3.282,4.556,6.761,4.556a21.1,21.1,0,0,0,6.615-.98l.98,5.047a23.652,23.652,0,0,1-8.673,1.47c-8.133,0-12.788-4.7-12.788-12.2,0-6.076,3.773-12.788,12.1-12.788,7.742,0,10.681,6.026,10.681,11.955a17.693,17.693,0,0,1-.245,2.94Zm8.77-5.1c0-1.813-.784-4.851-4.214-4.851-3.135,0-4.409,2.842-4.605,4.851Z"/>
      <path d="M275.875,21.722c0-3.528-.1-5.831-.2-7.888H282.1l.245,4.409h.2a7.037,7.037,0,0,1,6.467-4.948,7.676,7.676,0,0,1,1.568.1V20.4a10.677,10.677,0,0,0-2.009-.2c-2.743,0-4.605,1.47-5.1,3.773a8.783,8.783,0,0,0-.147,1.666V37.793h-7.447Z"/>
    </g>
  </g>
</svg>
