<?xml version="1.0" encoding="UTF-8" standalone="no"?>
<svg
   xmlns:dc="http://purl.org/dc/elements/1.1/"
   xmlns:cc="http://creativecommons.org/ns#"
   xmlns:rdf="http://www.w3.org/1999/02/22-rdf-syntax-ns#"
   xmlns:svg="http://www.w3.org/2000/svg"
   xmlns="http://www.w3.org/2000/svg"
   xmlns:sodipodi="http://sodipodi.sourceforge.net/DTD/sodipodi-0.dtd"
   xmlns:inkscape="http://www.inkscape.org/namespaces/inkscape"
   viewBox="0 0 359.10427 255.39122"
   version="1.1"
   id="svg155"
   sodipodi:docname="banner120.svg"
   width="359.10428"
   height="255.39122"
   inkscape:version="0.92.3 (2405546, 2018-03-11)">
  <metadata
     id="metadata159">
    <rdf:RDF>
      <cc:Work
         rdf:about="">
        <dc:format>image/svg+xml</dc:format>
        <dc:type
           rdf:resource="http://purl.org/dc/dcmitype/StillImage" />
        <dc:title>Zeichenfläche 33</dc:title>
      </cc:Work>
    </rdf:RDF>
  </metadata>
  <sodipodi:namedview
     pagecolor="#ffffff"
     bordercolor="#666666"
     borderopacity="1"
     objecttolerance="10"
     gridtolerance="10"
     guidetolerance="10"
     inkscape:pageopacity="0"
     inkscape:pageshadow="2"
     inkscape:window-width="1920"
     inkscape:window-height="1029"
     id="namedview157"
     showgrid="false"
     fit-margin-top="0"
     fit-margin-left="0"
     fit-margin-right="0"
     fit-margin-bottom="0"
     inkscape:zoom="0.36"
     inkscape:cx="-1118.8372"
     inkscape:cy="-330.64022"
     inkscape:window-x="0"
     inkscape:window-y="27"
     inkscape:window-maximized="1"
     inkscape:current-layer="svg155" />
  <defs
     id="defs4">
    <style
       id="style2">.cls-1,.cls-2{fill:#b9e0f4;}.cls-1,.cls-3{fill-rule:evenodd;}.cls-3,.cls-4{fill:#a5daef;}</style>
  </defs>
  <title
     id="title6">Zeichenfläche 33</title>
  <g
     id="Ebene_6"
     data-name="Ebene 6"
     transform="matrix(0.43665576,0,0,0.43665576,-5.4823149,-16.042733)">
    <path
       class="cls-1"
       d="m 397.51,56.94 c 5,12 -7.25,31.59 -20.52,22.08 -6.45,-4.62 -3.62,-11.41 -6.37,-16.66 q -2,-1.72 -4.72,0.24 l -1.19,-5 c -2.53,-1.94 -6.38,-4 -8.4,-6.35 a 45.87,45.87 0 0 1 11,2.36 45.46,45.46 0 0 0 9.49,-2.22 c 7.75,-0.7 14.43,0.88 20.71,5.55 z"
       id="path8"
       inkscape:connector-curvature="0"
       style="fill:#b9e0f4;fill-rule:evenodd" />
    <path
       class="cls-1"
       d="m 438.9,36.74 a 42.34,42.34 0 0 0 -7.82,7.37 c 2.92,2.69 10.8,-7.37 7.82,-7.37 z"
       id="path10"
       inkscape:connector-curvature="0"
       style="fill:#b9e0f4;fill-rule:evenodd" />
    <path
       class="cls-1"
       d="m 523.52,59.74 c 8.17,0 11.68,11.17 2.89,12.26 -10.49,1.31 -8.14,-7.9 -2.89,-12.26 z"
       id="path12"
       inkscape:connector-curvature="0"
       style="fill:#b9e0f4;fill-rule:evenodd" />
    <path
       class="cls-1"
       d="m 419.13,72.61 4.14,0.23 c -0.93,1.21 -3.11,10.55 -5.75,9.2 0.43,-4.62 2.57,-6.34 -3.44,-4.83 a 1.39,1.39 0 0 1 -0.7,-1.84 22.9,22.9 0 0 1 5.75,-2.76 z"
       id="path14"
       inkscape:connector-curvature="0"
       style="fill:#b9e0f4;fill-rule:evenodd" />
    <path
       class="cls-1"
       d="m 634.82,72.61 c 2.11,0.74 -5.84,9.15 -6.91,11.5 l -2.75,0.69 a 7,7 0 0 0 0.89,8.15 c -0.66,3.34 -1.89,5.42 -2.73,8.4 3.63,2.19 12,-1.88 17,-1.83 3.7,0 11.11,1.17 14,3.18 11,7.66 -0.47,18 -10,19.39 -4.36,0.63 -12.14,-0.94 -15.49,-3.8 -4.19,-3.57 -2.17,-9.72 -3.92,-12.2 -7.6,-10.75 -19.4,4.68 -29.61,3.54 0,-6.07 6.3,-7.52 10.35,-10.34 -6.48,-9.85 -12.85,-18.31 4,-17.41 8.73,0.47 16.27,-0.49 25.17,-9.27 z"
       id="path16"
       inkscape:connector-curvature="0"
       style="fill:#b9e0f4;fill-rule:evenodd" />
    <path
       class="cls-1"
       d="m 491.57,76.75 c 1,0.32 2,1.24 1.14,2.07 q -1.47,0.18 -1.14,-2.07 z"
       id="path18"
       inkscape:connector-curvature="0"
       style="fill:#b9e0f4;fill-rule:evenodd" />
    <path
       class="cls-1"
       d="m 483.52,77.21 c 2,0.78 2.52,2.55 2.52,4.37 -2.04,0 -3.04,-2.7 -2.52,-4.37 z"
       id="path20"
       inkscape:connector-curvature="0"
       style="fill:#b9e0f4;fill-rule:evenodd" />
    <path
       class="cls-1"
       d="m 613.9,79.51 c 0.72,0.39 1.55,1 0.45,1.61 -1.15,-0.38 -1.01,-0.31 -0.45,-1.61 z"
       id="path22"
       inkscape:connector-curvature="0"
       style="fill:#b9e0f4;fill-rule:evenodd" />
    <path
       class="cls-1"
       d="m 494.33,80.2 c 2.59,0.82 7.37,5.52 8,8.28 -2.58,-0.82 -7.18,-5.69 -8,-8.28 z"
       id="path24"
       inkscape:connector-curvature="0"
       style="fill:#b9e0f4;fill-rule:evenodd" />
    <path
       class="cls-1"
       d="m 632.74,81.58 c 1.5,0 1.41,0.44 0.92,1.84 -1.37,0 -1.33,-0.8 -0.92,-1.84 z"
       id="path26"
       inkscape:connector-curvature="0"
       style="fill:#b9e0f4;fill-rule:evenodd" />
    <path
       class="cls-1"
       d="m 486.73,83.65 c 1.85,0.38 1.88,0.31 1.62,2.3 -1.51,0.05 -1.95,-0.95 -1.62,-2.3 z"
       id="path28"
       inkscape:connector-curvature="0"
       style="fill:#b9e0f4;fill-rule:evenodd" />
    <path
       class="cls-1"
       d="m 506.28,86 c 7,-0.31 18.09,8.15 6.66,12.65 -2.68,1.06 -7.72,-0.76 -9.29,-2.94 -3.41,-4.71 0.17,-6.45 2.63,-9.71 z"
       id="path30"
       inkscape:connector-curvature="0"
       style="fill:#b9e0f4;fill-rule:evenodd" />
    <path
       class="cls-1"
       d="m 338.66,96.3 c 3.83,0.13 5.68,4.69 3.21,7.82 -3.21,4.09 -11.17,-6.56 -3.21,-7.82 z"
       id="path32"
       inkscape:connector-curvature="0"
       style="fill:#b9e0f4;fill-rule:evenodd" />
    <path
       class="cls-1"
       d="m 501.22,98.37 c 10.23,2.44 -2.13,20.47 -6.66,0.46 2.82,0 2.59,1.1 6.66,-0.46 z"
       id="path34"
       inkscape:connector-curvature="0"
       style="fill:#b9e0f4;fill-rule:evenodd" />
    <path
       class="cls-1"
       d="m 510.65,100.66 c 1.74,0.83 4.89,5.7 6.36,7.28 2,2.14 4.28,4 6,6.29 4.46,5.86 7.67,13 14.72,16.56 3.82,1.92 6.41,0.72 10,3.81 3.59,3.09 9.23,12 11.59,16.42 1.14,2.13 8.06,16.34 6.89,17.47 -3,-2 -6.62,-12.07 -8.71,-15.29 -5.28,-8.07 -6.89,-7 -14.28,-10.92 -8.49,-4.54 -9,-10.2 -14.95,-17.47 -4.66,-5.81 -19.68,-15.52 -17.62,-24.15 z"
       id="path36"
       inkscape:connector-curvature="0"
       style="fill:#b9e0f4;fill-rule:evenodd" />
    <path
       class="cls-1"
       d="m 530.66,103.2 c 6.91,-0.22 21.59,11.29 8.58,12.15 -5.94,0.4 -14.32,-6.87 -8.58,-12.15 z"
       id="path38"
       inkscape:connector-curvature="0"
       style="fill:#b9e0f4;fill-rule:evenodd" />
    <path
       class="cls-1"
       d="m 139.52,109.54 c 0.92,-1.07 11.63,-8.41 12.56,-8.4 1.38,0 10.24,8.75 11.85,6.26 -12.39,-13.15 1.49,-27.4 13.66,-16.87 11.89,10.23 4.19,26.33 -11.79,18.48 -2.39,3 -1.63,14.86 -2.16,18 -0.5,2.93 -2.79,1.78 -2.42,5.51 0.39,3.94 4.08,7.05 5.28,10.53 0.5,-0.22 -6.81,-7.39 -8,-8.13 -3.79,-2.4 -5.86,-1.69 -9.34,-3.13 -4.44,-1.83 -8,-1 -11.07,-5.54 -4.85,-7.17 0.68,-10.04 1.43,-16.71 z"
       id="path40"
       inkscape:connector-curvature="0"
       style="fill:#b9e0f4;fill-rule:evenodd" />
    <path
       class="cls-1"
       d="m 604.92,108.26 c 1,0.33 1.25,0.84 0.69,2.06 -1.35,0 -1.21,-1.32 -0.69,-2.06 z"
       id="path42"
       inkscape:connector-curvature="0"
       style="fill:#b9e0f4;fill-rule:evenodd" />
    <path
       class="cls-1"
       d="m 532.49,148.26 c 9.69,-0.76 0.8,5.53 0.69,5.29 -0.95,-2.22 -5.66,-2.77 -0.69,-5.29 z"
       id="path44"
       inkscape:connector-curvature="0"
       style="fill:#b9e0f4;fill-rule:evenodd" />
    <path
       class="cls-1"
       d="M 40.85,69.51 C 58,69.37 65.8,93.77 60.18,106.82 c -1.76,4.09 -5.44,5.7 -4.61,9.83 -0.2,-1 7.22,-1.05 7.82,-0.46 -0.91,-0.9 2.82,13.38 2.8,12.91 0.48,9.32 -1.91,11.45 -8.64,17.7 -7.56,7 -4.17,7.28 -10,1 -3.34,-3.56 -5,-9.85 -7.34,-14.16 -1.59,-3 1.79,-2.63 -1.93,-6.13 -2.34,-2.2 -7.69,-0.89 -10.48,-2.83 0.93,-5.81 8.35,1.7 11.49,0.69 2.49,-0.8 9.81,-9.12 9.44,-10.86 -1.34,-6.29 -15.64,-7.32 -19.48,-7.9 -2.49,-0.37 -15,-3 -16.63,-5.62 a 1.63,1.63 0 0 1 0.69,-1.83 c 4.74,1.88 12.38,2.61 16.37,-1.77 4.41,-4.82 0.37,-5 -0.19,-10.54 C 28.62,79 32.74,73.57 40.85,69.51 Z"
       id="path46"
       inkscape:connector-curvature="0"
       style="fill:#b9e0f4;fill-rule:evenodd" />
    <path
       class="cls-1"
       d="m 19.35,198.36 c 1.32,0.28 1.55,1 0.69,2.06 -2.04,0 -1.6,-0.95 -0.69,-2.06 z"
       id="path48"
       inkscape:connector-curvature="0"
       style="fill:#b9e0f4;fill-rule:evenodd" />
    <path
       class="cls-1"
       d="m 217.82,181.47 c 3.43,0 11.15,7 15.16,9 7.76,3.86 8.45,1.17 7.22,10.54 -0.48,3.68 -3.65,5.57 -4,9.63 -0.12,1.3 2,5.8 2.23,7.19 1,4.83 -2.3,4.61 1.35,8.21 2.46,2.42 9.34,3.65 12.33,2.37 -2.42,-19.13 24.42,-9.65 17.94,2.07 -5.25,9.5 -18.38,-1 -25.95,-1.47 -14.23,-0.94 -12,5.38 -20.29,15 -7.22,8.34 -23.62,2.28 -33.87,0.75 -4,-0.61 -11.77,-1.1 -14.86,-4.11 -5.34,-5.23 -1.63,-7.82 0.81,-13.85 1.56,-3.87 2.49,-13 4.63,-16 5.29,-7.5 3.73,0.41 9.74,0.58 6.49,0.19 12.77,-6.89 20.18,-7.59 5.2,-0.48 12.79,4.11 17.05,2.91 17.01,-4.86 -10.7,-18.3 -9.67,-25.23 z"
       id="path50"
       inkscape:connector-curvature="0"
       style="fill:#b9e0f4;fill-rule:evenodd" />
    <path
       class="cls-1"
       d="m 788.52,156.94 c 7.37,0.18 11.41,0.21 16.88,5.78 3.87,3.93 3.2,9.86 5.65,13.06 2.45,3.2 26.39,8 23.69,12.2 -4.45,-3.36 -12.56,-5.5 -18,-6.38 -9,-1.48 -10,2.87 -17.78,5.49 -8.19,2.77 -17.49,-0.07 -21.49,-8.64 -5.01,-10.82 3.29,-16.14 11.05,-21.51 z"
       id="path52"
       inkscape:connector-curvature="0"
       style="fill:#b9e0f4;fill-rule:evenodd" />
    <path
       class="cls-1"
       d="m 15.44,215.37 c 4.18,0.13 3.8,9.46 1.38,8.74 -3.06,-0.94 -3.15,-6.98 -1.38,-8.74 z"
       id="path54"
       inkscape:connector-curvature="0"
       style="fill:#b9e0f4;fill-rule:evenodd" />
    <path
       class="cls-1"
       d="m 26.47,224.33 c -3.83,2.46 -5.13,1.58 -8.73,3.22 0,8.71 23.41,1.29 8.73,-3.22 z"
       id="path56"
       inkscape:connector-curvature="0"
       style="fill:#b9e0f4;fill-rule:evenodd" />
    <path
       class="cls-1"
       d="m 339.11,187.35 c 8.05,2.17 8,23 -1.64,23 -3.7,0 -12,-6.34 -12.74,-9.84 -1.67,-7.94 9.68,-9.32 14.38,-13.16 z"
       id="path58"
       inkscape:connector-curvature="0"
       style="fill:#b9e0f4;fill-rule:evenodd" />
    <path
       class="cls-1"
       d="m 352.91,215.63 c -1.78,2.23 1.56,4 3,2.08 -0.26,-1.47 -1.25,-2.16 -3,-2.08 z"
       id="path60"
       inkscape:connector-curvature="0"
       style="fill:#b9e0f4;fill-rule:evenodd" />
    <path
       class="cls-1"
       d="m 701.72,223.91 c 9.49,-0.44 10.35,11.82 1.26,13.68 -11.3,2.31 -10.5,-10.36 -1.26,-13.68 z"
       id="path62"
       inkscape:connector-curvature="0"
       style="fill:#b9e0f4;fill-rule:evenodd" />
    <path
       class="cls-1"
       d="m 448.56,224.14 2.07,1.62 c -1.73,2.51 -3.95,1.03 -2.07,-1.62 z"
       id="path64"
       inkscape:connector-curvature="0"
       style="fill:#b9e0f4;fill-rule:evenodd" />
    <path
       class="cls-1"
       d="m 446.73,232 c 10.37,-0.11 19,2.31 23.79,12.11 3.29,6.69 2.79,5.79 -0.62,13.11 -2.89,6.21 -2.83,9.3 -10.16,12 -11.38,4.22 -28.07,0.7 -29.09,-11.76 -1.09,-13.46 7.7,-18.22 16.08,-25.46 z"
       id="path66"
       inkscape:connector-curvature="0"
       style="fill:#b9e0f4;fill-rule:evenodd" />
    <path
       class="cls-1"
       d="m 370.65,254.74 c -5.56,6.61 5.34,16.14 10.22,10.44 3.27,-3.83 -5.8,-9.41 -10.22,-10.44 z"
       id="path68"
       inkscape:connector-curvature="0"
       style="fill:#b9e0f4;fill-rule:evenodd" />
    <path
       class="cls-1"
       d="m 573.19,341.18 h 4.61 c 1.13,1.46 2.55,2.57 3.67,4.14 0.08,0.76 0.15,1.53 0.23,2.3 a 7.16,7.16 0 0 0 -1.84,2.53 c -3.61,1.2 -7,0.37 -8.51,-3 -0.49,-1.58 -0.1,-2.19 0,-4.14 0.65,-0.6 1.23,-1.21 1.84,-1.83 z"
       id="path70"
       inkscape:connector-curvature="0"
       style="fill:#b9e0f4;fill-rule:evenodd" />
    <path
       class="cls-1"
       d="m 506.51,350.38 c 1.94,-0.13 3.86,-0.22 4.6,0.92 0.74,1.14 0.68,3.66 -0.46,4.37 -0.89,0.26 -5.6,-0.8 -6.67,-1.38 -0.05,-2.3 0.47,-2.51 1.38,-3.68 z"
       id="path72"
       inkscape:connector-curvature="0"
       style="fill:#b9e0f4;fill-rule:evenodd" />
    <path
       class="cls-1"
       d="m 606.76,361.87 a 9.37,9.37 0 0 1 4.84,2.76 v 3.68 l -1.6,1.61 c -3.22,0.22 -4.3,0.06 -6.43,-1.61 a 3.79,3.79 0 0 0 -0.93,-2.53 23.68,23.68 0 0 1 4.12,-3.91 z"
       id="path74"
       inkscape:connector-curvature="0"
       style="fill:#b9e0f4;fill-rule:evenodd" />
    <path
       class="cls-1"
       d="m 548.82,370.62 c 14.27,0.37 17.11,18.69 4.83,22.31 -8.84,2.59 -19.26,-6.9 -16.56,-14.27 1.1,-3 4.11,-6.6 7.13,-7.58 z"
       id="path76"
       inkscape:connector-curvature="0"
       style="fill:#b9e0f4;fill-rule:evenodd" />
    <path
       class="cls-1"
       d="m 712.61,307.3 c 20.23,-14.67 43,15.15 21.18,27.79 -20.09,11.64 -39,-11.17 -21.18,-27.79 z"
       id="path78"
       inkscape:connector-curvature="0"
       style="fill:#b9e0f4;fill-rule:evenodd" />
    <path
       class="cls-1"
       d="m 562.38,462.83 c 25.78,-0.26 29.43,12.11 31.5,35.18 -5.87,4.32 -10.26,9.08 -17.7,11.95 -3.77,1.47 -11.42,-0.39 -13.57,-1.14 -4,-1.42 -6.4,-1.8 -9.66,-3.68 -5.53,-3.2 -13.44,-18.87 -9.43,-28.05 2.15,-4.93 8.35,-9.64 13.11,-12 1.91,-0.9 4.26,-0.95 5.75,-2.26 z"
       id="path80"
       inkscape:connector-curvature="0"
       style="fill:#b9e0f4;fill-rule:evenodd" />
    <path
       class="cls-1"
       d="m 471.33,395.22 1.38,0.23 c 1.56,0.62 4.64,3 4.14,4.82 -0.33,1.12 -0.69,1.19 -1.39,1.85 l -2.52,-0.7 c -0.73,-1.8 -2.25,-3.55 -1.61,-6.2 z"
       id="path82"
       inkscape:connector-curvature="0"
       style="fill:#b9e0f4;fill-rule:evenodd" />
    <path
       class="cls-1"
       d="m 536.72,485.82 0.68,0.7 V 487 l -0.45,0.45 -0.69,-0.45 v -0.93 z"
       id="path84"
       inkscape:connector-curvature="0"
       style="fill:#b9e0f4;fill-rule:evenodd" />
    <path
       class="cls-1"
       d="m 576.41,418 2.53,0.46 c 0.08,0.24 0.15,0.47 0.24,0.69 -0.09,0.31 -0.16,0.61 -0.24,0.92 a 5.4,5.4 0 0 1 -4.14,0 c 0.23,-0.61 0.46,-1.23 0.69,-1.83 0.3,-0.11 0.62,-0.18 0.92,-0.24 z"
       id="path86"
       inkscape:connector-curvature="0"
       style="fill:#b9e0f4;fill-rule:evenodd" />
    <path
       class="cls-1"
       d="m 593.66,422.12 c 7.92,0.4 12.05,3.41 12.19,12 0,2.17 -0.23,5.18 -1.38,6.9 -1.81,2.68 -9.27,3.85 -10.13,5.28 -1.33,2.24 0.17,5.73 -1.83,8.05 -3.43,4 -11.21,1 -12.19,-3 -0.31,-1.28 0.3,-3.2 -0.23,-4.38 A 3,3 0 0 1 578,446 c 0.15,-0.23 0.31,-0.45 0.46,-0.69 a 3,3 0 0 0 3.22,-0.22 l 2.52,-3.22 c -0.22,-2.52 -1.57,-4.55 -2.06,-6.91 -0.4,-1.89 0.64,-2.6 0.92,-3.68 1.84,-6.93 4.94,-5.85 10.6,-9.16 z"
       id="path88"
       inkscape:connector-curvature="0"
       style="fill:#b9e0f4;fill-rule:evenodd" />
    <path
       class="cls-1"
       d="m 569.29,426 a 6,6 0 0 1 3.67,2.3 c -0.15,1.07 -0.31,2.14 -0.46,3.22 -1.22,0.88 -1.76,1.53 -3.9,1.61 a 5.26,5.26 0 0 1 -2.77,-2.07 v -2.3 c -0.19,-1.25 0.93,-1.76 1.84,-2.53 z"
       id="path90"
       inkscape:connector-curvature="0"
       style="fill:#b9e0f4;fill-rule:evenodd" />
    <path
       class="cls-1"
       d="m 474.32,428.56 3.45,0.23 a 4.57,4.57 0 0 1 -0.46,4.37 h -3.46 c -0.3,-1.08 -0.61,-2.14 -0.91,-3.22 z"
       id="path92"
       inkscape:connector-curvature="0"
       style="fill:#b9e0f4;fill-rule:evenodd" />
    <path
       class="cls-1"
       d="m 612.51,432 a 9.67,9.67 0 0 1 4.83,0.69 v 1.14 l -0.92,1.39 a 8.83,8.83 0 0 1 -4.82,-0.24 c -0.23,-0.38 -0.46,-0.76 -0.71,-1.15 v -0.45 z"
       id="path94"
       inkscape:connector-curvature="0"
       style="fill:#b9e0f4;fill-rule:evenodd" />
    <path
       class="cls-1"
       d="m 351.51,428.49 c 6,-0.26 8.91,2.07 7.82,7.18 a 11.14,11.14 0 0 1 -4.56,2.6 c -2.55,-2.12 -5.87,-2.4 -4.79,-7.61 z"
       id="path96"
       inkscape:connector-curvature="0"
       style="fill:#b9e0f4;fill-rule:evenodd" />
    <path
       class="cls-1"
       d="m 435.23,450.63 c 12.34,-0.35 20.4,15.75 8,21.39 -7.76,3.55 -17.55,-7.1 -14.48,-16.1 1.03,-2.92 4.19,-3.63 6.48,-5.29 z"
       id="path98"
       inkscape:connector-curvature="0"
       style="fill:#b9e0f4;fill-rule:evenodd" />
    <path
       class="cls-1"
       d="m 562.61,459.61 h 2.53 c 0.62,0.68 1.23,1.37 1.84,2.06 0,1.39 -0.06,2.88 -0.91,3.45 a 4,4 0 0 1 -3.91,-0.23 l -0.93,-1.61 c -0.07,-0.69 -0.15,-1.38 -0.23,-2.07 z"
       id="path100"
       inkscape:connector-curvature="0"
       style="fill:#b9e0f4;fill-rule:evenodd" />
    <path
       class="cls-1"
       d="m 385,468.72 c 16.64,-0.49 20.53,17.93 6.74,22.61 -6.4,2.17 -17.18,-6 -15.88,-12.39 1.23,-6.02 4.45,-7.62 9.14,-10.22 z"
       id="path102"
       inkscape:connector-curvature="0"
       style="fill:#b9e0f4;fill-rule:evenodd" />
    <path
       class="cls-1"
       d="m 333.24,470.89 c 1.47,0.18 1.53,0.64 2.39,1.31 0.3,0.43 0.58,0.86 0.88,1.3 v 0.44 l -2.62,2.39 -3.47,-0.22 c -0.07,-0.43 -0.15,-0.87 -0.22,-1.3 a 16.71,16.71 0 0 1 3.04,-3.92 z"
       id="path104"
       inkscape:connector-curvature="0"
       style="fill:#b9e0f4;fill-rule:evenodd" />
    <path
       class="cls-1"
       d="m 555.72,562.29 4.59,0.23 c 0.6,2.13 -0.63,2.58 -2.29,1.84 l -2.3,0.23 -0.92,-0.46 c 0.15,-0.54 0.31,-1.07 0.45,-1.61 z"
       id="path106"
       inkscape:connector-curvature="0"
       style="fill:#b9e0f4;fill-rule:evenodd" />
    <path
       class="cls-1"
       d="m 562.84,567.81 v -3.91 c 2.8,-1.66 9.67,-2.87 10.81,1.37 0.73,2.76 -1.7,3.48 -2.06,5.76 1.14,0.78 2.79,3 2.06,4.83 -1.62,4.09 -9.3,5.64 -14.49,3.9 0.16,-0.76 0.31,-1.53 0.46,-2.29 0.84,-0.24 0.68,-0.19 1.15,-0.69 v -0.69 c -2.95,-2.08 -7.35,-1.77 -9.42,-4.83 v -1.37 c 2.44,-4.09 6.65,-2.4 11.49,-2.08 z"
       id="path108"
       inkscape:connector-curvature="0"
       style="fill:#b9e0f4;fill-rule:evenodd" />
    <path
       class="cls-1"
       d="m 680,480.2 c 1.92,0.44 2.37,2 1.83,4.14 h -2.75 l -0.46,-0.45 v -2.31 z"
       id="path110"
       inkscape:connector-curvature="0"
       style="fill:#b9e0f4;fill-rule:evenodd" />
    <path
       class="cls-1"
       d="m 339.33,487.2 2.61,0.22 a 2,2 0 0 1 1.3,1.31 c 0.61,2 -0.27,3 -1.3,3.91 a 6.47,6.47 0 0 1 -3,-0.44 c -0.37,-0.43 -0.73,-0.87 -1.09,-1.3 v -2.17 z"
       id="path112"
       inkscape:connector-curvature="0"
       style="fill:#b9e0f4;fill-rule:evenodd" />
    <path
       class="cls-1"
       d="m 634.45,496.07 c 1.2,0.1 0.91,-0.16 1.37,0.69 a 4.93,4.93 0 0 1 -0.23,0.46 h -0.23 c -1.26,-0.28 -1.05,-0.12 -0.91,-1.15 z"
       id="path114"
       inkscape:connector-curvature="0"
       style="fill:#b9e0f4;fill-rule:evenodd" />
    <path
       class="cls-1"
       d="m 364.12,492.43 3.05,0.43 c 0.65,1.31 1.47,2.05 1.73,3.91 l -1.51,2.83 -2.84,0.65 a 11,11 0 0 1 -2.6,-1.74 9.37,9.37 0 0 0 -1.31,-2.39 c 0.51,-1.16 1,-2.32 1.52,-3.48 z"
       id="path116"
       inkscape:connector-curvature="0"
       style="fill:#b9e0f4;fill-rule:evenodd" />
    <path
       class="cls-1"
       d="m 647.32,499.75 a 10.1,10.1 0 0 1 4.83,2.76 c 0.33,7.73 -4.68,10.22 -10.58,8.05 a 12.49,12.49 0 0 1 -0.91,-6 l 3.21,-3.45 z"
       id="path118"
       inkscape:connector-curvature="0"
       style="fill:#b9e0f4;fill-rule:evenodd" />
    <path
       class="cls-1"
       d="m 586.07,605.51 c 0.61,0.09 1.23,0.16 1.84,0.24 0.62,0.61 1.22,1.23 1.84,1.85 -0.08,1.13 -0.15,2.28 -0.23,3.44 l -2.76,1.37 c -1.49,-0.91 -2.93,-1.26 -3.68,-3 -0.59,-2 0.47,-2.58 1.37,-3.68 h 0.24 z"
       id="path120"
       inkscape:connector-curvature="0"
       style="fill:#b9e0f4;fill-rule:evenodd" />
    <path
       class="cls-1"
       d="m 468.79,541.23 c 4.12,0.64 10.94,4.12 8.06,10.57 -2.12,5.13 -11.78,7.9 -14.72,1.62 -3.63,-7.77 1.87,-9.42 6.66,-12.19 z"
       id="path122"
       inkscape:connector-curvature="0"
       style="fill:#b9e0f4;fill-rule:evenodd" />
    <path
       class="cls-1"
       d="m 542.84,620.69 0.92,0.46 c -0.07,0.16 -0.16,0.31 -0.23,0.47 h -0.92 c 0.08,-0.31 0.15,-0.62 0.23,-0.93 z"
       id="path124"
       inkscape:connector-curvature="0"
       style="fill:#b9e0f4;fill-rule:evenodd" />
    <path
       class="cls-1"
       d="m 671.56,346.93 4.6,0.23 c 0.59,2.13 -0.64,2.58 -2.3,1.84 l -2.3,0.23 -0.92,-0.45 c 0.15,-0.55 0.31,-1.08 0.45,-1.62 z"
       id="path126"
       inkscape:connector-curvature="0"
       style="fill:#b9e0f4;fill-rule:evenodd" />
    <path
       class="cls-1"
       d="m 783.92,278.12 c -3.76,-3.08 -5,-12.22 2.66,-13.21 6.89,-0.89 3.79,3 7.31,5.74 3.52,2.74 6.37,0.5 8.09,6.61 1.4,5 -5.29,12.29 -9,14.59 -5.74,-7.06 -0.83,-0.92 -10.74,-0.1 -12.24,1.02 -2.84,-8.75 1.68,-13.63 z"
       id="path128"
       inkscape:connector-curvature="0"
       style="fill:#b9e0f4;fill-rule:evenodd" />
    <path
       class="cls-1"
       d="m 701.92,390.15 c 0.6,0.09 1.22,0.16 1.83,0.24 l 1.84,1.85 c -0.08,1.14 -0.15,2.29 -0.23,3.44 l -2.76,1.37 c -1.48,-0.91 -2.93,-1.26 -3.68,-3 -0.58,-2 0.47,-2.58 1.38,-3.68 h 0.23 z"
       id="path130"
       inkscape:connector-curvature="0"
       style="fill:#b9e0f4;fill-rule:evenodd" />
    <path
       class="cls-1"
       d="m 658.68,405.33 0.92,0.46 c -0.07,0.16 -0.16,0.31 -0.23,0.47 h -0.92 c 0.08,-0.26 0.16,-0.62 0.23,-0.93 z"
       id="path132"
       inkscape:connector-curvature="0"
       style="fill:#b9e0f4;fill-rule:evenodd" />
    <path
       id="path2201"
       class="cls-2"
       d="m 461.75,508.17 c -0.13,0.27 -0.88,1 -0.19,1.2 0.44,0.12 0.53,-1.03 0.19,-1.2 z m 0.38,1.34 c -0.74,-0.37 -2,0.82 -2.68,0.48 2.2,1.1 -1.09,4.91 -2.11,5.42 -0.74,0.36 -0.75,-1.33 -1.92,-0.2 -0.72,0.69 0.82,1.11 0.34,2.07 -1.16,2.32 -0.29,-0.19 -0.29,2.83 0,-1.55 -2.62,0.67 -2.74,0.57 -0.4,-0.3 0.88,-0.94 0.3,-1.29 -0.35,-0.22 -2.14,4.83 -2.4,3.79 a 2.87,2.87 0 0 1 0.52,-1.63 c -0.3,1.2 -2.16,1.09 -2.16,3.93 a 1.75,1.75 0 0 0 -3.4,-0.72 c 0.41,-1.64 -4.25,0.22 -4.56,0.43 -1.64,1.11 -2.72,4.79 -3,6.28 -0.8,4.6 1.69,7.17 -1,11.39 -1.18,1.87 -3.61,3.08 -4.36,5.35 -1,3 0.81,3.59 1,6.66 0.11,1.57 -1.66,3 -0.31,5.81 0.85,1.77 3.28,1.91 4.18,4 0.32,0.74 8,-3.63 8.58,-4.25 2.65,-3 4.21,-8 6,-11.68 1.64,-3.45 3.2,-7.11 5,-10.91 0.94,-2 1.77,-4.26 2.83,-6.19 1.06,-1.93 1.44,-1.54 2.36,-2.63 0.65,-0.79 -0.88,-0.21 -0.92,-0.42 0,0.15 0.77,-5.78 0.63,-5.67 0.85,-0.64 0.78,2 1.47,2.05 2.23,0.15 1.31,-14.13 -1.36,-15.47 z m -23.85,39.69 c 0.41,0.68 -0.26,1.2 -0.47,0.68 -0.32,-0.79 0.48,-0.7 0.47,-0.68 z"
       inkscape:connector-curvature="0"
       style="fill:#b9e0f4" />
    <path
       class="cls-2"
       d="m 643.77,218.89 c 0.26,-1.24 1,-4.06 2.18,-4.35 0.22,4.72 7,10.34 9.12,3.19 1.31,-4.33 -5.05,-6 -8.25,-3.63 -1.67,-1.09 -0.44,-9 -2.61,-11.52 -2.78,-3.23 -8.82,-3.72 -12.4,-5.41 -9.57,-4.51 -19.2,-11.45 -27.81,-17.45 -8.61,-6 -9.27,-10.17 -13.93,-20.63 -2.08,-4.68 0,-8.63 -7.83,-10.88 -1.88,1.93 6.4,17.41 7,20.23 -6.58,-1.27 -11.52,-7.61 -17.18,-10.65 -1.15,1.13 12,13.4 12,16.3 -9.27,4.62 -20.23,-3.27 -20.23,10.22 -4.14,0.67 -8.86,-0.6 -11.53,-3.47 5,-3.44 3.94,0.09 1.53,-4.57 6.61,-2.21 -5,-20.45 -7.52,-25.61 -3.23,-6.77 -5.57,-18.86 -11.61,-23.76 -1.79,12.44 30.18,49.47 2.35,51.38 -3.61,0.24 -25,-9.89 -26.28,-5.92 -0.27,0.84 17.36,15.43 18.49,15.43 -1,-4.13 6.47,-2 2,4.13 1.72,3 4.88,5.41 5.65,8.92 -6.69,1.65 -0.46,0.87 -9.57,0.87 -1.61,3.18 0.81,2.35 -2.6,5.44 3.53,2.35 -6.93,7.81 -5.07,15.72 1.29,5.47 7.77,3.41 1,9.31 -2.66,2.3 -9.4,0.92 -9.4,5.41 2.24,0.94 16,-4.64 13.49,1.95 -1.78,4.67 -14.14,0.5 -14.14,5.87 1,0.09 13.65,5.48 13.7,5.66 -7.38,6.38 -20.72,-5 -26.35,0.44 -8.49,8.27 12.07,6.91 13.08,10 0,0.12 -14.69,11 -16.7,12.92 -10.83,10.33 -23.53,20.23 -27.54,35.25 -2.05,7.68 -3.71,20.93 -16,12.8 -11.07,-7.34 1.3,-17.28 4.82,-25.52 4.21,-9.86 0.61,-21 -4,-30.45 -1.73,-3.5 -13.21,-12.11 -13.21,-14.14 22.09,-4.28 -6.88,-16.83 -2.39,-1.52 -9.76,-4.7 -18.34,-6.36 -28.73,-8.92 -8,-2 -10.67,-1.42 -16.19,-4.78 -4,-2.45 -13.89,-8.74 -16.4,-12.61 -2.35,-3.64 -2,-29.38 -7.39,-27.83 -1,5.53 0.61,13.21 1.13,18.7 0.46,4.76 3.37,16.71 1.69,20.66 -0.44,1 -7.31,6.81 -8.48,7.43 -3.28,1.74 -6.41,0.28 -9.78,1.27 -3.37,0.99 -4.21,5.25 -8.48,5.43 0.79,1.33 5,0.9 3.91,3.7 -0.75,2 -3.64,0.21 -4,2 -0.91,5.1 -1.19,10.45 -1.65,15.6 -0.71,8 0.09,8.64 2.57,15.65 4.18,11.78 -2.16,9.42 -12.66,4.76 -3.21,-1.42 -8.58,-3.37 -11.17,-5.54 -2.05,-1.71 -0.78,-3.82 -2.86,-5.36 -5.55,-4.09 -12,-2 -2.57,-8 a 10.4,10.4 0 0 1 4.91,0.48 c 0.79,-1 1.55,-2 2.29,-3.08 1.46,-0.83 4.17,-4.11 5.49,-5.24 a 26.14,26.14 0 0 1 4.4,-0.59 21.29,21.29 0 0 1 2.52,-5.16 c 1.31,-1.36 6,-5.85 6,-7.23 -4.84,-2.46 -14.2,10.94 -17.45,13.58 -2,1.65 -20.93,9.78 -19.76,11.23 -34.07,-16.24 -63,32.57 -72.33,58.13 -18.32,-14.34 -25.49,21 -5.17,18.5 -5.35,13.85 -20.4,19.2 -7.14,32.78 8.79,9 17.55,16.54 30.18,18.7 12.91,2.2 22.77,1.95 34.78,8.16 2.23,1.15 20,13.82 16.8,13.82 -11.61,0 13.71,29.38 14.75,25.21 -6.95,27.78 -1,83.73 31.11,94.4 18.86,6.27 41.51,-3.44 47.74,-21.95 3.11,-9.27 4.82,-13.87 13.28,-19.58 11,-7.43 18,-7.49 16.21,-22 -1.53,-12.15 -2,-19.47 1.66,-31.7 3.1,-10.37 8.4,-19.73 10,-30.62 1.71,-11.78 -0.14,-12 -9.12,-16.55 -2.87,-1.47 -13.88,-7.45 -14.12,-11.28 -0.32,-5.05 9.13,-7.48 11.17,-10.66 3.2,-5 1.8,-8.82 2.94,-14.4 1.14,-5.58 7.4,-9.89 8.1,-14.58 a 8.8,8.8 0 0 0 -5.33,-9.21 c -0.72,-0.31 -0.5,4.92 -4,3 -4.89,-2.67 -0.84,-1.6 -4,-5.81 -2.21,-2.93 -4.46,-6.25 -4,-9.88 -0.48,3.63 5.67,-5.43 4.28,-4.69 2.6,-1.4 2.77,-4.6 5.64,0.08 3.16,5.15 -3.22,8 1.41,10.95 6.74,4.3 17,-6.59 22.77,-7.44 5,-0.74 9.37,1.61 13.6,3.23 2.17,0.84 3.77,1.41 6.29,2.31 3.72,1.33 6.5,1.29 10,2.34 15.09,4.59 28.2,10.21 35.91,23.93 2,3.5 6.59,13.58 10.59,15.79 6,3.29 12.11,2.54 18.5,6.43 4.32,2.63 38.8,24.73 43.11,20.88 -1.63,-5 -10.63,-7.38 -14.64,-10.06 -5.3,-3.53 -13.1,-8.83 -15.59,-14.95 2.69,-3.61 8.22,1 11.31,0 -1.24,-2.71 -16.67,-6.29 -19.6,-7 -8,-1.88 -12.71,1.1 -19.71,-5 -5.7,-4.95 -8.07,-12.92 -13.85,-18.06 -7,-6.21 -16.07,-10 -24.43,-14 -6.21,-2.95 -20,-6.25 -23.41,-12.54 -4,-7.26 2.54,-16.16 6.63,-22.21 5.85,-8.67 11.24,-16.44 19.36,-23.3 4.48,-3.8 14.85,-14.09 20.87,-15.18 2.7,-0.49 7,0 9.13,1.78 2.49,2.06 -0.43,4.11 2.47,6.74 4.07,3.68 12.57,4.83 17.32,8.87 6.31,5.36 6,7.17 14.24,8.8 9.16,1.83 14.95,0.43 23.36,-2.45 19,-6.52 30.9,-8.6 41.46,-27.68 4,-7.17 5.92,-18.21 12.07,-22.78 4.3,-3.2 17.12,-1.25 19.77,-5.48 -5.07,-4.21 -13.92,-2.51 -11.97,-11.9 z m -316.6,75.67 c 5.71,1.93 14.29,2.27 17.83,8.05 -0.62,0.53 -12.38,-2.64 -12.83,-2.73 -4.25,-0.83 -16,-4.94 -19.71,-1.41 0.1,0 1.45,-10.21 1.55,-11 a 47.54,47.54 0 0 0 13.16,7.09 z"
       id="path135"
       inkscape:connector-curvature="0"
       style="fill:#b9e0f4" />
    <path
       class="cls-2"
       d="m 332.37,273.67 c 0.66,1 1.35,0.68 2,-0.23 -0.53,-0.9 -1.53,-0.5 -2,0.23 z"
       id="path137"
       inkscape:connector-curvature="0"
       style="fill:#b9e0f4" />
    <path
       class="cls-3"
       d="m 322.58,400.63 c -0.28,0.33 4.74,11.78 5.2,13.64 1.4,5.69 0.5,11.21 4,16.68 0.3,0.46 6.66,6.36 6.81,6.95 -0.6,-2.39 -7.31,4.29 -7.66,5.66 -0.68,2.76 4.35,10.93 0.84,12.92 -3.13,1.78 -2.85,-7.13 -3.56,-7.7 -3.31,-2.7 -2.74,-2.16 -7.84,-1.54 -1.23,0.14 -22.37,3.44 -20.69,1.75 a 9.89,9.89 0 0 0 1.43,0.69 c -2.34,0 2.42,-3.19 2,-2.22 a 11.65,11.65 0 0 0 4.3,-0.81 c 1,-2.58 0.44,-3.61 -1.69,-3.09 -0.36,-2.29 -3.83,-3.48 -2.85,-7.4 -0.35,1.43 -5.77,-2.91 -5.77,-2.12 0,-7.64 11.24,-13.18 15.79,-18.22 1.42,-1.56 3,-0.58 4.57,-2.82 2.1,-3 3.27,-8.92 5.12,-12.37 z"
       id="path139"
       inkscape:connector-curvature="0"
       style="fill:#a5daef;fill-rule:evenodd" />
    <path
       class="cls-3"
       d="m 331,506.59 c 0,-4.26 22,-1.68 24.14,-1.34 4.27,0.66 25.5,5.29 28.06,2.74 -3.36,3.35 -7,0 -10,1 -7.68,2.56 -3,0.91 -5.71,7.44 -0.57,1.4 -1,5.92 -1.33,6.87 -0.23,0.71 -3,0.67 -3.65,2.44 -2.1,5.37 1.45,12.1 0.29,17.59 -2.19,10.33 -13.1,7.5 -17.58,0.82 -3.76,-5.61 -1.63,-13 -3.36,-19 -1.73,-6 -10.86,-12.84 -10.86,-18.56 z"
       id="path141"
       inkscape:connector-curvature="0"
       style="fill:#a5daef;fill-rule:evenodd" />
    <path
       class="cls-3"
       d="m 429.47,422.4 c -0.89,3.55 -1.81,15.47 -0.83,17.23 a 29,29 0 0 0 4.3,6.64 c -3.15,3.15 -10.27,4.54 -14.55,4.23 -6.25,-0.45 -4.84,-2.57 -8.12,-5 -8.26,-6 -17.25,-8 -20.52,-19.65 C 386,412.67 391,404.38 406,406.44 c 10.57,1.47 16,9.76 23.47,15.96 z"
       id="path143"
       inkscape:connector-curvature="0"
       style="fill:#a5daef;fill-rule:evenodd" />
    <path
       id="path7869"
       class="cls-3"
       d="m 426.48,490.28 c -0.35,0.56 -0.69,0.65 -1,0.28 -0.04,-0.44 2.17,-2.24 1,-0.28 z"
       inkscape:connector-curvature="0"
       style="fill:#a5daef;fill-rule:evenodd" />
    <path
       id="path4385"
       class="cls-4"
       d="m 279.94,410.76 c -2.45,-3.39 -3.67,-3.3 -3.84,-8.42 -0.06,-1.54 3,-12.57 4.17,-11.43 2.58,2.58 4.67,20.87 -0.33,19.85 z"
       inkscape:connector-curvature="0"
       style="fill:#a5daef" />
    <path
       id="path4387"
       class="cls-4"
       d="m 276.81,396.48 c 0.21,-1.33 -0.92,-4.75 -0.2,-5.71 0.32,-0.43 3.33,-0.53 3.11,0.54 a 48.72,48.72 0 0 1 -2.91,5.17 z"
       inkscape:connector-curvature="0"
       style="fill:#a5daef" />
    <path
       id="path57"
       class="cls-4"
       d="m 640.87,478.64 c 0.55,-4.24 -7.35,-7.9 -10.5,-8.61 -0.91,1.17 1.52,-1.72 0.43,-0.93 1.55,1.31 17,8.13 11.17,12.25 z"
       inkscape:connector-curvature="0"
       style="fill:#a5daef" />
    <path
       id="path59"
       class="cls-4"
       d="m 629.37,484.69 c 3.79,4.15 5.81,-6.77 5.86,-6.83 a 5.89,5.89 0 0 0 3.09,-0.16 c 2,6 -15.71,18 -20.44,8.22 -0.64,-1.33 10.2,-0.12 9.68,-3.38 -0.25,4.51 1.14,0.01 1.81,2.15 z"
       inkscape:connector-curvature="0"
       style="fill:#a5daef" />
    <path
       id="path641"
       class="cls-4"
       d="m 626.25,468.56 c 1.55,-0.54 1.78,0.42 2.64,0.67 0.86,0.25 -3.7,0.56 -2.64,-0.67 z"
       inkscape:connector-curvature="0"
       style="fill:#a5daef" />
    <path
       id="path83"
       class="cls-2"
       d="m 578.29,469.35 h 0.05 c 0.1,-0.12 0.23,-0.08 0.36,0 0.13,0.08 0.07,0.06 0.12,0.06 0.05,0 0.13,0 0.19,0 0.06,0 0.1,0.06 0.15,0.07 0.05,0.01 0.12,0 0.18,0 h 0.08 l 0.07,0.07 a 0.59,0.59 0 0 1 0.23,0.05 c 0,0.09 0,0.16 0.14,0.17 0.14,0.01 0,0 0.07,-0.05 0.07,-0.05 0,0.1 0,0.14 0,0.04 0.19,0.1 0.28,0.13 a 2.11,2.11 0 0 1 0.36,0.09 l 0.2,0.11 a 0.69,0.69 0 0 0 0.13,0.05 l 0.09,0.05 a 1.72,1.72 0 0 1 0.29,0.11 l 0.12,0.06 h 0.09 c 0.05,0 0.07,0.08 0.12,0.1 0.05,0.02 0.13,0 0.19,0.06 a 3.49,3.49 0 0 0 0.39,0.19 2.67,2.67 0 0 0 0.36,0.14 c 0,0 0.1,0 0.13,0 0.03,0 0,0.1 0,0.16 h 0.11 c 0,0 0.13,0.13 0.18,0.14 0.05,0.01 0.38,-0.12 0.56,-0.09 0.18,0.03 0.14,0.16 0.18,0.17 0.04,0.01 0,0 0,0 a 0.51,0.51 0 0 1 0.22,0.15 h -0.06 c 0,0 0,0.07 0,0.12 0.09,0.07 0.13,0 0.19,0 l 0.05,-0.05 v 0 c 0.05,0 0.28,0.18 0.35,0.19 a 1.61,1.61 0 0 0 0.22,0 c 0,0 0.06,0.05 0.1,0.07 l 0.13,0.06 c 0.09,0 0.19,0 0.28,0 0.09,0 0.07,0.08 0.13,0.1 0.06,0.02 0.28,0.09 0.42,0.15 a 0.87,0.87 0 0 1 0.18,0.11 l 0.23,0.1 a 4.54,4.54 0 0 0 0.53,0.12 0.77,0.77 0 0 1 0.15,0 l 0.1,0.06 h 0.13 c 0.06,0 0.11,0.08 0.18,0.1 a 1.23,1.23 0 0 0 0.19,0 0.44,0.44 0 0 1 0.16,0.06 1.34,1.34 0 0 1 0.2,0 c 0.1,0 0.23,0.12 0.33,0.15 0.1,0.03 0.13,0 0.19,0 a 2.67,2.67 0 0 0 0.4,0.13 1.57,1.57 0 0 0 0.28,0.1 c 0.06,0 0.28,0 0.36,0 a 0.82,0.82 0 0 1 0.22,0 h 0.13 c 0.26,0 0.25,0.14 0.41,0.17 a 2.45,2.45 0 0 1 0.27,0 1.46,1.46 0 0 0 0.2,0.05 h 0.33 0.08 a 0.33,0.33 0 0 0 0.14,0 v 0 0 c 0,0 0.06,0.06 0.09,0.06 h 0.08 0.08 0.09 c 0.07,0 0.11,0.08 0.17,0.13 h 0.09 c 0.06,0.05 0,0.14 0.09,0.19 0.09,0.05 0.07,0 0.1,0.06 a 0.7,0.7 0 0 0 0,0.14 c 0.06,0.06 0.1,0 0.15,0.07 0.05,0.07 0.07,0.07 0.11,0.08 0.04,0.01 0.08,0 0.16,0 v 0 l 0.12,-0.12 v 0 0 c 0,0.06 0,0.12 0,0.18 0,0.06 0,0 0,0 0,0 0.11,0.06 0.23,0.07 0.12,0.01 0.07,0 0.13,0 l 0.28,0.23 c 0,0 0,0.1 0,0.14 v 0 c 0.08,0 0.14,0.09 0.22,0.12 a 0.69,0.69 0 0 1 0.13,0 l 0.15,0.1 c 0.08,0.06 0.11,0.24 0.21,0.33 h 0.08 0.07 0.07 c 0,0 0,0 0.08,0 a 2.09,2.09 0 0 0 0.5,0 c 0.06,0 0.08,0 0.15,0 v 0 a 0.25,0.25 0 0 1 -0.22,0.08 v 0 0 c 0,0 0,0.05 0,0.07 a 0.83,0.83 0 0 0 0.28,0.08 c 0,0 0,-0.06 0.06,-0.08 0.06,-0.02 0.05,0.19 0.27,0.19 v 0 0 c -0.06,-0.09 0.07,-0.14 0.11,-0.2 0.04,-0.06 0,0 0,0 a 0.19,0.19 0 0 0 0,-0.07 v 0 a 0.57,0.57 0 0 1 0.13,0 1.05,1.05 0 0 1 0.5,0 1,1 0 0 0 0.17,0 h 0.11 a 1.26,1.26 0 0 0 0.28,0 h 0.05 a 1.21,1.21 0 0 1 0.22,0.32 v 0.07 a 0.76,0.76 0 0 0 0,0.15 c 0,0 0,0 0,0.07 a 0.37,0.37 0 0 0 0.21,0.34 0.43,0.43 0 0 0 0.22,0.09 c 0.2,0 0.2,-0.08 0.41,0.07 a 0.4,0.4 0 0 1 0.24,0.05 v 0 a 0.14,0.14 0 0 1 0.11,0 l 0.14,0.11 c 0,0 0.1,0 0.14,0.05 0.04,0.05 0.31,0.15 0.3,0.24 a 0.29,0.29 0 0 1 -0.12,0.07 v 0 a 0.14,0.14 0 0 0 0.07,0.1 c 0.15,0.14 0.14,0.08 0.33,0.08 0.19,0 0.11,0.14 0.19,0.21 0.08,0.07 0.18,0.14 0.18,0.21 a 0.23,0.23 0 0 1 0,0.12 c 0,0 0.08,0 0.1,0 0.02,0 0.09,0.23 0.12,0.28 0.03,0.05 0,0 0.07,0 0.07,0 0,0 0.05,0.05 0.05,0.05 0.1,0 0.14,0.05 v 0 a 0.21,0.21 0 0 0 0.11,0 h 0.09 v 0 h 0.2 a 0.27,0.27 0 0 1 0.08,0.07 h 0.14 c 0.06,0 0.07,-0.06 0.15,-0.07 0.08,-0.01 0.1,0 0.2,0 h 0.12 c 0.16,0 0.25,0.14 0.34,0.24 0.09,0.1 0,0.09 0.08,0.11 0.19,0 0.23,0.19 0.32,0.26 0.09,0.07 0.11,0.11 0.18,0.22 a 0.63,0.63 0 0 0 0.12,0.11 0.52,0.52 0 0 1 0.06,0.13 c 0,0 0.06,0 0.09,0.05 v 0 0 h 0.05 v 0 l 0.14,0.22 c 0,0 0,0.06 0,0.09 a 1.3,1.3 0 0 0 0.15,0.18 c 0,0 0,0.08 0.07,0.12 a 1.42,1.42 0 0 1 0.13,0.12 l 0.17,0.17 c 0,0 0,0 0.05,0 0.05,0 0.06,0 0.07,0.07 h 0.06 a 1.13,1.13 0 0 1 0.2,0.13 v 0 c 0,0 0.11,0 0.15,0 a 0.21,0.21 0 0 1 0,0.1 H 604 c 0.12,0.16 0,0.17 0,0.27 a 0.48,0.48 0 0 0 0,0.15 c 0,0.08 0,0.08 0,0.17 v 0.12 a 1.26,1.26 0 0 0 0,0.27 c 0,0.09 0.08,0.16 0.11,0.24 0.03,0.08 0,0.06 0,0.07 a 0.13,0.13 0 0 0 -0.08,0 c 0,0 0,0 0,0 0,0 0,0 0,0.08 a 1.09,1.09 0 0 0 0,0.17 v 0 0 a 2.23,2.23 0 0 0 0,0.23 c 0,0.06 0.09,0.11 0.06,0.17 -0.03,0.06 -0.15,0.18 -0.18,0.25 a 2,2 0 0 1 -0.13,0.18 c 0,0.08 0.07,0.13 0.06,0.23 -0.01,0.1 -0.06,0.11 -0.09,0.17 a 0.85,0.85 0 0 0 0,0.17 0.52,0.52 0 0 0 0.22,0.39 h 0.09 a 0.45,0.45 0 0 0 0.16,0 v 0 0 0 h 0.16 l 0.09,0.06 h 0.05 v 0 c 0,0 0,0.08 0,0.12 v 0 c 0,0 0,-0.11 0.06,-0.13 v 0 0 -0.05 c 0,-0.08 0.13,0 0.2,0 l 0.06,-0.05 v 0 c 0,0 0,0.07 0.07,0.12 0.07,0.05 0.1,0 0.16,0 0.06,0 0.07,0.06 0.11,0.08 0.04,0.02 0.11,0 0.14,0 v 0 h 0.1 l 0.06,0.05 c 0.06,0 0.26,0.08 0.31,0 0.05,-0.08 0.1,0.12 0.17,0.15 0.07,0.03 0.09,0 0.14,0 0.05,0 0.09,0.07 0.14,0.08 0.05,0.01 0.07,0 0.12,0 0.05,0 0.1,0.1 0.17,0.12 0.07,0.02 0.27,-0.14 0.34,0 h 0.05 v 0 0 a 0.1,0.1 0 0 0 0,0.07 h 0.11 a 0.49,0.49 0 0 0 0.2,-0.05 c 0,0 0.05,0 0.08,0 0.2,0.06 0.08,0.11 0.17,0.18 l 0.16,0.07 a 0.88,0.88 0 0 1 0.34,0.24 0.27,0.27 0 0 0 0.07,0.08 1.24,1.24 0 0 1 0.32,0.23 c 0.05,0 0.1,0 0.15,0 h 0.07 0.08 c 0.07,0 0.13,0.1 0.2,0.12 0.07,0.02 0.1,0 0.2,0.05 0.1,0.05 0,0 0,0 a 0.94,0.94 0 0 0 0.06,0.15 l 0.11,0.06 v 0 c 0,0 0.08,-0.07 0.13,-0.09 a 0.44,0.44 0 0 1 0.28,0 h 0.07 0.08 a 0.47,0.47 0 0 0 0.06,0.09 c 0,0 0,0 0,0 0,0 0,0.11 0.09,0.17 0.09,0.06 0.09,0 0.12,0.06 0.03,0.06 0.06,0.06 0.1,0.08 h 0.11 l 0.08,0.05 v 0 c 0.1,-0.06 0,-0.19 0.22,-0.05 v 0.06 c 0,0 0,0.08 0.07,0.09 v 0 h 0.13 0.06 a 0.91,0.91 0 0 1 0.17,0 1.7,1.7 0 0 1 0.22,0 h 0.12 c 0.09,0 0.17,-0.22 0.27,-0.19 0.1,0.03 0.05,0 0.07,0 0.02,0 0.1,0 0.14,0 v 0 -0.07 0 l 0.28,0.16 a 0.92,0.92 0 0 0 0.16,0 v 0 l 0.14,0.05 h 0.08 v 0 c 0,0 0,0.06 0.08,0.1 0.08,0.04 0.06,0 0.08,0.07 a 0.25,0.25 0 0 0 0,0.07 l 0.07,0.07 c 0.08,0.07 0.19,0.06 0.26,0.14 a 1.85,1.85 0 0 1 0.22,0.29 c 0,0.05 0.1,0.08 0.13,0.13 0.03,0.05 0,0.09 0.06,0.13 0.06,0.04 0.1,0.08 0.14,0.15 0.04,0.07 0,0.11 0.05,0.18 0.05,0.07 0,0.09 0.06,0.13 a 0.54,0.54 0 0 1 0.09,0.12 0.53,0.53 0 0 0 0.22,0.12 c 0.11,-0.05 0.22,0.15 0.3,0.2 h 0.07 c 0.07,0.09 0,0.16 0,0.23 0,0.07 0.08,0.08 0.11,0.12 l 0.11,0.36 a 0.32,0.32 0 0 0 0,0.09 v 0.06 c 0,0 0,0.06 0,0.09 0,0.03 -0.05,0.08 -0.05,0.13 0,0.05 0.08,0.19 0.06,0.25 a 0.27,0.27 0 0 0 -0.1,0.08 0.15,0.15 0 0 0 0,0.11 0.11,0.11 0 0 1 0.08,0 v 0 a 0.72,0.72 0 0 1 0,0.29 c -0.06,0 -0.09,0.1 -0.14,0.14 h -0.08 c 0,0 0,0.06 -0.07,0.07 h -0.11 c -0.06,0 -0.1,0.05 -0.17,0.05 v 0 a 0.38,0.38 0 0 1 -0.15,0 2.46,2.46 0 0 1 -0.26,0 v 0 c 0,0 -0.07,0 -0.11,0 -0.04,0 0,0 -0.07,0 -0.07,0 -0.05,0 -0.09,0 -0.04,0 -0.09,0 -0.13,0 -0.04,0 -0.12,0.14 -0.21,0.16 -0.09,0.02 -0.07,0 -0.12,0 a 0.32,0.32 0 0 0 -0.13,0 h -0.17 a 2.62,2.62 0 0 0 -0.38,-0.09 c -0.07,0 -0.4,0.12 -0.43,0.11 -0.03,-0.01 -0.13,-0.06 -0.16,-0.06 h -0.09 c -0.16,-0.1 -0.36,0.06 -0.54,0 v 0 c -0.18,-0.23 -0.13,-0.11 -0.36,-0.12 a 0.59,0.59 0 0 0 -0.19,0 c -0.07,0 -0.12,0.11 -0.21,0.13 a 0.55,0.55 0 0 0 -0.17,0 v 0 c 0,0 -0.09,0 -0.15,0 v 0 c 0,0 0,0.08 0,0.12 0,0.04 0,0.06 0,0.09 0,0.03 -0.09,0.28 -0.08,0.36 a 0.43,0.43 0 0 1 0,0.11 c 0,0.05 0,0.08 0,0.12 a 0.41,0.41 0 0 0 0,0.16 c 0,0 0,0.09 0,0.13 0,0.04 0,0 0,0.06 0,0.06 0.1,0.13 0.2,0.2 0.1,0.07 0.09,0 0.11,0.07 0.02,0.07 0,0.07 0.06,0.09 h 0.05 v 0 0 c 0,0 0,-0.1 0.11,-0.14 h 0.06 v 0 a 0.34,0.34 0 0 1 -0.09,0.15 v 0.06 c 0.12,0 0,0.26 0,0.36 0,0.1 0.08,0 0.12,0.07 a 1,1 0 0 1 0.32,0.41 c 0,0.14 -0.06,0.31 0,0.37 h 0.07 v 0 l -0.07,0.08 v 0 a 0.35,0.35 0 0 0 0.08,0.05 v 0 a 0.76,0.76 0 0 0 0,0.26 h 0.06 c 0,0.06 0,0.14 0.07,0.18 0.07,0.04 0.08,0 0.1,0.05 v 0 c 0,0 -0.07,0.06 -0.09,0.09 v 0 c 0.06,0.06 0.14,0 0.17,0 0.03,0 0,0.07 0,0.11 0,0.04 0.13,0 0.17,0 0.04,0 0,-0.08 0.08,-0.08 v 0 c 0,0 0.06,0 0.08,0.07 v 0 0 c 0.07,0.05 0.08,0 0.13,0 0.05,0 0.18,0.05 0.23,0 v 0 a 0.11,0.11 0 0 0 0,0.08 c 0,0 0,0 0.08,0 0.08,0 0.09,0.17 0.14,0.21 v 0 0 c 0.11,0 0.15,0.08 0.24,0.11 v 0 0 c 0,0 0,0 0,0 h 0.1 a 0.92,0.92 0 0 1 0.25,0.27 c 0,0.06 -0.11,0 0,0.2 0.11,0.2 0.14,0 0.21,0 h 0.09 c 0,0 0,0 0.09,0 0.09,0 0,0.05 0,0.09 0,0.04 0,0 0.06,0.05 a 0.35,0.35 0 0 1 -0.05,0.13 v 0 c 0.06,0 0,0.1 0,0.16 h 0.08 a 0.16,0.16 0 0 1 0,0.13 c 0,0 0,0 0,0 v 0 a 0.13,0.13 0 0 0 0.13,0 c 0,0 0.1,0 0.11,0 0.01,0 -0.1,-0.06 -0.12,-0.13 v 0 0 0 0.06 c 0,0 0.09,0 0.11,0 0.02,0 0,0.07 0,0.1 0,0.03 0.08,0 0.09,0.09 a 1.66,1.66 0 0 1 0,0.22 c 0,0.05 0,0.1 0,0.14 a 0.3,0.3 0 0 0 0.19,0.24 0.37,0.37 0 0 0 0.15,0 c 0,0 0,-0.07 0.1,-0.07 v 0 c 0,0 0.08,0 0.13,0 v 0 0 c 0.1,0 0.11,-0.09 0.24,-0.05 0.13,0.04 0.1,0.07 0.16,0.12 a 0.21,0.21 0 0 0 0.11,0 c 0,0 0.07,0.08 0.12,0.09 h 0.09 c 0,0 0.08,0 0.11,0.08 0.03,0.08 0,0.32 0.14,0.36 h 0.12 v 0 a 0.13,0.13 0 0 1 0.18,0.05 c 0.18,-0.08 0.12,0 0.24,0 0.12,0 0.11,-0.11 0.16,-0.07 a 0.13,0.13 0 0 1 0,0.12 c 0,0 0,0 0,0 0,0 0,0.06 0,0.09 0,0.03 0,0 0,0.05 0,0.05 0,0.09 0,0.12 v 0 c 0,0.06 0,0.1 0,0.15 0,0.05 0.1,0.13 0.12,0.17 0.02,0.04 0,0.16 0,0.22 a 0.78,0.78 0 0 0 0.1,0.15 1.14,1.14 0 0 1 0.07,0.32 v 0 a 1.09,1.09 0 0 0 0,0.44 c 0,0.09 0.12,0.18 0.15,0.27 0.03,0.09 -0.07,0.14 -0.07,0.21 0,0.07 0,0.15 0,0.17 0,0.2 0,0.28 0.21,0.38 l 0.06,0.05 a 0.37,0.37 0 0 1 0.16,0.09 h 0.16 c 0.12,0 0.32,0.15 0.35,0.27 0.03,0.12 0.11,0.05 0.14,0.06 0.03,0.01 0.06,0 0.09,0 0.03,0 0.06,0.18 0.11,0.25 0.05,0.07 0.09,0.05 0.1,0.08 a 0.31,0.31 0 0 1 0,0.1 c 0,0.07 0,0.14 0,0.21 a 0.76,0.76 0 0 0 0,0.16 c 0,0 0,0.07 0,0.1 a 0.34,0.34 0 0 1 0,0.1 v 0 c 0,0.05 0,0.11 0,0.15 h 0.11 c 0,0 0,0.07 0.08,0.1 0.08,0.03 0,0.08 0,0.13 0,0.05 0,0.2 0,0.26 v 0.08 c 0,0 0.09,0.08 0.12,0.12 0.03,0.04 0.1,0.15 0.15,0.21 l 0.09,0.07 c 0.09,0 0.15,0 0.23,0 a 1.23,1.23 0 0 0 0.41,0.1 c 0.06,0 0.1,0 0.15,0 a 2,2 0 0 0 0.26,0 c 0,0 0.07,-0.06 0.11,-0.06 0.04,0 0.06,0 0.11,0 0.05,0 0.07,-0.05 0.11,-0.07 0.04,-0.02 0.07,0 0.11,0 a 0.26,0.26 0 0 1 0,-0.15 h 0.1 c 0.09,0.05 0.12,0.08 0.22,0 a 0.38,0.38 0 0 1 0.13,0.06 0.14,0.14 0 0 0 0.09,0 c 0,0 0.06,0 0.09,0 0.03,0 0.06,-0.05 0.07,-0.07 v 0 h 0.09 v 0 c 0,0 0.06,0 0.09,0 v 0 a 0.46,0.46 0 0 1 0.11,-0.16 v 0 c 0,0 0.09,0 0.1,-0.06 0.01,-0.06 0.09,-0.09 0.12,-0.11 v 0 c 0,0 0,0.11 0,0.15 a 0.11,0.11 0 0 0 0.11,0 v 0 0 c 0.07,0 0.22,-0.06 0.27,-0.06 0.05,0 0.07,0 0.09,0 0.02,0 0,0 0.09,0 v 0 0 c 0,0 0,0.05 0,0.07 v 0 a 0.21,0.21 0 0 1 0.1,0 v 0 c 0,0 0,0 0,0.06 v 0 0 a 0.06,0.06 0 0 1 0.07,0 0.11,0.11 0 0 0 0,0.08 c 0,0 0,0.1 0,0.14 0,0.04 -0.06,0 -0.08,0.08 v 0.05 c 0,0 0,0 0,0 h 0.09 v 0 c 0,0.05 -0.15,0 -0.18,0.06 -0.03,0.06 0.11,0.06 0.16,0.06 a 0.13,0.13 0 0 1 0.09,0 0.1,0.1 0 0 1 0,0.07 c 0,0.07 0,0.07 -0.07,0.11 v 0 c 0,0 -0.06,0 -0.08,0 -0.02,0 0,0.05 -0.06,0.06 -0.06,0.01 -0.06,0 -0.09,0 -0.03,0 -0.07,0.15 -0.17,0.23 -0.1,0.08 0,0.07 0,0.14 0,0.07 -0.07,0.16 -0.1,0.25 a 0.5,0.5 0 0 1 0,0.12 c 0,0.06 -0.15,0.05 -0.22,0.18 -0.07,0.13 0.07,0.31 0.1,0.4 0.03,0.09 0,0.1 0,0.15 a 0.83,0.83 0 0 0 0.14,0.22 1.15,1.15 0 0 0 0.23,0.1 c 0.06,0 0.1,0 0.16,0 0.06,0 0.11,0.08 0.17,0.09 h 0.05 c 0.09,0.05 0.14,0.14 0.22,0.18 h 0.11 c 0,0 0,0.08 0,0.11 0,0.03 0.09,0 0.14,0 v 0 c 0,0 0,0 0,0.08 0,0.08 0.07,0.07 0.12,0.07 h 0.07 a 0.55,0.55 0 0 0 0.18,0 c 0,0 0,0 0.06,0.06 l 0.06,-0.05 a 0.11,0.11 0 0 1 0.11,0 c 0,0 0,0 0,0.05 0,0.05 0.27,0.14 0.37,0.13 0.1,-0.01 0.15,-0.12 0.26,-0.09 h 0.08 c 0,0 0,0 0.07,0 v 0 0 c 0.27,-0.09 0.27,0.08 0.35,0.08 h 0.06 0.1 v 0 c 0.06,0 0.09,-0.05 0.15,0 0.06,0.05 0.14,0.12 0.21,0.12 h 1.78 0.08 0.11 0.08 a 0.57,0.57 0 0 1 0.26,0 c 0.09,0.08 0,0.14 0.08,0.23 a 0.14,0.14 0 0 0 0.09,0 0.13,0.13 0 0 1 0.06,0.15 c 0,0 0,0 0,0.05 a 0.07,0.07 0 0 1 0,0.09 c -0.19,-0.07 -0.23,0.09 -0.31,0.13 h -0.1 c 0,0 -0.06,0 -0.08,0 -0.02,0 -0.14,0.08 -0.22,0.08 h -0.11 c 0,0 0,0 -0.06,0.05 h -0.05 c -0.11,0.05 -0.1,0 -0.2,0 -0.1,0 -0.13,0 -0.18,0 -0.05,0 0,0.05 -0.09,0.06 h -0.08 c 0,0 0,0 -0.07,0.05 -0.07,0.05 -0.22,0.08 -0.22,0.17 a 0.06,0.06 0 0 0 0,0.05 c 0,0 0,0 0,0.06 0,0.06 0.12,0.1 0.12,0.16 v 0 a 0.25,0.25 0 0 0 0,0.07 0.54,0.54 0 0 0 0.21,0.08 0.37,0.37 0 0 0 0.12,0.13 c 0,0 0,0.05 0,0.07 0,0.02 0.08,0.11 0.09,0.15 a 0.09,0.09 0 0 1 0.06,0.06 0.23,0.23 0 0 0 0,0.11 v 0 0 0 a 0.13,0.13 0 0 1 0.16,0 l 0.1,0.15 a 1.44,1.44 0 0 0 0.4,0.18 c 0.05,0 0.11,-0.05 0.16,-0.05 0.05,0 0.25,0.07 0.31,0.06 h 0.08 c 0.06,0 0.11,0.16 0.18,0.19 0.07,0.03 0.18,-0.08 0.25,-0.1 h 0.07 c 0.08,0 0.1,0.13 0.15,0.17 0.05,0.04 0.07,0 0.19,0.06 0.12,0.06 0,0.06 0.06,0.09 a 0.86,0.86 0 0 0 0.26,0.21 c 0,0 0.09,0 0.13,0 0.04,0 0.08,0 0.11,0 h 0.25 a 0.41,0.41 0 0 1 0.11,0 v 0 c 0,0 0.19,-0.1 0.23,0 v 0 c 0.12,0 0.14,0 0.22,0.1 v 0 c 0.08,0 0.07,-0.12 0.2,-0.12 0.13,0 0,0 0.07,0 0.07,0 0.1,0 0.14,0 0.04,0 -0.07,0.1 -0.11,0.13 -0.04,0.03 0.09,0.06 0.13,0.09 0.04,0.03 0,0.08 0.06,0.12 h 0.08 0.07 a 3,3 0 0 0 0.4,-0.11 c 0.07,0 0.31,0 0.35,0 0.04,0 0,0 0,-0.05 h 0.1 c 0,0 0.08,-0.06 0.12,-0.09 a 0.32,0.32 0 0 1 0.17,0 h 0.06 v 0 0 c 0,0.05 -0.14,0.08 -0.19,0.1 -0.05,0.02 0,0 -0.06,0.05 l -0.24,0.09 a 1.29,1.29 0 0 1 -0.16,0.09 v 0 l -0.12,0.09 a 0.7,0.7 0 0 1 -0.18,0 c 0,0 -0.06,0 -0.09,0.05 -0.03,0.05 -0.1,0 -0.19,0.1 -0.09,0.1 -0.1,0 -0.15,0 a 0.17,0.17 0 0 1 -0.1,0 h -0.06 -0.06 -0.14 -0.1 a 0.64,0.64 0 0 1 -0.14,-0.08 c -0.07,0 -0.13,0 -0.2,0 a 0.41,0.41 0 0 1 -0.11,-0.07 h -0.1 -0.06 a 0.57,0.57 0 0 0 -0.13,0.08 h -0.12 v 0 c 0,0 0,0.08 0,0.12 a 1,1 0 0 0 0,0.18 c 0,0 0,0 0.08,0.06 l 0.4,0.05 c 0.07,0 0.13,0.06 0.19,0.07 h 0.13 a 0.87,0.87 0 0 0 0.1,0.08 c 0,0 0.12,0 0.17,0.06 l 0.11,0.07 v 0 a 1.55,1.55 0 0 1 0.23,0.08 c 0.05,0 0.11,0 0.16,0 0.05,0 0.07,0.16 0.11,0.29 0.04,0.13 0.08,0.06 0.11,0.12 v 0.05 l -0.06,0.08 a 2.44,2.44 0 0 1 -0.31,0.06 c -0.1,0 -0.18,0.15 -0.29,0.18 -0.11,0.03 -0.13,0 -0.2,0 a 0.15,0.15 0 0 1 -0.07,0 c -0.07,0 -0.19,0 -0.23,0 -0.04,0 0,0.13 -0.06,0.16 -0.06,0.03 -0.1,0 -0.18,0 v 0 a 0.27,0.27 0 0 1 0,0.09 v 0 a 0.23,0.23 0 0 0 -0.18,0 v 0 h -0.06 c 0,0 0,0 0,0 v 0 a 0.25,0.25 0 0 0 0,-0.11 0.22,0.22 0 0 0 -0.11,0 c 0,0 -0.1,0.08 -0.14,0.1 v 0 c -0.09,0 -0.14,0.07 -0.22,0.09 v 0 -0.08 0 0.07 h -0.08 c 0,0 0,0 -0.07,0 v 0 0 c -0.07,0 -0.1,0 -0.14,-0.08 -0.04,-0.08 0,-0.09 0.07,-0.09 v 0 0 0 c -0.07,0 -0.21,0 -0.26,0 a 0.24,0.24 0 0 0 -0.06,0.08 v 0 0 c 0,0 -0.08,0 -0.1,-0.07 a 0.2,0.2 0 0 0 0,-0.08 v 0 0 0 0 a 0.11,0.11 0 0 0 0,-0.06 0.09,0.09 0 0 0 -0.12,0 v 0 0 a 0.06,0.06 0 0 1 -0.06,0 v 0 c 0,0 0.07,-0.05 0.1,-0.08 0.03,-0.03 -0.1,-0.22 -0.18,-0.16 -0.08,0.06 0,0.06 0,0.09 v 0 h -0.08 c 0,0 0,0 0,0 h -0.07 c 0,0 0,-0.07 0,-0.09 v 0 0 c 0,0 0,0 -0.05,0.06 v 0 c 0,0 0,0 0,-0.06 H 626 c 0,0 0,-0.1 -0.12,-0.09 v 0 a 0.25,0.25 0 0 0 0,0.07 v 0 h -0.08 v 0 c 0,0 -0.12,0 -0.13,-0.07 v 0 0 c 0,0 0.14,0 0.17,-0.05 a 0.31,0.31 0 0 1 0,-0.1 v 0 h -0.09 c 0,-0.08 0.07,-0.08 0.12,-0.08 v 0 c 0,0 0.09,0.09 0.14,0.07 v 0 a 1.09,1.09 0 0 1 0.18,0 l 0.07,0.07 c 0.06,0 0.09,0 0.14,0 0.05,0 0.22,0 0.26,-0.22 a 0.58,0.58 0 0 0 0.14,0 c 0,0 -0.08,-0.05 -0.13,-0.05 -0.05,0 -0.06,0 -0.1,0 -0.04,0 -0.16,-0.09 -0.24,-0.12 h -0.07 -0.11 c 0,0 -0.06,0 -0.09,0.06 -0.03,0.06 0,0.2 0,0.24 H 626 v 0 c 0,-0.05 0,-0.13 0,-0.19 0,-0.06 0,0 -0.06,-0.06 -0.06,-0.06 0,-0.13 -0.07,-0.17 -0.07,-0.04 -0.18,-0.09 -0.24,-0.12 a 1.36,1.36 0 0 0 -1.06,-0.24 c -0.07,0 -0.15,0 -0.22,0 -0.07,0 -0.12,-0.05 -0.17,0 -0.05,0.05 0,0.07 -0.11,0.07 a 0.2,0.2 0 0 0 -0.11,0 v 0 a 0.1,0.1 0 0 0 0.05,0 v 0 c -0.06,0 -0.19,0 -0.22,0 a 0.28,0.28 0 0 0 0,-0.09 h -0.1 v 0 c 0,0 0,0 0,0.05 v 0 a 0.26,0.26 0 0 1 -0.15,0 v 0 h 0.07 a 0.11,0.11 0 0 0 0,-0.05 c 0,-0.06 -0.12,0 -0.17,0 -0.05,0 0,-0.16 -0.07,-0.18 h -0.15 c 0,0 0,-0.05 -0.11,0 -0.11,0.05 -0.1,0.18 -0.19,0.15 v 0 c 0,0 0,0 -0.08,0 a 1.46,1.46 0 0 1 -0.3,-0.07 0.39,0.39 0 0 1 -0.11,-0.06 l -0.26,-0.11 -0.2,-0.06 c 0,0 -0.06,0 -0.1,0 a 0.34,0.34 0 0 0 -0.15,-0.06 c 0,0 -0.06,0 -0.1,0 -0.04,0 -0.06,0 -0.1,0 a 1.07,1.07 0 0 0 -0.19,0.07 0.5,0.5 0 0 0 -0.2,0.08 c 0,0 -0.07,0.1 -0.11,0.11 -0.04,0.01 -0.08,-0.07 -0.14,-0.12 l -0.18,-0.08 a 0.88,0.88 0 0 0 -0.53,-0.08 h -0.07 v 0 0 c -0.08,0 -0.18,0 -0.25,-0.05 v 0 0 0 -0.06 0 h -0.05 v 0 0 0 h -0.06 v 0 c 0.07,-0.06 0.2,0 0.23,-0.09 0.03,-0.09 0,-0.06 -0.09,-0.13 v 0 c 0,0 0,0.09 -0.07,0.11 -0.07,0.02 0,-0.05 -0.08,-0.07 -0.08,-0.02 -0.06,0 -0.08,0 a 0.26,0.26 0 0 0 -0.07,-0.19 v 0 0.06 0 0 a 0.08,0.08 0 0 1 0,0.08 v 0 h -0.08 a 0.83,0.83 0 0 1 -0.11,0.15 c -0.06,0 -0.14,0 -0.2,0 -0.06,0 -0.15,0 -0.22,0 h -0.1 v 0 c 0,0 -0.09,0.08 -0.16,0.1 -0.07,0.02 -0.1,0 -0.2,0 -0.1,0 -0.12,0 -0.17,0 -0.05,0 -0.14,0 -0.21,0 h -0.06 l -0.17,-0.08 c 0,0 -0.07,0 -0.1,0 -0.03,0 0,-0.25 -0.24,-0.27 a 0.12,0.12 0 0 0 -0.08,0 0.15,0.15 0 0 0 -0.05,0.06 v 0 l -0.06,-0.09 h -0.05 a 0.08,0.08 0 0 0 0,-0.05 h -0.09 c -0.05,0 -0.12,-0.08 -0.18,-0.06 h -0.06 -0.05 a 0.15,0.15 0 0 1 0,-0.07 0.18,0.18 0 0 0 0,-0.07 v 0 a 1.21,1.21 0 0 1 -0.05,0.14 l -0.12,0.06 c 0,0 -0.07,0.07 -0.12,0.1 -0.05,0.03 -0.17,0 -0.25,0.07 -0.08,0.07 -0.14,-0.07 -0.2,-0.07 -0.06,0 -0.09,0.29 -0.33,0.16 0,-0.1 0,-0.08 -0.1,-0.15 -0.1,-0.07 0,0 0,-0.06 0,-0.06 0,0 -0.06,-0.05 -0.06,-0.05 0,-0.12 -0.13,-0.12 -0.13,0 0,0 -0.06,0 a 0.42,0.42 0 0 1 -0.22,0 v 0 0 c 0,0 0.1,0 0.12,-0.06 0.02,-0.06 0,-0.27 -0.14,-0.2 -0.14,0.07 0,0.18 0,0.21 0,0.03 -0.15,-0.15 -0.24,-0.17 a 0.36,0.36 0 0 0 -0.33,0.13 c 0,0 0,0.08 -0.07,0.11 v 0 0 c 0,0 0,-0.09 0,-0.14 0,-0.05 0,-0.16 0,-0.24 v 0 A 1.1072488,1.1072488 0 0 0 614,509 l -0.14,-0.09 v 0 0 c -0.06,0 -0.25,-0.14 -0.27,-0.2 -0.02,-0.06 -0.08,-0.11 -0.13,-0.19 -0.05,-0.08 -0.14,-0.1 -0.18,-0.13 -0.04,-0.03 0,0 0,-0.05 0,-0.05 -0.09,-0.06 -0.11,-0.11 a 0.13,0.13 0 0 0 0,-0.06 0.5,0.5 0 0 0 0,-0.32 c 0,0 0,-0.07 -0.05,-0.1 -0.05,-0.03 0,0 0,-0.06 0,-0.06 -0.08,-0.09 -0.11,-0.14 l -0.13,-0.17 v 0 l -0.14,-0.12 c 0,0 -0.06,-0.15 -0.09,-0.2 -0.03,-0.05 -0.14,-0.12 -0.23,-0.21 v -0.07 c 0,-0.07 -0.13,-0.11 -0.19,-0.1 v 0 a 0.38,0.38 0 0 0 0,-0.15 c 0,0 0,-0.06 -0.09,-0.06 a 0.41,0.41 0 0 1 -0.05,-0.09 c 0,0 -0.06,0 -0.08,0 -0.02,0 -0.07,-0.06 -0.12,-0.06 -0.05,0 0,0 0,0 v 0 l 0.08,0.09 v 0 0 0 c 0,0 -0.28,-0.17 -0.3,-0.17 v 0 a 0.43,0.43 0 0 0 0,-0.07 h -0.09 v 0 c 0,0 0,-0.08 0,-0.12 a 1.23,1.23 0 0 0 -0.14,-0.25 h -0.21 v 0 a 0.15,0.15 0 0 1 0,0.06 h 0.06 v 0 c 0,0.06 0,0.13 0,0.18 v 0 0 h -0.06 c 0,0 0,0 0,-0.06 0,-0.06 -0.07,0 -0.11,0 a 1.51,1.51 0 0 1 -0.25,-0.37 0.21,0.21 0 0 1 -0.1,-0.16 c 0,-0.06 0,-0.11 0,-0.18 a 0.38,0.38 0 0 0 0,-0.1 c 0,-0.11 -0.13,-0.29 -0.26,-0.28 -0.13,0.01 -0.08,0 -0.14,0.08 -0.06,0.08 -0.12,0 -0.13,-0.08 v 0 0 h 0.06 v 0 a 0.06,0.06 0 0 0 0,-0.07 0.06,0.06 0 0 1 -0.07,0 c 0,0 0,-0.1 0,-0.15 0,-0.05 -0.06,-0.15 0,-0.21 0.06,-0.06 0,0 0.06,0 v 0 c 0,-0.05 -0.06,-0.09 -0.08,-0.14 a 0.08,0.08 0 0 1 0,-0.05 v 0 h 0.08 c 0,0 0,-0.05 0,-0.08 0,-0.03 0.07,0 0.1,0 0.03,0 0.05,-0.07 0.1,-0.09 0.05,-0.02 0.05,0 0.07,0 v -0.1 0 a 0.35,0.35 0 0 0 0,-0.11 0.5,0.5 0 0 1 0,-0.13 v 0 0 h -0.08 a 0.15,0.15 0 0 0 0,0.07 0.1,0.1 0 0 0 0,0.07 c 0,0 0,0 0,0 v 0 l -0.09,0.06 c 0,0 0,0.08 -0.11,0.11 -0.11,0.03 -0.11,0.06 -0.17,0.05 a 2,2 0 0 1 -0.4,-0.17 v 0 0 c -0.1,0 -0.22,-0.14 -0.33,-0.06 a 0.09,0.09 0 0 1 -0.09,0 0.78,0.78 0 0 1 -0.23,-0.08 H 609 c -0.07,0 -0.13,0 -0.2,0 -0.07,0 -0.11,-0.1 -0.16,-0.13 h -0.08 a 2,2 0 0 1 -0.15,-0.33 v 0 c 0,0 0,-0.05 0,-0.07 a 0.15,0.15 0 0 1 -0.06,-0.05 v 0 0 l 0.06,-0.23 h 0.16 a 0.31,0.31 0 0 0 0.12,-0.24 v 0 0 a 0.1,0.1 0 0 0 0,0.07 v 0 a 0.18,0.18 0 0 1 -0.1,0 v 0 c 0,0 0,0 0,-0.06 a 0.59,0.59 0 0 0 0,-0.08 v 0 c 0,0 -0.06,-0.14 -0.12,-0.16 -0.06,-0.02 0,0 -0.07,0.05 h -0.05 c 0,-0.08 0,-0.15 0,-0.23 a 1.08,1.08 0 0 0 -0.26,-0.31 v 0 c -0.06,-0.08 -0.08,-0.19 -0.16,-0.25 a 0.69,0.69 0 0 0 -0.2,-0.13 h -0.08 a 1.16,1.16 0 0 1 -0.25,-0.29 1.74,1.74 0 0 1 -0.11,-0.18 0.75,0.75 0 0 1 -0.06,-0.13 1,1 0 0 1 -0.17,-0.23 c 0,-0.11 0,-0.31 0,-0.4 0,-0.09 -0.09,-0.08 -0.12,-0.14 v 0 -0.07 c 0,-0.08 -0.09,-0.21 -0.15,-0.25 -0.06,-0.04 -0.21,-0.11 -0.28,-0.15 -0.07,-0.04 -0.08,-0.1 -0.1,-0.11 a 0.88,0.88 0 0 0 -0.16,0 c 0,0 0,-0.1 0,-0.14 0,-0.04 -0.08,-0.05 -0.08,-0.1 0,-0.05 0.06,0 0.09,0 0.03,0 0,-0.07 0,-0.11 v 0 0 c 0,-0.05 -0.1,0 -0.13,-0.12 v 0 a 0.1,0.1 0 0 0 0.1,-0.05 v 0 h -0.1 a 0.62,0.62 0 0 1 -0.26,-0.12 c 0,0 -0.23,-0.09 -0.26,-0.09 a 1.23,1.23 0 0 0 -0.19,0 1.25,1.25 0 0 0 -0.29,-0.05 h -0.1 l -0.09,-0.05 a 0.5,0.5 0 0 1 -0.12,0 0.6,0.6 0 0 1 -0.11,-0.06 0.9,0.9 0 0 1 -0.26,-0.17 c 0,0 0,-0.06 0,-0.08 v 0 0 0 0 0 c 0,0 0,0 0,-0.06 0,-0.06 0,-0.13 0,-0.18 v 0 c 0,0 -0.09,0.1 -0.11,0.11 v 0 -0.05 0 a 0.18,0.18 0 0 0 -0.15,0.07 v 0 c 0,0 0,0 0.06,0 v 0 a 0.18,0.18 0 0 1 -0.13,0.06 1,1 0 0 0 -0.17,0 0.53,0.53 0 0 1 -0.13,0 c -0.07,0 -0.14,-0.12 -0.2,-0.13 a 1.48,1.48 0 0 0 -0.21,0 2.67,2.67 0 0 0 -0.4,0 l -0.1,0.05 h -0.1 c -0.08,0 -0.17,0 -0.3,-0.07 -0.13,-0.07 -0.24,-0.31 -0.54,-0.41 -0.12,-0.05 -0.27,0.09 -0.4,0 -0.13,-0.09 -0.07,-0.1 -0.11,-0.13 -0.04,-0.03 0,0 0,0 l -0.09,-0.05 a 0.24,0.24 0 0 0 -0.06,-0.08 c -0.06,0 -0.09,0 -0.12,0.06 a 0.13,0.13 0 0 0 0,0.06 h -0.09 v 0 a 1.42,1.42 0 0 1 -0.22,-0.07 c 0,0 0,0 0,0 0,0 0,-0.11 0,-0.18 h -0.06 c 0,0.06 0,0.11 0,0.18 a 0.18,0.18 0 0 1 -0.14,0 v 0 a 1.09,1.09 0 0 1 -0.17,0 v 0 c -0.12,0 -0.23,-0.19 -0.25,-0.19 -0.02,0 -0.05,0.07 -0.09,0.09 -0.04,0.02 -0.12,-0.19 -0.29,-0.07 a 0.92,0.92 0 0 1 -0.25,-0.19 v 0 h 0.06 c 0,-0.08 0.11,-0.15 0.12,-0.21 0.01,-0.06 0,-0.12 0,-0.19 a 1.94,1.94 0 0 1 0,-0.24 c 0,0 0,-0.09 0,-0.13 a 0.23,0.23 0 0 0 -0.06,-0.12 v 0 a 0.45,0.45 0 0 0 0,0.12 c 0,0.06 -0.05,0.11 -0.05,0.17 0,0.06 0,0 0,0.06 0,0.06 0,0.05 0,0.08 0,0.03 0,0.05 0,0.07 0,0.02 -0.11,0.09 -0.18,0.08 -0.07,-0.01 -0.06,0 -0.09,0 A 0.5,0.5 0 0 0 599.36,497 c 0,0 -0.07,0 -0.11,0 -0.04,0 -0.05,-0.09 -0.09,-0.12 -0.04,-0.03 -0.07,0 -0.1,-0.05 -0.03,-0.05 0,-0.06 -0.06,-0.09 l -0.07,-0.07 c 0,0 0,0 0,-0.06 0,-0.06 -0.12,-0.12 -0.18,-0.15 v 0 c 0,0.06 0,0.09 0,0.15 a 0.07,0.07 0 0 0 0,0.05 c 0,0.05 0.08,0.17 0,0.23 a 0.17,0.17 0 0 1 -0.14,0 c -0.08,0 -0.22,0.07 -0.25,0 v -0.07 c 0,-0.05 -0.14,-0.09 -0.16,-0.16 -0.02,-0.07 0,-0.1 0,-0.15 0,-0.05 0,-0.07 -0.06,-0.11 -0.06,-0.04 0,-0.13 -0.06,-0.27 a 0.06,0.06 0 0 0 -0.08,0 0.38,0.38 0 0 0 0.07,0.31 v 0 c 0,0 -0.07,0.09 -0.07,0.12 a 0.62,0.62 0 0 0 0,0.19 c 0,0 0,0 0,0.08 0,0.08 0.1,0.06 0.11,0.12 v 0 a 0.21,0.21 0 0 1 -0.13,0 c 0,0 0,-0.09 -0.19,-0.18 -0.19,-0.09 0,-0.14 0,-0.17 0,-0.03 -0.18,-0.1 -0.21,-0.41 0,0 -0.07,-0.07 -0.1,-0.07 -0.03,0 0,0.1 0.07,0.14 0.07,0.04 0,0 0,0.08 v 0 a 2,2 0 0 0 0.1,0.29 0.34,0.34 0 0 0 0,0.1 0.35,0.35 0 0 1 0,0.11 c 0,0 0,0.09 0,0.13 0,0.04 0.08,0.11 0.11,0.18 0.03,0.07 0,0.11 0.06,0.16 0.06,0.05 0.24,0.19 0.22,0.28 -0.02,0.09 -0.11,0.07 -0.15,0.05 v 0 0 a 2.92,2.92 0 0 1 -0.31,-0.37 v 0 c 0,0 0,0.07 -0.06,0.08 v 0.05 0 c 0,0.05 -0.2,0 -0.25,0 -0.05,0 0,-0.22 0,-0.34 a 0.74,0.74 0 0 1 -0.22,-0.33 v 0 0 c -0.07,0.07 0.06,0.29 0.12,0.34 a 0.09,0.09 0 0 1 -0.12,0.11 c -0.08,-0.05 0,-0.16 -0.13,-0.2 a 0.13,0.13 0 0 0 0,-0.06 v 0 0 c 0,0 -0.09,-0.06 -0.13,0 v 0.06 c -0.06,0.06 -0.1,0 -0.16,0.06 v 0 c 0,0 0.32,0 0.16,0.15 -0.16,0.15 0,0.06 0,0.1 l -0.09,0.08 v 0 a 0.17,0.17 0 0 1 0.12,0.05 v 0.06 a 0.13,0.13 0 0 1 0,0.12 c 0,0 -0.09,0 -0.13,0 -0.04,0 -0.11,0.09 -0.19,0.09 -0.08,0 -0.09,-0.13 -0.19,-0.14 -0.1,-0.01 -0.11,0 -0.16,0.05 a 0.3,0.3 0 0 1 -0.23,-0.13 c 0,0 -0.09,0 -0.11,0 h -0.11 a 0.71,0.71 0 0 1 -0.15,-0.08 1,1 0 0 0 -0.24,-0.09 c -0.09,0 -0.36,-0.06 -0.42,-0.09 -0.06,-0.03 -0.08,-0.08 -0.13,-0.12 l -0.1,-0.05 a 0.83,0.83 0 0 1 -0.3,-0.29 c 0,-0.06 -0.08,-0.15 -0.11,-0.22 a 2,2 0 0 0 -0.13,-0.34 1.26,1.26 0 0 0 -0.28,0 0.93,0.93 0 0 1 -0.38,-0.3 v 0 a 0.2,0.2 0 0 0 0.05,0.18 l 0.24,0.19 a 1.67,1.67 0 0 1 0.26,0.06 1.09,1.09 0 0 0 0,0.18 1.8,1.8 0 0 0 0.23,0.43 l 0.06,0.12 c 0.06,0.09 0.18,0.18 0.22,0.29 a 3.18,3.18 0 0 1 0.08,0.33 0.61,0.61 0 0 0 0,0.19 c 0,0.06 0.11,0.13 0.15,0.19 a 0.45,0.45 0 0 1 0.06,0.12 c 0,0.13 0.2,0.24 0.25,0.35 a 0.33,0.33 0 0 1 0.08,0.29 0.11,0.11 0 0 0 -0.07,0 c -0.08,0 -0.11,-0.05 -0.16,-0.09 h -0.07 c 0,0 0,-0.12 -0.1,-0.15 -0.1,-0.03 -0.19,0 -0.27,0 -0.08,0 -0.08,0 -0.13,0 a 0.5,0.5 0 0 0 0.14,0.15 c 0.14,0.08 0.19,-0.09 0.32,0.14 0,0 0.06,0 0.08,0.06 a 0.13,0.13 0 0 1 0,0.12 c -0.06,0.13 -0.12,0.1 -0.24,0.12 h -0.14 -0.08 -0.14 a 0.67,0.67 0 0 0 -0.2,0 c -0.06,0 -0.1,-0.12 -0.16,-0.16 h -0.06 a 0.53,0.53 0 0 1 -0.18,0 c 0,0 -0.07,0 -0.1,0 h -0.07 -0.09 c -0.17,0 -0.29,0.13 -0.46,0.11 h -0.11 -0.21 c -0.09,0 -0.11,-0.29 -0.17,-0.36 -0.06,-0.07 -0.2,-0.07 -0.33,-0.09 a 0.94,0.94 0 0 0 -0.16,0 v 0 a 0.13,0.13 0 0 0 0,0.06 c 0,0 0,0 0.07,0 h 0.1 c 0.07,0 0.15,0 0.22,0 0.07,0 0,0.25 0.17,0.37 v 0 l 0.19,0.06 0.09,0.06 c 0.1,0 0.08,0 0.17,0.07 a 0.53,0.53 0 0 0 0,0.17 c 0,0.05 0.08,0.08 0.1,0.13 0.02,0.05 0,0.12 0,0.18 0,0.06 0.15,0.17 0.14,0.26 -0.01,0.09 0.14,0.26 0,0.33 -0.14,0.07 -0.11,0 -0.16,0 h -0.13 -0.36 -0.06 c 0,0 -0.07,0 -0.11,0 -0.04,0 -0.1,0 -0.14,0 a 2,2 0 0 1 -0.25,0 1.87,1.87 0 0 0 -0.34,0 c -0.11,0 -0.18,0.11 -0.28,0.12 -0.1,0.01 -0.11,0 -0.18,0 l -0.46,0.09 -0.09,0.05 h -0.1 -0.1 -0.16 v 0 l -0.48,0.18 c -0.14,0 -0.34,-0.14 -0.49,-0.18 a 0.56,0.56 0 0 0 -0.25,-0.14 v 0 0 h -0.07 l -0.25,-0.05 c -0.06,0 -0.09,0.05 -0.13,0.05 -0.04,0 -0.12,-0.05 -0.19,-0.06 a 1.23,1.23 0 0 0 -0.33,0 l -0.48,0.14 c -0.1,0.06 -0.2,0.18 -0.32,0.19 h -0.17 a 0.41,0.41 0 0 1 -0.16,0 c -0.07,0 -0.2,-0.08 -0.21,-0.16 a 0.34,0.34 0 0 0 0,-0.1 c 0,0 0,-0.06 0,-0.09 0,-0.03 0,-0.35 -0.06,-0.41 -0.06,-0.06 -0.09,0 -0.12,-0.06 a 0.41,0.41 0 0 0 -0.24,-0.08 v 0 a 2,2 0 0 1 -0.34,0.06 h -0.17 a 0.1,0.1 0 0 0 -0.07,0 c 0,0.06 -0.12,0.14 -0.17,0.15 -0.05,0.01 -0.07,0 -0.1,0 -0.03,0 -0.14,0.07 -0.12,0.13 h 0.11 l 0.21,-0.15 h 0.09 c 0,0 0,-0.06 0.09,-0.07 0.09,-0.01 0.13,0 0.25,0 l 0.21,-0.08 a 1.34,1.34 0 0 1 0.24,0.12 0.09,0.09 0 0 1 0,0.1 c 0,0 0.11,0.22 0.11,0.33 a 0.86,0.86 0 0 1 0,0.16 0.72,0.72 0 0 0 0.22,0.24 l 0.1,0.07 a 0.53,0.53 0 0 0 0.46,0 0.7,0.7 0 0 1 0.17,-0.13 l 0.2,-0.09 a 1.43,1.43 0 0 1 0.22,-0.08 c 0,0 0.07,0 0.11,0 a 0.43,0.43 0 0 1 0.16,0 c 0.05,0.06 0.19,0 0.26,0 l 0.2,0.05 c 0,0 0.09,0.09 0.13,0.13 a 0.41,0.41 0 0 0 0.11,0.07 1.53,1.53 0 0 1 0.37,0.21 l 0.11,0.08 a 1.11,1.11 0 0 0 0.19,0 1.87,1.87 0 0 1 0.22,0.07 h -0.93 0.09 0.13 0.07 a 0.53,0.53 0 0 1 0.25,0.07 c 0,0 0.09,0.11 0.13,0.15 0.04,0.04 0.3,0.18 0.42,0.27 l 0.14,0.12 c 0.07,0.06 0.12,0.18 0.19,0.22 a 0.26,0.26 0 0 1 0.07,0.11 l 0.09,0.09 a 0.47,0.47 0 0 1 0,0.1 2.27,2.27 0 0 0 0.18,0.25 c 0.08,0.1 0.19,0.17 0.24,0.3 v 0 a 1.41,1.41 0 0 1 0,0.29 c 0,0.07 0,0.15 0,0.23 0,0.08 0,0.08 0,0.13 a 0.45,0.45 0 0 1 0,0.11 0.65,0.65 0 0 1 0,0.14 c 0,0 0,0.07 0,0.11 a 0.66,0.66 0 0 1 -0.12,0.17 l -0.09,0.1 c 0,0 -0.1,0 -0.14,0 a 0.27,0.27 0 0 1 -0.14,0.08 c 0,0 -0.07,-0.05 -0.11,-0.07 a 0.58,0.58 0 0 0 -0.35,0.06 v 0 c 0,0 -0.07,0.05 -0.12,0.05 -0.05,0 -0.13,0 -0.19,0 l -0.07,0.07 -0.17,0.08 a 1.09,1.09 0 0 1 -0.18,0 l -0.12,0.06 c 0,0 -0.12,0 -0.16,0 -0.04,0 -0.06,0.09 -0.1,0.12 -0.04,0.03 -0.23,0.13 -0.34,0.21 -0.11,0.08 -0.06,0.1 -0.11,0.14 -0.05,0.04 -0.1,0 -0.14,0 l -0.1,0.08 -0.23,0.13 -0.14,0.05 a 0.67,0.67 0 0 1 -0.18,0.11 2.32,2.32 0 0 0 -0.37,0.13 c 0,0 0,0.06 -0.06,0.09 -0.06,0.03 -0.19,0.06 -0.25,0.11 -0.06,0.05 0,0 -0.09,0.06 -0.09,0.06 -0.12,0 -0.22,0 a 0.57,0.57 0 0 0 -0.13,0 0.69,0.69 0 0 1 -0.27,-0.17 0.47,0.47 0 0 1 -0.06,-0.09 l -0.24,-0.17 c -0.07,0 -0.15,-0.06 -0.23,-0.11 v 0 c -0.08,0 -0.15,0 -0.23,0 l -0.08,-0.08 A 0.76,0.76 0 0 1 585,505 v 0 c -0.16,0 -0.21,-0.1 -0.33,-0.11 -0.12,-0.01 -0.09,0.05 -0.15,0.07 a 1.45,1.45 0 0 1 -0.3,0 h -0.12 v 0 c 0,0 -0.06,0 -0.1,0 a 1,1 0 0 1 -0.17,0 1.46,1.46 0 0 0 -0.22,0 0.59,0.59 0 0 0 -0.23,0 c -0.19,0.06 -0.19,0.15 -0.45,0.17 -0.26,0.02 -0.4,-0.13 -0.61,-0.13 a 1.47,1.47 0 0 0 -0.28,0.08 2.4,2.4 0 0 0 -0.28,0 1.25,1.25 0 0 1 -0.32,0.08 c 0,0 -0.07,-0.08 -0.11,-0.11 a 0.58,0.58 0 0 1 -0.18,0 c -0.18,0 -0.18,0 -0.31,-0.1 l -0.12,-0.07 c 0,0 -0.08,-0.09 -0.14,-0.12 a 0.79,0.79 0 0 0 -0.22,-0.06 c -0.05,0 -0.08,0 -0.13,-0.06 -0.05,-0.06 -0.17,0.05 -0.26,0 h -0.12 a 0.63,0.63 0 0 0 -0.19,0.17 c 0,0 -0.32,0.22 -0.34,0.22 -0.02,0 -0.1,0 -0.15,0 a 0.5,0.5 0 0 1 -0.13,0 c 0,0 -0.07,0 -0.11,0 -0.04,0 -0.08,0 -0.12,0 a 0.27,0.27 0 0 1 -0.08,-0.07 c 0,0 0,0 -0.06,0 a 1.25,1.25 0 0 1 -0.15,-0.19 c 0,0 -0.08,0 -0.12,-0.06 l -0.18,-0.18"
       inkscape:connector-curvature="0"
       style="fill:#b9e0f4" />
    <path
       class="cls-4"
       d="m 597.43,488.37 c 6.34,4.1 11.88,10.81 19.5,12.64 -0.1,-0.79 -7.58,-9 -6.27,-9.37 9.13,-2.63 -3.36,-6.28 -7.13,-9.15 -7.19,-5.48 -14.9,-11.79 -25.24,-13.14 0.01,17.11 3.83,15.49 19.14,19.02 z"
       id="path152"
       inkscape:connector-curvature="0"
       style="fill:#a5daef" />
  </g>
  <g
     transform="translate(40.466035,73.890147)"
     id="g84">
    <g
       id="g56">
      <path
         inkscape:connector-curvature="0"
         d="m 4.442,47.2 a 30.068,30.068 0 0 1 4.441,-0.335 c 3,0 5.136,0.7 6.552,2.016 a 7.451,7.451 0 0 1 2.28,5.808 8.558,8.558 0 0 1 -2.328,6.289 c -1.512,1.512 -4.008,2.328 -7.152,2.328 A 33.734,33.734 0 0 1 4.442,63.114 Z M 6.53,61.507 a 13.206,13.206 0 0 0 2.113,0.12 c 4.464,0 6.888,-2.5 6.888,-6.865 0.024,-3.816 -2.136,-6.24 -6.552,-6.24 A 11.8,11.8 0 0 0 6.53,48.738 Z"
         id="path4" />
      <path
         inkscape:connector-curvature="0"
         d="m 21.626,57.739 a 3.721,3.721 0 0 0 3.984,4.032 7.639,7.639 0 0 0 3.217,-0.6 l 0.36,1.512 a 9.418,9.418 0 0 1 -3.865,0.72 c -3.576,0 -5.712,-2.352 -5.712,-5.857 0,-3.505 2.064,-6.264 5.448,-6.264 3.793,0 4.8,3.336 4.8,5.472 a 8,8 0 0 1 -0.072,0.985 z m 6.192,-1.513 c 0.025,-1.344 -0.551,-3.432 -2.928,-3.432 -2.136,0 -3.072,1.968 -3.24,3.432 z"
         id="path6" />
      <path
         inkscape:connector-curvature="0"
         d="m 42.2,59.994 c 0,1.2 0.024,2.257 0.1,3.169 h -1.882 l -0.12,-1.9 H 40.25 a 4.37,4.37 0 0 1 -3.84,2.16 c -1.824,0 -4.008,-1.008 -4.008,-5.088 v -6.789 h 2.112 v 6.432 c 0,2.209 0.672,3.7 2.592,3.7 a 3.056,3.056 0 0 0 2.785,-1.92 3.116,3.116 0 0 0 0.192,-1.08 V 51.546 H 42.2 Z"
         id="path8-3" />
      <path
         inkscape:connector-curvature="0"
         d="m 48.242,48.21 v 3.336 h 3.024 v 1.608 h -3.024 v 6.265 c 0,1.44 0.408,2.256 1.584,2.256 a 4.7,4.7 0 0 0 1.224,-0.144 l 0.1,1.584 a 5.17,5.17 0 0 1 -1.872,0.288 2.927,2.927 0 0 1 -2.28,-0.888 4.3,4.3 0 0 1 -0.816,-3.024 v -6.337 h -1.8 v -1.608 h 1.8 v -2.784 z"
         id="path10-6" />
      <path
         inkscape:connector-curvature="0"
         d="m 53.354,61 a 5.535,5.535 0 0 0 2.784,0.84 c 1.536,0 2.256,-0.768 2.256,-1.728 0,-1.008 -0.6,-1.561 -2.161,-2.137 -2.087,-0.744 -3.072,-1.9 -3.072,-3.288 0,-1.872 1.512,-3.408 4.008,-3.408 a 5.8,5.8 0 0 1 2.857,0.72 L 59.5,53.538 a 4.521,4.521 0 0 0 -2.376,-0.672 c -1.248,0 -1.945,0.72 -1.945,1.584 0,0.96 0.7,1.392 2.209,1.968 2.016,0.768 3.048,1.777 3.048,3.505 0,2.04 -1.584,3.48 -4.345,3.48 a 6.624,6.624 0 0 1 -3.264,-0.792 z"
         id="path12-7" />
      <path
         inkscape:connector-curvature="0"
         d="m 71.426,62.731 a 7.779,7.779 0 0 1 -3.336,0.672 c -3.505,0 -5.785,-2.376 -5.785,-5.929 a 5.9,5.9 0 0 1 6.241,-6.168 7.06,7.06 0 0 1 2.928,0.6 l -0.48,1.632 a 4.9,4.9 0 0 0 -2.448,-0.552 c -2.665,0 -4.105,1.968 -4.105,4.392 0,2.689 1.728,4.345 4.033,4.345 a 6,6 0 0 0 2.592,-0.576 z"
         id="path14-5" />
      <path
         inkscape:connector-curvature="0"
         d="m 73.9,46.121 h 2.112 v 7.249 h 0.048 a 3.926,3.926 0 0 1 1.512,-1.488 4.35,4.35 0 0 1 2.16,-0.6 c 1.561,0 4.057,0.96 4.057,4.968 v 6.913 h -2.115 v -6.672 c 0,-1.873 -0.7,-3.457 -2.688,-3.457 a 3.037,3.037 0 0 0 -2.833,2.112 2.557,2.557 0 0 0 -0.144,1.008 v 7.009 H 73.9 Z"
         id="path16-3" />
      <path
         inkscape:connector-curvature="0"
         d="m 88.393,57.739 a 3.721,3.721 0 0 0 3.984,4.032 7.639,7.639 0 0 0 3.217,-0.6 l 0.36,1.512 a 9.414,9.414 0 0 1 -3.865,0.72 c -3.576,0 -5.712,-2.352 -5.712,-5.857 0,-3.505 2.064,-6.264 5.448,-6.264 3.793,0 4.8,3.336 4.8,5.472 a 8,8 0 0 1 -0.072,0.985 z m 6.192,-1.513 c 0.025,-1.344 -0.551,-3.432 -2.928,-3.432 -2.136,0 -3.072,1.968 -3.24,3.432 z"
         id="path18-5" />
      <path
         inkscape:connector-curvature="0"
         d="m 104.4,46.986 h 2.088 v 7.8 h 0.072 c 0.432,-0.624 0.864,-1.2 1.272,-1.728 l 4.944,-6.072 h 2.593 l -5.857,6.864 6.313,9.313 h -2.472 l -5.329,-7.945 -1.536,1.776 v 6.169 H 104.4 Z"
         id="path20-6" />
      <path
         inkscape:connector-curvature="0"
         d="m 127.85,57.259 c 0,4.3 -2.977,6.168 -5.785,6.168 -3.144,0 -5.568,-2.3 -5.568,-5.977 0,-3.888 2.544,-6.168 5.76,-6.168 3.336,0 5.593,2.424 5.593,5.977 z m -9.217,0.119 c 0,2.545 1.464,4.465 3.528,4.465 2.016,0 3.528,-1.9 3.528,-4.513 0,-1.968 -0.984,-4.464 -3.48,-4.464 -2.496,0 -3.576,2.304 -3.576,4.512 z"
         id="path22-2" />
      <path
         inkscape:connector-curvature="0"
         d="m 130.512,46.121 h 2.113 v 17.042 h -2.113 z"
         id="path24-9" />
      <path
         inkscape:connector-curvature="0"
         d="m 146.689,57.259 c 0,4.3 -2.977,6.168 -5.785,6.168 -3.144,0 -5.568,-2.3 -5.568,-5.977 0,-3.888 2.544,-6.168 5.76,-6.168 3.337,0 5.593,2.424 5.593,5.977 z m -9.217,0.119 c 0,2.545 1.464,4.465 3.528,4.465 2.017,0 3.529,-1.9 3.529,-4.513 0,-1.968 -0.985,-4.464 -3.481,-4.464 -2.496,0 -3.576,2.304 -3.576,4.512 z"
         id="path26-1" />
      <path
         inkscape:connector-curvature="0"
         d="m 149.352,54.69 c 0,-1.2 -0.024,-2.184 -0.1,-3.144 h 1.872 l 0.121,1.92 h 0.047 a 4.274,4.274 0 0 1 3.841,-2.184 c 1.608,0 4.1,0.96 4.1,4.944 v 6.937 h -2.112 v -6.7 c 0,-1.872 -0.7,-3.432 -2.688,-3.432 a 3,3 0 0 0 -2.833,2.16 3.039,3.039 0 0 0 -0.144,0.985 v 6.984 h -2.112 z"
         id="path28-2" />
      <path
         inkscape:connector-curvature="0"
         d="m 165.024,48.282 a 1.308,1.308 0 0 1 -2.616,0 1.286,1.286 0 0 1 1.32,-1.32 1.253,1.253 0 0 1 1.296,1.32 z m -2.352,14.881 V 51.546 h 2.112 v 11.617 z"
         id="path30-7" />
      <path
         inkscape:connector-curvature="0"
         d="m 174.72,63.163 -0.168,-1.464 h -0.072 a 4.327,4.327 0 0 1 -3.552,1.728 3.31,3.31 0 0 1 -3.553,-3.336 c 0,-2.808 2.5,-4.345 6.985,-4.321 v -0.24 a 2.4,2.4 0 0 0 -2.64,-2.688 5.788,5.788 0 0 0 -3.024,0.864 l -0.48,-1.392 a 7.209,7.209 0 0 1 3.816,-1.032 c 3.552,0 4.417,2.424 4.417,4.752 v 4.345 a 16.355,16.355 0 0 0 0.192,2.784 z m -0.312,-5.929 c -2.3,-0.048 -4.92,0.361 -4.92,2.616 a 1.869,1.869 0 0 0 1.992,2.017 2.89,2.89 0 0 0 2.808,-1.944 2.2,2.2 0 0 0 0.12,-0.672 z"
         id="path32-0" />
      <path
         inkscape:connector-curvature="0"
         d="m 179.855,46.121 h 2.113 v 17.042 h -2.113 z"
         id="path34-9" />
      <path
         inkscape:connector-curvature="0"
         d="m 195.529,51.546 c -0.049,0.84 -0.1,1.776 -0.1,3.192 v 6.745 c 0,2.664 -0.529,4.3 -1.657,5.3 a 6.158,6.158 0 0 1 -4.224,1.392 7.5,7.5 0 0 1 -3.864,-0.96 l 0.528,-1.608 a 6.55,6.55 0 0 0 3.408,0.912 c 2.16,0 3.744,-1.128 3.744,-4.056 v -1.3 h -0.048 a 4.147,4.147 0 0 1 -3.7,1.944 c -2.88,0 -4.944,-2.448 -4.944,-5.665 0,-3.936 2.568,-6.168 5.232,-6.168 a 3.866,3.866 0 0 1 3.625,2.016 h 0.047 l 0.1,-1.752 z m -2.185,4.584 a 3.087,3.087 0 0 0 -3.072,-3.192 c -2.016,0 -3.456,1.7 -3.456,4.392 0,2.281 1.152,4.177 3.432,4.177 a 3.087,3.087 0 0 0 2.928,-2.161 3.668,3.668 0 0 0 0.168,-1.127 z"
         id="path36-3" />
      <path
         inkscape:connector-curvature="0"
         d="m 200.111,57.739 a 3.722,3.722 0 0 0 3.985,4.032 7.637,7.637 0 0 0 3.216,-0.6 l 0.36,1.512 a 9.408,9.408 0 0 1 -3.864,0.72 c -3.577,0 -5.713,-2.352 -5.713,-5.857 0,-3.505 2.064,-6.264 5.448,-6.264 3.793,0 4.8,3.336 4.8,5.472 a 8,8 0 0 1 -0.072,0.985 z m 6.193,-1.513 c 0.024,-1.344 -0.552,-3.432 -2.929,-3.432 -2.136,0 -3.072,1.968 -3.24,3.432 z"
         id="path38-6" />
      <path
         inkscape:connector-curvature="0"
         d="m 210.671,61 a 5.536,5.536 0 0 0 2.785,0.84 c 1.536,0 2.255,-0.768 2.255,-1.728 0,-1.008 -0.6,-1.561 -2.16,-2.137 -2.088,-0.744 -3.072,-1.9 -3.072,-3.288 0,-1.872 1.512,-3.408 4.008,-3.408 a 5.8,5.8 0 0 1 2.857,0.72 l -0.528,1.536 a 4.522,4.522 0 0 0 -2.377,-0.672 c -1.248,0 -1.944,0.72 -1.944,1.584 0,0.96 0.7,1.392 2.209,1.968 2.016,0.768 3.048,1.777 3.048,3.505 0,2.04 -1.585,3.48 -4.345,3.48 a 6.624,6.624 0 0 1 -3.264,-0.792 z"
         id="path40-0" />
      <path
         inkscape:connector-curvature="0"
         d="m 228.744,62.731 a 7.779,7.779 0 0 1 -3.336,0.672 c -3.5,0 -5.785,-2.376 -5.785,-5.929 a 5.9,5.9 0 0 1 6.241,-6.168 7.06,7.06 0 0 1 2.928,0.6 l -0.48,1.632 a 4.9,4.9 0 0 0 -2.448,-0.552 c -2.665,0 -4.105,1.968 -4.105,4.392 0,2.689 1.728,4.345 4.033,4.345 a 6,6 0 0 0 2.592,-0.576 z"
         id="path42-6" />
      <path
         inkscape:connector-curvature="0"
         d="m 231.215,46.121 h 2.112 v 7.249 h 0.048 a 3.919,3.919 0 0 1 1.512,-1.488 4.347,4.347 0 0 1 2.16,-0.6 c 1.561,0 4.057,0.96 4.057,4.968 v 6.913 h -2.112 v -6.672 c 0,-1.873 -0.7,-3.457 -2.688,-3.457 a 3.036,3.036 0 0 0 -2.833,2.112 2.557,2.557 0 0 0 -0.144,1.008 v 7.009 h -2.112 z"
         id="path44-2" />
      <path
         inkscape:connector-curvature="0"
         d="m 246.887,48.282 a 1.308,1.308 0 0 1 -2.616,0 1.286,1.286 0 0 1 1.32,-1.32 1.253,1.253 0 0 1 1.296,1.32 z m -2.352,14.881 V 51.546 h 2.112 v 11.617 z"
         id="path46-6" />
      <path
         inkscape:connector-curvature="0"
         d="m 258.431,62.731 a 7.779,7.779 0 0 1 -3.336,0.672 c -3.5,0 -5.784,-2.376 -5.784,-5.929 a 5.9,5.9 0 0 1 6.24,-6.168 7.06,7.06 0 0 1 2.928,0.6 L 258,53.538 a 4.9,4.9 0 0 0 -2.448,-0.552 c -2.664,0 -4.1,1.968 -4.1,4.392 0,2.689 1.728,4.345 4.032,4.345 a 6,6 0 0 0 2.592,-0.576 z"
         id="path48-1" />
      <path
         inkscape:connector-curvature="0"
         d="m 260.9,46.121 h 2.113 v 7.249 h 0.048 a 3.919,3.919 0 0 1 1.512,-1.488 4.347,4.347 0 0 1 2.16,-0.6 c 1.56,0 4.057,0.96 4.057,4.968 v 6.913 h -2.113 v -6.672 c 0,-1.873 -0.7,-3.457 -2.688,-3.457 a 3.034,3.034 0 0 0 -2.832,2.112 2.557,2.557 0 0 0 -0.144,1.008 v 7.009 H 260.9 Z"
         id="path50-8" />
      <path
         inkscape:connector-curvature="0"
         d="m 276.67,48.21 v 3.336 h 3.03 v 1.608 h -3.03 v 6.265 c 0,1.44 0.409,2.256 1.584,2.256 a 4.7,4.7 0 0 0 1.225,-0.144 l 0.1,1.584 a 5.17,5.17 0 0 1 -1.872,0.288 2.928,2.928 0 0 1 -2.281,-0.888 4.3,4.3 0 0 1 -0.816,-3.024 v -6.337 h -1.8 v -1.608 h 1.8 v -2.784 z"
         id="path52-7" />
      <path
         inkscape:connector-curvature="0"
         d="m 283.1,57.739 a 3.721,3.721 0 0 0 3.984,4.032 7.637,7.637 0 0 0 3.216,-0.6 l 0.36,1.512 a 9.408,9.408 0 0 1 -3.864,0.72 c -3.576,0 -5.713,-2.352 -5.713,-5.857 0,-3.505 2.064,-6.264 5.449,-6.264 3.792,0 4.8,3.336 4.8,5.472 a 8,8 0 0 1 -0.072,0.985 z m 6.192,-1.513 c 0.024,-1.344 -0.552,-3.432 -2.928,-3.432 -2.137,0 -3.073,1.968 -3.241,3.432 z"
         id="path54-9" />
    </g>
    <g
       id="g82">
      <path
         inkscape:connector-curvature="0"
         d="m 13.58,29.317 -2.352,8.476 H 3.487 L 13.58,4.769 h 9.8 L 33.62,37.793 H 25.584 L 23.036,29.317 Z M 21.958,23.731 19.9,16.724 c -0.587,-1.96 -1.175,-4.409 -1.666,-6.369 h -0.1 c -0.491,1.96 -0.98,4.459 -1.519,6.369 l -1.96,7.007 z"
         id="path58-2" />
      <path
         inkscape:connector-curvature="0"
         d="m 38.57,21.722 c 0,-3.528 -0.1,-5.831 -0.2,-7.888 h 6.418 l 0.245,4.409 h 0.2 A 7.035,7.035 0 0 1 51.7,13.3 a 7.676,7.676 0 0 1 1.568,0.1 v 7 a 10.677,10.677 0 0 0 -2.009,-0.2 c -2.743,0 -4.6,1.47 -5.095,3.773 a 8.783,8.783 0 0 0 -0.147,1.666 V 37.793 H 38.57 Z"
         id="path60-0" />
      <path
         inkscape:connector-curvature="0"
         d="m 75.857,37.205 a 18.158,18.158 0 0 1 -6.663,1.078 c -7.741,0 -12.69,-4.7 -12.69,-12.249 0,-7.007 4.8,-12.739 13.719,-12.739 a 17.271,17.271 0 0 1 5.683,0.931 l -1.176,5.536 a 10.181,10.181 0 0 0 -4.164,-0.735 c -3.92,0 -6.467,2.793 -6.419,6.713 0,4.409 2.94,6.712 6.566,6.712 a 11.49,11.49 0 0 0 4.263,-0.735 z"
         id="path62-2" />
      <path
         inkscape:connector-curvature="0"
         d="M 81.052,3.006 H 88.5 v 13.67 h 0.1 a 8.925,8.925 0 0 1 2.94,-2.45 8.357,8.357 0 0 1 3.87,-0.931 c 4.753,0 8.378,3.282 8.378,10.485 v 14.013 h -7.449 v -13.18 c 0,-3.136 -1.078,-5.292 -3.871,-5.292 a 3.961,3.961 0 0 0 -3.723,2.6 4.739,4.739 0 0 0 -0.245,1.666 v 14.206 h -7.448 z"
         id="path64-3" />
      <path
         inkscape:connector-curvature="0"
         d="m 118.537,7.17 a 3.74,3.74 0 0 1 -4.018,3.724 3.642,3.642 0 0 1 -3.871,-3.724 3.64,3.64 0 0 1 3.92,-3.772 3.735,3.735 0 0 1 3.969,3.772 z m -7.693,30.623 V 13.834 h 7.448 v 23.959 z"
         id="path66-7" />
      <path
         inkscape:connector-curvature="0"
         d="m 130.884,13.834 3.234,11.122 a 55.368,55.368 0 0 1 1.372,5.83 h 0.147 c 0.392,-1.96 0.784,-3.773 1.322,-5.83 l 3.087,-11.122 h 7.84 l -8.917,23.959 h -7.448 L 122.8,13.834 Z"
         id="path68-5" />
      <path
         inkscape:connector-curvature="0"
         d="M 153.229,37.793 V 19.321 h -3.136 v -5.487 h 3.136 V 12.9 c 0,-2.891 0.881,-6.076 3.037,-8.036 a 9.71,9.71 0 0 1 6.615,-2.4 14.3,14.3 0 0 1 3.968,0.49 l -0.294,5.732 a 8.056,8.056 0 0 0 -2.4,-0.343 c -2.449,0 -3.478,1.911 -3.478,4.263 v 1.225 h 4.8 v 5.487 h -4.753 v 18.475 z"
         id="path70-9" />
      <path
         inkscape:connector-curvature="0"
         d="m 192.769,30.1 c 0,3.136 0.1,5.684 0.2,7.693 H 186.5 l -0.343,-3.381 h -0.147 a 8.547,8.547 0 0 1 -7.5,3.92 c -4.85,0 -8.427,-3.038 -8.427,-10.436 V 13.834 h 7.5 V 26.72 c 0,3.479 1.127,5.585 3.723,5.585 a 4.007,4.007 0 0 0 3.724,-2.6 4.158,4.158 0 0 0 0.245,-1.616 V 13.834 h 7.5 z M 173.024,7.072 a 3.441,3.441 0 0 1 3.528,-3.478 3.339,3.339 0 0 1 3.331,3.478 3.357,3.357 0 0 1 -3.331,3.43 3.462,3.462 0 0 1 -3.528,-3.43 z m 10.338,0 a 3.4,3.4 0 0 1 3.479,-3.478 3.35,3.35 0 0 1 3.381,3.478 3.367,3.367 0 0 1 -3.381,3.43 3.42,3.42 0 0 1 -3.479,-3.43 z"
         id="path72-2" />
      <path
         inkscape:connector-curvature="0"
         d="m 199.827,3.006 h 7.447 v 13.67 h 0.1 a 8.945,8.945 0 0 1 2.94,-2.45 8.364,8.364 0 0 1 3.871,-0.931 c 4.752,0 8.378,3.282 8.378,10.485 v 14.013 h -7.448 v -13.18 c 0,-3.136 -1.077,-5.292 -3.87,-5.292 a 3.962,3.962 0 0 0 -3.724,2.6 4.739,4.739 0 0 0 -0.245,1.666 v 14.206 h -7.447 z"
         id="path74-2" />
      <path
         inkscape:connector-curvature="0"
         d="m 229.619,21.722 c 0,-3.528 -0.1,-5.831 -0.2,-7.888 h 6.418 l 0.245,4.409 h 0.2 a 7.037,7.037 0 0 1 6.468,-4.943 7.666,7.666 0 0 1 1.567,0.1 v 7 a 10.665,10.665 0 0 0 -2.008,-0.2 c -2.744,0 -4.606,1.47 -5.1,3.773 a 8.783,8.783 0 0 0 -0.147,1.666 v 12.154 h -7.447 z"
         id="path76-8" />
      <path
         inkscape:connector-curvature="0"
         d="m 254.657,28.19 c 0.245,3.086 3.282,4.556 6.761,4.556 a 21.1,21.1 0 0 0 6.615,-0.98 l 0.98,5.047 a 23.652,23.652 0 0 1 -8.673,1.47 c -8.133,0 -12.788,-4.7 -12.788,-12.2 0,-6.076 3.773,-12.788 12.1,-12.788 7.742,0 10.681,6.026 10.681,11.955 a 17.693,17.693 0 0 1 -0.245,2.94 z m 8.77,-5.1 c 0,-1.813 -0.784,-4.851 -4.214,-4.851 -3.135,0 -4.409,2.842 -4.605,4.851 z"
         id="path78-9" />
      <path
         inkscape:connector-curvature="0"
         d="m 275.875,21.722 c 0,-3.528 -0.1,-5.831 -0.2,-7.888 h 6.425 l 0.245,4.409 h 0.2 a 7.037,7.037 0 0 1 6.467,-4.948 7.676,7.676 0 0 1 1.568,0.1 V 20.4 a 10.677,10.677 0 0 0 -2.009,-0.2 c -2.743,0 -4.605,1.47 -5.1,3.773 a 8.783,8.783 0 0 0 -0.147,1.666 v 12.154 h -7.447 z"
         id="path80-7" />
    </g>
  </g>
</svg>
