<svg xmlns="http://www.w3.org/2000/svg" viewBox="0 0 854.81 623.12"><defs><style>.cls-1,.cls-2{fill:#b9e0f4;}.cls-1,.cls-3{fill-rule:evenodd;}.cls-3,.cls-4{fill:#a5daef;}</style></defs><title>Zeichenfläche 33</title><g id="Ebene_6" data-name="Ebene 6"><path class="cls-1" d="M397.51,56.94c5,12-7.25,31.59-20.52,22.08-6.45-4.62-3.62-11.41-6.37-16.66q-2-1.72-4.72.24l-1.19-5c-2.53-1.94-6.38-4-8.4-6.35a45.87,45.87,0,0,1,11,2.36,45.46,45.46,0,0,0,9.49-2.22C384.55,50.69,391.23,52.27,397.51,56.94Z"/><path class="cls-1" d="M438.9,36.74a42.34,42.34,0,0,0-7.82,7.37C434,46.8,441.88,36.74,438.9,36.74Z"/><path class="cls-1" d="M523.52,59.74c8.17,0,11.68,11.17,2.89,12.26C515.92,73.31,518.27,64.1,523.52,59.74Z"/><path class="cls-1" d="M419.13,72.61l4.14.23c-.93,1.21-3.11,10.55-5.75,9.2.43-4.62,2.57-6.34-3.44-4.83a1.39,1.39,0,0,1-.7-1.84A22.9,22.9,0,0,1,419.13,72.61Z"/><path class="cls-1" d="M634.82,72.61c2.11.74-5.84,9.15-6.91,11.5l-2.75.69a7,7,0,0,0,.89,8.15c-.66,3.34-1.89,5.42-2.73,8.4,3.63,2.19,12-1.88,17-1.83,3.7,0,11.11,1.17,14,3.18,11,7.66-.47,18-10,19.39-4.36.63-12.14-.94-15.49-3.8-4.19-3.57-2.17-9.72-3.92-12.2-7.6-10.75-19.4,4.68-29.61,3.54,0-6.07,6.3-7.52,10.35-10.34-6.48-9.85-12.85-18.31,4-17.41C618.38,82.35,625.92,81.39,634.82,72.61Z"/><path class="cls-1" d="M491.57,76.75c1,.32,2,1.24,1.14,2.07Q491.24,79,491.57,76.75Z"/><path class="cls-1" d="M483.52,77.21c2,.78,2.52,2.55,2.52,4.37C484,81.58,483,78.88,483.52,77.21Z"/><path class="cls-1" d="M613.9,79.51c.72.39,1.55,1,.45,1.61C613.2,80.74,613.34,80.81,613.9,79.51Z"/><path class="cls-1" d="M494.33,80.2c2.59.82,7.37,5.52,8,8.28C499.75,87.66,495.15,82.79,494.33,80.2Z"/><path class="cls-1" d="M632.74,81.58c1.5,0,1.41.44.92,1.84C632.29,83.42,632.33,82.62,632.74,81.58Z"/><path class="cls-1" d="M486.73,83.65c1.85.38,1.88.31,1.62,2.3C486.84,86,486.4,85,486.73,83.65Z"/><path class="cls-1" d="M506.28,86c7-.31,18.09,8.15,6.66,12.65-2.68,1.06-7.72-.76-9.29-2.94C500.24,91,503.82,89.26,506.28,86Z"/><path class="cls-1" d="M338.66,96.3c3.83.13,5.68,4.69,3.21,7.82C338.66,108.21,330.7,97.56,338.66,96.3Z"/><path class="cls-1" d="M501.22,98.37c10.23,2.44-2.13,20.47-6.66.46C497.38,98.83,497.15,99.93,501.22,98.37Z"/><path class="cls-1" d="M510.65,100.66c1.74.83,4.89,5.7,6.36,7.28,2,2.14,4.28,4,6,6.29,4.46,5.86,7.67,13,14.72,16.56,3.82,1.92,6.41.72,10,3.81s9.23,12,11.59,16.42c1.14,2.13,8.06,16.34,6.89,17.47-3-2-6.62-12.07-8.71-15.29-5.28-8.07-6.89-7-14.28-10.92-8.49-4.54-9-10.2-14.95-17.47C523.61,119,508.59,109.29,510.65,100.66Z"/><path class="cls-1" d="M530.66,103.2c6.91-.22,21.59,11.29,8.58,12.15C533.3,115.75,524.92,108.48,530.66,103.2Z"/><path class="cls-1" d="M139.52,109.54c.92-1.07,11.63-8.41,12.56-8.4,1.38,0,10.24,8.75,11.85,6.26C151.54,94.25,165.42,80,177.59,90.53c11.89,10.23,4.19,26.33-11.79,18.48-2.39,3-1.63,14.86-2.16,18-.5,2.93-2.79,1.78-2.42,5.51.39,3.94,4.08,7.05,5.28,10.53.5-.22-6.81-7.39-8-8.13-3.79-2.4-5.86-1.69-9.34-3.13-4.44-1.83-8-1-11.07-5.54C133.24,119.08,138.77,116.21,139.52,109.54Z"/><path class="cls-1" d="M604.92,108.26c1,.33,1.25.84.69,2.06C604.26,110.32,604.4,109,604.92,108.26Z"/><path class="cls-1" d="M532.49,148.26c9.69-.76.8,5.53.69,5.29C532.23,151.33,527.52,150.78,532.49,148.26Z"/><path class="cls-1" d="M40.85,69.51C58,69.37,65.8,93.77,60.18,106.82c-1.76,4.09-5.44,5.7-4.61,9.83-.2-1,7.22-1.05,7.82-.46-.91-.9,2.82,13.38,2.8,12.91.48,9.32-1.91,11.45-8.64,17.7-7.56,7-4.17,7.28-10,1-3.34-3.56-5-9.85-7.34-14.16-1.59-3,1.79-2.63-1.93-6.13-2.34-2.2-7.69-.89-10.48-2.83.93-5.81,8.35,1.7,11.49.69,2.49-.8,9.81-9.12,9.44-10.86-1.34-6.29-15.64-7.32-19.48-7.9-2.49-.37-15-3-16.63-5.62a1.63,1.63,0,0,1,.69-1.83c4.74,1.88,12.38,2.61,16.37-1.77,4.41-4.82.37-5-.19-10.54C28.62,79,32.74,73.57,40.85,69.51Z"/><path class="cls-1" d="M19.35,198.36c1.32.28,1.55,1,.69,2.06C18,200.42,18.44,199.47,19.35,198.36Z"/><path class="cls-1" d="M217.82,181.47c3.43,0,11.15,7,15.16,9,7.76,3.86,8.45,1.17,7.22,10.54-.48,3.68-3.65,5.57-4,9.63-.12,1.3,2,5.8,2.23,7.19,1,4.83-2.3,4.61,1.35,8.21,2.46,2.42,9.34,3.65,12.33,2.37-2.42-19.13,24.42-9.65,17.94,2.07-5.25,9.5-18.38-1-25.95-1.47-14.23-.94-12,5.38-20.29,15-7.22,8.34-23.62,2.28-33.87.75-4-.61-11.77-1.1-14.86-4.11-5.34-5.23-1.63-7.82.81-13.85,1.56-3.87,2.49-13,4.63-16,5.29-7.5,3.73.41,9.74.58,6.49.19,12.77-6.89,20.18-7.59,5.2-.48,12.79,4.11,17.05,2.91C244.5,201.84,216.79,188.4,217.82,181.47Z"/><path class="cls-1" d="M788.52,156.94c7.37.18,11.41.21,16.88,5.78,3.87,3.93,3.2,9.86,5.65,13.06s26.39,8,23.69,12.2c-4.45-3.36-12.56-5.5-18-6.38-9-1.48-10,2.87-17.78,5.49-8.19,2.77-17.49-.07-21.49-8.64C772.46,167.63,780.76,162.31,788.52,156.94Z"/><path class="cls-1" d="M15.44,215.37c4.18.13,3.8,9.46,1.38,8.74C13.76,223.17,13.67,217.13,15.44,215.37Z"/><path class="cls-1" d="M26.47,224.33c-3.83,2.46-5.13,1.58-8.73,3.22C17.74,236.26,41.15,228.84,26.47,224.33Z"/><path class="cls-1" d="M339.11,187.35c8.05,2.17,8,23-1.64,23-3.7,0-12-6.34-12.74-9.84C323.06,192.57,334.41,191.19,339.11,187.35Z"/><path class="cls-1" d="M352.91,215.63c-1.78,2.23,1.56,4,3,2.08C355.65,216.24,354.66,215.55,352.91,215.63Z"/><path class="cls-1" d="M701.72,223.91c9.49-.44,10.35,11.82,1.26,13.68C691.68,239.9,692.48,227.23,701.72,223.91Z"/><path class="cls-1" d="M448.56,224.14l2.07,1.62C448.9,228.27,446.68,226.79,448.56,224.14Z"/><path class="cls-1" d="M446.73,232c10.37-.11,19,2.31,23.79,12.11,3.29,6.69,2.79,5.79-.62,13.11-2.89,6.21-2.83,9.3-10.16,12-11.38,4.22-28.07.7-29.09-11.76C429.56,244,438.35,239.24,446.73,232Z"/><path class="cls-1" d="M370.65,254.74c-5.56,6.61,5.34,16.14,10.22,10.44C384.14,261.35,375.07,255.77,370.65,254.74Z"/><path class="cls-1" d="M573.19,341.18h4.61c1.13,1.46,2.55,2.57,3.67,4.14.08.76.15,1.53.23,2.3a7.16,7.16,0,0,0-1.84,2.53c-3.61,1.2-7,.37-8.51-3-.49-1.58-.1-2.19,0-4.14C572,342.41,572.58,341.8,573.19,341.18Z"/><path class="cls-1" d="M506.51,350.38c1.94-.13,3.86-.22,4.6.92s.68,3.66-.46,4.37c-.89.26-5.6-.8-6.67-1.38-.05-2.3.47-2.51,1.38-3.68Z"/><path class="cls-1" d="M606.76,361.87a9.37,9.37,0,0,1,4.84,2.76v3.68L610,369.92c-3.22.22-4.3.06-6.43-1.61a3.79,3.79,0,0,0-.93-2.53A23.68,23.68,0,0,1,606.76,361.87Z"/><path class="cls-1" d="M548.82,370.62c14.27.37,17.11,18.69,4.83,22.31-8.84,2.59-19.26-6.9-16.56-14.27,1.1-3,4.11-6.6,7.13-7.58Z"/><path class="cls-1" d="M712.61,307.3c20.23-14.67,43,15.15,21.18,27.79C713.7,346.73,694.79,323.92,712.61,307.3Z"/><path class="cls-1" d="M562.38,462.83c25.78-.26,29.43,12.11,31.5,35.18-5.87,4.32-10.26,9.08-17.7,11.95-3.77,1.47-11.42-.39-13.57-1.14-4-1.42-6.4-1.8-9.66-3.68-5.53-3.2-13.44-18.87-9.43-28.05,2.15-4.93,8.35-9.64,13.11-12C558.54,464.19,560.89,464.14,562.38,462.83Z"/><path class="cls-1" d="M471.33,395.22l1.38.23c1.56.62,4.64,3,4.14,4.82-.33,1.12-.69,1.19-1.39,1.85l-2.52-.7C472.21,399.62,470.69,397.87,471.33,395.22Z"/><path class="cls-1" d="M536.72,485.82l.68.7V487l-.45.45-.69-.45v-.93Z"/><path class="cls-1" d="M576.41,418l2.53.46c.08.24.15.47.24.69-.09.31-.16.61-.24.92a5.4,5.4,0,0,1-4.14,0c.23-.61.46-1.23.69-1.83C575.79,418.13,576.11,418.06,576.41,418Z"/><path class="cls-1" d="M593.66,422.12c7.92.4,12.05,3.41,12.19,12,0,2.17-.23,5.18-1.38,6.9-1.81,2.68-9.27,3.85-10.13,5.28-1.33,2.24.17,5.73-1.83,8.05-3.43,4-11.21,1-12.19-3-.31-1.28.3-3.2-.23-4.38A3,3,0,0,1,578,446c.15-.23.31-.45.46-.69a3,3,0,0,0,3.22-.22l2.52-3.22c-.22-2.52-1.57-4.55-2.06-6.91-.4-1.89.64-2.6.92-3.68C584.9,424.35,588,425.43,593.66,422.12Z"/><path class="cls-1" d="M569.29,426a6,6,0,0,1,3.67,2.3c-.15,1.07-.31,2.14-.46,3.22-1.22.88-1.76,1.53-3.9,1.61a5.26,5.26,0,0,1-2.77-2.07v-2.3c-.19-1.25.93-1.76,1.84-2.53Z"/><path class="cls-1" d="M474.32,428.56l3.45.23a4.57,4.57,0,0,1-.46,4.37h-3.46c-.3-1.08-.61-2.14-.91-3.22Z"/><path class="cls-1" d="M612.51,432a9.67,9.67,0,0,1,4.83.69v1.14l-.92,1.39a8.83,8.83,0,0,1-4.82-.24c-.23-.38-.46-.76-.71-1.15v-.45Z"/><path class="cls-1" d="M351.51,428.49c6-.26,8.91,2.07,7.82,7.18a11.14,11.14,0,0,1-4.56,2.6c-2.55-2.12-5.87-2.4-4.79-7.61Z"/><path class="cls-1" d="M435.23,450.63c12.34-.35,20.4,15.75,8,21.39-7.76,3.55-17.55-7.1-14.48-16.1C429.78,453,432.94,452.29,435.23,450.63Z"/><path class="cls-1" d="M562.61,459.61h2.53c.62.68,1.23,1.37,1.84,2.06,0,1.39-.06,2.88-.91,3.45a4,4,0,0,1-3.91-.23l-.93-1.61c-.07-.69-.15-1.38-.23-2.07Z"/><path class="cls-1" d="M385,468.72c16.64-.49,20.53,17.93,6.74,22.61-6.4,2.17-17.18-6-15.88-12.39C377.09,472.92,380.31,471.32,385,468.72Z"/><path class="cls-1" d="M333.24,470.89c1.47.18,1.53.64,2.39,1.31.3.43.58.86.88,1.3v.44l-2.62,2.39-3.47-.22c-.07-.43-.15-.87-.22-1.3A16.71,16.71,0,0,1,333.24,470.89Z"/><path class="cls-1" d="M555.72,562.29l4.59.23c.6,2.13-.63,2.58-2.29,1.84l-2.3.23-.92-.46c.15-.54.31-1.07.45-1.61Z"/><path class="cls-1" d="M562.84,567.81V563.9c2.8-1.66,9.67-2.87,10.81,1.37.73,2.76-1.7,3.48-2.06,5.76,1.14.78,2.79,3,2.06,4.83-1.62,4.09-9.3,5.64-14.49,3.9.16-.76.31-1.53.46-2.29.84-.24.68-.19,1.15-.69v-.69c-2.95-2.08-7.35-1.77-9.42-4.83v-1.37C553.79,565.8,558,567.49,562.84,567.81Z"/><path class="cls-1" d="M680,480.2c1.92.44,2.37,2,1.83,4.14h-2.75l-.46-.45v-2.31Z"/><path class="cls-1" d="M339.33,487.2l2.61.22a2,2,0,0,1,1.3,1.31c.61,2-.27,3-1.3,3.91a6.47,6.47,0,0,1-3-.44c-.37-.43-.73-.87-1.09-1.3v-2.17Z"/><path class="cls-1" d="M634.45,496.07c1.2.1.91-.16,1.37.69a4.93,4.93,0,0,1-.23.46h-.23C634.1,496.94,634.31,497.1,634.45,496.07Z"/><path class="cls-1" d="M364.12,492.43l3.05.43c.65,1.31,1.47,2.05,1.73,3.91l-1.51,2.83-2.84.65a11,11,0,0,1-2.6-1.74,9.37,9.37,0,0,0-1.31-2.39c.51-1.16,1-2.32,1.52-3.48Z"/><path class="cls-1" d="M647.32,499.75a10.1,10.1,0,0,1,4.83,2.76c.33,7.73-4.68,10.22-10.58,8.05a12.49,12.49,0,0,1-.91-6l3.21-3.45Z"/><path class="cls-1" d="M586.07,605.51c.61.09,1.23.16,1.84.24.62.61,1.22,1.23,1.84,1.85-.08,1.13-.15,2.28-.23,3.44l-2.76,1.37c-1.49-.91-2.93-1.26-3.68-3-.59-2,.47-2.58,1.37-3.68h.24Z"/><path class="cls-1" d="M468.79,541.23c4.12.64,10.94,4.12,8.06,10.57-2.12,5.13-11.78,7.9-14.72,1.62C458.5,545.65,464,544,468.79,541.23Z"/><path class="cls-1" d="M542.84,620.69l.92.46c-.07.16-.16.31-.23.47h-.92C542.69,621.31,542.76,621,542.84,620.69Z"/><path class="cls-1" d="M671.56,346.93l4.6.23c.59,2.13-.64,2.58-2.3,1.84l-2.3.23-.92-.45c.15-.55.31-1.08.45-1.62Z"/><path class="cls-1" d="M783.92,278.12c-3.76-3.08-5-12.22,2.66-13.21,6.89-.89,3.79,3,7.31,5.74s6.37.5,8.09,6.61c1.4,5-5.29,12.29-9,14.59-5.74-7.06-.83-.92-10.74-.1C770,292.77,779.4,283,783.92,278.12Z"/><path class="cls-1" d="M701.92,390.15c.6.09,1.22.16,1.83.24l1.84,1.85c-.08,1.14-.15,2.29-.23,3.44l-2.76,1.37c-1.48-.91-2.93-1.26-3.68-3-.58-2,.47-2.58,1.38-3.68h.23Z"/><path class="cls-1" d="M658.68,405.33l.92.46c-.07.16-.16.31-.23.47h-.92C658.53,406,658.61,405.64,658.68,405.33Z"/><path id="path2201" class="cls-2" d="M461.75,508.17c-.13.27-.88,1-.19,1.2C462,509.49,462.09,508.34,461.75,508.17Zm.38,1.34c-.74-.37-2,.82-2.68.48,2.2,1.1-1.09,4.91-2.11,5.42-.74.36-.75-1.33-1.92-.2-.72.69.82,1.11.34,2.07-1.16,2.32-.29-.19-.29,2.83,0-1.55-2.62.67-2.74.57-.4-.3.88-.94.3-1.29-.35-.22-2.14,4.83-2.4,3.79a2.87,2.87,0,0,1,.52-1.63c-.3,1.2-2.16,1.09-2.16,3.93a1.75,1.75,0,0,0-3.4-.72c.41-1.64-4.25.22-4.56.43-1.64,1.11-2.72,4.79-3,6.28-.8,4.6,1.69,7.17-1,11.39-1.18,1.87-3.61,3.08-4.36,5.35-1,3,.81,3.59,1,6.66.11,1.57-1.66,3-.31,5.81.85,1.77,3.28,1.91,4.18,4,.32.74,8-3.63,8.58-4.25,2.65-3,4.21-8,6-11.68,1.64-3.45,3.2-7.11,5-10.91.94-2,1.77-4.26,2.83-6.19s1.44-1.54,2.36-2.63c.65-.79-.88-.21-.92-.42,0,.15.77-5.78.63-5.67.85-.64.78,2,1.47,2.05C465.72,525.13,464.8,510.85,462.13,509.51ZM438.28,549.2c.41.68-.26,1.2-.47.68C437.49,549.09,438.29,549.18,438.28,549.2Z"/><path class="cls-2" d="M643.77,218.89c.26-1.24,1-4.06,2.18-4.35.22,4.72,7,10.34,9.12,3.19,1.31-4.33-5.05-6-8.25-3.63-1.67-1.09-.44-9-2.61-11.52-2.78-3.23-8.82-3.72-12.4-5.41-9.57-4.51-19.2-11.45-27.81-17.45s-9.27-10.17-13.93-20.63c-2.08-4.68,0-8.63-7.83-10.88-1.88,1.93,6.4,17.41,7,20.23-6.58-1.27-11.52-7.61-17.18-10.65-1.15,1.13,12,13.4,12,16.3-9.27,4.62-20.23-3.27-20.23,10.22-4.14.67-8.86-.6-11.53-3.47,5-3.44,3.94.09,1.53-4.57,6.61-2.21-5-20.45-7.52-25.61-3.23-6.77-5.57-18.86-11.61-23.76-1.79,12.44,30.18,49.47,2.35,51.38-3.61.24-25-9.89-26.28-5.92-.27.84,17.36,15.43,18.49,15.43-1-4.13,6.47-2,2,4.13,1.72,3,4.88,5.41,5.65,8.92-6.69,1.65-.46.87-9.57.87-1.61,3.18.81,2.35-2.6,5.44,3.53,2.35-6.93,7.81-5.07,15.72,1.29,5.47,7.77,3.41,1,9.31-2.66,2.3-9.4.92-9.4,5.41,2.24.94,16-4.64,13.49,1.95-1.78,4.67-14.14.5-14.14,5.87,1,.09,13.65,5.48,13.7,5.66-7.38,6.38-20.72-5-26.35.44-8.49,8.27,12.07,6.91,13.08,10,0,.12-14.69,11-16.7,12.92-10.83,10.33-23.53,20.23-27.54,35.25-2.05,7.68-3.71,20.93-16,12.8-11.07-7.34,1.3-17.28,4.82-25.52,4.21-9.86.61-21-4-30.45-1.73-3.5-13.21-12.11-13.21-14.14,22.09-4.28-6.88-16.83-2.39-1.52-9.76-4.7-18.34-6.36-28.73-8.92-8-2-10.67-1.42-16.19-4.78-4-2.45-13.89-8.74-16.4-12.61-2.35-3.64-2-29.38-7.39-27.83-1,5.53.61,13.21,1.13,18.7.46,4.76,3.37,16.71,1.69,20.66-.44,1-7.31,6.81-8.48,7.43-3.28,1.74-6.41.28-9.78,1.27s-4.21,5.25-8.48,5.43c.79,1.33,5,.9,3.91,3.7-.75,2-3.64.21-4,2-.91,5.1-1.19,10.45-1.65,15.6-.71,8,.09,8.64,2.57,15.65,4.18,11.78-2.16,9.42-12.66,4.76-3.21-1.42-8.58-3.37-11.17-5.54-2.05-1.71-.78-3.82-2.86-5.36-5.55-4.09-12-2-2.57-8a10.4,10.4,0,0,1,4.91.48c.79-1,1.55-2,2.29-3.08,1.46-.83,4.17-4.11,5.49-5.24a26.14,26.14,0,0,1,4.4-.59,21.29,21.29,0,0,1,2.52-5.16c1.31-1.36,6-5.85,6-7.23-4.84-2.46-14.2,10.94-17.45,13.58-2,1.65-20.93,9.78-19.76,11.23-34.07-16.24-63,32.57-72.33,58.13-18.32-14.34-25.49,21-5.17,18.5-5.35,13.85-20.4,19.2-7.14,32.78,8.79,9,17.55,16.54,30.18,18.7,12.91,2.2,22.77,1.95,34.78,8.16,2.23,1.15,20,13.82,16.8,13.82-11.61,0,13.71,29.38,14.75,25.21-6.95,27.78-1,83.73,31.11,94.4,18.86,6.27,41.51-3.44,47.74-21.95,3.11-9.27,4.82-13.87,13.28-19.58,11-7.43,18-7.49,16.21-22-1.53-12.15-2-19.47,1.66-31.7,3.1-10.37,8.4-19.73,10-30.62,1.71-11.78-.14-12-9.12-16.55-2.87-1.47-13.88-7.45-14.12-11.28-.32-5.05,9.13-7.48,11.17-10.66,3.2-5,1.8-8.82,2.94-14.4s7.4-9.89,8.1-14.58a8.8,8.8,0,0,0-5.33-9.21c-.72-.31-.5,4.92-4,3-4.89-2.67-.84-1.6-4-5.81-2.21-2.93-4.46-6.25-4-9.88-.48,3.63,5.67-5.43,4.28-4.69,2.6-1.4,2.77-4.6,5.64.08,3.16,5.15-3.22,8,1.41,10.95,6.74,4.3,17-6.59,22.77-7.44,5-.74,9.37,1.61,13.6,3.23,2.17.84,3.77,1.41,6.29,2.31,3.72,1.33,6.5,1.29,10,2.34,15.09,4.59,28.2,10.21,35.91,23.93,2,3.5,6.59,13.58,10.59,15.79,6,3.29,12.11,2.54,18.5,6.43,4.32,2.63,38.8,24.73,43.11,20.88-1.63-5-10.63-7.38-14.64-10.06-5.3-3.53-13.1-8.83-15.59-14.95,2.69-3.61,8.22,1,11.31,0-1.24-2.71-16.67-6.29-19.6-7-8-1.88-12.71,1.1-19.71-5-5.7-4.95-8.07-12.92-13.85-18.06-7-6.21-16.07-10-24.43-14-6.21-2.95-20-6.25-23.41-12.54-4-7.26,2.54-16.16,6.63-22.21,5.85-8.67,11.24-16.44,19.36-23.3,4.48-3.8,14.85-14.09,20.87-15.18,2.7-.49,7,0,9.13,1.78,2.49,2.06-.43,4.11,2.47,6.74,4.07,3.68,12.57,4.83,17.32,8.87,6.31,5.36,6,7.17,14.24,8.8,9.16,1.83,14.95.43,23.36-2.45,19-6.52,30.9-8.6,41.46-27.68,4-7.17,5.92-18.21,12.07-22.78,4.3-3.2,17.12-1.25,19.77-5.48C650.67,226.58,641.82,228.28,643.77,218.89Zm-316.6,75.67c5.71,1.93,14.29,2.27,17.83,8.05-.62.53-12.38-2.64-12.83-2.73-4.25-.83-16-4.94-19.71-1.41.1,0,1.45-10.21,1.55-11A47.54,47.54,0,0,0,327.17,294.56Z"/><path class="cls-2" d="M332.37,273.67c.66,1,1.35.68,2-.23C333.84,272.54,332.84,272.94,332.37,273.67Z"/><path class="cls-3" d="M322.58,400.63c-.28.33,4.74,11.78,5.2,13.64,1.4,5.69.5,11.21,4,16.68.3.46,6.66,6.36,6.81,6.95-.6-2.39-7.31,4.29-7.66,5.66-.68,2.76,4.35,10.93.84,12.92-3.13,1.78-2.85-7.13-3.56-7.7-3.31-2.7-2.74-2.16-7.84-1.54-1.23.14-22.37,3.44-20.69,1.75a9.89,9.89,0,0,0,1.43.69c-2.34,0,2.42-3.19,2-2.22a11.65,11.65,0,0,0,4.3-.81c1-2.58.44-3.61-1.69-3.09-.36-2.29-3.83-3.48-2.85-7.4-.35,1.43-5.77-2.91-5.77-2.12,0-7.64,11.24-13.18,15.79-18.22,1.42-1.56,3-.58,4.57-2.82C319.56,410,320.73,404.08,322.58,400.63Z"/><path class="cls-3" d="M331,506.59c0-4.26,22-1.68,24.14-1.34,4.27.66,25.5,5.29,28.06,2.74-3.36,3.35-7,0-10,1-7.68,2.56-3,.91-5.71,7.44-.57,1.4-1,5.92-1.33,6.87-.23.71-3,.67-3.65,2.44-2.1,5.37,1.45,12.1.29,17.59-2.19,10.33-13.1,7.5-17.58.82-3.76-5.61-1.63-13-3.36-19S331,512.31,331,506.59Z"/><path class="cls-3" d="M429.47,422.4c-.89,3.55-1.81,15.47-.83,17.23a29,29,0,0,0,4.3,6.64c-3.15,3.15-10.27,4.54-14.55,4.23-6.25-.45-4.84-2.57-8.12-5-8.26-6-17.25-8-20.52-19.65C386,412.67,391,404.38,406,406.44,416.57,407.91,422,416.2,429.47,422.4Z"/><path id="path7869" class="cls-3" d="M426.48,490.28c-.35.56-.69.65-1,.28C425.44,490.12,427.65,488.32,426.48,490.28Z"/><path id="path4385" class="cls-4" d="M279.94,410.76c-2.45-3.39-3.67-3.3-3.84-8.42-.06-1.54,3-12.57,4.17-11.43C282.85,393.49,284.94,411.78,279.94,410.76Z"/><path id="path4387" class="cls-4" d="M276.81,396.48c.21-1.33-.92-4.75-.2-5.71.32-.43,3.33-.53,3.11.54A48.72,48.72,0,0,1,276.81,396.48Z"/><path id="path57" class="cls-4" d="M640.87,478.64c.55-4.24-7.35-7.9-10.5-8.61-.91,1.17,1.52-1.72.43-.93,1.55,1.31,17,8.13,11.17,12.25Z"/><path id="path59" class="cls-4" d="M629.37,484.69c3.79,4.15,5.81-6.77,5.86-6.83a5.89,5.89,0,0,0,3.09-.16c2,6-15.71,18-20.44,8.22-.64-1.33,10.2-.12,9.68-3.38C627.31,487.05,628.7,482.55,629.37,484.69Z"/><path id="path641" class="cls-4" d="M626.25,468.56c1.55-.54,1.78.42,2.64.67S625.19,469.79,626.25,468.56Z"/><path id="path83" class="cls-2" d="M578.29,469.35h.05c.1-.12.23-.08.36,0s.07.06.12.06.13,0,.19,0,.1.06.15.07.12,0,.18,0l.08,0,.07.07a.59.59,0,0,1,.23.05c0,.09,0,.16.14.17s0,0,.07-.05,0,.1,0,.14.19.1.28.13a2.11,2.11,0,0,1,.36.09l.2.11a.69.69,0,0,0,.13.05l.09.05a1.72,1.72,0,0,1,.29.11l.12.06.09,0c.05,0,.07.08.12.1s.13,0,.19.06a3.49,3.49,0,0,0,.39.19,2.67,2.67,0,0,0,.36.14s.1,0,.13,0,0,.1,0,.16l.11,0s.13.13.18.14.38-.12.56-.09.14.16.18.17,0,0,0,0a.51.51,0,0,1,.22.15l-.06,0s0,.07,0,.12a.11.11,0,0,0,0,0c.09.07.13,0,.19,0l.05-.05,0,0a.05.05,0,0,0,0,0c.05,0,.28.18.35.19a1.61,1.61,0,0,0,.22,0s.06.05.1.07l.13.06c.09,0,.19,0,.28,0s.07.08.13.1.28.09.42.15a.87.87,0,0,1,.18.11l.23.1a4.54,4.54,0,0,0,.53.12.77.77,0,0,1,.15,0l.1.06.13,0c.06,0,.11.08.18.1a1.23,1.23,0,0,0,.19,0,.44.44,0,0,1,.16.06,1.34,1.34,0,0,1,.2,0c.1,0,.23.12.33.15s.13,0,.19,0a2.67,2.67,0,0,0,.4.13,1.57,1.57,0,0,0,.28.1c.06,0,.28,0,.36,0a.82.82,0,0,1,.22,0h.13c.26,0,.25.14.41.17a2.45,2.45,0,0,1,.27,0,1.46,1.46,0,0,0,.2.05h.33l.08,0a.33.33,0,0,0,.14,0h0l0,0s.06.06.09.06h.08l.08,0h.09c.07,0,.11.08.17.13l.09,0c.06.05,0,.14.09.19s.07,0,.1.06a.7.7,0,0,0,0,.14c.06.06.1,0,.15.07s.07.07.11.08.08,0,.16,0h0l.12-.12h0v0c0,.06,0,.12,0,.18s0,0,0,0,.11.06.23.07.07,0,.13,0l.28.23s0,.1,0,.14l0,0c.08,0,.14.09.22.12a.69.69,0,0,1,.13,0l.15.1c.08.06.11.24.21.33l.08,0,.07,0h.07s0,0,.08,0a2.09,2.09,0,0,0,.5,0c.06,0,.08,0,.15,0h0a.25.25,0,0,1-.22.08v0h0s0,.05,0,.07a.83.83,0,0,0,.28.08s0-.06.06-.08.05.19.27.19h0v0c-.06-.09.07-.14.11-.2s0,0,0,0a.19.19,0,0,0,0-.07h0a.57.57,0,0,1,.13,0,1.05,1.05,0,0,1,.5,0,1,1,0,0,0,.17,0h.11a1.26,1.26,0,0,0,.28,0h.05a1.21,1.21,0,0,1,.22.32l0,.07a.76.76,0,0,0,0,.15s0,0,0,.07a.37.37,0,0,0,.21.34.43.43,0,0,0,.22.09c.2,0,.2-.08.41.07a.4.4,0,0,1,.24.05l0,0a.14.14,0,0,1,.11,0l.14.11s.1,0,.14.05.31.15.3.24a.29.29,0,0,1-.12.07l0,0a.14.14,0,0,0,.07.1c.15.14.14.08.33.08s.11.14.19.21.18.14.18.21a.23.23,0,0,1,0,.12s.08,0,.1,0,.09.23.12.28,0,0,.07,0,0,0,.05.05.1,0,.14.05l0,0a.21.21,0,0,0,.11,0l.09,0,0,0,.2,0a.27.27,0,0,1,.08.07h.14c.06,0,.07-.06.15-.07s.1,0,.2,0l.12,0c.16,0,.25.14.34.24s0,.09.08.11c.19,0,.23.19.32.26s.11.11.18.22a.63.63,0,0,0,.12.11.52.52,0,0,1,.06.13s.06,0,.09.05l0,0h0l.05,0h0l.14.22s0,.06,0,.09a1.3,1.3,0,0,0,.15.18s0,.08.07.12a1.42,1.42,0,0,1,.13.12l.17.17s0,0,.05,0,.06,0,.07.07l.06,0a1.13,1.13,0,0,1,.2.13l0,0s.11,0,.15,0a.21.21,0,0,1,0,.1H604c.12.16,0,.17,0,.27a.48.48,0,0,0,0,.15c0,.08,0,.08,0,.17l0,.12a1.26,1.26,0,0,0,0,.27c0,.09.08.16.11.24s0,.06,0,.07a.13.13,0,0,0-.08,0s0,0,0,0,0,0,0,.08a1.09,1.09,0,0,0,0,.17l0,0,0,0a2.23,2.23,0,0,0,0,.23c0,.06.09.11.06.17s-.15.18-.18.25a2,2,0,0,1-.13.18c0,.08.07.13.06.23s-.06.11-.09.17a.85.85,0,0,0,0,.17.52.52,0,0,0,.22.39l.09,0a.45.45,0,0,0,.16,0l0,0h0l0,0h.16l.09.06h.05l0,0s0,.08,0,.12h0s0-.11.06-.13h0l0,0,0-.05c0-.08.13,0,.2,0l.06-.05h0s0,.07.07.12.1,0,.16,0,.07.06.11.08.11,0,.14,0v0l.1,0,.06.05c.06,0,.26.08.31,0s.1.12.17.15.09,0,.14,0,.09.07.14.08.07,0,.12,0,.1.1.17.12.27-.14.34,0l.05,0h0l0,0a.1.1,0,0,0,0,.07h.11a.49.49,0,0,0,.2-.05s.05,0,.08,0c.2.06.08.11.17.18l.16.07a.88.88,0,0,1,.34.24.27.27,0,0,0,.07.08,1.24,1.24,0,0,1,.32.23c.05,0,.1,0,.15,0l.07,0h.08c.07,0,.13.1.2.12s.1,0,.2.05,0,0,0,0a.94.94,0,0,0,.06.15l.11.06h0s.08-.07.13-.09a.44.44,0,0,1,.28,0l.07,0,.08,0a.47.47,0,0,0,.06.09s0,0,0,0,0,.11.09.17.09,0,.12.06.06.06.1.08l.11,0,.08.05,0,0c.1-.06,0-.19.22-.05v.06s0,.08.07.09h0l.13,0,.06,0a.91.91,0,0,1,.17,0,1.7,1.7,0,0,1,.22,0h.12c.09,0,.17-.22.27-.19s.05,0,.07,0,.1,0,.14,0h0l0-.07h0l.28.16a.92.92,0,0,0,.16,0h0l.14.05h.08l0,0s0,.06.08.1.06,0,.08.07a.25.25,0,0,0,0,.07l.07.07c.08.07.19.06.26.14a1.85,1.85,0,0,1,.22.29c0,.05.1.08.13.13s0,.09.06.13.1.08.14.15,0,.11.05.18,0,.09.06.13a.54.54,0,0,1,.09.12.53.53,0,0,0,.22.12c.11-.05.22.15.3.2l.07,0c.07.09,0,.16,0,.23s.08.08.11.12l.11.36a.32.32,0,0,0,0,.09l0,.06s0,.06,0,.09-.05.08-.05.13.08.19.06.25a.27.27,0,0,0-.1.08.15.15,0,0,0,0,.11.11.11,0,0,1,.08,0h0a.72.72,0,0,1,0,.29c-.06,0-.09.1-.14.14l-.08,0s0,.06-.07.07h-.11c-.06,0-.1.05-.17.05h0a.38.38,0,0,1-.15,0,2.46,2.46,0,0,1-.26,0h0s-.07,0-.11,0,0,0-.07,0-.05,0-.09,0-.09,0-.13,0-.12.14-.21.16-.07,0-.12,0a.32.32,0,0,0-.13,0l-.17,0a2.62,2.62,0,0,0-.38-.09c-.07,0-.4.12-.43.11s-.13-.06-.16-.06l-.09,0c-.16-.1-.36.06-.54,0h0c-.18-.23-.13-.11-.36-.12a.59.59,0,0,0-.19,0c-.07,0-.12.11-.21.13a.55.55,0,0,0-.17,0h0s-.09,0-.15,0l0,0s0,.08,0,.12,0,.06,0,.09-.09.28-.08.36a.43.43,0,0,1,0,.11c0,.05,0,.08,0,.12a.41.41,0,0,0,0,.16s0,.09,0,.13a.06.06,0,0,0,0,0s0,0,0,.06.1.13.2.2.09,0,.11.07,0,.07.06.09h.05l0,0h0s0-.1.11-.14h.06v0a.34.34,0,0,1-.09.15v.06a.08.08,0,0,0,0,0c.12,0,0,.26,0,.36s.08,0,.12.07a1,1,0,0,1,.32.41c0,.14-.06.31,0,.37h.07v0l-.07.08v0a.35.35,0,0,0,.08.05v0a.76.76,0,0,0,0,.26l.06,0c0,.06,0,.14.07.18s.08,0,.1.05v0s-.07.06-.09.09v0c.06.06.14,0,.17,0s0,.07,0,.11.13,0,.17,0,0-.08.08-.08v0s.06,0,.08.07l0,0v0c.07.05.08,0,.13,0s.18.05.23,0l0,0a.11.11,0,0,0,0,.08s0,0,.08,0,.09.17.14.21h0v0c.11,0,.15.08.24.11v0l0,0s0,0,0,0h.1a.92.92,0,0,1,.25.27c0,.06-.11,0,0,.2s.14,0,.21,0l.09,0s0,0,.09,0,0,.05,0,.09,0,0,.06.05a.35.35,0,0,1-.05.13v0c.06,0,0,.1,0,.16l.08,0a.16.16,0,0,1,0,.13s0,0,0,0v0a.13.13,0,0,0,.13,0s.1,0,.11,0-.1-.06-.12-.13v0l0,0h0l0,.06s.09,0,.11,0,0,.07,0,.1.08,0,.09.09a1.66,1.66,0,0,1,0,.22c0,.05,0,.1,0,.14a.3.3,0,0,0,.19.24.37.37,0,0,0,.15,0s0-.07.1-.07h0s.08,0,.13,0l0,0h0c.1,0,.11-.09.24-.05s.1.07.16.12a.21.21,0,0,0,.11,0s.07.08.12.09h.09s.08,0,.11.08,0,.32.14.36l.12,0,0,0a.13.13,0,0,1,.18.05c.18-.08.12,0,.24,0s.11-.11.16-.07a.13.13,0,0,1,0,.12s0,0,0,0,0,.06,0,.09,0,0,0,.05,0,.09,0,.12h0c0,.06,0,.1,0,.15s.1.13.12.17,0,.16,0,.22a.78.78,0,0,0,.1.15,1.14,1.14,0,0,1,.07.32h0a1.09,1.09,0,0,0,0,.44c0,.09.12.18.15.27s-.07.14-.07.21,0,.15,0,.17c0,.2,0,.28.21.38l.06.05a.37.37,0,0,1,.16.09l.16,0c.12,0,.32.15.35.27s.11.05.14.06.06,0,.09,0,.06.18.11.25.09.05.1.08a.31.31,0,0,1,0,.1c0,.07,0,.14,0,.21a.76.76,0,0,0,0,.16s0,.07,0,.1a.34.34,0,0,1,0,.1l0,0c0,.05,0,.11,0,.15h.11s0,.07.08.1,0,.08,0,.13a.08.08,0,0,0,0,0c0,.05,0,.2,0,.26l0,.08s.09.08.12.12.1.15.15.21l.09.07c.09,0,.15,0,.23,0a1.23,1.23,0,0,0,.41.1c.06,0,.1,0,.15,0a2,2,0,0,0,.26,0s.07-.06.11-.06.06,0,.11,0,.07-.05.11-.07.07,0,.11,0a.26.26,0,0,1,0-.15h.1c.09.05.12.08.22,0a.38.38,0,0,1,.13.06.14.14,0,0,0,.09,0s.06,0,.09,0,.06-.05.07-.07l0,0,.09,0,0,0s.06,0,.09,0l0,0a.46.46,0,0,1,.11-.16h0s.09,0,.1-.06.09-.09.12-.11h0s0,.11,0,.15a.11.11,0,0,0,.11,0h0l0,0c.07,0,.22-.06.27-.06s.07,0,.09,0,0,0,.09,0h0v0s0,.05,0,.07l0,0a.21.21,0,0,1,.1,0h0s0,0,0,.06h0l0,0a.06.06,0,0,1,.07,0,.11.11,0,0,0,0,.08s0,.1,0,.14-.06,0-.08.08l0,.05s0,0,0,0h.09v0c0,.05-.15,0-.18.06s.11.06.16.06a.13.13,0,0,1,.09,0,.09.09,0,0,1,0,0,.1.1,0,0,1,0,.07c0,.07,0,.07-.07.11v0s-.06,0-.08,0,0,.05-.06.06-.06,0-.09,0-.07.15-.17.23,0,.07,0,.14-.07.16-.1.25a.5.5,0,0,1,0,.12c0,.06-.15.05-.22.18s.07.31.1.4,0,.1,0,.15a.83.83,0,0,0,.14.22,1.15,1.15,0,0,0,.23.1c.06,0,.1,0,.16,0s.11.08.17.09l.05,0c.09.05.14.14.22.18h.11s0,.08,0,.11.09,0,.14,0l0,0s0,0,0,.08.07.07.12.07l.07,0a.55.55,0,0,0,.18,0s0,0,.06.06l.06-.05a.11.11,0,0,1,.11,0s0,0,0,.05.27.14.37.13.15-.12.26-.09h.08s0,0,.07,0l0,0h0c.27-.09.27.08.35.08h.06l.1,0h0c.06,0,.09-.05.15,0s.14.12.21.12H626l.08,0,.11,0,.08,0a.57.57,0,0,1,.26,0c.09.08,0,.14.08.23a.14.14,0,0,0,.09,0,.13.13,0,0,1,.06.15s0,0,0,.05a.07.07,0,0,1,0,.09c-.19-.07-.23.09-.31.13h-.1s-.06,0-.08,0-.14.08-.22.08l-.11,0s0,0-.06.05l-.05,0c-.11.05-.1,0-.2,0s-.13,0-.18,0,0,.05-.09.06l-.08,0s0,0-.07.05-.22.08-.22.17a.06.06,0,0,0,0,.05s0,0,0,.06.12.1.12.16l0,0a.25.25,0,0,0,0,.07.54.54,0,0,0,.21.08.37.37,0,0,0,.12.13s0,.05,0,.07.08.11.09.15a.09.09,0,0,1,.06.06.23.23,0,0,0,0,.11v0l0,0h0a.13.13,0,0,1,.16,0l.1.15a1.44,1.44,0,0,0,.4.18c.05,0,.11-.05.16-.05s.25.07.31.06l.08,0c.06,0,.11.16.18.19s.18-.08.25-.1h.07c.08,0,.1.13.15.17s.07,0,.19.06,0,.06.06.09a.86.86,0,0,0,.26.21s.09,0,.13,0,.08,0,.11,0l.25,0a.41.41,0,0,1,.11,0l0,0s.19-.1.23,0v0c.12,0,.14,0,.22.1h0c.08,0,.07-.12.2-.12s0,0,.07,0,.1,0,.14,0-.07.1-.11.13.09.06.13.09,0,.08.06.12h.08l.07,0a3,3,0,0,0,.4-.11c.07,0,.31,0,.35,0s0,0,0-.05h.1s.08-.06.12-.09a.32.32,0,0,1,.17,0l.06,0,0,0v0c0,.05-.14.08-.19.1s0,0-.06.05l-.24.09a1.29,1.29,0,0,1-.16.09h0l-.12.09a.7.7,0,0,1-.18,0s-.06,0-.09.05-.1,0-.19.1-.1,0-.15,0a.17.17,0,0,1-.1,0l-.06,0h-.06l-.14,0h-.1a.64.64,0,0,1-.14-.08c-.07,0-.13,0-.2,0a.41.41,0,0,1-.11-.07h-.1l-.06,0a.57.57,0,0,0-.13.08l-.12,0,0,0s0,.08,0,.12a1,1,0,0,0,0,.18s0,0,.08.06l.4.05c.07,0,.13.06.19.07h.13a.87.87,0,0,0,.1.08s.12,0,.17.06l.11.07h0a1.55,1.55,0,0,1,.23.08c.05,0,.11,0,.16,0s.07.16.11.29.08.06.11.12v.05l-.06.08a2.44,2.44,0,0,1-.31.06c-.1,0-.18.15-.29.18s-.13,0-.2,0a.15.15,0,0,1-.07,0c-.07,0-.19,0-.23,0s0,.13-.06.16-.1,0-.18,0v0a.27.27,0,0,1,0,.09l0,0a.23.23,0,0,0-.18,0l0,0h-.06s0,0,0,0h0a.25.25,0,0,0,0-.11.22.22,0,0,0-.11,0s-.1.08-.14.1h0c-.09,0-.14.07-.22.09h0l0-.08h0a0,0,0,0,0,0,0v.07h-.08s0,0-.07,0h0v0c-.07,0-.1,0-.14-.08s0-.09.07-.09v0l0,0h0c-.07,0-.21,0-.26,0a.24.24,0,0,0-.06.08l0,0v0s-.08,0-.1-.07a.2.2,0,0,0,0-.08h0l0,0h0l0,0a.11.11,0,0,0,0-.06.09.09,0,0,0-.12,0h0l0,0a.06.06,0,0,1-.06,0l0,0s.07-.05.1-.08-.1-.22-.18-.16,0,.06,0,.09v0h-.08s0,0,0,0h-.07s0-.07,0-.09v0h0s0,0-.05.06h0s0,0,0-.06H626s0-.1-.12-.09l0,0a.25.25,0,0,0,0,.07h0l-.08,0h0s-.12,0-.13-.07h0a.05.05,0,0,0,0,0h0s.14,0,.17-.05a.31.31,0,0,1,0-.1l0,0h-.09c0-.08.07-.08.12-.08l0,0s.09.09.14.07l0,0a1.09,1.09,0,0,1,.18,0l.07.07c.06,0,.09,0,.14,0s.22,0,.26-.22a.58.58,0,0,0,.14,0s-.08-.05-.13-.05-.06,0-.1,0-.16-.09-.24-.12h-.07l-.11,0s-.06,0-.09.06,0,.2,0,.24l-.06,0h0c0-.05,0-.13,0-.19s0,0-.06-.06,0-.13-.07-.17-.18-.09-.24-.12a1.36,1.36,0,0,0-1.06-.24c-.07,0-.15,0-.22,0s-.12-.05-.17,0,0,.07-.11.07a.2.2,0,0,0-.11,0v0a.1.1,0,0,0,.05,0v0c-.06,0-.19,0-.22,0a.28.28,0,0,0,0-.09l-.1,0h0s0,0,0,.05l0,0a.26.26,0,0,1-.15,0v0l.07,0a.11.11,0,0,0,0-.05c0-.06-.12,0-.17,0s0-.16-.07-.18l-.15,0s0-.05-.11,0-.1.18-.19.15l0,0s0,0-.08,0a1.46,1.46,0,0,1-.3-.07.39.39,0,0,1-.11-.06l-.26-.11-.2-.06s-.06,0-.1,0a.34.34,0,0,0-.15-.06s-.06,0-.1,0-.06,0-.1,0a1.07,1.07,0,0,0-.19.07.5.5,0,0,0-.2.08s-.07.1-.11.11-.08-.07-.14-.12l-.18-.08a.88.88,0,0,0-.53-.08l-.07,0h0l0,0c-.08,0-.18,0-.25-.05v0h0l0,0,0-.06v0h-.05v0l0,0v0h-.06v0c.07-.06.2,0,.23-.09s0-.06-.09-.13h0s0,.09-.07.11,0-.05-.08-.07-.06,0-.08,0a.26.26,0,0,0-.07-.19h0v.06l0,0v0a.08.08,0,0,1,0,.08v0l-.08,0a.83.83,0,0,1-.11.15c-.06,0-.14,0-.2,0s-.15,0-.22,0l-.1,0h0s-.09.08-.16.1-.1,0-.2,0-.12,0-.17,0-.14,0-.21,0l-.06,0-.17-.08s-.07,0-.1,0,0-.25-.24-.27a.12.12,0,0,0-.08,0,.15.15,0,0,0-.05.06h0l-.06-.09-.05,0a.08.08,0,0,0,0-.05h-.09c-.05,0-.12-.08-.18-.06l-.06,0h-.05a.15.15,0,0,1,0-.07.18.18,0,0,0,0-.07h0a1.21,1.21,0,0,1-.05.14l-.12.06s-.07.07-.12.1-.17,0-.25.07-.14-.07-.2-.07-.09.29-.33.16c0-.1,0-.08-.1-.15s0,0,0-.06,0,0-.06-.05,0-.12-.13-.12,0,0-.06,0a.42.42,0,0,1-.22,0v0h0s.1,0,.12-.06,0-.27-.14-.2,0,.18,0,.21-.15-.15-.24-.17a.36.36,0,0,0-.33.13s0,.08-.07.11l0,0h0s0-.09,0-.14,0-.16,0-.24v0A.94.94,0,0,0,614,509l-.14-.09,0,0,0,0c-.06,0-.25-.14-.27-.2s-.08-.11-.13-.19-.14-.1-.18-.13,0,0,0-.05-.09-.06-.11-.11a.13.13,0,0,0,0-.06.5.5,0,0,0,0-.32s0-.07-.05-.1,0,0,0-.06-.08-.09-.11-.14l-.13-.17h0l-.14-.12s-.06-.15-.09-.2-.14-.12-.23-.21v-.07c0-.07-.13-.11-.19-.1h0a.38.38,0,0,0,0-.15s0-.06-.09-.06a.41.41,0,0,1-.05-.09s-.06,0-.08,0-.07-.06-.12-.06,0,0,0,0v0l.08.09v0h0l0,0s-.28-.17-.3-.17h0a.43.43,0,0,0,0-.07l-.09,0,0,0s0-.08,0-.12a1.23,1.23,0,0,0-.14-.25l-.21,0v0a.15.15,0,0,1,0,.06h.06l0,0c0,.06,0,.13,0,.18h0v0h-.06s0,0,0-.06-.07,0-.11,0a1.51,1.51,0,0,1-.25-.37.21.21,0,0,1-.1-.16c0-.06,0-.11,0-.18a.38.38,0,0,0,0-.1c0-.11-.13-.29-.26-.28s-.08,0-.14.08-.12,0-.13-.08h0v0h.06v0a.06.06,0,0,0,0-.07.06.06,0,0,1-.07,0s0-.1,0-.15-.06-.15,0-.21,0,0,.06,0v0c0-.05-.06-.09-.08-.14a.08.08,0,0,1,0-.05h0l.08,0s0-.05,0-.08.07,0,.1,0,.05-.07.1-.09.05,0,.07,0V504l0,0a.35.35,0,0,0,0-.11.5.5,0,0,1,0-.13h0l0,0h-.08a.15.15,0,0,0,0,.07.1.1,0,0,0,0,.07s0,0,0,0v0l-.09.06s0,.08-.11.11-.11.06-.17.05a2,2,0,0,1-.4-.17l0,0h0c-.1,0-.22-.14-.33-.06a.09.09,0,0,1-.09,0,.78.78,0,0,1-.23-.08l-.06,0c-.07,0-.13,0-.2,0s-.11-.1-.16-.13l-.08,0a2,2,0,0,1-.15-.33l0,0s0-.05,0-.07a.15.15,0,0,1-.06-.05h0l0,0,.06-.23h.16a.31.31,0,0,0,.12-.24l0,0h0a.1.1,0,0,0,0,.07h0a.18.18,0,0,1-.1,0l0,0s0,0,0-.06a.59.59,0,0,0,0-.08h0s-.06-.14-.12-.16,0,0-.07.05l-.05,0c0-.08,0-.15,0-.23a1.08,1.08,0,0,0-.26-.31l0,0c-.06-.08-.08-.19-.16-.25a.69.69,0,0,0-.2-.13l-.08,0a1.16,1.16,0,0,1-.25-.29,1.74,1.74,0,0,1-.11-.18.75.75,0,0,1-.06-.13,1,1,0,0,1-.17-.23c0-.11,0-.31,0-.4s-.09-.08-.12-.14v0l0-.07c0-.08-.09-.21-.15-.25s-.21-.11-.28-.15-.08-.1-.1-.11a.88.88,0,0,0-.16,0s0-.1,0-.14-.08-.05-.08-.1.06,0,.09,0,0-.07,0-.11l0,0v0c0-.05-.1,0-.13-.12v0a.1.1,0,0,0,.1-.05v0h-.1a.62.62,0,0,1-.26-.12s-.23-.09-.26-.09a1.23,1.23,0,0,0-.19,0,1.25,1.25,0,0,0-.29-.05l-.1,0-.09-.05a.5.5,0,0,1-.12,0,.6.6,0,0,1-.11-.06.9.9,0,0,1-.26-.17s0-.06,0-.08v0h0l0,0h0v0s0,0,0-.06,0-.13,0-.18h0s-.09.1-.11.11h0v-.05l0,0a.18.18,0,0,0-.15.07v0s0,0,.06,0v0a.18.18,0,0,1-.13.06,1,1,0,0,0-.17,0,.53.53,0,0,1-.13,0c-.07,0-.14-.12-.2-.13a1.48,1.48,0,0,0-.21,0,2.67,2.67,0,0,0-.4,0l-.1.05h-.1c-.08,0-.17,0-.3-.07s-.24-.31-.54-.41c-.12-.05-.27.09-.4,0s-.07-.1-.11-.13,0,0,0,0l-.09-.05a.24.24,0,0,0-.06-.08c-.06,0-.09,0-.12.06a.13.13,0,0,0,0,.06.11.11,0,0,1,0,0l-.09,0,0,0a1.42,1.42,0,0,1-.22-.07s0,0,0,0,0-.11,0-.18h-.06c0,.06,0,.11,0,.18a.18.18,0,0,1-.14,0h0a1.09,1.09,0,0,1-.17,0l0,0c-.12,0-.23-.19-.25-.19s-.05.07-.09.09-.12-.19-.29-.07a.92.92,0,0,1-.25-.19v0l.06,0c0-.08.11-.15.12-.21s0-.12,0-.19a1.94,1.94,0,0,1,0-.24s0-.09,0-.13a.23.23,0,0,0-.06-.12h0a.45.45,0,0,0,0,.12c0,.06-.05.11-.05.17s0,0,0,.06,0,.05,0,.08,0,.05,0,.07-.11.09-.18.08-.06,0-.09,0a.5.5,0,0,0-.07-.08s-.07,0-.11,0-.05-.09-.09-.12-.07,0-.1-.05,0-.06-.06-.09l-.07-.07s0,0,0-.06-.12-.12-.18-.15l0,0c0,.06,0,.09,0,.15a.07.07,0,0,0,0,.05c0,.05.08.17,0,.23a.17.17,0,0,1-.14,0c-.08,0-.22.07-.25,0l0-.07c0-.05-.14-.09-.16-.16s0-.1,0-.15,0-.07-.06-.11,0-.13-.06-.27a.06.06,0,0,0-.08,0,.38.38,0,0,0,.07.31v0s-.07.09-.07.12a.62.62,0,0,0,0,.19s0,0,0,.08.1.06.11.12v0a.21.21,0,0,1-.13,0s0-.09-.19-.18,0-.14,0-.17-.18-.1-.21-.41c0,0-.07-.07-.1-.07s0,.1.07.14,0,0,0,.08h0a2,2,0,0,0,.1.29.34.34,0,0,0,0,.1.35.35,0,0,1,0,.11s0,.09,0,.13.08.11.11.18,0,.11.06.16.24.19.22.28-.11.07-.15.05l0,0v0a2.92,2.92,0,0,1-.31-.37l0,0s0,.07-.06.08l0,.05v0c0,.05-.2,0-.25,0s0-.22,0-.34a.74.74,0,0,1-.22-.33l0,0h0c-.07.07.06.29.12.34a.09.09,0,0,1-.12.11c-.08-.05,0-.16-.13-.2a.13.13,0,0,0,0-.06h0v0s-.09-.06-.13,0v.06c-.06.06-.1,0-.16.06v0s.32,0,.16.15,0,.06,0,.1l-.09.08,0,0a.17.17,0,0,1,.12.05v.06a.13.13,0,0,1,0,.12s-.09,0-.13,0-.11.09-.19.09-.09-.13-.19-.14-.11,0-.16.05a.3.3,0,0,1-.23-.13s-.09,0-.11,0l-.11,0a.71.71,0,0,1-.15-.08,1,1,0,0,0-.24-.09c-.09,0-.36-.06-.42-.09s-.08-.08-.13-.12l-.1-.05a.83.83,0,0,1-.3-.29c0-.06-.08-.15-.11-.22a2,2,0,0,0-.13-.34,1.26,1.26,0,0,0-.28,0,.93.93,0,0,1-.38-.3h0a.2.2,0,0,0,.05.18l.24.19a1.67,1.67,0,0,1,.26.06,1.09,1.09,0,0,0,0,.18,1.8,1.8,0,0,0,.23.43l.06.12c.06.09.18.18.22.29a3.18,3.18,0,0,1,.08.33.61.61,0,0,0,0,.19c0,.06.11.13.15.19a.45.45,0,0,1,.06.12c0,.13.2.24.25.35a.33.33,0,0,1,.08.29.11.11,0,0,0-.07,0c-.08,0-.11-.05-.16-.09l-.07,0s0-.12-.1-.15-.19,0-.27,0-.08,0-.13,0a.5.5,0,0,0,.14.15c.14.08.19-.09.32.14,0,0,.06,0,.08.06a.13.13,0,0,1,0,.12c-.06.13-.12.1-.24.12h-.14l-.08,0h-.14a.67.67,0,0,0-.2,0c-.06,0-.1-.12-.16-.16l-.06,0a.53.53,0,0,1-.18,0s-.07,0-.1,0h-.07l-.09,0c-.17,0-.29.13-.46.11l-.11,0-.21,0c-.09,0-.11-.29-.17-.36s-.2-.07-.33-.09a.94.94,0,0,0-.16,0h0a.13.13,0,0,0,0,.06s0,0,.07,0l.1,0c.07,0,.15,0,.22,0s0,.25.17.37l0,0,.19.06.09.06c.1,0,.08,0,.17.07a.53.53,0,0,0,0,.17c0,.05.08.08.1.13s0,.12,0,.18.15.17.14.26.14.26,0,.33-.11,0-.16,0l-.13,0-.36,0h-.06s-.07,0-.11,0-.1,0-.14,0a2,2,0,0,1-.25,0,1.87,1.87,0,0,0-.34,0c-.11,0-.18.11-.28.12s-.11,0-.18,0l-.46.09-.09.05h-.1l-.1,0-.16,0h0l-.48.18c-.14,0-.34-.14-.49-.18a.56.56,0,0,0-.25-.14h0l0,0-.07,0-.25-.05c-.06,0-.09.05-.13.05s-.12-.05-.19-.06a1.23,1.23,0,0,0-.33,0l-.48.14c-.1.06-.2.18-.32.19h-.17a.41.41,0,0,1-.16,0c-.07,0-.2-.08-.21-.16a.34.34,0,0,0,0-.1s0-.06,0-.09,0-.35-.06-.41-.09,0-.12-.06a.41.41,0,0,0-.24-.08h0a2,2,0,0,1-.34.06l-.17,0a.1.1,0,0,0-.07,0c0,.06-.12.14-.17.15s-.07,0-.1,0-.14.07-.12.13l.11,0,.21-.15h.09s0-.06.09-.07.13,0,.25,0l.21-.08a1.34,1.34,0,0,1,.24.12.09.09,0,0,1,0,.1s.11.22.11.33a.86.86,0,0,1,0,.16.72.72,0,0,0,.22.24l.1.07a.53.53,0,0,0,.46,0,.7.7,0,0,1,.17-.13l.2-.09a1.43,1.43,0,0,1,.22-.08s.07,0,.11,0a.43.43,0,0,1,.16,0c.05.06.19,0,.26,0l.2.05s.09.09.13.13a.41.41,0,0,0,.11.07,1.53,1.53,0,0,1,.37.21l.11.08a1.11,1.11,0,0,0,.19,0,1.87,1.87,0,0,1,.22.07H589l.09,0h.13l.07,0a.53.53,0,0,1,.25.07s.09.11.13.15.3.18.42.27l.14.12c.07.06.12.18.19.22a.26.26,0,0,1,.07.11l.09.09a.47.47,0,0,1,0,.1,2.27,2.27,0,0,0,.18.25c.08.1.19.17.24.3h0a1.41,1.41,0,0,1,0,.29c0,.07,0,.15,0,.23s0,.08,0,.13a.45.45,0,0,1,0,.11.65.65,0,0,1,0,.14s0,.07,0,.11a.66.66,0,0,1-.12.17l-.09.1s-.1,0-.14,0a.27.27,0,0,1-.14.08s-.07-.05-.11-.07a.58.58,0,0,0-.35.06v0s-.07.05-.12.05-.13,0-.19,0l-.07.07-.17.08a1.09,1.09,0,0,1-.18,0l-.12.06s-.12,0-.16,0-.06.09-.1.12-.23.13-.34.21-.06.1-.11.14-.1,0-.14,0l-.1.08-.23.13-.14.05a.67.67,0,0,1-.18.11,2.32,2.32,0,0,0-.37.13s0,.06-.06.09-.19.06-.25.11,0,0-.09.06-.12,0-.22,0a.57.57,0,0,0-.13,0,.69.69,0,0,1-.27-.17.47.47,0,0,1-.06-.09l-.24-.17c-.07,0-.15-.06-.23-.11h0c-.08,0-.15,0-.23,0l-.08-.08a.76.76,0,0,1-.47-.11l0,0c-.16,0-.21-.1-.33-.11s-.09.05-.15.07a1.45,1.45,0,0,1-.3,0l-.12,0h0s-.06,0-.1,0a1,1,0,0,1-.17,0,1.46,1.46,0,0,0-.22,0,.59.59,0,0,0-.23,0c-.19.06-.19.15-.45.17s-.4-.13-.61-.13a1.47,1.47,0,0,0-.28.08,2.4,2.4,0,0,0-.28,0,1.25,1.25,0,0,1-.32.08s-.07-.08-.11-.11a.58.58,0,0,1-.18,0c-.18,0-.18,0-.31-.1l-.12-.07s-.08-.09-.14-.12a.79.79,0,0,0-.22-.06c-.05,0-.08,0-.13-.06s-.17.05-.26,0h-.12a.63.63,0,0,0-.19.17s-.32.22-.34.22-.1,0-.15,0a.5.5,0,0,1-.13,0s-.07,0-.11,0-.08,0-.12,0a.27.27,0,0,1-.08-.07s0,0-.06,0a1.25,1.25,0,0,1-.15-.19s-.08,0-.12-.06l-.18-.18"/><path class="cls-4" d="M597.43,488.37c6.34,4.1,11.88,10.81,19.5,12.64-.1-.79-7.58-9-6.27-9.37,9.13-2.63-3.36-6.28-7.13-9.15-7.19-5.48-14.9-11.79-25.24-13.14C578.3,486.46,582.12,484.84,597.43,488.37Z"/></g></svg>