<svg xmlns="http://www.w3.org/2000/svg" width="34" height="34" viewBox="0 0 34 34">
  <title>ic_authorities</title>
  <g>
    <path d="M14.47,19.849c3.194,0,5.782-3.918,5.782-7.656,0-5.183-2.588-6.767-5.782-6.767S8.688,7.01,8.688,12.193c0,3.738,2.589,7.656,5.782,7.656Zm0,0" fill="none" stroke="#000" stroke-miterlimit="10" stroke-width="1.5"/>
    <path d="M26.329,29.251l-1.415-3.677a5.634,5.634,0,0,0-2.548-2.711L19.134,21.18a.3.3,0,0,0-.314.029,7.14,7.14,0,0,1-8.7,0,.3.3,0,0,0-.314-.029l-3.4,1.77A5.1,5.1,0,0,0,4.1,25.4L2.666,29.51m24.572-.476" fill="none" stroke="#000" stroke-linecap="round" stroke-miterlimit="10" stroke-width="1.5"/>
    <path d="M21.005,16.451h0c2.647-.116,4.65-3.457,4.515-6.554-.188-4.3-2.391-5.515-5.038-5.4a6,6,0,0,0-1.759.319m2.282,11.634" fill="none" stroke="#000" stroke-linecap="round" stroke-miterlimit="10" stroke-width="1.5"/>
    <path d="M30.58,24.19l-1.174-3.05a4.677,4.677,0,0,0-2.114-2.25L24.611,17.5a.241.241,0,0,0-.26.024,5.949,5.949,0,0,1-3.609,1.225M31.334,24.01" fill="none" stroke="#000" stroke-linecap="round" stroke-miterlimit="10" stroke-width="1.5"/>
  </g>
</svg>
