<svg xmlns="http://www.w3.org/2000/svg" width="34" height="34" viewBox="0 0 34 34">
  <title>ic_documents</title>
  <g>
    <path d="M12.794,17.8a.785.785,0,0,0,.79.779h9.938a.779.779,0,1,0,0-1.557H13.584A.784.784,0,0,0,12.794,17.8Z"/>
    <path d="M23.522,21.029H13.584a.778.778,0,1,0,0,1.556h9.938a.778.778,0,1,0,0-1.556Z"/>
    <path d="M23.522,25.031H13.584a.779.779,0,1,0,0,1.557h9.938a.779.779,0,1,0,0-1.557Z"/>
    <path d="M17.4,2.941H6.824a.939.939,0,0,0-.939.94V27.562a.939.939,0,0,0,.939.94H7.991" fill="none" stroke="#000" stroke-linecap="round" stroke-miterlimit="10" stroke-width="1.5"/>
    <path d="M20.827,6.916l0,6.029a.888.888,0,0,0,.883.889l6.346.037" fill="none" stroke="#000" stroke-miterlimit="10" stroke-width="1.5"/>
    <path d="M28.058,13.871V30.2a.889.889,0,0,1-.889.888H10.831a.889.889,0,0,1-.889-.888V7.8a.889.889,0,0,1,.889-.888h10Z" fill="none" stroke="#000" stroke-miterlimit="10" stroke-width="1.5"/>
    <line x1="13.748" y1="17.666" x2="23.442" y2="17.666" fill="none" stroke="#000" stroke-linecap="round" stroke-miterlimit="10" stroke-width="1.5"/>
    <line x1="13.748" y1="21.669" x2="23.442" y2="21.669" fill="none" stroke="#000" stroke-linecap="round" stroke-miterlimit="10" stroke-width="1.5"/>
    <line x1="13.748" y1="25.687" x2="23.442" y2="25.687" fill="none" stroke="#000" stroke-linecap="round" stroke-miterlimit="10" stroke-width="1.5"/>
  </g>
</svg>
