<svg xmlns="http://www.w3.org/2000/svg" width="34" height="34" viewBox="0 0 34 34">
  <title>ic_group</title>
  <g>
    <path d="M17.558,20.717c2.906,0,5.262-3.566,5.262-6.968,0-4.718-2.356-6.16-5.262-6.16S12.3,9.031,12.3,13.749c0,3.4,2.356,6.968,5.263,6.968Zm0,0" fill="none" stroke="#000" stroke-miterlimit="10" stroke-width="1.5"/>
    <path d="M28.352,29.274l-1.289-3.346a5.125,5.125,0,0,0-2.319-2.468L21.8,21.929a.266.266,0,0,0-.286.026,6.5,6.5,0,0,1-7.919,0,.266.266,0,0,0-.286-.026l-3.094,1.61a4.64,4.64,0,0,0-2.1,2.231L6.814,29.51m22.365-.433" fill="none" stroke="#000" stroke-linecap="round" stroke-miterlimit="10" stroke-width="1.5"/>
    <path d="M23.506,17.624h0c2.408-.106,4.232-3.147,4.108-5.966-.171-3.909-2.176-5.019-4.584-4.914a5.472,5.472,0,0,0-1.6.291m2.078,10.589" fill="none" stroke="#000" stroke-linecap="round" stroke-miterlimit="10" stroke-width="1.5"/>
    <path d="M32.22,24.667l-1.069-2.776a4.253,4.253,0,0,0-1.923-2.047l-2.44-1.27a.22.22,0,0,0-.237.022,5.414,5.414,0,0,1-3.285,1.115m9.64,4.793" fill="none" stroke="#000" stroke-linecap="round" stroke-miterlimit="10" stroke-width="1.5"/>
    <path d="M13.527,7.035a5.472,5.472,0,0,0-1.6-.291c-2.408-.1-4.413,1-4.584,4.914-.124,2.819,1.7,5.86,4.108,5.966h0m0,0" fill="none" stroke="#000" stroke-linecap="round" stroke-miterlimit="10" stroke-width="1.5"/>
    <path d="M11.689,19.711A5.414,5.414,0,0,1,8.4,18.6a.22.22,0,0,0-.237-.022l-2.439,1.27A4.255,4.255,0,0,0,3.8,21.891L2.735,24.667M2.049,24.5" fill="none" stroke="#000" stroke-linecap="round" stroke-miterlimit="10" stroke-width="1.5"/>
  </g>
</svg>
