<?xml version="1.0" encoding="UTF-8" standalone="no"?>
<svg
   xmlns:dc="http://purl.org/dc/elements/1.1/"
   xmlns:cc="http://creativecommons.org/ns#"
   xmlns:rdf="http://www.w3.org/1999/02/22-rdf-syntax-ns#"
   xmlns:svg="http://www.w3.org/2000/svg"
   xmlns="http://www.w3.org/2000/svg"
   xmlns:sodipodi="http://sodipodi.sourceforge.net/DTD/sodipodi-0.dtd"
   xmlns:inkscape="http://www.inkscape.org/namespaces/inkscape"
   width="34"
   height="34"
   viewBox="0 0 34 34"
   version="1.1"
   id="svg22"
   sodipodi:docname="ic_genre.svg"
   inkscape:version="0.92.3 (2405546, 2018-03-11)">
  <metadata
     id="metadata28">
    <rdf:RDF>
      <cc:Work
         rdf:about="">
        <dc:format>image/svg+xml</dc:format>
        <dc:type
           rdf:resource="http://purl.org/dc/dcmitype/StillImage" />
        <dc:title>ic_subjects</dc:title>
      </cc:Work>
    </rdf:RDF>
  </metadata>
  <defs
     id="defs26" />
  <sodipodi:namedview
     pagecolor="#ffffff"
     bordercolor="#666666"
     borderopacity="1"
     objecttolerance="10"
     gridtolerance="10"
     guidetolerance="10"
     inkscape:pageopacity="0"
     inkscape:pageshadow="2"
     inkscape:window-width="1533"
     inkscape:window-height="926"
     id="namedview24"
     showgrid="false"
     inkscape:zoom="6.9411765"
     inkscape:cx="-0.86440678"
     inkscape:cy="17"
     inkscape:window-x="284"
     inkscape:window-y="125"
     inkscape:window-maximized="0"
     inkscape:current-layer="svg22" />
  <title
     id="title2">ic_subjects</title>
  <g
     id="g20">
    <path
       d="M18.827,4.916l0,6.029a.888.888,0,0,0,.883.889l6.346.037"
       fill="none"
       stroke="#000"
       stroke-miterlimit="10"
       stroke-width="1.5"
       id="path4" />
    <path
       d="M26.058,11.871V28.2a.889.889,0,0,1-.889.888H8.831a.889.889,0,0,1-.889-.888V5.8a.889.889,0,0,1,.889-.888h10Z"
       fill="none"
       stroke="#000"
       stroke-miterlimit="10"
       stroke-width="1.5"
       id="path6" />
    <circle
       cx="13.406"
       cy="15.666"
       r="1.5"
       id="circle8" />
    <circle
       cx="13.406"
       cy="19.669"
       r="1.5"
       id="circle10" />
    <circle
       cx="13.406"
       cy="23.687"
       r="1.5"
       id="circle12" />
    <line
       x1="17.454"
       y1="15.666"
       x2="22.442"
       y2="15.666"
       fill="none"
       stroke="#000"
       stroke-linecap="round"
       stroke-miterlimit="10"
       stroke-width="1.5"
       id="line14" />
    <line
       x1="17.454"
       y1="19.669"
       x2="22.442"
       y2="19.669"
       fill="none"
       stroke="#000"
       stroke-linecap="round"
       stroke-miterlimit="10"
       stroke-width="1.5"
       id="line16" />
    <line
       x1="17.454"
       y1="23.687"
       x2="22.442"
       y2="23.687"
       fill="none"
       stroke="#000"
       stroke-linecap="round"
       stroke-miterlimit="10"
       stroke-width="1.5"
       id="line18" />
  </g>
  <rect
     style="fill:#ffffff;fill-opacity:1;stroke:#000000;stroke-width:1.3;stroke-miterlimit:4;stroke-dasharray:none;stroke-opacity:1;stroke-linejoin:round"
     id="rect4538"
     width="20.457626"
     height="13.830508"
     x="2.5932202"
     y="18.29661" />
  <path
     style="fill:none;fill-rule:evenodd;stroke:#000000;stroke-width:0.97334594;stroke-linecap:round;stroke-linejoin:miter;stroke-miterlimit:4;stroke-dasharray:none;stroke-opacity:1"
     d="m 21.247005,22.85303 c -9.503074,-6.137612 -9.695268,1.210831 -16.9270529,0.08208"
     id="path4586"
     inkscape:connector-curvature="0"
     sodipodi:nodetypes="cc"
     inkscape:transform-center-x="-0.13552584"
     inkscape:transform-center-y="5.095097" />
  <path
     id="path4-3-5"
     stroke-miterlimit="10"
     d="m 16.686008,27.438623 c 0.957109,0 1.732625,-1.296156 1.732625,-2.532764 0,-1.714643 -0.775516,-2.238663 -1.732625,-2.238663 -0.957109,0 -1.732625,0.52402 -1.732625,2.238663 0,1.236608 0.775816,2.532764 1.732625,2.532764 z m 0,0"
     inkscape:connector-curvature="0"
     style="fill:#ffffff;fill-opacity:1;stroke:#000000;stroke-width:1;stroke-miterlimit:10;stroke-dasharray:none" />
  <path
     id="path6-6-3"
     stroke-miterlimit="10"
     d="m 20.239657,30.548999 -0.424016,-1.216428 a 1.6882755,1.8638437 0 0 0 -0.76353,-0.896855 l -0.968496,-0.556771 a 0.08989753,0.0992462 0 0 0 -0.09409,0.0096 2.1395611,2.3620597 0 0 1 -2.607028,0 0.08989753,0.0992462 0 0 0 -0.09409,-0.0096 l -1.018838,0.585553 a 1.5282579,1.6871855 0 0 0 -0.691013,0.81051 l -0.42971,1.359673 m 7.363207,-0.15747"
     inkscape:connector-curvature="0"
     style="fill:#ffffff;fill-opacity:1;stroke:#000000;stroke-width:1;stroke-linecap:round;stroke-miterlimit:10;stroke-dasharray:none" />
</svg>
