<svg xmlns="http://www.w3.org/2000/svg" width="34" height="34" viewBox="0 0 34 34">
  <title>ic_institiutions</title>
  <g>
    <polyline points="2.468 31.26 2.468 6.291 16.901 6.291 16.901 31.26" fill="none" stroke="#141019" stroke-miterlimit="10" stroke-width="1.5"/>
    <polyline points="16.901 31.26 16.901 13.219 31.334 13.219 31.334 31.26" fill="none" stroke="#141019" stroke-miterlimit="10" stroke-width="1.5"/>
    <line x1="7.599" y1="14.038" x2="7.599" y2="11.079" fill="none" stroke="#191302" stroke-linecap="round" stroke-miterlimit="10" stroke-width="1.5"/>
    <line x1="11.599" y1="14.038" x2="11.599" y2="11.079" fill="none" stroke="#191302" stroke-linecap="round" stroke-miterlimit="10" stroke-width="1.5"/>
    <line x1="7.599" y1="20.729" x2="7.599" y2="17.77" fill="none" stroke="#191302" stroke-linecap="round" stroke-miterlimit="10" stroke-width="1.5"/>
    <line x1="11.599" y1="20.729" x2="11.599" y2="17.77" fill="none" stroke="#191302" stroke-linecap="round" stroke-miterlimit="10" stroke-width="1.5"/>
    <line x1="7.599" y1="27.038" x2="7.599" y2="24.079" fill="none" stroke="#191302" stroke-linecap="round" stroke-miterlimit="10" stroke-width="1.5"/>
    <line x1="11.599" y1="27.038" x2="11.599" y2="24.079" fill="none" stroke="#191302" stroke-linecap="round" stroke-miterlimit="10" stroke-width="1.5"/>
    <line x1="22.401" y1="20.728" x2="22.401" y2="17.77" fill="none" stroke="#191302" stroke-linecap="round" stroke-miterlimit="10" stroke-width="1.5"/>
    <line x1="26.401" y1="20.728" x2="26.401" y2="17.77" fill="none" stroke="#191302" stroke-linecap="round" stroke-miterlimit="10" stroke-width="1.5"/>
    <line x1="22.401" y1="27.038" x2="22.401" y2="24.079" fill="none" stroke="#191302" stroke-linecap="round" stroke-miterlimit="10" stroke-width="1.5"/>
    <line x1="26.401" y1="27.038" x2="26.401" y2="24.079" fill="none" stroke="#191302" stroke-linecap="round" stroke-miterlimit="10" stroke-width="1.5"/>
    <polygon points="14.069 6.291 5.328 6.291 5.328 3.74 9.685 2.74 14.069 3.74 14.069 6.291" fill="none" stroke="#191302" stroke-linecap="round" stroke-miterlimit="10" stroke-width="1.5"/>
    <polygon points="28.991 13.219 20.25 13.219 20.25 10.667 24.607 9.667 28.991 10.667 28.991 13.219" fill="none" stroke="#191302" stroke-linecap="round" stroke-miterlimit="10" stroke-width="1.5"/>
  </g>
</svg>
