<svg xmlns="http://www.w3.org/2000/svg" width="34" height="34" viewBox="0 0 34 34">
  <title>ic_language_de</title>
  <g>
    <path d="M31.708,16c0-6.755-5.395-11.376-13.891-11.376-7.811,0-14.166,5.15-14.166,11.481,0,3.572,2.262,6.722,6.517,9.144a12.21,12.21,0,0,1-1.731,5.433.7.7,0,0,0-.037.7.609.609,0,0,0,.539.343h.033A7.421,7.421,0,0,0,14.921,27.6h.187a53.121,53.121,0,0,0,5.543-.042C27.867,26.544,31.708,21.691,31.708,16Z" fill="none" stroke="#000" stroke-miterlimit="10" stroke-width="1.5"/>
    <g>
      <path d="M18.05,16.192a4.269,4.269,0,0,1-1.177,3.243,4.734,4.734,0,0,1-3.393,1.122h-2.4V11.991h2.649a4.385,4.385,0,0,1,3.182,1.1A4.121,4.121,0,0,1,18.05,16.192Zm-1.476.047q0-3.076-2.877-3.076H12.484v6.216h1Q16.573,19.379,16.574,16.239Z"/>
      <path d="M24.736,20.557H19.89V11.991h4.846v1.183H21.29v2.332h3.229v1.172H21.29v2.69h3.446Z"/>
    </g>
  </g>
</svg>
