<svg xmlns="http://www.w3.org/2000/svg" width="34" height="34" viewBox="0 0 34 34">
  <title>ic_language_en</title>
  <g>
    <path d="M31.708,16c0-6.755-5.395-11.376-13.891-11.376-7.811,0-14.166,5.15-14.166,11.481,0,3.572,2.262,6.722,6.517,9.144a12.21,12.21,0,0,1-1.731,5.433.7.7,0,0,0-.037.7.609.609,0,0,0,.539.343h.033A7.421,7.421,0,0,0,14.921,27.6h.187a53.121,53.121,0,0,0,5.543-.042C27.867,26.544,31.708,21.691,31.708,16Z" fill="none" stroke="#000" stroke-miterlimit="10" stroke-width="1.5"/>
    <g>
      <path d="M15.929,20.557H11.084V11.991h4.845v1.183H12.484v2.332h3.228v1.172H12.484v2.69h3.445Z"/>
      <path d="M24.917,20.557H23.2l-4.213-6.826h-.047l.029.381q.082,1.089.082,1.992v4.453H17.781V11.991h1.7l4.2,6.791h.035q-.011-.135-.047-.982t-.035-1.321V11.991h1.283Z"/>
    </g>
  </g>
</svg>
