<svg xmlns="http://www.w3.org/2000/svg" width="34" height="34" viewBox="0 0 34 34">
  <title>ic_language_fr</title>
  <g>
    <path d="M31.708,16c0-6.755-5.395-11.376-13.891-11.376-7.811,0-14.166,5.15-14.166,11.481,0,3.572,2.262,6.722,6.517,9.144a12.21,12.21,0,0,1-1.731,5.433.7.7,0,0,0-.037.7.609.609,0,0,0,.539.343h.033A7.421,7.421,0,0,0,14.921,27.6h.187a53.121,53.121,0,0,0,5.543-.042C27.867,26.544,31.708,21.691,31.708,16Z" fill="none" stroke="#000" stroke-miterlimit="10" stroke-width="1.5"/>
    <g>
      <path d="M13.472,20.557H12.084V11.991h4.834v1.183H13.472v2.678H16.7v1.189H13.472Z"/>
      <path d="M19.871,17.135v3.422h-1.4V11.991h2.42a3.975,3.975,0,0,1,2.455.621,2.228,2.228,0,0,1,.8,1.875,2.343,2.343,0,0,1-1.664,2.279l2.42,3.791H23.3l-2.05-3.422Zm0-1.16h.972a2.221,2.221,0,0,0,1.418-.363,1.318,1.318,0,0,0,.44-1.078,1.159,1.159,0,0,0-.475-1.043,2.6,2.6,0,0,0-1.429-.317h-.926Z"/>
    </g>
  </g>
</svg>
