<svg xmlns="http://www.w3.org/2000/svg" width="34" height="34" viewBox="0 0 34 34">
  <title>ic_participation</title>
  <g>
    <g>
      <path d="M19.977,17.923c3.345,0,6.056-4.1,6.056-8.019,0-5.429-2.711-7.088-6.056-7.088S13.92,4.475,13.92,9.9c0,3.915,2.712,8.019,6.057,8.019Zm0,0" fill="none" stroke="#000" stroke-miterlimit="10" stroke-width="1.5"/>
      <path d="M24.533,19.348a7.482,7.482,0,0,1-9.112,0,.307.307,0,0,0-.33-.03l-3.56,1.853a5.332,5.332,0,0,0-2.412,2.567L7.613,31.184H32.234v-4.6l-6.827-2.095" fill="none" stroke="#000" stroke-linecap="round" stroke-miterlimit="10" stroke-width="1.5"/>
      <polyline points="26.304 28.229 23.734 24.301 27.766 21.664" fill="none" stroke="#000" stroke-linecap="round" stroke-miterlimit="10" stroke-width="1.5"/>
    </g>
    <path d="M14.376,3.785a6.031,6.031,0,0,0-1.759-.32c-2.646-.115-4.849,1.1-5.037,5.4-.136,3.1,1.868,6.439,4.514,6.555h0m0,0" fill="none" stroke="#000" stroke-linecap="round" stroke-miterlimit="10" stroke-width="1.5"/>
    <path d="M12.357,17.712a5.947,5.947,0,0,1-3.608-1.226.245.245,0,0,0-.261-.023l-2.68,1.395a4.674,4.674,0,0,0-2.114,2.249l-1.175,3.05m-.753-.18" fill="none" stroke="#000" stroke-linecap="round" stroke-miterlimit="10" stroke-width="1.5"/>
  </g>
</svg>
