<?xml version="1.0" encoding="UTF-8" standalone="no"?>
<svg
   xmlns:dc="http://purl.org/dc/elements/1.1/"
   xmlns:cc="http://creativecommons.org/ns#"
   xmlns:rdf="http://www.w3.org/1999/02/22-rdf-syntax-ns#"
   xmlns:svg="http://www.w3.org/2000/svg"
   xmlns="http://www.w3.org/2000/svg"
   xmlns:sodipodi="http://sodipodi.sourceforge.net/DTD/sodipodi-0.dtd"
   xmlns:inkscape="http://www.inkscape.org/namespaces/inkscape"
   width="34"
   height="34"
   viewBox="0 0 34 34"
   version="1.1"
   id="svg10"
   sodipodi:docname="ic_places_blau.svg"
   inkscape:version="0.92.3 (2405546, 2018-03-11)">
  <metadata
     id="metadata16">
    <rdf:RDF>
      <cc:Work
         rdf:about="">
        <dc:format>image/svg+xml</dc:format>
        <dc:type
           rdf:resource="http://purl.org/dc/dcmitype/StillImage" />
        <dc:title>ic_places</dc:title>
      </cc:Work>
    </rdf:RDF>
  </metadata>
  <defs
     id="defs14" />
  <sodipodi:namedview
     pagecolor="#ffffff"
     bordercolor="#666666"
     borderopacity="1"
     objecttolerance="10"
     gridtolerance="10"
     guidetolerance="10"
     inkscape:pageopacity="0"
     inkscape:pageshadow="2"
     inkscape:window-width="1920"
     inkscape:window-height="1029"
     id="namedview12"
     showgrid="false"
     inkscape:zoom="6.9411765"
     inkscape:cx="-12.029661"
     inkscape:cy="17"
     inkscape:window-x="0"
     inkscape:window-y="27"
     inkscape:window-maximized="1"
     inkscape:current-layer="svg10" />
  <title
     id="title2">ic_places</title>
  <path
     inkscape:connector-curvature="0"
     style="stroke:none;stroke-opacity:1;fill:#02427f;fill-opacity:1"
     id="path4"
     d="m 17.607,17.248 a 5.1,5.1 0 1 1 5.1,-5.1 5.106,5.106 0 0 1 -5.1,5.1 z m 0,-8.5 a 3.4,3.4 0 1 0 3.4,3.4 3.4,3.4 0 0 0 -3.4,-3.401 z" />
  <path
     inkscape:connector-curvature="0"
     style="stroke:none;stroke-opacity:1;stroke-width:0.4;stroke-miterlimit:4;stroke-dasharray:none;fill:#02427f;fill-opacity:1"
     id="path6"
     d="M 17.607,31 A 0.849,0.849 0 0 1 17.055,30.8 C 16.661,30.463 7.405,20.648 7.405,12.115 a 10.2,10.2 0 0 1 20.4,0 c 0,8.533 -9.256,18.348 -9.65,18.685 A 0.849,0.849 0 0 1 17.607,31 Z m 0,-27.39 a 8.511,8.511 0 0 0 -8.5,8.5 c 0,6.614 6.535,15.047 8.5,16.89 1.966,-1.843 8.5,-10.276 8.5,-16.89 a 8.511,8.511 0 0 0 -8.5,-8.5 z" />
  <path
     style="fill:#02427f;fill-rule:evenodd;stroke:#02427f;stroke-width:1px;stroke-linecap:butt;stroke-linejoin:miter;stroke-opacity:1;fill-opacity:1"
     d="m 21.898305,24.92373 c 0,0 6.262607,-5.899197 5.18644,-12.822035 C 24.434552,-4.9466459 1.1801,4.9553569 10.228814,19.737288 L 17.607,29 Z"
     id="path816"
     inkscape:connector-curvature="0"
     sodipodi:nodetypes="csccc" />
  <path
     style="fill:#ffffff;fill-opacity:1;stroke:#ffffff;stroke-width:0.32204613;stroke-miterlimit:4;stroke-dasharray:none;stroke-opacity:1"
     id="path820"
     sodipodi:type="arc"
     sodipodi:cx="17.792362"
     sodipodi:cy="12.317791"
     sodipodi:rx="3.8564949"
     sodipodi:ry="3.8567007"
     sodipodi:start="2.5088435"
     sodipodi:end="2.4721367"
     d="m 14.682466,14.598505 a 3.8564949,3.8567007 0 0 1 0.800862,-5.3697159 3.8564949,3.8567007 0 0 1 5.376552,0.7515954 3.8564949,3.8567007 0 0 1 -0.702185,5.3835095 3.8564949,3.8567007 0 0 1 -5.389439,-0.652791 l 3.024106,-2.393312 z" />
</svg>
